<svg width="126" height="38" viewBox="0 0 126 38" fill="none" xmlns="http://www.w3.org/2000/svg">
<g clip-path="url(#clip0_117_195)">
<path d="M6.18318 31.8282C5.76751 31.9302 5.35184 32.0322 4.88421 32.0832C4.67637 32.0832 4.46854 32.0832 4.31266 32.0832C3.53328 32.0832 2.96174 31.6242 2.90978 30.8591C2.90978 30.7571 2.90978 30.604 2.90978 30.502C2.90978 29.8389 3.27349 29.5839 3.79308 29.5329C3.94895 29.5329 4.10483 29.5329 4.20875 29.5329C4.78029 29.5329 5.24792 29.7879 5.81947 29.8389C7.1704 29.6349 7.94978 29.2779 8.62524 29.0228C11.7428 27.7477 16.471 24.7893 16.0553 21.2698C15.6916 18.4134 12.9378 18.1584 10.5997 18.4644C8.93699 18.6685 7.32627 19.1275 5.76751 19.6376C5.61163 19.6886 5.50771 19.6886 5.4038 19.7396C4.88421 19.7906 4.31266 19.3826 4.2607 18.9235C4.20875 18.3624 4.36462 17.9034 4.88421 17.6483C5.45576 17.3423 6.0273 17.0363 6.59885 16.7302C8.26153 15.7611 12.0026 13.3638 11.7428 11.1705C11.6908 10.6604 11.3271 10.1503 10.9114 9.7933C10.0281 9.07921 8.72916 9.07921 7.68998 9.18122C5.61163 9.43625 3.68916 10.2014 1.81864 11.0685C1.71473 11.0685 1.66277 11.1195 1.55885 11.1195C0.987303 11.1705 0.207921 10.7624 0.104004 10.1503C0.104004 9.7933 0.25988 9.43625 0.519674 9.18122C0.727509 9.13021 0.987303 9.0282 1.19514 8.92619C3.48132 8.05907 5.35184 7.54901 7.7939 7.24297C10.236 6.98793 13.5094 7.85505 13.8211 10.6604C14.1329 13.2618 11.7428 15.047 10.0281 16.6282H10.4438C13.8731 16.1691 17.8739 16.9852 18.3935 20.9638C19.069 26.4215 11.0153 30.553 6.33906 31.7772L6.18318 31.8282Z" fill="#1D1D1B"/>
<path d="M30.24 28.1047C30.24 28.1047 29.9802 28.2577 29.8243 28.3087C29.5645 28.3087 29.2528 28.3087 29.045 28.1047C28.7852 27.9007 28.6293 27.3396 28.6293 27.3396C28.6293 27.3396 26.2911 29.4309 24.0569 29.6859C23.2775 29.7879 22.4981 29.6859 21.8227 29.1248C21.2511 28.6658 20.9394 28.0027 20.8355 27.2376C20.5757 24.9423 22.1864 21.7799 24.5765 21.1678C24.7324 21.1168 24.9402 21.0658 25.0961 21.0658C27.0705 20.8617 28.2136 22.494 28.941 24.0242C28.941 24.0242 29.3567 22.647 29.1489 20.7087C28.993 19.3825 28.5254 17.8013 27.4342 16.2711C26.7068 15.251 25.7196 14.996 24.8363 15.098C23.3814 15.251 22.0825 16.3732 22.0825 16.8832C22.0825 17.0362 21.9786 17.0872 21.8227 17.0872C21.407 17.0872 20.7835 16.9342 20.6796 16.3221C20.5237 15.098 22.7579 13.6188 24.8363 13.4148C25.6157 13.3127 26.2911 13.4148 26.9146 13.6698C29.6165 14.894 30.6557 17.6483 30.9674 20.4537C31.4351 24.2282 30.4998 28.0537 30.3439 28.1557L30.24 28.1047ZM25.4078 22.8H25.252C22.9658 23.4631 22.3423 25.6054 22.4981 26.8805C22.5501 27.3906 22.7579 27.7987 22.9658 27.8497C23.2256 27.9517 23.5373 28.0027 23.8491 27.9517C25.6157 27.7476 27.7979 25.5034 27.7979 25.5034C27.7979 25.5034 26.5509 22.647 25.3559 22.749L25.4078 22.8Z" fill="#1D1D1B"/>
<path d="M61.623 0.20405C62.5063 0.510091 62.7141 1.88727 63.0259 4.48861C63.1298 5.25372 63.1298 6.12083 63.1817 7.03895C63.3896 9.48727 63.6494 12.4967 64.169 16.6282C64.3248 17.8524 65.2601 20.4027 65.4679 22.392V22.698C65.6238 23.8712 65.4679 24.7383 64.7925 24.8913H64.5846C63.5455 25.0443 63.1817 24.6363 63.1298 23.9732V23.8202C63.1298 23.2081 63.1298 22.494 63.0259 21.7799V21.3718C61.7269 13.3128 61.2073 9.74231 60.9475 7.49801C60.7916 6.22284 60.6877 5.45774 60.6358 4.64163L60.5318 3.67251C60.2201 4.84566 59.8564 6.6819 58.6094 9.79331C56.1673 15.8121 52.0626 27.0336 51.8028 27.2886C51.5949 27.5436 51.0753 27.7477 50.5558 27.8497C50.244 27.8497 49.8283 27.8497 49.6205 27.7477C49.2048 27.5436 48.7372 27.0846 48.6333 26.1155C48.6333 25.7584 48.6333 25.2994 48.7372 24.7893L48.4774 22.749C48.0617 19.2296 47.698 14.0779 47.4382 10.7114C47.3343 9.18123 47.2304 7.90606 47.2304 7.14096V6.22284L47.1265 5.81479C47.0226 4.94767 46.8667 4.13157 46.7628 3.41747V3.11143C46.6589 2.14231 46.8147 1.42821 47.8539 1.22418C48.6333 1.12217 49.1009 1.98929 49.3088 3.26445C49.3607 3.51949 49.4127 3.87653 49.4646 4.23358V4.64163C49.6205 5.96781 49.5685 7.396 49.4646 8.26311C49.3607 9.28325 49.4127 10.7624 49.6205 12.4967C49.8283 14.1799 49.8803 15.9651 50.0881 17.8014V18.3114C50.296 19.0255 50.3479 19.6376 50.3999 20.1477C50.5038 21.2188 50.6077 22.0349 50.7116 22.851C50.7116 23.2081 50.8156 23.5141 50.8675 23.8712C50.8675 23.9222 50.9195 24.0242 50.9714 24.1262C50.9714 24.1262 55.336 13.4658 57.3624 7.90606C58.2457 5.30472 58.8172 2.65237 58.8172 2.44835C58.8172 1.78526 59.3888 0.102037 60.4799 2.35122e-05C60.9995 -0.0509832 61.3112 2.35047e-05 61.5191 0.153044H61.6749L61.623 0.20405Z" fill="#1D1D1B"/>
<path d="M67.6504 20.9638C67.6504 20.9638 67.6504 20.8107 67.6504 20.7597C67.6504 19.9436 67.2867 14.996 67.0788 13.1087V12.5476L66.819 12.1906C66.7151 11.9356 66.5073 11.6805 66.4553 11.2725C66.4553 10.9664 66.5592 10.6094 66.819 10.4054C67.1308 10.1503 67.3906 9.99731 67.7023 9.99731C67.9621 9.99731 68.0141 9.99731 68.2219 9.99731C69.1052 9.53825 73.9893 7.03892 74.7168 6.78389C75.2883 6.47785 76.4834 5.91677 77.3667 5.81476C77.5745 5.81476 77.8343 5.81476 77.9902 5.81476C78.4578 5.91677 78.8735 6.27382 78.9254 6.73288C79.0293 7.44697 78.4058 8.05905 77.6784 8.16107C77.5745 8.16107 77.4186 8.16107 77.3147 8.16107C77.1069 8.16107 76.6912 7.95704 76.4834 7.90603C75.8599 8.00805 74.7168 8.51811 72.2747 9.9463C71.8071 10.2523 70.4042 11.0174 69.4689 11.4765L68.8974 11.7825L69.0013 13.1087C69.1052 14.0268 69.1572 15.557 69.2091 16.5772L69.365 19.6886C69.365 19.9946 69.365 20.3517 69.365 20.6067C69.365 20.8617 69.417 21.1168 69.5209 21.4738C69.5209 21.6778 69.6248 21.9839 69.6768 22.2899C69.7287 22.851 69.6768 23.2591 69.6248 23.6161C69.365 24.0242 69.2611 24.2792 68.8454 24.3302C68.4298 24.3812 67.9621 24.1772 67.7543 23.7181C67.5984 23.4121 67.5465 22.698 67.4945 22.3919C67.4425 21.9329 67.4945 21.3718 67.4945 21.0658L67.6504 20.9638Z" fill="#1D1D1B"/>
<path d="M82.3026 22.1879C82.3026 22.1879 82.1467 22.1879 82.0947 22.2389C81.5751 22.2899 80.8997 21.8309 80.7438 21.4738C80.7438 21.4738 80.6399 24.6873 81.2114 29.5329L81.4712 31.8792C81.783 34.4295 82.0947 36.0107 82.1467 36.1638C82.3026 36.4188 82.4065 36.6228 82.4065 36.8269C82.4584 37.4389 82.1467 37.898 81.679 37.949C81.6271 37.949 81.5232 37.949 81.4712 37.949C80.7438 37.847 80.3281 37.2349 80.2242 36.6228C80.2242 36.3678 80.2242 36.1638 80.2762 35.9597C80.2762 35.9597 80.2762 35.8067 80.2762 35.6027C80.1722 34.8376 79.7046 32.8483 79.3409 29.6349C79.237 28.7168 79.1331 27.6967 79.0292 26.5235C78.4576 19.1275 78.6135 16.5262 78.7174 9.99732C78.7174 9.99732 77.7821 9.8443 77.6782 9.02819V8.87517C77.7821 7.90605 79.4968 7.24296 80.0683 7.14095C82.6143 6.88591 87.3945 8.62014 88.2778 12.7007V12.9047C88.6935 15.9651 82.7702 21.9329 82.1986 22.0859L82.3026 22.1879ZM81.1595 9.0792C81.1595 9.0792 80.8997 11.9356 80.8477 14.0269C80.7958 16.1691 80.7438 20.6577 80.7438 20.6577C80.7438 20.6577 86.0436 17.3423 86.4073 13.3128C86.4073 13.2107 86.4073 13.1087 86.4073 12.9557C86.1995 11.2215 83.2378 8.97719 81.1595 9.0792Z" fill="#1D1D1B"/>
<path d="M99.449 20.0966C99.449 20.0966 99.1892 20.2497 99.0333 20.3007C98.7735 20.3007 98.4618 20.3007 98.2539 20.0966C97.9941 19.8926 97.8383 19.3315 97.8383 19.3315C97.8383 19.3315 95.5001 21.4228 93.2659 21.6778C92.4865 21.7799 91.7071 21.6778 91.0317 21.1168C90.4601 20.6577 90.1484 19.9946 90.0445 19.2295C89.7847 16.9342 91.3954 13.7718 93.7855 13.1597C93.9414 13.1087 94.1492 13.0577 94.3051 13.0577C96.2795 12.8537 97.4226 14.4859 98.15 16.0161C98.15 16.0161 98.5657 14.6389 98.3579 12.7007C98.202 11.3745 97.7344 9.79328 96.6432 8.26308C95.9158 7.24295 94.9286 6.98791 94.0453 7.08993C92.5904 7.24295 91.2915 8.3651 91.2915 8.87516C91.2915 9.02818 91.1875 9.07919 91.0317 9.07919C90.616 9.07919 89.9925 8.92617 89.8886 8.31409C89.7327 7.08993 91.9669 5.61073 94.0453 5.40671C94.8247 5.30469 95.5001 5.40671 96.1236 5.66174C98.7735 6.8859 99.8647 9.64026 100.176 12.4456C100.644 16.2201 99.7088 20.0456 99.5529 20.1476L99.449 20.0966ZM94.6168 14.7919H94.461C92.1748 15.455 91.5513 17.5973 91.7071 18.8725C91.7591 19.3825 91.9669 19.7906 92.1748 19.8416C92.4346 19.9436 92.7463 19.9946 93.0581 19.9436C94.8247 19.7396 97.0069 17.4953 97.0069 17.4953C97.0069 17.4953 95.7599 14.6389 94.5649 14.7409L94.6168 14.7919Z" fill="#1D1D1B"/>
<path d="M113.062 2.39732L113.894 2.29531C114.829 2.19329 116.024 2.14229 116.284 3.06041C116.336 3.62148 115.972 3.72349 115.504 3.7745C115.089 3.7745 114.569 3.7745 114.257 3.7745C112.023 4.02953 109.581 4.79463 108.334 5.25369C108.334 5.71276 108.282 11.4765 108.854 16.2201C108.906 16.8322 109.01 17.4443 109.113 17.9544C109.113 18.1074 109.373 18.5664 109.425 19.0255C109.477 19.4846 109.321 19.8926 108.646 19.9946H108.49C107.399 20.0456 107.035 18.7705 106.983 18.2094C106.775 16.6282 106.516 14.4349 106.464 10.7624C106.464 8.21208 106.464 7.49799 106.464 5.91678C106.464 5.91678 104.749 6.52886 103.502 7.29396C102.93 7.65101 101.839 8.87517 101.164 8.97718C100.54 8.92618 99.9687 8.56913 99.9167 8.05906C99.9167 8.00806 99.9167 7.90604 99.9167 7.85504C100.021 7.29396 100.073 6.98792 101.943 6.0188C103.918 4.99866 105.892 4.02953 108.386 3.31544C108.386 3.31544 110.412 2.70336 113.01 2.39732H113.062Z" fill="#1D1D1B"/>
<path d="M125.273 17.1383C125.273 17.1383 125.013 17.2913 124.857 17.3423C124.597 17.3423 124.285 17.3423 124.078 17.1383C123.818 16.9342 123.662 16.3732 123.662 16.3732C123.662 16.3732 121.324 18.4644 119.09 18.7195C118.31 18.8215 117.531 18.7195 116.855 18.1584C116.284 17.6993 115.972 17.0363 115.868 16.2712C115.608 13.9759 117.219 10.8134 119.609 10.2014C119.765 10.1503 119.973 10.0993 120.129 10.0993C122.103 9.89531 123.246 11.5275 123.974 13.0577C123.974 13.0577 124.389 11.6805 124.182 9.74229C124.026 8.41612 123.558 6.83491 122.467 5.30471C121.74 4.28457 120.752 4.02954 119.869 4.13155C118.414 4.28457 117.115 5.40672 117.115 5.91679C117.115 6.06981 117.011 6.12082 116.855 6.12082C116.44 6.12082 115.816 5.9678 115.712 5.35572C115.556 4.13155 117.791 2.65236 119.869 2.44833C120.648 2.34632 121.324 2.44833 121.947 2.70337C124.649 3.92753 125.688 6.68189 126 9.48726C126.468 13.2618 125.533 17.0873 125.377 17.1893L125.273 17.1383ZM120.389 11.7826H120.233C117.947 12.4456 117.323 14.5879 117.479 15.8631C117.531 16.3732 117.739 16.7812 117.947 16.8322C118.206 16.9342 118.518 16.9852 118.83 16.9342C120.596 16.7302 122.779 14.4859 122.779 14.4859C122.779 14.4859 121.532 11.6295 120.337 11.7316L120.389 11.7826Z" fill="#1D1D1B"/>
</g>
<defs>
<clipPath id="clip0_117_195">
<rect width="126" height="38" fill="white"/>
</clipPath>
</defs>
</svg>
