<svg width="19" height="19" viewBox="0 0 19 19" fill="none" xmlns="http://www.w3.org/2000/svg">
<path d="M18.8712 1.61934C15.9614 6.45785 12.0847 13.4184 9.75342 17.7615C9.36487 18.4798 8.59643 18.9422 7.75027 18.967C7.11133 18.9835 6.4724 19 5.8421 19C5.35858 19 4.9096 18.7523 4.65057 18.356C3.03596 15.8376 1.64585 13.7486 0.143488 11.1973C-0.17598 10.6441 0.057145 9.9505 0.652909 9.67802C1.11916 9.4716 1.60268 9.28169 2.1121 9.11656C3.08777 8.79454 4.16705 9.18261 4.67647 10.0413C5.46219 11.3542 6.22201 12.6918 6.96455 14.0294C8.95043 10.6358 12.4559 4.42667 14.649 1.15695C15.2103 0.314756 16.2464 -0.131114 17.2739 0.0340233C17.6106 0.0835644 17.9473 0.149619 18.2668 0.232188C18.8885 0.389068 19.1907 1.07439 18.8712 1.61108V1.61934Z" fill="#FAFAFA"/>
</svg>
