<svg width="220" height="62" viewBox="0 0 220 62" fill="none" xmlns="http://www.w3.org/2000/svg">
<g clip-path="url(#clip0_117_730)">
<path d="M31.1844 52.4872H30.9636C29.7493 52.6531 29.4182 52.1553 29.363 51.3257C29.3078 50.662 29.363 49.8877 29.3078 49.1134C29.3078 48.9475 29.2526 48.8369 29.1974 48.6709C25.3339 33.1295 25.0027 32.4105 24.6716 29.4792C24.6716 29.4792 16.6134 49.8324 16.6134 50.662C16.6686 51.6023 15.8959 52.4319 15.0128 52.5425C14.2401 52.6531 13.4122 52.1553 12.9154 50.662C12.5291 49.4453 9.82461 42.4212 6.84418 37.1669C6.12667 35.7842 4.2501 31.9127 3.64298 30.8618C3.64298 30.8618 2.6495 50.6067 2.92546 52.6531C2.92546 52.6531 2.92546 52.7084 2.92546 52.7637C3.03585 53.704 2.59431 55.0313 1.54563 55.142C1.43525 55.142 1.32486 55.142 1.15928 55.142C0.386578 54.976 0.055419 54.5889 0.000225834 54.0911C-0.0549673 53.4274 0.276192 52.5978 0.552158 52.0447C0.993703 51.2704 1.15928 34.6781 1.43525 33.2401C1.60083 32.1339 1.54563 31.249 1.43525 30.5853V30.1982C1.32486 29.5345 1.26967 29.092 1.54563 28.7602C2.09757 28.2071 2.75988 26.6585 3.36701 26.6032H3.4774C4.08452 26.7691 6.56821 32.2445 9.8798 38.6602C11.8668 42.4765 13.6329 46.5139 14.6816 49.1687C14.6816 49.1687 22.519 28.7602 23.2366 27.2668C23.6781 26.4372 23.6781 25.6629 24.8372 25.497H25.0579C27.4864 25.3864 26.217 30.1428 30.0253 43.1955C30.4117 44.5229 31.5707 47.786 31.8467 50.0536C32.0123 51.3257 31.8467 52.266 31.1292 52.3766L31.1844 52.4872Z" fill="#B12A25"/>
<path d="M43.989 38.6049C44.0441 39.1027 44.2097 40.9278 44.4305 42.6977C44.8169 46.0161 45.2584 47.4541 45.5344 47.8966C45.6447 48.0625 45.9207 48.4497 45.9759 48.7262C45.9759 49.1134 45.9207 49.4452 45.2584 49.7217C45.148 49.7217 44.9824 49.7771 44.8168 49.8324C43.6578 49.943 43.4922 48.5603 43.437 48.3944C43.3266 48.0625 42.6091 45.4077 42.3332 42.9189L41.8916 39.2133C41.8916 39.2133 38.9664 40.1535 38.3041 40.3194C37.6969 40.4854 36.4827 40.8725 35.3236 41.315V45.9055C35.3236 47.067 35.434 47.9519 35.5444 48.7815C35.5996 49.4452 35.6548 49.8324 35.5444 50.0536C35.2684 50.4961 35.0477 50.662 34.8269 50.662C34.5509 50.662 34.1094 50.6067 33.8334 50.4407C33.6126 50.2748 33.5022 49.8877 33.4471 49.5005C33.3367 48.4497 33.2815 46.2927 33.3367 44.7994V41.9234C33.0055 41.8127 32.6192 41.2044 32.564 40.8172C32.564 40.3194 32.7847 39.9323 33.2815 39.6557C33.2815 39.0474 33.1159 37.6647 33.0055 36.4479C33.0055 36.1713 32.8951 35.8948 32.8951 35.6183L32.7295 34.844C32.6192 34.5674 32.564 34.2356 32.564 34.2356C32.564 34.0143 32.564 33.7931 32.7295 33.5719C32.8951 33.2953 33.2815 33.1294 33.723 33.0741C33.999 33.0741 34.3301 33.0741 34.7165 33.406C34.8269 33.5719 35.1029 34.844 35.2132 35.6736V35.9501L35.2684 37.6093C35.2684 38.1624 35.2684 38.3837 35.2684 38.992C35.2684 38.992 36.4275 38.6602 38.4144 38.1071C39.5183 37.8306 40.4566 37.4434 41.6156 37.001C41.5053 36.1713 41.2293 33.5166 41.4501 33.1847C41.6708 32.6317 42.1124 32.2998 42.4987 32.2998C42.7195 32.2998 42.9955 32.2998 43.3266 32.5763C43.4922 32.7976 43.5474 32.9635 43.5474 33.2953C43.5474 33.6272 43.5474 34.0697 43.6026 34.5121C43.6026 35.1205 43.6026 35.7842 43.6578 36.4479C44.3753 36.2267 46.4175 35.6736 47.4109 35.563C47.6317 35.563 47.8525 35.563 47.9077 35.563C48.3492 35.8395 48.6804 36.1713 48.7356 36.5585C48.7356 36.835 48.7356 37.1669 48.4596 37.3881C48.2388 37.6647 47.9077 37.7753 47.6869 37.8306C47.3557 37.8306 47.0246 37.8306 46.859 37.7753C46.8038 37.7753 46.6934 37.7753 46.6382 37.7753C46.2519 37.7753 45.5896 38.0518 44.872 38.3283L43.8786 38.6602L43.989 38.6049Z" fill="#B12A25"/>
<path d="M65.2383 36.4478C65.6798 40.264 58.6703 47.5093 54.0341 48.0071H53.8685C52.9854 48.1177 52.2679 48.1177 51.6056 47.8412C49.6738 47.2328 48.7907 45.6289 48.57 43.6931C48.0732 39.3791 51.1088 33.0187 54.3652 31.3042C54.7516 31.0829 55.1931 30.917 55.5795 30.917C57.0697 30.7511 58.1736 31.4148 58.1736 31.4148C62.3683 31.7466 64.9071 33.2399 65.2935 36.2819V36.5031L65.2383 36.4478ZM56.5178 33.5718H56.2418C56.2418 33.5718 56.021 33.793 55.9107 33.8483C55.6899 34.1249 55.3035 34.512 54.6964 34.5673C54.1997 34.6226 54.0341 34.3461 53.8133 34.1802C51.4952 36.7796 50.2258 40.7065 50.5017 43.3059C50.6121 44.4674 50.9985 45.3523 51.8264 45.6842C52.4887 45.9054 53.0406 45.9607 53.7581 45.9054C58.0632 45.4076 63.3617 39.3791 63.141 36.7796V36.5584C62.6994 32.9634 57.732 33.3506 56.4626 33.4612L56.5178 33.5718Z" fill="#B12A25"/>
<path d="M66.1215 43.2506C66.1215 43.2506 66.1215 43.0847 66.1215 43.0294C66.1215 42.1445 65.7351 36.7796 65.5144 34.7332V34.1248L65.2384 33.7377C65.128 33.4612 64.9072 33.1846 64.8521 32.7421C64.8521 32.4103 64.9624 32.0231 65.2384 31.8019C65.5696 31.5254 65.8455 31.3595 66.1767 31.3595C66.4527 31.3595 66.5078 31.3595 66.7286 31.3595C67.6669 30.8617 72.8551 28.1516 73.6278 27.8751C74.2349 27.5432 75.5043 26.9348 76.4426 26.8242C76.6634 26.8242 76.8842 26.8242 77.1049 26.8242C77.6017 26.9348 78.0432 27.322 78.0984 27.8198C78.2088 28.5941 77.5465 29.2578 76.7738 29.3684C76.6634 29.3684 76.4978 29.3684 76.3874 29.3684C76.1667 29.3684 75.7251 29.1471 75.5043 29.0918C74.842 29.2025 73.6278 29.7555 71.0337 31.3041C70.5369 31.636 69.0467 32.4656 68.0533 32.9634L67.4461 33.2952L67.5565 34.7332C67.6669 35.7288 67.7773 37.388 67.7773 38.4942L67.9429 41.8679C67.9429 42.1998 67.9429 42.5869 67.9429 42.8635C67.9429 43.14 67.9981 43.4165 68.1084 43.8037C68.1084 44.0249 68.2188 44.3568 68.274 44.6886C68.3292 45.297 68.274 45.7395 68.2188 46.1266C67.9429 46.5691 67.8325 46.8456 67.3909 46.9009C66.9494 46.9009 66.4527 46.735 66.2319 46.2372C66.0663 45.9054 66.0111 45.1311 65.9559 44.7992C65.9007 44.3015 65.9559 43.6931 65.9559 43.3612L66.1215 43.2506Z" fill="#B12A25"/>
<path d="M89.1369 33.3506C89.1369 35.5629 89.3576 44.4121 89.3576 50.8831C89.3576 55.6396 89.1921 58.1838 89.3024 58.9581C89.3024 59.124 89.3024 59.1793 89.3576 59.2346C89.5232 59.4005 90.02 60.1195 90.0751 60.7279C90.1303 61.281 89.7992 61.8341 88.8057 61.9447C87.5915 62.1106 87.2051 61.5022 87.1499 60.8938C87.0947 60.3408 87.3155 59.6771 87.4811 59.6218C87.757 59.5112 87.7018 55.0312 87.5363 47.1775C87.4259 41.868 87.3707 38.992 86.8188 33.24C86.8188 33.24 81.1339 42.4764 78.8157 42.7529C77.9878 42.8635 77.6015 41.868 77.4359 40.3747C77.1599 38.2177 77.3807 34.8992 77.4359 31.6913C77.4359 29.645 77.3255 28.3176 78.1534 27.9857C78.1534 27.9857 78.2086 27.9857 78.319 27.9304C78.7605 27.9304 79.6436 28.3729 79.754 28.9813C79.8644 29.9215 79.0917 36.3372 79.3125 38.5495C79.3125 38.9367 79.4229 39.2132 79.5333 39.2685C79.5333 39.2685 79.5884 39.2685 79.6988 39.2685C80.6371 39.1579 83.3416 35.0098 86.046 30.9723C86.4876 30.3087 86.4876 29.0919 87.3155 28.9813C87.4259 28.9813 87.5915 28.9813 87.757 28.9813C88.4194 29.1472 88.9161 30.6405 89.0817 32.1338C89.0817 32.5763 89.1369 32.9634 89.1369 33.3506Z" fill="#B12A25"/>
<path d="M110.055 40.983C110.055 41.4255 110.166 41.8126 110.221 42.1445C110.221 42.3104 110.442 42.7529 110.497 43.2506C110.552 43.7484 110.497 44.2462 109.669 44.3015C109.669 44.3015 109.559 44.3015 109.503 44.3015C108.344 44.3568 108.013 42.9741 107.958 42.3104C107.903 40.7065 107.516 33.4058 107.516 28.2622C107.516 25.3862 107.516 22.2337 107.516 19.8554C106.137 20.4638 104.977 21.0169 104.702 21.1828C104.702 21.1828 104.646 21.1828 104.591 21.1828C104.26 21.1828 103.653 20.7404 103.598 20.132C103.598 19.9108 103.598 19.7448 103.708 19.5236C103.874 19.1918 105.64 18.4174 107.627 17.6431C107.627 17.0901 107.737 16.7582 107.792 16.537C107.958 16.2604 108.179 16.0392 108.455 15.9839C108.786 15.9839 109.117 16.0945 109.614 16.4817L109.945 16.8135L111.987 16.0945C114.802 15.1543 116.402 14.7118 118.665 14.1034C118.776 13.7716 118.886 13.6057 119.107 13.6057C119.548 13.6057 119.824 13.6057 120.045 13.7716C123.688 12.7761 124.24 12.6654 125.289 12.4995C125.509 12.4995 125.62 12.4995 125.675 12.4995C125.951 12.4995 126.448 12.8314 126.503 13.2738C126.503 13.3291 126.503 13.4397 126.503 13.4951C126.503 13.7716 126.282 14.4353 125.509 14.4906C125.344 14.4906 125.178 14.4906 124.902 14.4906C124.902 14.4906 124.681 14.4906 124.516 14.4906C123.467 14.6012 122.694 14.7671 120.652 15.3202C120.652 16.537 120.432 18.4727 120.652 21.0722L120.818 24.446C121.039 29.9768 121.149 33.4058 121.37 35.2863C121.48 36.3372 121.646 36.8902 121.811 37.1115C122.143 37.4433 122.915 37.2774 122.915 37.7199C122.915 37.7752 122.915 37.8858 122.915 37.9411C122.253 39.7109 121.977 40.5959 121.425 40.6512C121.204 40.6512 120.928 40.5959 120.597 40.3746C120.1 40.0981 119.714 37.9411 119.383 35.1757C118.997 31.9125 118.721 27.8198 118.555 25.0544C118.445 22.8974 118.169 18.6387 118.334 15.9286C115.74 16.6476 114.36 17.0347 111.38 18.1962L110.055 18.694C110 20.0767 109.834 22.6761 109.724 27.3773C109.724 29.7002 109.724 36.9455 110.11 40.7618L110.055 40.983Z" fill="#B12A25"/>
<path d="M132.077 38.6601C132.077 38.6601 131.912 38.6601 131.856 38.7155C131.305 38.7708 130.587 38.273 130.421 37.8858C130.421 37.8858 130.311 41.3702 130.918 46.6245L131.194 49.1686C131.525 51.934 131.856 53.6486 131.912 53.8145C132.077 54.091 132.188 54.3122 132.188 54.5335C132.243 55.1972 131.912 55.6949 131.415 55.7502C131.36 55.7502 131.249 55.7502 131.194 55.7502C130.421 55.6396 129.98 54.9759 129.87 54.3122C129.87 54.0357 129.87 53.8145 129.925 53.5932C129.925 53.5932 129.925 53.4273 129.925 53.2061C129.814 52.3765 129.318 50.2195 128.931 46.7351C128.821 45.7395 128.71 44.6334 128.6 43.3613C127.993 35.3417 128.159 32.521 128.269 25.4416C128.269 25.4416 127.275 25.2757 127.165 24.3907V24.2248C127.275 23.174 129.097 22.455 129.704 22.3444C132.408 22.0678 137.486 23.9483 138.424 28.3729V28.5941C138.866 31.9126 132.574 38.3836 131.967 38.5495L132.077 38.6601ZM130.808 24.4461C130.808 24.4461 130.532 27.5433 130.477 29.8109C130.421 32.1338 130.366 37.0009 130.366 37.0009C130.366 37.0009 135.996 33.4059 136.382 29.0366C136.382 28.926 136.382 28.8154 136.382 28.6494C136.162 26.769 133.016 24.3354 130.808 24.4461Z" fill="#B12A25"/>
<path d="M155.645 25.7735C156.086 29.5897 149.077 36.835 144.441 37.3328H144.22C143.337 37.4434 142.619 37.4434 141.957 37.1669C140.025 36.5585 139.142 34.9546 138.921 33.0188C138.425 28.7048 141.46 22.3444 144.717 20.6298C145.103 20.4086 145.544 20.2427 145.931 20.2427C147.421 20.0768 148.525 20.7405 148.525 20.7405C152.72 21.0723 155.258 22.5656 155.645 25.6075V25.8288V25.7735ZM146.869 22.8975H146.593C146.593 22.8975 146.372 23.1187 146.262 23.174C146.041 23.4505 145.655 23.8377 145.048 23.893C144.551 23.9483 144.385 23.6718 144.165 23.5059C141.847 26.1053 140.577 30.0322 140.908 32.6316C141.019 33.7931 141.405 34.678 142.233 35.0099C142.895 35.2311 143.447 35.2864 144.165 35.2311C148.47 34.7333 153.768 28.7048 153.547 26.1053V25.8841C153.106 22.2891 148.139 22.6762 146.869 22.7868V22.8975Z" fill="#B12A25"/>
<path d="M176.287 26.3266C176.287 26.6584 167.511 34.5121 161.275 35.2311C159.564 35.4524 158.073 35.1205 157.025 34.0144C156.473 33.4613 156.142 32.687 156.031 31.8021C155.479 27.3221 160.502 19.9662 163.813 19.0813C164.034 19.026 164.255 18.9707 164.476 18.9707C165.414 18.86 165.8 19.1919 165.911 19.745C165.966 20.3534 165.58 21.1277 165.028 21.6254C164.862 21.736 164.752 21.7914 164.586 21.7914C164.2 21.7914 163.758 21.6807 163.317 21.7914C163.206 21.7914 163.096 21.7914 163.041 21.8467C162.213 22.2338 157.797 27.9305 158.184 31.3043C158.294 32.1339 158.68 32.9082 159.564 33.2954C160.06 33.5719 160.667 33.5719 161.44 33.5166C166.297 32.9635 174.742 25.8288 175.128 25.6076C175.238 25.6076 175.349 25.497 175.459 25.497C175.901 25.497 176.342 25.8288 176.342 26.2713V26.4372L176.287 26.3266Z" fill="#B12A25"/>
<path d="M186.994 14.5459L187.877 14.4353C188.871 14.3246 190.14 14.2693 190.416 15.2649C190.472 15.8733 190.085 15.9839 189.588 16.0392C189.147 16.0392 188.595 16.0392 188.264 16.0392C185.891 16.3157 183.296 17.1453 181.972 17.6431C181.972 18.1409 181.917 24.3907 182.524 29.5343C182.579 30.198 182.689 30.8617 182.8 31.4147C182.8 31.5807 183.076 32.0784 183.131 32.5209C183.186 33.0187 183.02 33.4611 182.303 33.5717H182.137C180.978 33.6271 180.592 32.2444 180.537 31.636C180.316 29.9214 180.04 27.5432 179.985 23.561C179.985 20.7957 179.985 20.0213 179.985 18.3621C179.985 18.3621 178.163 19.0258 176.839 19.8001C176.232 20.1873 175.073 21.5147 174.355 21.6253C173.693 21.57 173.086 21.1828 173.031 20.6297C173.031 20.5744 173.031 20.4638 173.031 20.4085C173.141 19.8001 173.196 19.4683 175.183 18.4174C177.28 17.3113 179.378 16.2604 182.027 15.4861C182.027 15.4861 184.18 14.8224 186.939 14.4906L186.994 14.5459Z" fill="#B12A25"/>
<path d="M205.263 19.9107C205.705 23.7269 198.695 30.9722 194.059 31.47H193.838C192.955 31.5806 192.238 31.5806 191.576 31.3041C189.644 30.6957 188.761 29.0918 188.54 27.156C188.043 22.842 191.079 16.4816 194.335 14.7671C194.722 14.5458 195.163 14.3799 195.549 14.3799C197.04 14.214 198.144 14.8777 198.144 14.8777C202.338 15.2095 204.877 16.7028 205.263 19.7448V19.966V19.9107ZM196.543 17.0347H196.267C196.267 17.0347 195.991 17.2559 195.936 17.3112C195.715 17.5878 195.329 17.9749 194.722 18.0302C194.225 18.0855 194.059 17.809 193.838 17.6431C191.52 20.2425 190.251 24.1694 190.527 26.7688C190.637 27.9303 191.024 28.8152 191.852 29.1471C192.514 29.3683 193.066 29.4236 193.783 29.3683C198.088 28.8705 203.387 22.842 203.166 20.2425V20.0213C202.725 16.4263 197.757 16.8134 196.488 16.9241L196.543 17.0347Z" fill="#B12A25"/>
<path d="M210.231 11.9465C210.231 15.4309 209.844 20.4086 209.955 21.736C209.955 21.8466 210.01 21.9572 210.01 22.0125C210.01 22.455 210.507 23.4505 210.617 24.1142C210.617 24.6673 210.396 25.331 209.955 25.3863C209.9 25.3863 209.789 25.3863 209.734 25.3863C208.906 25.3863 208.465 24.7226 208.354 23.3952C208.354 23.1187 208.299 22.8421 208.299 22.455C208.133 16.0393 208.023 13.2739 207.802 6.85821C207.802 5.19898 207.306 1.99113 207.526 1.71459C207.637 1.49336 208.078 1.16151 208.52 1.1062C208.796 1.1062 209.127 1.1062 209.403 1.49336C209.624 1.71459 209.789 2.43359 209.9 3.48443C210.12 5.42021 210.231 8.46213 210.231 12.0018V11.9465ZM210.396 34.4568C209.789 34.5121 209.237 33.5165 209.182 32.9082C209.127 32.2445 209.182 31.6361 209.624 31.4702C210.783 31.3042 211.114 31.9679 211.169 32.521V32.7422C211.279 33.4059 211.279 34.2355 210.396 34.4568Z" fill="#B12A25"/>
<path d="M219.062 10.8956C219.062 14.38 218.675 19.3577 218.841 20.6851C218.841 20.7957 218.896 20.9063 218.896 20.9616C218.896 21.4041 219.393 22.3996 219.503 23.008C219.503 23.6164 219.283 24.2248 218.841 24.2801C218.786 24.2801 218.675 24.2801 218.62 24.2801C217.792 24.2801 217.351 23.6164 217.24 22.289C217.24 22.0125 217.185 21.7359 217.185 21.3488C217.02 14.9331 216.909 12.1677 216.744 5.75201C216.744 4.09277 216.247 0.884924 216.468 0.608385C216.578 0.387154 217.02 0.0553078 217.461 0C217.737 0 218.068 0 218.344 0.387154C218.565 0.608385 218.731 1.32739 218.841 2.37823C219.062 4.31401 219.172 7.35593 219.172 10.8956H219.062ZM219.172 33.4612C218.565 33.5165 218.013 32.521 217.958 31.9126C217.903 31.2489 217.958 30.6405 218.399 30.4746C219.559 30.364 219.89 30.9723 219.945 31.5254V31.7467C220.055 32.4103 220.055 33.24 219.172 33.4612Z" fill="#B12A25"/>
</g>
<defs>
<clipPath id="clip0_117_730">
<rect width="220" height="62" fill="white"/>
</clipPath>
</defs>
</svg>
