<svg width="88" height="59" viewBox="0 0 88 59" fill="none" xmlns="http://www.w3.org/2000/svg">
<g clip-path="url(#clip0_129_738)">
<path d="M22.1435 24.687L21.9987 24.7011C21.243 24.7746 21.04 24.4515 20.9904 23.9422C20.9501 23.5272 21.0226 23.0313 20.9755 22.5471C20.9663 22.4528 20.9338 22.3798 20.9246 22.2855C18.6983 12.4662 18.5 11.9967 18.3209 10.1542C18.3209 10.1542 12.9623 22.8377 12.9615 23.3519C12.9932 23.9392 12.4798 24.4779 11.9256 24.5318C11.4408 24.579 10.9204 24.2614 10.631 23.312C10.3857 22.5551 8.77489 18.0842 6.95743 14.757C6.50473 13.8933 5.38171 11.4317 5.02415 10.7619C5.02415 10.7619 4.14449 23.1557 4.26986 24.4448C4.2975 24.4675 4.29994 24.4927 4.30239 24.5178C4.35927 25.1026 4.04651 25.9392 3.39159 26.0029C3.31602 26.0103 3.24675 26.017 3.14354 26.0017C2.66977 25.9017 2.47345 25.6479 2.44042 25.3083C2.40006 24.8933 2.61745 24.3834 2.80483 24.0224C3.10024 23.5302 3.4077 13.0964 3.59593 12.2211C3.72754 11.5482 3.6983 10.9861 3.6561 10.5522L3.63225 10.3069C3.59188 9.89189 3.56375 9.60263 3.74245 9.41386C4.10475 9.08663 4.55012 8.1102 4.93426 8.07284C4.95945 8.07039 4.98708 8.09309 5.01227 8.09064C5.39158 8.19975 6.88061 11.6795 8.89924 15.7679C10.1143 18.1952 11.1709 20.7585 11.8045 22.4361C11.8045 22.4361 17.0133 9.71647 17.4863 8.76274C17.754 8.24792 17.7825 7.75637 18.5067 7.68594L18.6515 7.67185C20.1682 7.64495 19.3343 10.6397 21.5545 18.8916C21.7819 19.7265 22.4722 21.7922 22.6111 23.2196C22.6887 24.0182 22.6008 24.6171 22.1435 24.687Z" fill="#B12A25"/>
<path d="M30.6441 16.0776C30.6747 16.392 30.7626 17.5578 30.869 18.652C31.0721 20.7397 31.3314 21.6412 31.5068 21.9416C31.594 22.0537 31.7627 22.2848 31.7816 22.4798C31.8055 22.725 31.7294 22.9229 31.3032 23.1167C31.2301 23.1492 31.1105 23.1608 31.0412 23.1675C30.3107 23.2386 30.2005 22.367 30.1889 22.2475C30.1171 22.0323 29.7127 20.3577 29.5598 18.7857L29.3335 16.459C29.3335 16.459 27.4735 17.0081 27.0709 17.117C26.6878 17.2305 25.9021 17.4529 25.1881 17.6937L25.1239 20.5628C25.1193 21.2996 25.1731 21.853 25.2226 22.3623C25.263 22.7773 25.2862 23.0163 25.2247 23.1683C25.0552 23.4514 24.8925 23.5434 24.7477 23.5574C24.5776 23.574 24.304 23.5054 24.1217 23.3962C23.9905 23.2883 23.9162 23.048 23.893 22.809C23.8294 22.155 23.8421 20.7827 23.8719 19.8467L23.9432 18.0306C23.6884 17.9602 23.4591 17.5635 23.4353 17.3183C23.4047 17.0039 23.5785 16.7648 23.9069 16.6123C23.8966 16.2451 23.835 15.3497 23.7616 14.5951C23.7451 14.4253 23.7034 14.258 23.6869 14.0882L23.587 13.5838C23.5176 13.3937 23.4987 13.1988 23.4987 13.1988C23.4846 13.0542 23.4957 12.9071 23.6031 12.7697C23.7063 12.5883 23.9697 12.4865 24.2342 12.4607C24.4042 12.4442 24.632 12.4982 24.8669 12.6912C24.9516 12.7782 25.1016 13.6015 25.153 14.1297L25.1695 14.2995L25.1766 15.3525C25.1592 15.697 25.1481 15.8441 25.1671 16.2358C25.1671 16.2358 25.9112 16.0428 27.1517 15.7254C27.8478 15.5625 28.461 15.3314 29.2002 15.0882C29.1482 14.5537 29.0132 12.9037 29.139 12.6947C29.3012 12.3361 29.5516 12.1657 29.8224 12.1394C29.9673 12.1253 30.1422 12.1591 30.3287 12.3123C30.4373 12.4478 30.4489 12.5673 30.4678 12.7622C30.4892 12.9823 30.4897 13.2488 30.4908 13.5217C30.4759 13.8913 30.4741 14.3295 30.5144 14.7445C30.9668 14.6243 32.281 14.2807 32.8919 14.2213C33.0367 14.2072 33.1563 14.1956 33.2092 14.2158C33.4737 14.3869 33.6859 14.6075 33.7097 14.8527C33.7262 15.0225 33.6696 15.2248 33.5389 15.3835C33.4105 15.5674 33.195 15.6391 33.0502 15.6532C32.8298 15.6746 32.6272 15.6181 32.5309 15.6085C32.4806 15.6134 32.434 15.5925 32.3837 15.5974C32.1381 15.6213 31.7127 15.7579 31.2628 15.9032L30.6447 16.0839L30.6441 16.0776Z" fill="#B12A25"/>
<path d="M44.3395 14.9931C44.5731 17.3952 40.054 21.8465 37.1195 22.1319L36.9998 22.1436C36.4393 22.1981 35.9975 22.1649 35.5863 21.989C34.3693 21.5678 33.8332 20.5662 33.7134 19.3337C33.4492 16.6172 35.4663 12.6505 37.5209 11.6191C37.7763 11.499 38.0397 11.3972 38.279 11.374C39.2236 11.2821 39.9092 11.7296 39.9092 11.7296C42.5595 11.986 44.1476 12.9551 44.3341 14.873L44.3458 14.9925L44.3395 14.9931ZM38.8577 13.076L38.6877 13.0925C38.6398 13.1226 38.5269 13.2034 38.4814 13.2586C38.3279 13.4449 38.0823 13.6656 37.7171 13.7011C37.4022 13.7317 37.2849 13.5717 37.1789 13.4615C35.6684 15.0556 34.8266 17.5116 34.9868 19.1591C35.0578 19.8885 35.2841 20.4505 35.7953 20.6738C36.2022 20.8056 36.5766 20.8644 37.0111 20.8221C39.7316 20.5575 43.1468 16.8484 43.0331 15.2217L43.0215 15.1022C42.8019 12.8447 39.677 13.0027 38.852 13.0829L38.8577 13.076Z" fill="#B12A25"/>
<path d="M45.0438 19.2285C45.0389 19.1782 45.0598 19.1317 45.0574 19.1066C45.0974 18.5377 44.8955 15.155 44.7708 13.8722L44.7329 13.4823L44.6146 13.2462C44.5452 13.0562 44.4091 12.8981 44.3809 12.6088C44.3595 12.3887 44.4584 12.1633 44.6414 12.0185C44.8477 11.8525 45.0356 11.758 45.2497 11.7372C45.4197 11.7207 45.4701 11.7158 45.5971 11.7796C46.203 11.4731 49.5015 9.83195 49.9999 9.66286C50.4015 9.47781 51.1959 9.08316 51.8004 9.02437C51.9453 9.01028 52.095 9.0465 52.2234 9.0594C52.5499 9.14826 52.7966 9.39722 52.8247 9.68648C52.8718 10.1707 52.4727 10.5777 51.9816 10.6254C51.906 10.6328 51.8115 10.642 51.7335 10.6242C51.6114 10.6106 51.2989 10.4696 51.1744 10.431C50.7612 10.4965 49.9847 10.8133 48.3351 11.7608C48.0115 11.9637 47.0545 12.4503 46.4252 12.7781L46.0513 12.9859L46.1136 13.8876C46.1747 14.5164 46.1983 15.5425 46.2227 16.251L46.2827 18.3717C46.2789 18.5942 46.2745 18.8105 46.291 18.9803C46.31 19.1752 46.3265 19.345 46.3731 19.5626C46.3872 19.7072 46.4313 19.8997 46.4527 20.1198C46.4906 20.5097 46.466 20.7787 46.3929 21.008C46.2215 21.2722 46.1454 21.47 45.8746 21.4964C45.6039 21.5227 45.2977 21.3811 45.1702 21.0507C45.0732 20.838 45.0261 20.3538 45.0047 20.1337C44.9741 19.8193 45.0331 19.4454 45.0369 19.2228L45.0438 19.2285Z" fill="#B12A25"/>
<path d="M59.9339 13.305C59.896 14.6798 59.926 20.282 59.8577 24.3512C59.8051 27.3397 59.6664 28.9211 59.716 29.4305C59.7252 29.5248 59.73 29.5751 59.7577 29.5978C59.8638 29.7081 60.154 30.1432 60.1919 30.5331C60.2274 30.8978 60.0099 31.211 59.3802 31.2722C58.6245 31.3457 58.3725 30.9767 58.3352 30.5931C58.2997 30.2284 58.457 29.8195 58.5496 29.7914C58.7148 29.7246 58.7335 26.9107 58.7444 21.9902C58.7616 18.6369 58.7591 16.8471 58.4812 13.2051C58.4812 13.2051 54.7743 18.9485 53.3172 19.0648C52.7819 19.1169 52.5508 18.5046 52.4584 17.5551C52.3263 16.1968 52.491 14.0987 52.5874 12.0834C52.6351 10.8093 52.5777 9.95789 53.0983 9.75491C53.1235 9.75246 53.1462 9.72486 53.1903 9.72057C53.4548 9.69485 54.0255 10.0075 54.0887 10.3949C54.1455 10.9797 53.5598 15.0231 53.6944 16.4065C53.7182 16.6518 53.7599 16.8191 53.8335 16.8564C53.8611 16.8791 53.8863 16.8766 53.9304 16.8723C54.5349 16.8135 56.3 14.2424 58.0409 11.7498C58.3179 11.3293 58.3458 10.5712 58.8559 10.5216C58.9315 10.5143 59.0259 10.5051 59.1253 10.5462C59.5298 10.6529 59.8192 11.6023 59.9091 12.5266C59.9348 12.7908 59.9359 13.0636 59.9339 13.305Z" fill="#B12A25"/>
<path d="M20.1177 46.3454C20.1434 46.6095 20.1672 46.8548 20.2163 47.0975C20.2255 47.1919 20.3511 47.5034 20.3792 47.7926C20.4098 48.1071 20.3435 48.4055 19.8523 48.4533C19.8271 48.4557 19.7767 48.4606 19.7554 48.4373C19.02 48.458 18.8412 47.5995 18.8008 47.1844C18.7797 46.1835 18.6488 41.5688 18.7027 38.3325C18.7236 36.5214 18.7715 34.5299 18.8254 33.0583C17.9279 33.4376 17.2023 33.7557 17.0163 33.869C16.9911 33.8715 16.9684 33.8991 16.9432 33.9015C16.7228 33.9229 16.3497 33.6165 16.3118 33.2266C16.3001 33.1071 16.3131 32.9789 16.3959 32.8502C16.4966 32.6437 17.6286 32.1908 18.9117 31.7232C18.9543 31.3763 18.9769 31.1519 19.0409 31.0251C19.144 30.8437 19.2772 30.7101 19.4473 30.6936C19.6425 30.6746 19.8745 30.7726 20.1653 31.0173L20.3592 31.246L21.6661 30.8269C23.4481 30.26 24.4794 30.0137 25.8899 29.6798C25.9654 29.4756 26.057 29.3715 26.1766 29.3599C26.4436 29.3593 26.6437 29.3906 26.7788 29.4727C29.0758 28.9065 29.4361 28.8207 30.1162 28.7546C30.2611 28.7405 30.3391 28.7583 30.3643 28.7558C30.5367 28.7644 30.8497 28.9752 30.8784 29.2708C30.8833 29.3211 30.8876 29.3651 30.8673 29.4178C30.8862 29.6128 30.7013 29.9989 30.2164 30.0461C30.122 30.0553 29.9936 30.0424 29.8438 30.0062C29.8186 30.0086 29.7217 29.9926 29.5958 30.0049C28.9409 30.0686 28.4357 30.1685 27.1424 30.4657C27.142 31.2465 26.9655 32.438 27.0319 34.101L27.0919 36.2217C27.162 39.6871 27.1999 41.8416 27.3154 43.0301C27.3791 43.6841 27.4649 44.0439 27.5734 44.1793C27.7673 44.408 28.2473 44.3106 28.273 44.5747C28.2779 44.625 28.2822 44.669 28.2367 44.7242C27.8054 45.8453 27.6156 46.3779 27.2504 46.4134C27.1307 46.4251 26.9534 46.3661 26.7441 46.2405C26.433 46.0486 26.2253 44.6977 26.0559 42.9558C25.8553 40.8933 25.7248 38.3097 25.6838 36.5808C25.6486 35.2385 25.5128 32.5348 25.665 30.8315C24.0156 31.2586 23.155 31.4946 21.2373 32.1699L20.3834 32.4751C20.3235 33.3633 20.1868 34.9635 20.0543 37.9154C20.0003 39.387 19.9269 43.9264 20.112 46.3523L20.1177 46.3454Z" fill="#B12A25"/>
<path d="M34.2906 45.1383C34.2427 45.1684 34.1986 45.1727 34.1482 45.1776C33.783 45.2131 33.3571 44.8863 33.2621 44.629C33.2621 44.629 33.1318 46.8189 33.4547 50.1391L33.6101 51.7363C33.7801 53.4845 33.9615 54.565 34.0172 54.6802C34.1093 54.8426 34.1674 54.983 34.1815 55.1276C34.2218 55.5426 33.9855 55.8576 33.6643 55.8888C33.6139 55.8937 33.5699 55.898 33.517 55.8778C33.0205 55.8055 32.7555 55.3679 32.7151 54.9528C32.6986 54.783 32.7097 54.636 32.7674 54.5098C32.7901 54.4822 32.7834 54.413 32.7687 54.2621C32.7167 53.7276 32.4398 52.3834 32.2251 50.1762C32.164 49.5474 32.1206 48.8406 32.0706 48.0647C31.8005 43.0001 31.9478 41.2465 32.1003 36.8009C32.1003 36.8009 31.4792 36.6899 31.4248 36.1303L31.4156 36.036C31.4969 35.3679 32.6817 34.9353 33.0469 34.8997C34.7496 34.7595 37.936 36.0175 38.4739 38.8027L38.4879 38.9473C38.691 41.035 34.6668 45.0192 34.2837 45.1326L34.2906 45.1383ZM33.6936 36.1889C33.6936 36.1889 33.4872 38.1197 33.4095 39.5428C33.3279 40.9917 33.2574 44.0581 33.2574 44.0581C33.2574 44.0581 36.8465 41.8746 37.1641 39.1268C37.1819 39.0489 37.1752 38.9798 37.1654 38.8791C37.0498 37.6907 35.1127 36.1398 33.6929 36.1826L33.6936 36.1889Z" fill="#B12A25"/>
<path d="M49.589 37.3344C49.8226 39.7365 45.3035 44.1878 42.369 44.4732L42.2493 44.4849C41.6889 44.5394 41.247 44.5062 40.8358 44.3303C39.6188 43.9091 39.0828 42.9076 38.9629 41.6751C38.6987 38.9585 40.7158 34.9918 42.7705 33.9604C43.0258 33.8403 43.2892 33.7385 43.5285 33.7153C44.4731 33.6234 45.1587 34.0709 45.1587 34.0709C47.809 34.3273 49.3971 35.2964 49.5837 37.2143L49.5953 37.3338L49.589 37.3344ZM44.1072 35.4173L43.9372 35.4338C43.8893 35.4639 43.7764 35.5447 43.7309 35.5999C43.5774 35.7862 43.3318 36.0069 42.9666 36.0424C42.6517 36.073 42.5345 35.9131 42.4284 35.8028C40.9179 37.397 40.0761 39.8529 40.2363 41.5004C40.3073 42.2299 40.5336 42.7918 41.0448 43.0151C41.4517 43.1469 41.8261 43.2057 42.2606 43.1634C44.9811 42.8988 48.3963 39.1897 48.2826 37.563L48.271 37.4435C48.0514 35.1861 44.9265 35.344 44.1016 35.4242L44.1072 35.4173Z" fill="#B12A25"/>
<path d="M62.8566 37.9294C62.8528 38.152 57.2178 42.9594 53.2631 43.344C52.1925 43.4481 51.2425 43.2231 50.5835 42.5255C50.2307 42.1662 50.0363 41.671 49.9844 41.1365C49.711 38.3256 52.9656 33.7497 55.051 33.2295C55.1933 33.1903 55.3382 33.1762 55.4641 33.1639C56.0498 33.107 56.3129 33.329 56.3453 33.6622C56.3808 34.027 56.1358 34.5142 55.7717 34.8225C55.6821 34.882 55.5838 34.917 55.4893 34.9262C55.2437 34.9501 54.9676 34.8563 54.6779 34.8845C54.6024 34.8918 54.5331 34.8986 54.4852 34.9286C53.9412 35.1529 51.1 38.6856 51.3049 40.7922C51.3569 41.3267 51.5992 41.7919 52.165 42.0543C52.4737 42.221 52.8708 42.2522 53.3305 42.2075C56.391 41.9099 61.8208 37.5414 62.0818 37.4144C62.155 37.3819 62.2218 37.35 62.2973 37.3427C62.587 37.3145 62.8331 37.5572 62.8594 37.8276L62.8686 37.9219L62.8566 37.9294Z" fill="#B12A25"/>
<path d="M70.0158 30.625L70.5763 30.5705C71.206 30.5092 72.0131 30.5069 72.175 31.1259C72.2105 31.4907 71.9527 31.5856 71.6316 31.6168C71.3419 31.645 70.9945 31.6026 70.7993 31.6216C69.2942 31.7679 67.6522 32.2704 66.7958 32.5505C66.7987 32.8422 66.6684 36.7968 66.9822 40.0227C67.0226 40.4377 67.0623 40.8465 67.123 41.2087C67.1321 41.3031 67.2848 41.631 67.3136 41.9265C67.3441 42.241 67.2508 42.523 66.7848 42.5683L66.6903 42.5775C65.9549 42.5982 65.7485 41.7169 65.7105 41.3271C65.6041 40.2329 65.458 38.73 65.4821 36.233C65.4845 34.4935 65.5319 34.0001 65.5563 32.944C65.5563 32.944 64.3918 33.3239 63.5569 33.824C63.1602 34.0594 62.408 34.8879 61.9735 34.9302C61.5487 34.8763 61.1824 34.6389 61.1493 34.2994C61.1445 34.2491 61.1402 34.2051 61.1605 34.1523C61.2446 33.7759 61.2761 33.5761 62.5616 32.9369C63.895 32.2677 65.2497 31.6217 66.9054 31.1941C66.9054 31.1941 68.2904 30.7928 70.0095 30.6256L70.0158 30.625Z" fill="#B12A25"/>
<path d="M81.7369 34.2079C81.9706 36.6101 77.4515 41.0614 74.5169 41.3468L74.3973 41.3584C73.8368 41.4129 73.395 41.3797 72.9837 41.2039C71.7667 40.7827 71.2307 39.7811 71.1108 38.5486C70.8466 35.8321 72.8637 31.8653 74.9184 30.8339C75.1737 30.7139 75.4372 30.6121 75.6765 30.5888C76.6211 30.4969 77.3066 30.9444 77.3066 30.9444C79.957 31.2008 81.5451 32.1699 81.7316 34.0879L81.7432 34.2073L81.7369 34.2079ZM76.2552 32.2908L76.0852 32.3074C76.0372 32.3374 75.9243 32.4182 75.8788 32.4735C75.7253 32.6598 75.4798 32.8804 75.1145 32.916C74.7997 32.9466 74.6824 32.7866 74.5763 32.6763C73.0659 34.2705 72.2241 36.7264 72.3843 38.374C72.4552 39.1034 72.6815 39.6654 73.1927 39.8886C73.5997 40.0204 73.9741 40.0792 74.4086 40.037C77.129 39.7724 80.5443 36.0632 80.4306 34.4366L80.419 34.3171C80.1994 32.0596 77.0745 32.2175 76.2495 32.2977L76.2552 32.2908Z" fill="#B12A25"/>
<path d="M85.0094 43.4113C84.6189 43.4493 84.2884 42.7958 84.2505 42.406C84.2101 41.9909 84.2924 41.5957 84.5583 41.5191C85.2888 41.448 85.4992 41.8465 85.5341 42.205L85.5481 42.3496C85.5885 42.7646 85.5643 43.3002 85.015 43.4044L85.0094 43.4113ZM85.2243 29.2158C85.1885 31.3966 84.8584 34.5391 84.9386 35.3629C84.9459 35.4383 84.9778 35.505 84.9803 35.5302C85.0059 35.7943 85.2924 36.452 85.3303 36.8419C85.3406 37.209 85.1557 37.5952 84.8912 37.6209C84.8408 37.6258 84.7967 37.6301 84.7439 37.6099C84.2246 37.5651 83.9639 37.1716 83.8838 36.3478C83.8672 36.178 83.8483 35.9831 83.8521 35.7605C83.8283 31.7257 83.8056 29.9886 83.7567 25.9562C83.7496 24.9031 83.5074 22.87 83.6382 22.7113C83.721 22.5826 84.0005 22.3841 84.2901 22.3559C84.4602 22.3394 84.6627 22.3958 84.8284 22.5956C84.9645 22.7537 85.0596 23.2078 85.1232 23.8618C85.2412 25.0755 85.2571 27.0036 85.2237 29.2096L85.2243 29.2158Z" fill="#B12A25"/>
</g>
<defs>
<clipPath id="clip0_129_738">
<rect width="82.4285" height="50.373" fill="white" transform="translate(0.809814 8.47998) rotate(-5.55496)"/>
</clipPath>
</defs>
</svg>
