<svg version="1.2" xmlns="http://www.w3.org/2000/svg" viewBox="0 0 261 22" width="261" height="22">
	<title>Layer_1 (1)</title>
	<defs>
		<clipPath clipPathUnits="userSpaceOnUse" id="cp1">
			<path d="m0 0h269v33.65h-269z"/>
		</clipPath>
	</defs>
	<style>
		.s0 { fill: #161616 } 
		.s1 { fill: #fbfbf9 } 
		.s2 { fill: #d8d8d8 } 
	</style>
	<g id="Clip-Path" clip-path="url(#cp1)">
		<g>
			<path class="s0" d="m261 0h-261v33.5h261z"/>
			<path class="s0" d="m261.9 0h-18.7l-2 9.1v-9.1h-15v17.7q0 0.4-0.1 0.6-0.1 0-0.2 0v-18.2h-13.3l-1.4 2.9v-2.9h-15.2v1h-9.8l-0.8 2.2-0.6-2.2h-15.9q-2.8-1.1-6.9-1.1h-15.3v8.6l-1.9-8.6h-18.7l-1.5 7v-7h-29.9v9.4l-2-9.4h-18.8l-1.2 5.6v-5.6h-15.1v17.7q0 0.4 0 0.6-0.1 0-0.4-0.1h-0.3v-18.2h-13.3l-1.3 2.9v-2.9h-42.3v33.5h39.9l1.8-3.9v3.9h15.2v-0.1c1.7 0.2 2.8 0.2 3.7 0.2q3.8 0 6.4-1.3l-0.2 1.2h15.6l0.9-4.6 0.8 4.6h15.6 19.2 15.7l0.8-4.6 0.9 4.6h15.6 9.8v-7.4c7 0 10.7-2.7 12.5-5.8l-6.1 13.2h15.6l1.1-3.4 0.7 2 0.3-0.9 0.8 2.3h9.4 12.9l1.8-3.8v3.8h15.2c1.4 0.1 2.4 0.2 3.3 0.2q4.3-0.1 7.2-1.8l-0.4 1.6h15.7l0.8-4.6 0.9 4.6h15.6zm-86.7 18.2q0.2-0.8 0.4-1.6l0.2 0.3zm19.5-2.3l1.3-2.7v5.4z"/>
			<path class="s1" d="m54 3v27.5h-9.3v-13.8h-0.1l-6.6 13.8h-8v-27.5h9.3v13.1h0.1l6.1-13.1h8.5z"/>
			<path class="s1" d="m90.3 3l5.8 27.5h-9.5l-0.9-4.6h-4.9l-0.9 4.6h-9.5l5.9-27.5h14zm-7.1 8.2l-1.7 9.7h3.5l-1.7-9.7z"/>
			<path class="s1" d="m90.3 3l5.8 27.5h-9.5l-0.9-4.5h-4.9l-0.8 4.5h-9.5l5.8-27.5h14zm-7 8.2l-1.8 9.7h3.6l-1.7-9.7z"/>
			<path class="s2" d="m85.9 20.9l-1.8-9.7h-0.1-0.7l1.7 9.7zm0.8 5h-0.9l0.9 4.6h0.9z"/>
			<path class="s2" d="m90.5 4h-13.2l-5.7 26.5h-1.2l5.9-27.5h14z"/>
			<path class="s1" d="m142.4 3l5.8 27.5h-9.5l-0.8-4.6h-5l-0.8 4.6h-9.5l5.9-27.5h13.9zm-7 8.2l-1.8 9.7h3.6l-1.7-9.7z"/>
			<path class="s1" d="m142.4 3l5.8 27.5h-9.5l-0.8-4.5h-4.9l-0.9 4.5h-9.5l5.9-27.5h13.9zm-7 8.2l-1.7 9.7h3.5l-1.7-9.7z"/>
			<path class="s2" d="m135.5 11.2l1.7 9.7h0.8l-2.3-9.7zm3.3 14.7h-0.9l0.8 4.6h1.2l-1.1-4.6z"/>
			<path class="s2" d="m142.6 4h-13.2l-5.6 26.5h-1.2l5.8-27.5h14z"/>
			<path class="s1" d="m259.5 3l5.8 27.5h-9.5l-0.8-4.6h-5l-0.8 4.6h-9.5l5.9-27.5h13.9zm-7 8.2l-1.8 9.7h3.6l-1.7-9.7z"/>
			<path class="s1" d="m259.5 3l5.8 27.5h-9.4l-0.9-4.5h-4.9l-0.9 4.5h-9.5l5.9-27.5h13.9zm-7 8.2l-1.7 9.7h3.5l-1.7-9.7z"/>
			<path class="s2" d="m255.3 20.9l-1.9-9.7h-0.1-0.7l1.7 9.7zm0.6 5h-0.9l0.8 4.6h1z"/>
			<path class="s2" d="m259.7 4h-13.2l-5.6 26.5h-1.2l5.9-27.5h13.9z"/>
			<path class="s1" d="m27 3v27.5h-9.6v-20.9h-4.8v20.9h-9.6v-27.5z"/>
			<path class="s2" d="m17.4 9.6v20.9h1v-20.9z"/>
			<path class="s2" d="m27 3v1h-23v26.5h-1v-27.5z"/>
			<path class="s1" d="m54 3v27.5h-9.3v-13.8h-0.1l-6.6 13.8h-8v-27.5h9.3v13.1h0.1l6.1-13.1h8.5z"/>
			<path class="s2" d="m44.7 16.7v13.8h1l-0.4-13.8z"/>
			<path class="s2" d="m39.3 16.1l6.2-13.1h8.5v1h-7.5l-5.9 12.1z"/>
			<path class="s2" d="m39.3 3v1h-8.3v26.5h-1v-27.5z"/>
			<path class="s1" d="m223 3v27.6h-9.3v-13.8h-0.1l-6.6 13.8h-8v-27.6h9.3v13.2h0.1l6.1-13.2h8.5z"/>
			<path class="s1" d="m223 3v27.6h-9.3v-13.8h-0.1l-6.6 13.8h-8v-27.6h9.3v13.2h0.1l6.1-13.2h8.5z"/>
			<path class="s2" d="m214.6 14.9l-0.9 1.9v13.8h1v-15.7h-0.1z"/>
			<path class="s2" d="m223 3v1.1h-7.5l-7.1 15h-0.1v-2.9l6.2-13.2z"/>
			<path class="s2" d="m208.3 3v1.1h-8.3v26.5h-1v-27.6z"/>
			<path class="s1" d="m69.8 3v18.6c0 6.1-3.1 9.1-9.2 9.1-1 0-2.2-0.1-4.2-0.4l0.1-9.2c0.6 0.2 0.9 0.2 1.4 0.2 2.2 0 2.7-2 2.7-3.6v-14.7h9.2z"/>
			<path class="s2" d="m60.6 3v14.7c0 1.6-0.5 3.6-2.7 3.6-0.5 0-0.8-0.1-1.4-0.2l-0.1 9.2q0.6 0.1 1 0.2l0.1-8.4c0.6 0.2 0.9 0.2 1.4 0.2 2.2 0 2.7-2 2.7-3.6v-14.7h8.2v-1h-9.2z"/>
			<path class="s1" d="m238.3 3v18.6c0 6.1-3 9.1-9.1 9.1-1.1 0-2.3-0.1-4.2-0.4v-9.2c0.7 0.2 0.9 0.2 1.4 0.2 2.3 0 2.7-2 2.7-3.6v-14.7h9.2z"/>
			<path class="s2" d="m229.1 3v14.7c0 1.6-0.4 3.6-2.7 3.6-0.5 0-0.7-0.1-1.4-0.2v9.2q0.5 0.1 1 0.2v-8.4c0.5 0 0.9 0.1 1.4 0 2.3-0.1 2.7-2.7 2.7-4.3v-13.8h8.2v-1h-9.2z"/>
			<path class="s1" d="m107.2 3v10.2h4.8v-10.2h9.6v27.5h-9.6v-10.6h-4.8v10.6h-9.6v-27.5z"/>
			<path class="s2" d="m112 3v10.2h-4.8v1h5.8v-10.2h8.6v-1zm0 16.9v10.6h1v-10.6zm-14.4-16.9v27.5h1v-26.5h8.6v-1h-9.6z"/>
			<path class="s1" d="m184.8 11.5h-0.1l-2.1-7.5-9.5-0.1 5.9 13.1-6.2 13.5h8.8l3.2-9.5h0.3l0.7 1.1 2.9 8.4h9.7l-6.9-14.6 5.4-11.9h-8.6l-2.7 7.5z"/>
			<path class="s2" d="m184.9 21l3.2 9.5h1.3l-3.6-9.5z"/>
			<path class="s2" d="m184.8 11.5l2.5-8.5h10l-0.4 1h-8.6l-2.7 7.5z"/>
			<path class="s2" d="m173.7 4l5.6 12.4-6.5 14.1h-1.5l6.7-14.2-5.8-13.3h10l0.4 1z"/>
			<path class="s1" d="m162 3c7.7 0 11.1 2.8 11.1 9.9 0 7-3.9 10.2-11.5 10.2h-2.9v7.4h-9.1v-27.5zm-3.2 14.1h0.6c3.2 0 4.5-1.7 4.5-3.8 0-2.3-1.5-3.7-3.9-3.7h-1.2v7.4z"/>
			<path class="s2" d="m171.4 6.3c-1.9-1.6-4.6-2.3-8.5-2.3h-12.3v26.5h-1v-27.5h12.4c4.5 0 7.6 1 9.4 3.3z"/>
			<path class="s2" d="m164.8 13.3c0 2.1-1.3 3.8-5.2 3.8h-0.9 0.7c3.2 0 4.4-1.7 4.4-3.8 0-2.1-1.2-3.6-3.4-3.7 2.9 0 4.4 1.5 4.4 3.7z"/>
			<path class="s1" d="m160.2 9.6h-1.5 1.2q0.1-0.1 0.3 0z"/>
		</g>
	</g>
</svg>