<svg version="1.2" xmlns="http://www.w3.org/2000/svg" viewBox="0 0 1440 90" width="1440" height="90">
	<title>pattern-hero</title>
	<defs>
		<clipPath clipPathUnits="userSpaceOnUse" id="cp1">
			<path d="m1440 421h-1503v-421h1503z"/>
		</clipPath>
		<clipPath clipPathUnits="userSpaceOnUse" id="cp2">
			<path d="m732 222h126v38h-126z"/>
		</clipPath>
	</defs>
	<style>
		.s0 { fill: #f2f2f2 } 
		.s1 { fill: #ca3d2b } 
	</style>
	<g id="Clip-Path" clip-path="url(#cp1)">
		<g>
			<path class="s0" d="m-58.5 356.7c0.4-0.4 0.7-1 1.1-1.1 2.9-0.4 5.8-0.6 10-1.1 0.4 0 1.3 1.3 2.5 2 1.3 0.7 3.3 0.6 3.7 2.3 4.2 0.4 8.5-0.3 12.4 1.6 0.7 0.3 1.9 0 2.9-0.2 1.6-0.3 2.4 0.4 3.1 1.3 0.6 0.7 1 1.4 1.6 2.2 0.9-0.4 1.7-0.7 2.5-1.1 2.8-1.2 5.5-1.5 7.9 0.7 1.3 1.2 2.8 1.1 4.3 0.3 1.8-0.8 3.5-0.2 4.3 1 1.5 2.2 3.7 2.7 6.6 2.6 1.3-0.1 2.6 0 3.5 1q0.8 0.3 1.6 0.6c1 0.1 2 0 2.9 0.2q8.4 1.9 14.7 1.7c0.3-0.7 0.5-1.5 1-2.2 0.6-0.6 2.2-0.5 2.5 0.2 0.3 0.7 0.4 1.5 0.6 2.2q1 0.2 1.9 0.5c0.9-0.1 1.9-0.2 2.8-0.4 0.5-0.1 0.9-0.6 1.3-1q1.2-1.8 4.3-1.4l-0.4-0.2 0.5 0.2c-0.3-1-0.5-2 0.2-3 0.9-1 1.6-2 2.5-3.1 1.3 0.9 1.3 2.5 3.1 2.9q0.9 0.3 1.7-0.1c0.1-1.1 0.2-2.2 0.4-3.2 0-0.2 0.4-0.4 0.6-0.6 0.4 0.3 1 0.5 1 0.8 0.1 1.1 0 2.2-0.1 3.2 0.7 0.4 1.4 0.9 2.1 1.1 1 0.3 1.6-0.3 2-1 0.2-0.4 0.2-0.9 0.3-1.3 0-1.1-0.2-2.2 0-3.2 0.6-2.9 3.1-3.7 6.4-2.3q0.9 0.4 1.7 0.8 5.3-1.6 10.5-3.2c1.8 0.4 2.7-1 4-1.4 1.8-0.4 3.6-0.8 5.1-1.8 0.4-0.4 0.8-0.9 1.3-1 0.9-0.2 2 0.1 2.9 0 1.3-0.2 2.4-0.6 3.7-1 1.4-2.6 4.1-2.1 6.7-1.6 3.5 0.1 6.2-2.8 10-1.9 0.4 0.1 1.4-0.8 1.8-1.4 0.7-1 1.6-1.9 2.9-1.8 2.3 0.3 4.4 0.1 6.5-0.4 0.7-0.2 1.6 0.6 2.4 0.9 0.9 0.1 2 0 2.6 0.4 1.7 1.2 3.8 1.6 5.7 2.3 0.4 0.2 0.7 0.8 1.1 1.1 4.7 2.3 9.9 2.6 15.1 1.9 1.7-0.3 2.9-0.5 4.6 0.1 2.6 0.9 5.6 1.3 8.3 2.3 3.6 1.5 7.5 1.7 11.4 1.9 1.7 0.1 3.2-0.3 4.5-1.2 1.2-0.9 2.5-1.6 4.2-2.1 2.1-0.5 4-1.6 6.1-2.3 2.1-0.7 4.3-1.2 6.4-1.9 1.2-0.4 2.5-1.4 3.6-0.7 1.9 1.2 4.6-0.1 6.2 1.7 1.1 1.3 2.8 1.5 4.2 0.5 4-2.6 8.8-3.6 13.4-4.7 1-0.2 1.9 0.1 2.7 0.7 0.7 0.6 1.7 1 2.6 0.5 2.8-1.8 6-1.7 9.3-1.7 3 0 5.7-0.5 7.8-2.5 1.1-1.1 2.8-1.4 4.4-0.5q1.6 0.9 3.3 1.8c1.7 1 3.4 1.4 5.3 0.1 0.7-0.5 1.8-0.5 2.7 0 2.2 1 4.3 1.3 6.4 0 1.2-0.8 2.6 0.2 3.8-0.2 0.2-1-0.2-2.1 1.4-2.6 0.7 0.4 1.4 1 2.2 1.5 0.8 0.5 1.5 0.8 2.6 0.4 3.1-1.2 6.4-0.6 9.7-0.3 4.6-1.8 9-4.6 14.5-1.9 0.3 0.2 1.1-0.3 1.7-0.5 2.4-0.7 5.2 0.6 7.6-0.8 0.3-0.2 1.4 0 1.7 0.3 2.6 2.5 7.6 1.8 9.9 4.9 0.4 0.5 1.6 0.8 2.5 0.8 2.6 0.2 5.2 0.3 7.7 0.6 2.8 0.3 5.1-0.1 7.3-1.4 0.4-0.2 1.2 0 1.8 0.1 0.3 0.1 0.7 0.3 0.8 0.5 1.3 2.3 3.7 2.6 6.5 2.6 1.5 0 2.3 0.8 2.5 2 3 2.3 6 4.6 8.9 7 0.4 0.3 0.5 0.8 0.7 1.3 1.2-0.3 2.4-0.7 3.7-0.8 1.6-0.1 3.2-0.2 4.4 1 1.3 0.1 2.7 0.4 3.9 0.2 2.5-0.4 5.1 1.4 7.6-0.3 0.3-0.2 1.2 0 1.7 0.2 1.6 0.4 3.4 0.6 4.6 1.4 3 1.9 6.1 2.9 9.9 2.1 0.6-0.2 1.5 0.7 2.3 1.2 0.4 0.4 0.9 0.8 1.4 1.2 1.9 0.3 3.8 0.4 5.7 0.8 4.1 0.9 7.7 0.5 10.8-2 1.1-1 2.6-1.6 4-2.4 0.7 0.5 1.6 0.9 2.2 1.5 2 1.9 4.6 1.8 7.2 1.4 1.9-0.4 3.7-1 5.6-1.5 1.6-0.4 3.2-1.2 4.7-1 3.6 0.3 6.3-1 9.1-2.4 2-0.9 4-1.8 6-2.6 2.8-1.1 6.2 0 7.3 2.3 0.5 1 0.8 2.1 1.1 3 2.1 0.3 3.1-1 4.4-1.7 2.9-1.6 6-1.8 9.3-0.8q0.9 0.3 1.7 0.8c1.6 1 3.2 0.6 4.4-0.4 2.2-1.7 4.3-2.1 6.9-0.5 0.7 0.4 1.4 0.9 2.6 0.8 3.1-0.5 5.8-0.1 7.5 2.5 0.3 0.6 1.4 1.1 2.3 1.3 1.7 0.3 2.8 1.1 4 2.1 2.2 2 3.4 1.9 4.7-0.9 1.3-2.6 3.8-4.2 6-6.2 0.2-0.2 0.6-0.4 0.8-0.3 3.3 0.4 4.9-2.6 8-2.5 1.7 0 3.1-0.8 4.3-1.8 1-0.7 1.9-1.4 3-2 0.5-0.2 1.5-0.1 1.9 0.1q3.4 2.3 6.7 4.7c1.5 1.1 3.1 1.9 5.2 1.9 1.1 0 1.7 0.7 2.5 1.1 2.7 1.3 2.9 1.3 5.8-0.8-0.3-1.5-0.5-3.1 1.4-4.2 2.1 0.4 4.3 0.8 6.4 1.3 0.8 0.3 1.4 1 2 1.5 4.3 0.1 8 2 12.2 2.4 3.5 0.2 5.4 3.8 9.4 3.6 0.5 0 1.2 0.5 1.4 1 1 1.5 2.5 2.3 4.5 2.7 1.5 0.4 3 0.9 4.8 1.5 3.2 3.6 6.6 7.4 10 11.3 2 0.1 4 0.6 5.9 0.4 2.4-0.3 4.6 0.1 6.6 0.9 2.1 0.9 3.8 0 5.6-0.1 2.1 1.4 4.1 2.8 6 4.2 0.3 1.7 3.2 1.9 3.1 3.8 1.2 0.1 1.7 0.7 1.9 1.6 1.9 0.1 3.9 0.4 5.8 0.3 2.2-0.1 3.7 0.6 5 1.9 1.3 1.2 2.3 2.5 3.6 3.7 0.4 0.4 1 0.8 1.5 0.8 2.2 0 4.5-0.5 6.6-0.3 3.4 0.5 6.9 0.1 10.3 1.3 1.1 0.4 2.4 0.4 3.6 0.6 2.1 0.3 2.1 0.3 4.6 3.3 0.8 0.9 2 1.2 3.4 1.3 0.3-0.4 0.6-1 1-1.2 2-0.7 4-1.4 6-2 0.9-0.2 1.9 0.1 2.4 0.8 0.8 1.1 0.7 2.5 2.4 3.1 1.1-0.5 2.4-0.9 3.2-1.7 2.7-2.2 5.6-2.1 8.8-1.1 2.8-0.1 3.4 1.5 3.8 3.2 1.3 0.2 2.6 0.1 3.6 1 1.4 1.3 3.4 2.1 5.2 1.8 1.8-0.2 3.1 0.8 4.5 0.8 1.9-0.1 3 0.9 4.5 1.4 1.2 0.4 2.7 0.8 3.8 0.5 3.6-1.1 7.7-0.7 11.2-2.6 1.5-0.8 3-0.2 4.4 0.8 1.8 1.5 2.6 3.7 5.3 4.5 1.9-0.4 3.8-0.9 5.6-1.3 2.2-0.4 3.5 1.4 5.5 1.6 0.3 0 0.6 0.1 0.9 0.1 3.1 0.3 5.8 0.2 7.7-2.3 0.3-0.5 1.7-0.5 2.6-0.6 3.4-0.1 6.9 0.2 10.2-1 1.1-0.3 2.4-0.2 3.7-0.2 1.9-0.1 3.8-0.1 5.7-0.1 1.2-1.3 2.7-2.3 4.8-2.3 2.6-0.1 5-0.3 7-2.1 0.5-0.4 1.8-0.5 2.7-0.3 2.4 0.4 4.4 0.2 6.2-1.4 1.6-1.4 3.5-2.1 6-1.8 1.1 0.1 2.5-0.6 3.5-1.2 5.2-3.3 5.9-4 9.4-8.8 0.7-0.9 1.2-1.8 2-2.7 0.3-0.3 1.3-0.4 1.8-0.3 1.1 0.5 2.2 1.1 3.3 1.7q1.9 0.3 3.7 0.6c1-0.1 2-0.3 2.9-0.3 3.6 0 4.1 0.5 3 3.1-0.2 0.7-0.4 1.5-0.3 2.3 0.1 0.6 0.8 0.9 1.4 0.6 0.6-0.2 1.1-0.5 1.6-0.9 3-2.8 3-2.8 6.2-1.4q0.4 0.3 0.8 0.5c1.5 0.9 2.9 1 4.5 0.1 0.7-0.4 1.6-0.7 2.4-1.1 1.7 0.5 3.2 0.9 4.7 1.4 2.1-0.4 4.1-0.3 6.1 0.2 0.3-0.1 0.7-0.3 0.9-0.2 2.7 0.9 5.3 1.7 7.4 3.6 3.1 2.6 6.9 3.7 11.3 2.4 0.9-0.3 2.1 0.1 2.9-0.2 6.5-2 13.3-2.1 20-2.7 2.7-0.3 5.1 0.1 7.5 0.8 2.2 0.5 4.3 1.1 6.2 2.1 1.4 0.6 2.4 0.3 3.6 0 2.4-0.6 4.5-0.1 5.8 1.8 0.2 0.2 0.4 0.5 0.4 0.7 0.7 1.9 2.2 2.5 4.4 2.3 4.3-0.4 8.4-0.1 12.2 1.9 1 0.5 2.6 0.2 3.8 0.4 1.2 0.3 2.3 0.9 3.5 1.3 1.3-0.1 2 0.4 1.8 1.5 1.8 1.1 3.7 1.9 5.4 2.9 2 1.3 3.7 3 5.5 4.6 0.5 0.3 1 0.7 1.5 1 0.9 0.6 2.4 0.5 3.5-0.3q1.1-0.8 1.9-1.8c1.1-1.2 2.3-0.5 3.6-0.4 0.5-0.1 1.2-0.1 1.8-0.3 2.6-0.7 5.2-0.5 7.9 0.2 2-0.9 4.2-1.3 6.6-1 2.2 0.2 4.6 0.2 6.7 0.9 2.3 0.7 4.5-0.9 6.6 0.2 1.8 0.9 3.1 0.3 4.2-0.9 0.5-0.6 1-0.7 1.7-0.4 2.2 1.1 4.4 0 6.9-0.2 0.8 0.5 1.8 1.2 2.9 1.8 3.1 1.8 7.1 2 9.7-0.3 2.2-1.9 5-2.4 7.7-3.2 2.9-0.9 5.9-1 8.4 0.4 3.6 2.1 7.7 2.8 11.8 3.6 1.5 0.3 3.5 0.5 4.5 1.4 1.5 1.3 3 1.9 5.1 1.4 2.3-0.5 4.3-0.5 6.3 0.9 0.6 0.4 2 0.5 2.7 0.2 2.1-0.9 4.3-1.2 6.6-0.9 3.8 0.4 7.6-1.2 11.4 0 2.4-1.5 5-0.9 7.5-0.4 1.7 0.3 3.1 0.4 4.7-0.2 2.2-0.8 4.5-0.3 6.7-0.5 2.5-0.3 4.4-2.3 7.2-2.2 1.6 0 3.4-0.7 4.8-0.4 3 0.7 5.8 0 8.6-0.1 0.2 0 0.5 0.4 0.7 0.6 1.8-0.1 3.4 0 4.1 1.7q2.3 0.7 4.5 1.3c1.9-0.9 3.6 0.9 5.5 0.2 0.4-0.2 1.3 0.2 1.7 0.5 2.1 1.1 3.9 1.8 5.9-0.2 1-1 2.6-1.5 4-2.3 0-0.3 0-0.7 0.2-0.8 1.1-0.4 2.4-0.6 3.3-1.2 1-0.6 1.7-1.6 2.7-2.3 0.4-0.3 1.1-0.2 1.7-0.2 1.5-0.6 3.1-1 4.3-1.8 2.5-1.7 4.7-3.6 6.8-5.4 1.6-0.1 3-0.2 4.2-0.3 2.9-0.5 6-0.4 7.9-2.7q4.1-1.2 8.1-2.5c2.2 0.6 3.8-0.2 5.3-1.3q3.2-2.5 6.4-5c0.6 0.1 1.2 0.3 1.8 0.2 2.8-0.1 4.5-1.1 5.1-2.9q0.3-0.7 0.3-1.5c0.1-1.9 1.4-3.2 3.5-3.4 3.5-0.3 6-1.9 8.3-3.9 0.6-0.5 1.2-1.2 1.9-1.7 1.3-1 2.8-1.4 4.5-1 1 0.1 1.9 0.4 2.8 0.6 0.9-0.7 1.8-1.4 2.8-2.3 1.3 0.7 2.3 1.2 3.7 1.9 1.5-1 3.2-2.2 5.1-3.2 0.7-0.5 1.6-0.6 2.5-0.8 2.3-0.3 4.5-0.5 6.4-0.8 0.8-0.9 1.4-1.6 1.8-2.3 1.4-2.5 3.9-3.5 7.1-3.4 2.7 0.2 5.1-0.5 7.5-1.2 2.5-0.7 5.2-0.9 7.1-2.4 1.3-1.1 2.1-2.6 3.1-3.9 0.4-1.8 0.6-3.6 1.3-5.3 0.6-1.5 1.5-2.7 3.9-2.9 2.4-0.2 4.8-0.8 7.2-1.3 0.9-1.5 2.3-1.7 3.9-1 1.9 0.9 3.6 1.5 4.8-0.6 0.3-0.4 1-0.6 1.6-0.8 0.3-0.1 0.6-0.1 1 0 2.4 0.5 4.4-0.1 6.1-1.6 1.9-1.9 4-3.6 7.5-2.9 0.5 0.1 1.2-0.4 1.8-0.5 4.6-1.4 8.3 0 11.2 2.8 1.5 1.5 3.3 1.7 5.1 1.8 1.6 0 3.2-0.7 4.7 0.2q3.7 0.3 7.4 0.6c1.7 1.7 4.2 0.6 6.2 1.2 0.6 0.1 1.3 0 1.7 0.3 4.1 3.2 5.5 8.2 10.6 10.8q0.5 1.9 1 3.8c1.6-0.2 3.1-0.3 4.8-0.4 0.4 0.8 0.6 1.6 0.9 2.3 0.6 1.7 2.2 2.6 4.2 2.4 0.9-0.1 1.8-0.3 2.8-0.4 1.5-0.3 2.8-1.2 4.5-0.8 1.2 0.3 2.4 0.4 3.8 0.6q0 2.7 0.2 5.4 1.9 0.1 3.8 0.2c1-0.8 2.3-1 3.6-0.8 1.9 0.4 3.5 1.1 4.7 2.6 1.5 1.8 1.8 1.7 3.9 0.6 1.1-0.5 2.1-1.1 3.3-1.5 0.5-0.2 1.4 0 1.8 0.3 0.8 0.7 1.3 1.8 2.3 2.3 1.4 0.7 3 1.1 4.5 1.5 0.5 0.1 1.4 0 1.8-0.3 1.3-1 2.7-1.9 3.9-3v-360c-1.3 0.3-2.8 0.4-4.3 0.3-1.2-0.1-2.4 0.2-3.6 0.3-0.6-0.7-1.2-1.4-1.7-2-0.6 0.6-1.1 1.6-1.7 1.6-2 0-3.6 0.2-5 1.5-1.7 1.6-3.8 1.5-6 0.9 0 0.8-0.4 1.4-1.5 1.1-0.9-0.2-1.6-0.7-2.4-1.1-0.5 0.2-1.2 0.7-1.6 0.5-1.9-0.5-3.6-1-5.5 0.3-1.5 1-3.5 1.1-5.5 0.9-1.3-0.2-2.6-0.3-3.7 0.5-1.2 0.9-2.8 1.2-4.2 1.8-2.2 1-3.6 0.2-5.1-0.8-0.2-0.1-0.7-0.2-0.9-0.1-3.1 1.4-6.9 1.3-9.7 3.3-1.2 0.8-2.5 1.8-3.9 2.3-1.7 0.7-3.8 0.7-5.4 1.4-1.5 0.9-2.9 0.9-4.5 0.8-1.3-0.1-2.7-0.8-3.8-0.5-4.8 1.2-9.6-0.3-14.5 0.1-2.1 0.1-3.5-1.2-4.8-2.3-0.6-0.6-0.9-1.3-1.4-2.1-2.3 0.7-4.4 1.3-6.5 2-1.2 0.4-1.8-0.1-2.3-1.8 0-0.3 0-0.6 0-0.8-1.8 0.3-3.7 0.6-5.5 0.9-2.1 0.3-3-0.2-4.1-2.3-0.1-0.2-0.3-0.4-0.5-0.7-1.1 0.4-2.2 0.8-3.4 1.2q0 0.7-0.2 1.3c-0.3 1.2-1 1.9-2.5 1.8-1.8-0.1-3.7-0.3-5.6-0.4q0.1 0.9 0.2 1.8c2.5 1.5 2.5 1.9-0.2 3.3-0.4 0.3-0.7 0.6-1.2 0.8 0 0-0.4-0.2-0.5-0.4-0.1-0.7-0.1-1.4-0.2-2.1-2.3-0.2-4.2 0.5-4.9 2.8-1.4-1.5-1.6-3.1-3.7-3-2.7 0.1-4.9-0.9-7.1-2.1-0.9 0.1-1.9 0.3-2.8 0.1-2.1-0.3-3.6 0.3-5.1 1.4-0.3 1.1-1.2 1.9-2.3 2.3-0.8 0.3-2 0.7-2.6 0.4-2.1-1.2-3.5-0.6-4.7 0.9-0.5 0.6-0.9 1.2-1.5 1.9-1.1-1.5-1.9-2.8-3.8-3.5-0.4-0.1-0.5-0.9-0.7-1.3-1-1-2.4-1.9-1-3.4 0.5-0.5 0.1-0.9-0.3-1.4-0.8-1.2-1.9-2.1-3.1-3-1.6-1.3-3.3-1.9-5.3-1.2-2.8 1.1-5.5 1.4-8.5 0.5-1.1-0.3-2.6 0-3.8 0.4-2.2 0.7-4.5 0.2-6.8 0.5-1.8 0.2-2.9-0.9-4.3-1.5-2 0.4-3.3-0.1-4-1.7-1.9 0.1-3.9 0.1-5.7 0.4-2.6 0.5-5.1 1.1-7.5 1.8-1.3 0.4-2.5 0.3-3.8-0.2-0.8-0.3-1.8-0.6-2.8-0.6-3.2-0.1-6.4-0.3-9.4-1.6-1.1-0.4-2.6 0-3.8-0.3-2.4-0.6-4.2 1.4-6.6 0.6-1.3-0.5-2.3 0.7-3.4 1.2-2.3 1.1-4.8 1.6-7.5 0.7-1.2-0.3-2.7-0.8-3.7-0.4-2.3 0.7-3.6 0.3-4.8-1.3-0.9-1.1-2.4-1.8-3.6-2.7-2.1 0.2-3.6-0.4-4.6-2.1-0.5-0.9-1.8-1-3.2-0.6-3.4 1.1-4.4 0.5-5.7-2.9-0.6-0.6-1.1-1.6-1.8-1.7-3.1-0.4-6-1.2-9.4-0.2-4.5 1.4-9.4 1.9-14.1 2.8-2.6 0.5-4.3-0.6-6.1-1.8-0.9-0.4-2-0.5-2.6-1-1.7-1.4-3.5-2.5-6-2.3-2.8 0.1-5.1-0.5-6.9-2.4-1.7-1.6-3.5-0.8-5.1-0.3-2.2-0.8-4.3-1.5-6.4-2.2-2.4 0.9-4.1-1.2-6.4-0.9-2.4 0.7-4.5 1.7-7.2 0.3-2.1-1.1-4.8-1.5-7.2-2.1-0.6-0.1-1.3-0.1-1.9 0-3 0.9-6.1 1.7-8.9 2.9-2 0.9-3.6 2.3-5.5 3.4-2.6-0.3-5.6 0.5-8-0.8-2 1.4-3.6 3.3-5.9 4.1-3.4 1.3-6.6 3.6-10.8 3.2-1.2-0.2-1.9 0.3-2.4 0.9-1.1 1.2-2.5 1.6-4.2 1.7-1.6 0-3.6-0.3-4.8 0.4-2.1 1.3-4.4 0.1-6.5 0.8-2.1 0.6-4.4 0.6-6.7 0.1-1.7-0.4-3.1 0.2-4.5 0.9-0.8 0.5-1.9 0.4-2.9 0.6-0.3 0.9-1 1.3-2.2 1.3l-0.2 0.1q-0.1 1.4-1.8 1.5c-0.4 0.3-0.9 1-1.3 0.9-1.4-0.2-2.6-1.2-4.4-0.6-1.6 0.5-1.8 0.3-2.2-1.3-0.1-0.3-0.1-0.6-0.1-0.8-1.1 0-1.7 0.6-1.9 1.4q-0.5 0.7-1 1.3-0.4-0.7-0.9-1.3-1.2-0.1-2.3-0.2c-2 1.2-4 2.4-6.2 3.5-1 0.5-2.4 1-3.6 0.9-3.6-0.6-6.9-0.2-10 1.5-2.6 1.4-5.5 1.5-8.4 0.9-3-0.6-5 0.5-6.9 2.1-0.4 0.3-0.9 0.9-1.3 0.9-2.8 0.1-5.6-0.1-8.4-0.1-0.8 0-1.8 0.3-2.6 0.6-1.9 0.6-1.8-0.8-2.4-1.5-0.4-0.3-1-0.6-1.5-0.8-0.3 0.7-0.7 1.4-1.8 1.5-1.8 0-3.6-0.7-5.2 0.7-0.4 0.5-1.7 0.6-2.6 0.5-1.9-0.2-3.6 0.1-5.3 1-1.6 0.8-3.4 1.3-5.1 2-0.6 1.3-1.8 1.8-3.5 1.7-0.8 0-1.7-0.3-2.6-0.4-1.8 1.8-2.1 1.8-3.8-0.1q-0.9 0.5-1.8 0.2c-1.1 1-2.1 2.1-3.4 2.8-1.5 0.9-3.4 1.4-4.6 1.9-1.5 2.4-2.7 4.3-3.9 6.2-1.2 1.9-2.1 4-3.7 5.7-1.3 1.4-3.5 2.2-5.3 3.3-0.4 0.5-0.6 1.1-1 1.3-1.9 1-3.9 1.9-5.8 2.7-1.9-0.5-3.7-0.9-5.6-1.3-1 0.7-2 1.3-2.9 2-2 1.4-4 2.7-6.6 3.2-0.4 0.2-1.1 0.8-1.4 0.7-2.8-1-5.7-2-8.5-3-3.1-0.4-6.2-0.7-9.2 0.2-0.1 0.1-0.4-0.3-0.6-0.5q-0.8 0.3-1.5 0c-0.8 0.4-1.5 1.1-2.3 1.1-3.6 0.2-6.7-0.9-9.6-2.7-0.2-0.1-0.2-0.5-0.3-0.7-3.6 0.1-7.2 0.4-9.7-2.4-0.3-0.4-1-0.7-1.6-0.8-3.8-0.5-7.6-1.1-11.2-2.3-2.2 0.4-4.4 0.7-6.6 1-0.6 0.1-1.3 0-1.9 0-1.3 0.2-2.5 0.3-3.7 0.6-1.2 0.3-2.3 1.3-3.4 0.4-0.4-0.4 0.3-1.4 0.2-2.1-0.3-1.3-0.8-2.5-1.2-3.8-1.9 0.5-3.2 1.5-4 2.9-1.2 0.6-2.5 1.1-3.7 1.7q-3.1-0.2-6.1-0.4c-0.1 0.7-0.6 1.1-1.2 0.9-0.4-0.1-0.6-0.7-0.7-1.1 0-0.5 0.2-1 0.2-1.5l-0.2-0.7 0.1-0.8c-0.5-1-1.4-1.6-2.7-1.7-1.3-0.2-2.5-0.4-3.7-0.5-1.6-0.3-3.2-0.7-4.8-0.8-0.9-0.1-1.9 0.1-2.7-0.5-2.8-2.4-7.1-2.7-10.1-4.6-2.7-1.6-5.4-1.5-8.3-1.4-1.7 0.1-3.3 0.3-4.8 0.7-2.5 0.6-4.5-0.1-6.3-1.4-1.2-0.9-2.2-1.9-3.3-2.9-1.3-0.1-2.3-0.7-3-1.6-1-1.4-2.2-2.3-4.3-2.5-2-0.1-2.4-1.3-2.2-2.7-1-0.4-1.8 0.4-2.7 0.4-1.2 0-2.4-0.6-3.6-0.7-4.1-0.2-7.2-2.4-10.7-3.7-1.3-0.4-2.2-0.3-3.4-0.4-4.5-0.5-9-1.3-11-5.5-0.8-1.7-1.4-1.9-3.7-1.4-2 0.5-3.9 0.4-5.8 0.3-0.5-0.1-1.1-0.5-1.5-0.8-1.7-2-4.2-2.1-6.9-2.4-5.4-0.5-10.1-2.1-12.1-6.9-1 0.2-1.9 0.3-2.9 0.5-2.9 0.4-5-0.5-6.4-2.7-0.5-0.8-0.9-1.9-2.4-2.2-2.3 0.2-4 2-6.5 1.4-0.2 0.7-0.3 1.4-0.5 2.2-0.1 0.2-0.5 0.3-0.7 0.4-0.2 0-0.5-0.3-0.5-0.5-0.1-1.2-0.1-2.5-0.1-3.7-0.4-0.6-1-0.8-1.6-0.5q-1.4 0.8-2.7 1.9c-0.8 0.7-1.3 1.8-2.3 2.3-0.9 0.4-2.2 0.2-3.3 0.3-0.2 0-0.4 0.4-0.6 0.6-1.1 1.4-1.6 1.7-2.4 1.3-0.8-0.4-1.2-1-1.1-1.8q0.1-0.8 0.2-1.5c-0.5-0.2-1.2-0.8-1.5-0.7-1.7 0.8-3.1 2.1-4.9 2.5-3 0.9-5.1 2.3-6.9 4.3-0.8 0.8-1.8 1.5-2.8 2.3-2 1.4-5.7 1.9-8.1 0.4-2.1-1.4-3.5-0.8-5.2 0.1-1.1 0.5-1.5 1.7-3.1 1.8-2.4 0.1-4.3 1.2-5.8 2.7-1.6 1.7-3.2 3.3-6.3 3-0.8 0-1.7 0.7-2.4 1.2-1.3 0.9-2.4 1.9-3.5 2.9-0.8 0.8-1.3 1.9-2.2 2.6-1.2 0.9-2.6 1.6-4.1 2.2-1.1 0.4-2.6 0.3-3.6 0.8-1.8 0.9-3.6 1.2-5.5 0.6-1-0.2-1.8-0.6-2.8-0.9-4-1-8.3-0.7-12.3-2.2-0.7-0.2-1.9 0.2-2.7 0.5-1.2 0.5-2.2 1.2-3.3 1.7-2.9-0.4-5.6-1.6-8.6-1.1-2.4 1.9-3.5 4.6-6.5 6-0.4 1.1-1.2 1.5-2.5 1q-0.6 0.1-1.3 0c-3.5 0.6-6.9 0.1-10.4-0.3q-0.9 0.1-1.5 0.6c-0.4 1-1.1 1.3-2.3 1v0.2c-1.6 2.3-3.6 4.3-7.1 4.5-2.6 0.1-2.9 1.6-3.2 3.2-0.1 0.2-0.4 0.4-0.6 0.6-0.4-0.3-0.8-0.5-1.1-0.8-0.2-0.2-0.1-0.5-0.1-0.8 0-2.1-2-2.3-3.9-2.6-1.4 0.7-2.8 1.3-4.2 2-1.4 0.8-2.9 1.5-4.5 1.2-3.5-0.5-5.4 1.5-7.6 3-0.2 1.2-1.3 1.5-2.6 1.4-0.9-0.1-1.8-0.4-2.7-0.7-1.8 0.1-3.1-0.8-4.4-1.6-3.4-1-7 0.4-10.5-0.6-3.7-0.9-7.7 0.3-11.1-0.4-1.6 0.9-2.8 1.8-4.2 2.3-1.5 0.5-3.5 0.3-4.6 1-2.5 1.7-4.9 0.9-7.6 0.4-1 0.8-2.1 1.7-3.3 2.5-1.3 0.7-2.8 1.3-4.2 1.9-2.1 1.7-4.4 2.5-7.4 1.3-2.5-1-4.1 0.3-5.2 2.1q-1.6-1.4-3.2-2.7-2.9-0.1-5.8-0.2c-1 1.1-2.1 2.2-4.1 1.5q-3.9-0.1-7.8-0.2-0.1 0.7-0.1 1.5c-0.6 1.9-2.4 1.5-4 1.5-0.3 0.9-0.9 1.4-2 1.4q-1 0-2.1 0 0.6-2.8 4.1-3.1l0.1-1.6q-2 0-3.9-0.1-1.1-0.2-2.1-0.3c-1.5 0.7-2.8 1.3-4.5 0.4-1.4-0.7-2.9-1.3-4.4-2-1.2 0.3-2.4 0.6-3.6 0.9-0.4-0.3-0.8-0.6-1.1-1.1-1.5-1.9-1.9-2.1-3.5-1.4-0.9 0.3-1.6 0.9-2.5 1.2-0.9 0.3-1.9 0.3-2.8 0.5-2.8 0.5-5.8-0.3-8.4 1-0.3 0.1-0.7 0-1-0.1-1.6-0.1-3.1 0-4.6-0.9-1.3-0.7-3.1-0.9-4.6-1.3-2.2 2-4.9 1-7.4 0.9-0.4-0.1-0.6-0.8-0.9-1.2-1.6-0.1-3.3 0.1-3.7-1.7-3-1.5-3.1-1.4-4.1 0.9q0.1 1.1 0.2 2.1c-0.1 1.2-0.3 2.5-1.6 3.4-0.5 0.3-1 0.5-1.5 0.8-0.3-0.5-0.8-0.8-0.9-1.3-0.1-0.5 0-1 0-1.5q0.1-2.4 0.3-4.8l-0.1-0.1q-2.9-0.1-5.9-0.1 0.3 0.7 0 1.4c0.6 0.6 1.3 1.1 1.6 1.7 0.2 0.2-0.5 0.8-0.8 1.2-0.2-0.2-0.5-0.3-0.6-0.4-0.2-0.8-0.4-1.5-0.5-2.2-2 0.5-3.7 2-6.1 1.1-1.9-0.5-3.7-0.4-5.6 0.1-0.4 0.8-1.2 1.2-2.1 1.1-2.9-0.3-5.5-0.3-6.7 0.2-1.1 0.5-1.9 1.4-3.3 1.1q-1.4 0.2-2.8 0.4c-3.6 0.6-4 0.4-5-2.6-0.6-1.8-2.3-1.2-3.7-1.3-0.5 1.1-1.5 1.6-3 1.5-0.3 0-0.6 0-0.9-0.1-4.1-1.8-8.5-1.9-13-1.7-1.4 0.1-2.4-0.6-3-1.6q-3.1-2.3-5.5-5c-4-0.7-8.4 0.6-12-2-0.2-0.2-0.6-0.2-1-0.2-4.1-0.1-8.4 0.3-12.1-1.7-0.3-0.1-0.7-0.1-1 0-1.9 0.9-3.8-0.4-5.6-0.2-2.1 0.2-3.9-0.3-5.8-0.7-2.3-0.4-4.4-0.4-6.7 0.2-2.4 0.6-4.9 0.7-7.4-0.7-1.2-0.7-3-0.8-4.6-0.9-1.5-0.2-2.1-1-2.9-1.9-0.4-0.4-0.8-0.8-1.3-1.2q-1 0-2 0c-0.2 0.7-0.2 1.5-0.4 2.2-0.1 0.2-0.4 0.5-0.7 0.5-0.1 0.1-0.5-0.2-0.6-0.4-0.6-1.8-2.2-2.4-4.2-2.3q-0.5 0.6-1 1.2c-1.3-1.2 0.3-1 1-1.2-0.6-1.9-2.7-1.6-4.3-2q-1.7-0.8-3.3-1.7-1.4 0.1-2.7 0.3c-1.5 0.2-3.2 0.3-4.2-0.7-0.6-0.8-0.7-1.8-1-2.7-3.1-0.1-5.2-1.8-7.1-3.5-1-0.9-1.8-2-2.7-3.1-0.9 0.2-1.9 0.6-2.7 0.4-1.2-0.2-2.3-1.1-3.4-1.2-1.6-0.2-3.2 0.8-4.7 0.1-1.6-0.8-3.2 0.1-4.7-0.3-1.7-0.5-3.4-1.3-5-2.1-2.3-1.1-4.6-1.8-7.2-2.2-0.5-0.1-0.8-0.7-1.3-1q-2.8-0.8-5.6-1.5c-0.6 0.7-1.5 1-2.4 0.7-1.4-0.6-2.7-1.4-4-2.1-2-1.2-4.1-1.5-6.4-0.7-2.6 0.9-5.2 1.9-7.8 2.9-3.6-2.4-7.4-4.3-11.9-5.3-1.2-0.3-2.4-0.8-3-1.8q-3.9-0.4-7.7-0.9c-1.2 0.6-2.5 0.4-3.7 0.4-1.6 0.1-3.2 0.4-4.7 0.8-1.1 0.4-2 1.4-3.2 1.6-1.5 0.3-3.1 0.1-4.8 0.1-2.8-0.1-5.7-0.1-8.6-0.4-0.9-0.1-1.9-0.6-2.6 0-2.4 2.1-5.5 0.9-8.2 1.4-1.3 0.2-2.5 0.4-3.8 0.6-1.9 2.4-5.7 2.2-8.2 3.9-0.3 0.6-0.7 1.3-1.7 1.4-2 0.3-4.1 0.5-6.1-0.1q-2.8 0.2-5.6 0.3c-3.3-2-7.4-1.6-11.1-2.7-3.1-1-6.2-0.3-9 1.3-0.6 0.6-1.1 1.5-1.8 1.7-2 0.5-3.1 1.7-4.3 3-1.5 1.8-2.7 2.3-4.7 1.1-2.2-1.2-3.6 0.1-5.4 0.1-2.7 0.9-6.1-0.6-8.3 1.7-2.9-0.1-5.7 1.3-8.5 0.3-1.3-0.5-2.6-0.9-3.5 0.1-2.9 3.1-7.2 4.4-11.1 6-0.8-0.7-1.6-1.1-2.6-1.3v328.6c1.5-1 3-2 4.5-3zm1495.2 17.4l0.6 0.3-0.7 0.2 0.1-0.5zm-37.9-346c0.5-0.1 1.2-0.4 1.7-0.2 0.4 0.2 0.6 0.8 0.6 1.3 0 0.3-0.6 1-0.8 1-0.5-0.1-1.1-0.5-1.5-0.8-0.2-0.2-0.2-0.5-0.3-0.7 0.1-0.2 0.1-0.6 0.3-0.6zm-12.4 331.1l0.2 0.6-0.6-0.1zm-126-329.6l0.6 0.4-0.7 0.1zm-16.6 11.3c0.1-0.2 0.4-0.2 0.6-0.3 0.3 0.5 0.7 0.9 0.7 1.3 0.1 0.7 0.1 1.5-0.8 2-0.1 0-0.5-0.2-0.6-0.3-0.7-0.9-0.7-1.9 0.1-2.7zm-26.2-14.4l-0.1 0.5-0.6-0.3zm-29.6-1.3c0.1 0 0.3 0.3 0.4 0.5-0.2 0.1-0.5 0.3-0.5 0.3-0.7-0.3-0.7-0.6 0.1-0.8zm-374 35.3c0.2 0.2 0.6 0.4 0.5 0.5-0.1 0.5-0.4 0.9-0.6 1.3-0.3-0.3-0.9-0.6-0.8-0.9 0-0.3 0.6-0.6 0.9-0.9zm-30.7-6.9c0.1 0.4-0.5 0.8-0.8 1.2-0.2-0.2-0.5-0.3-0.5-0.5-0.2-0.7-0.2-1.4-0.3-2.2 0.9 0.3 1.6 0.7 1.6 1.5zm-74.6-18.2l0.2 0.5h-0.6l0.4-0.5zm-29.2-12.1c0.3 0.3 0.9 0.6 0.8 0.9 0 0.3-0.6 0.6-0.9 0.9-0.2-0.2-0.6-0.4-0.5-0.5 0.1-0.5 0.4-0.9 0.6-1.3zm-7.6 1.2l-0.1 0.5-0.5-0.3 0.6-0.2zm-30.6-12.8c0.6 0.1 1 0.3 1.6 0.5-0.4 0.3-0.8 0.7-1.1 0.7-0.4-0.1-0.7-0.5-1.1-0.7 0.2-0.2 0.5-0.5 0.6-0.5zm-98.3 24.3l0.5 0.3-0.6 0.2zm-18.5-1c0.5 0.2 1 0.8 0.8 1.1-0.3 0.6-1 1.1-1.9 2.1-0.4-1.1-0.9-1.7-0.9-2.3 0-0.8 1.2-1.3 2-0.9zm-83.8 320.8l0.5 0.3-0.6 0.2 0.1-0.5zm-71.3-292.6q-0.5 0.5-0.9 1.1c-1.2-1.2 0.3-0.9 0.9-1.1zm-204.6-24.6c0.2 0.2 0.6 0.4 0.6 0.6-0.1 0.4-0.4 0.8-0.6 1.3-0.3-0.4-0.9-0.7-0.8-0.9 0-0.4 0.5-0.7 0.8-1zm-64-22c0.1 0 0.3 0.3 0.4 0.4-0.2 0.2-0.5 0.4-0.6 0.4-0.6-0.3-0.6-0.7 0.2-0.8zm272.6 45.1q0 0 0 0zm4.1-3v-0.1 0.1z"/>
			<g id="Clip-Path" clip-path="url(#cp2)">
				<g>
					<path class="s1" d="m738.2 253.8c-0.4 0.1-0.8 0.2-1.3 0.3q-0.3 0-0.6 0c-0.8 0-1.3-0.5-1.4-1.2 0-0.1 0-0.3 0-0.4 0-0.7 0.4-0.9 0.9-1q0.2 0 0.4 0c0.6 0 1 0.3 1.6 0.3 1.4-0.2 2.1-0.5 2.8-0.8 3.1-1.3 7.9-4.2 7.5-7.7-0.4-2.9-3.2-3.1-5.5-2.8-1.7 0.2-3.3 0.6-4.8 1.1-0.2 0.1-0.3 0.1-0.4 0.1-0.5 0.1-1.1-0.3-1.1-0.8-0.1-0.5 0.1-1 0.6-1.3q0.8-0.4 1.7-0.9c1.7-0.9 5.4-3.3 5.1-5.5 0-0.5-0.4-1.1-0.8-1.4-0.9-0.7-2.2-0.7-3.2-0.6-2.1 0.2-4 1-5.9 1.9-0.1 0-0.1 0-0.2 0-0.6 0.1-1.4-0.3-1.5-1 0-0.3 0.2-0.7 0.4-0.9 0.2-0.1 0.5-0.2 0.7-0.3 2.3-0.8 4.2-1.4 6.6-1.7 2.4-0.2 5.7 0.7 6 3.5 0.3 2.6-2.1 4.3-3.8 5.9h0.4c3.5-0.4 7.5 0.4 8 4.4 0.7 5.4-7.4 9.6-12.1 10.8z"/>
					<path class="s1" d="m762.2 250.1c0 0-0.2 0.2-0.4 0.2-0.2 0-0.5 0-0.8-0.2-0.2-0.2-0.4-0.8-0.4-0.8 0 0-2.3 2.1-4.5 2.4-0.8 0.1-1.6 0-2.3-0.6-0.5-0.4-0.9-1.1-1-1.9-0.2-2.3 1.4-5.4 3.8-6 0.1-0.1 0.3-0.1 0.5-0.1 2-0.2 3.1 1.4 3.8 2.9 0 0 0.5-1.4 0.2-3.3-0.1-1.3-0.6-2.9-1.7-4.4-0.7-1-1.7-1.3-2.6-1.2-1.4 0.2-2.7 1.3-2.7 1.8 0 0.1-0.1 0.2-0.3 0.2-0.4 0-1-0.2-1.1-0.8-0.2-1.2 2.1-2.7 4.1-2.9 0.8-0.1 1.5 0 2.1 0.3 2.7 1.2 3.8 3.9 4.1 6.8 0.4 3.7-0.5 7.6-0.7 7.7zm-4.8-5.3h-0.1c-2.3 0.6-3 2.8-2.8 4 0.1 0.5 0.3 1 0.5 1 0.2 0.1 0.5 0.2 0.9 0.1 1.7-0.2 3.9-2.4 3.9-2.4 0 0-1.2-2.9-2.4-2.8z"/>
					<path class="s1" d="m793.6 222.2c0.9 0.3 1.1 1.7 1.4 4.3 0.1 0.8 0.1 1.6 0.2 2.5 0.2 2.5 0.4 5.5 1 9.6 0.1 1.3 1.1 3.8 1.3 5.8v0.3c0.1 1.2 0 2-0.7 2.2h-0.2c-1.1 0.1-1.4-0.3-1.5-0.9v-0.2c0-0.6 0-1.3-0.1-2v-0.4c-1.3-8.1-1.8-11.7-2.1-13.9-0.1-1.3-0.2-2-0.3-2.9l-0.1-0.9c-0.3 1.1-0.6 3-1.9 6.1-2.4 6-6.5 17.2-6.8 17.5-0.2 0.2-0.7 0.4-1.2 0.6-0.4 0-0.8 0-1-0.2-0.4-0.2-0.9-0.6-1-1.6 0-0.3 0-0.8 0.1-1.3l-0.2-2.1c-0.4-3.5-0.8-8.6-1.1-12-0.1-1.5-0.2-2.8-0.2-3.6v-0.9l-0.1-0.4c-0.1-0.9-0.2-1.7-0.3-2.4v-0.3c-0.1-1 0-1.7 1.1-1.9 0.7-0.1 1.2 0.8 1.4 2.1 0.1 0.2 0.1 0.6 0.2 0.9v0.4c0.1 1.4 0.1 2.8 0 3.7-0.1 1-0.1 2.5 0.1 4.2 0.2 1.7 0.3 3.5 0.5 5.3v0.5c0.2 0.7 0.2 1.3 0.3 1.8 0.1 1.1 0.2 1.9 0.3 2.8 0 0.3 0.1 0.6 0.2 1 0 0 0 0.1 0.1 0.2 0 0 4.3-10.6 6.4-16.2 0.8-2.6 1.4-5.2 1.4-5.5 0-0.6 0.6-2.3 1.7-2.4 0.5-0.1 0.8 0 1 0.2h0.2z"/>
					<path class="s1" d="m799.6 243c0 0 0-0.2 0-0.2 0-0.9-0.3-5.8-0.5-7.7v-0.6l-0.3-0.3c-0.1-0.3-0.3-0.5-0.3-0.9 0-0.3 0.1-0.7 0.3-0.9 0.3-0.2 0.6-0.4 0.9-0.4 0.3 0 0.3 0 0.5 0 0.9-0.5 5.8-3 6.5-3.2 0.6-0.3 1.8-0.9 2.7-1 0.2 0 0.4 0 0.6 0 0.5 0.1 0.9 0.5 0.9 0.9 0.1 0.7-0.5 1.4-1.2 1.5-0.1 0-0.3 0-0.4 0-0.2 0-0.6-0.2-0.8-0.3-0.6 0.1-1.8 0.6-4.2 2-0.5 0.4-1.9 1.1-2.8 1.6l-0.6 0.3 0.1 1.3c0.1 0.9 0.2 2.5 0.2 3.5l0.2 3.1c0 0.3 0 0.7 0 0.9 0 0.3 0 0.5 0.1 0.9 0 0.2 0.1 0.5 0.2 0.8 0 0.6 0 1-0.1 1.3-0.2 0.4-0.3 0.7-0.8 0.7-0.4 0.1-0.8-0.1-1-0.6-0.2-0.3-0.3-1-0.3-1.3-0.1-0.5 0-1 0-1.3z"/>
					<path class="s1" d="m814.3 244.2c0 0-0.2 0-0.2 0-0.5 0.1-1.2-0.4-1.4-0.7 0 0-0.1 3.2 0.5 8l0.3 2.4c0.3 2.5 0.6 4.1 0.6 4.3 0.2 0.2 0.3 0.4 0.3 0.6 0.1 0.6-0.3 1.1-0.7 1.1-0.1 0-0.2 0-0.2 0-0.8-0.1-1.2-0.7-1.3-1.3 0-0.2 0-0.4 0.1-0.6 0 0 0-0.2 0-0.4-0.1-0.8-0.6-2.8-1-6q-0.1-1.3-0.3-3.1c-0.5-7.4-0.4-10-0.3-16.5 0 0-0.9-0.2-1-1v-0.1c0.1-1 1.8-1.7 2.4-1.8 2.5-0.2 7.3 1.5 8.2 5.6v0.2c0.4 3.1-5.5 9-6.1 9.2zm-1.1-13.1c0 0-0.3 2.8-0.4 4.9 0 2.2-0.1 6.7-0.1 6.7 0 0 5.3-3.4 5.7-7.4q0-0.1 0-0.3c-0.2-1.8-3.2-4-5.2-3.9z"/>
					<path class="s1" d="m831.4 242.1c0 0-0.2 0.2-0.4 0.2-0.2 0-0.5 0-0.7-0.2-0.3-0.2-0.5-0.8-0.5-0.8 0 0-2.3 2.1-4.5 2.4-0.8 0.1-1.6 0-2.3-0.6-0.5-0.4-0.9-1.1-1-1.9-0.2-2.3 1.4-5.4 3.8-6 0.1-0.1 0.3-0.1 0.5-0.1 2-0.2 3.1 1.4 3.9 2.9 0 0 0.4-1.4 0.2-3.3-0.2-1.3-0.7-2.9-1.8-4.4-0.7-1.1-1.7-1.3-2.6-1.2-1.4 0.1-2.7 1.3-2.7 1.8 0 0.1-0.1 0.2-0.3 0.2-0.4 0-1-0.2-1.1-0.8-0.2-1.2 2.1-2.7 4.1-2.9 0.8-0.1 1.5 0 2.1 0.3 2.7 1.2 3.8 3.9 4.1 6.7 0.4 3.8-0.5 7.6-0.6 7.7zm-4.9-5.3h-0.1c-2.3 0.7-2.9 2.8-2.8 4.1 0.1 0.5 0.3 0.9 0.5 1 0.2 0.1 0.6 0.1 0.9 0.1 1.7-0.2 3.9-2.5 3.9-2.5 0 0-1.2-2.8-2.4-2.7z"/>
					<path class="s1" d="m845.1 224.4l0.8-0.1c0.9-0.1 2.1-0.2 2.4 0.8 0 0.5-0.3 0.6-0.8 0.7-0.4 0-0.9 0-1.2 0-2.3 0.2-4.7 1-6 1.5 0 0.4 0 6.2 0.6 10.9 0 0.6 0.1 1.2 0.2 1.8 0 0.1 0.3 0.6 0.3 1 0.1 0.5-0.1 0.9-0.8 1h-0.1c-1.1 0-1.5-1.2-1.5-1.8-0.2-1.6-0.5-3.8-0.5-7.4 0-2.6 0-3.3 0-4.9 0 0-1.8 0.6-3 1.4-0.6 0.4-1.7 1.6-2.3 1.7-0.7-0.1-1.2-0.4-1.3-0.9 0-0.1 0-0.2 0-0.2 0.1-0.6 0.2-0.9 2-1.9 2-1 4-2 6.5-2.7 0 0 2-0.6 4.6-0.9z"/>
					<path class="s1" d="m857.3 239.1c0 0-0.3 0.2-0.4 0.2-0.3 0-0.6 0-0.8-0.2-0.3-0.2-0.4-0.7-0.4-0.7 0 0-2.4 2.1-4.6 2.3-0.8 0.1-1.6 0-2.2-0.5-0.6-0.5-0.9-1.2-1-1.9-0.3-2.3 1.3-5.5 3.7-6.1 0.2 0 0.4-0.1 0.5-0.1 2-0.2 3.1 1.4 3.9 3 0 0 0.4-1.4 0.2-3.4-0.2-1.3-0.6-2.9-1.7-4.4-0.8-1-1.7-1.3-2.6-1.2-1.5 0.2-2.8 1.3-2.8 1.8 0 0.2-0.1 0.2-0.2 0.2-0.5 0-1.1-0.1-1.2-0.7-0.1-1.3 2.1-2.7 4.2-3 0.7-0.1 1.4 0 2 0.3 2.7 1.2 3.8 4 4.1 6.8 0.5 3.8-0.5 7.6-0.6 7.7zm-4.9-5.4h-0.2c-2.2 0.7-2.9 2.8-2.7 4.1 0 0.5 0.2 0.9 0.5 1 0.2 0.1 0.5 0.1 0.8 0.1 1.8-0.2 4-2.5 4-2.5 0 0-1.3-2.8-2.5-2.7z"/>
				</g>
			</g>
		</g>
	</g>
</svg>