<svg width="1438" height="167" viewBox="0 0 1438 167" fill="none" xmlns="http://www.w3.org/2000/svg">
<g clip-path="url(#clip0_126_300)">
<path d="M-60.4973 282.103C-60.1161 281.814 -59.8068 281.309 -59.3607 281.265C-56.5051 280.962 -53.6281 280.761 -49.3698 280.413C-48.9885 280.423 -48.1182 281.432 -46.8522 282C-45.5862 282.549 -43.6008 282.48 -43.1909 283.778C-39.0477 284.082 -34.7318 283.577 -30.8189 285.042C-30.1283 285.311 -28.8767 285.076 -27.9417 284.929C-26.3449 284.67 -25.5104 285.243 -24.7695 285.968C-24.23 286.482 -23.7841 287.031 -23.1727 287.702C-22.2664 287.379 -21.4967 287.109 -20.7271 286.83C-17.9002 285.821 -15.2028 285.62 -12.7931 287.388C-11.5128 288.329 -10.0311 288.226 -8.45581 287.633C-6.7439 286.997 -5.00318 287.408 -4.21912 288.358C-2.69422 290.161 -0.471561 290.563 2.35522 290.44C3.65002 290.372 4.9663 290.465 5.85827 291.244C6.41931 291.4 6.97326 291.567 7.5343 291.738C8.48376 291.773 9.47631 291.694 10.3755 291.851C15.9861 292.844 20.8821 293.288 25.0636 293.183C25.4233 292.625 25.639 291.998 26.1497 291.503C26.6748 290.979 28.286 291.057 28.6169 291.606C28.9479 292.165 29.0126 292.792 29.1924 293.394C29.8326 293.507 30.4728 293.629 31.1129 293.742C32.048 293.654 33.0334 293.639 33.9254 293.453C34.436 293.34 34.7958 292.939 35.2202 292.679C36.0113 291.693 37.4476 291.33 39.5288 291.591L39.1331 291.391L39.5791 291.547C39.3345 290.744 39.054 289.945 39.8452 289.196C40.6652 288.402 41.442 287.594 42.2621 286.757C43.5784 287.428 43.6431 288.716 45.3982 288.995C45.988 289.186 46.5635 289.162 47.1245 288.917C47.2396 288.079 47.3187 287.227 47.5057 286.389C47.5417 286.223 47.9014 286.076 48.1172 285.919C48.4768 286.144 49.1027 286.355 49.1171 286.59C49.1818 287.428 49.0522 288.28 49.0019 289.132C49.7068 289.421 50.3686 289.779 51.1383 289.96C52.1238 290.186 52.7495 289.769 53.0587 289.201C53.2529 288.853 53.2889 288.476 53.404 288.113C53.3896 287.261 53.1739 286.399 53.3896 285.596C54.0299 283.323 56.4611 282.686 59.7986 283.827C60.3884 284.028 60.9639 284.229 61.5393 284.42C65.0424 283.568 68.5237 282.72 72.0051 281.868C73.8105 282.206 74.7025 281.094 76.0117 280.829C77.8171 280.447 79.5937 280.168 81.0898 279.365C81.5143 279.085 81.9099 278.64 82.4062 278.571C83.3413 278.449 84.3771 278.674 85.3121 278.561C86.5637 278.404 87.7434 278.081 88.9591 277.822C90.4049 275.72 93.0519 276.156 95.663 276.514C99.1803 276.592 101.856 274.275 105.69 275.049C106.1 275.127 107.1 274.353 107.546 273.873C108.236 273.114 109.092 272.409 110.437 272.507C112.674 272.698 114.76 272.551 116.911 272.159C117.551 272.046 118.486 272.639 119.292 272.908C120.177 272.996 121.349 272.884 121.903 273.212C123.565 274.187 125.651 274.476 127.557 275.049C128.031 275.196 128.312 275.617 128.672 275.921C133.433 277.714 138.648 277.924 143.842 277.366C145.482 277.185 146.697 276.964 148.359 277.435C151.02 278.209 154.041 278.473 156.674 279.291C160.335 280.442 164.198 280.623 168.097 280.79C169.787 280.859 171.319 280.589 172.614 279.83C173.815 279.115 175.131 278.576 176.757 278.218C178.857 277.773 180.785 276.954 182.857 276.381C184.957 275.808 187.165 275.397 189.28 274.824C190.46 274.51 191.761 273.761 192.898 274.309C194.79 275.225 197.48 274.197 199.077 275.676C200.163 276.695 201.868 276.808 203.349 276.034C207.277 273.961 212.06 273.227 216.743 272.35C217.692 272.169 218.599 272.404 219.375 272.889C220.102 273.334 221.102 273.682 221.986 273.256C224.799 271.88 228 271.904 231.287 271.933C234.258 271.968 236.969 271.532 239.091 269.954C240.206 269.102 241.868 268.882 243.494 269.572C244.594 270.033 245.68 270.503 246.766 270.993C248.507 271.786 250.183 272.08 252.06 271.061C252.801 270.66 253.851 270.704 254.801 271.037C256.952 271.821 259.088 272.056 261.246 271.027C262.426 270.469 263.778 271.218 265.022 270.939C265.152 270.155 264.828 269.259 266.432 268.813C267.137 269.205 267.842 269.641 268.604 270.033C269.374 270.449 270.101 270.679 271.215 270.346C274.337 269.416 277.624 269.842 280.861 270.101C285.479 268.681 289.896 266.442 295.434 268.612C295.744 268.735 296.52 268.343 297.096 268.211C299.527 267.628 302.275 268.725 304.656 267.593C304.987 267.437 306.066 267.569 306.382 267.804C309.043 269.783 313.971 269.249 316.258 271.674C316.654 272.1 317.934 272.32 318.84 272.355C321.401 272.477 323.998 272.536 326.515 272.771C329.342 273.04 331.594 272.727 333.845 271.718C334.24 271.551 335.046 271.708 335.636 271.786C335.916 271.821 336.262 271.978 336.377 272.144C337.722 273.981 340.139 274.26 342.93 274.216C344.411 274.192 345.195 274.897 345.447 275.828C348.404 277.65 351.381 279.453 354.287 281.309C354.698 281.554 354.784 281.99 355.014 282.362C356.244 282.152 357.445 281.838 358.711 281.76C360.258 281.672 361.948 281.559 363.113 282.534C364.408 282.603 365.775 282.882 367.005 282.715C369.501 282.367 372.112 283.788 374.564 282.47C374.874 282.304 375.766 282.47 376.341 282.593C377.888 282.916 379.657 283.087 380.873 283.7C383.894 285.243 386.987 286.017 390.849 285.365C391.411 285.262 392.346 285.968 393.051 286.34C393.547 286.61 393.971 286.933 394.496 287.271C396.352 287.481 398.309 287.628 400.2 287.942C404.279 288.613 407.875 288.309 410.983 286.296C412.119 285.556 413.63 285.076 415.025 284.459C415.716 284.826 416.55 285.164 417.197 285.625C419.233 287.124 421.801 287.08 424.412 286.688C426.318 286.409 428.145 285.929 430.015 285.547C431.562 285.243 433.188 284.616 434.684 284.719C438.251 284.964 440.992 283.945 443.819 282.862C445.761 282.113 447.782 281.417 449.818 280.78C452.609 279.918 455.961 280.79 457.083 282.637C457.557 283.421 457.852 284.239 458.198 284.973C460.269 285.209 461.255 284.234 462.571 283.665C465.463 282.411 468.584 282.201 471.857 283.029C472.469 283.185 473.058 283.386 473.569 283.646C475.209 284.449 476.791 284.082 477.971 283.332C480.172 281.946 482.345 281.677 484.869 282.896C485.625 283.254 486.329 283.67 487.502 283.533C490.609 283.176 493.285 283.509 494.961 285.571C495.342 286.041 496.443 286.423 497.292 286.546C499.003 286.781 500.082 287.408 501.255 288.211C503.521 289.813 504.686 289.701 506.017 287.55C507.297 285.478 509.843 284.18 511.965 282.617C512.159 282.47 512.555 282.304 512.821 282.338C516.073 282.686 517.698 280.315 520.841 280.369C522.518 280.403 523.898 279.752 525.129 279.002C526.064 278.419 527.049 277.861 528.15 277.425C528.596 277.243 529.581 277.278 529.991 277.493C532.278 278.669 534.494 279.908 536.68 281.177C538.191 282.049 539.838 282.72 541.888 282.72C543.025 282.73 543.6 283.225 544.406 283.538C547.146 284.577 547.297 284.557 550.225 282.955C549.916 281.711 549.664 280.472 551.592 279.585C553.728 279.933 555.915 280.202 558.001 280.658C558.806 280.839 559.367 281.442 560.036 281.843C564.294 281.887 567.992 283.421 572.228 283.69C575.659 283.901 577.587 286.722 581.565 286.6C582.061 286.59 582.78 287.001 583.047 287.339C583.982 288.569 585.514 289.176 587.499 289.519C589.01 289.779 590.455 290.234 592.347 290.715C595.519 293.536 598.922 296.568 602.324 299.591C604.28 299.723 606.266 300.085 608.157 299.929C610.574 299.728 612.811 299.983 614.797 300.654C616.868 301.349 618.594 300.644 620.436 300.566C622.493 301.682 624.464 302.78 626.449 303.877C626.665 305.219 629.557 305.41 629.506 306.875C630.707 306.943 631.247 307.433 631.398 308.149C633.318 308.261 635.261 308.516 637.167 308.428C639.353 308.325 640.914 308.898 642.209 309.883C643.461 310.823 644.54 311.862 645.777 312.827C646.172 313.13 646.813 313.498 647.338 313.488C649.524 313.463 651.776 313.042 653.891 313.263C657.293 313.62 660.839 313.297 664.162 314.223C665.277 314.536 666.593 314.58 667.845 314.718C669.945 314.943 669.931 314.953 672.412 317.304C673.218 318.063 674.448 318.264 675.764 318.367C676.11 318.053 676.354 317.583 676.829 317.451C678.8 316.858 680.792 316.3 682.842 315.864C683.677 315.697 684.698 315.898 685.245 316.481C686 317.309 685.899 318.485 687.611 318.921C688.697 318.494 689.978 318.196 690.848 317.613C693.459 315.854 696.437 315.923 699.638 316.682C702.364 316.638 703.026 317.858 703.4 319.254C704.68 319.376 706.047 319.322 707.032 320.028C708.428 321.037 710.384 321.683 712.211 321.482C714.038 321.291 715.254 322.1 716.743 322.065C718.57 322.011 719.699 322.805 721.167 323.172C722.353 323.476 723.893 323.799 724.965 323.555C728.611 322.702 732.719 322.996 736.157 321.551C737.732 320.904 739.214 321.34 740.559 322.178C742.4 323.319 743.22 325.112 745.882 325.725C747.788 325.377 749.658 325.009 751.55 324.706C753.737 324.348 755.003 325.793 756.959 325.925C757.268 325.935 757.599 326.014 757.909 326.038C760.966 326.298 763.742 326.205 765.598 324.201C765.929 323.834 767.288 323.863 768.18 323.721C771.611 323.697 775.064 323.888 778.387 322.981C779.473 322.678 780.833 322.79 782.07 322.771C783.962 322.727 785.868 322.736 787.752 322.727C788.953 321.654 790.478 320.924 792.564 320.87C795.175 320.792 797.643 320.645 799.614 319.268C800.11 318.92 801.441 318.852 802.275 318.979C804.692 319.347 806.742 319.161 808.483 317.926C810.094 316.785 811.964 316.226 814.51 316.437C815.611 316.54 817.006 316.021 817.977 315.54C823.221 312.91 823.89 312.361 827.443 308.589C828.098 307.884 828.623 307.1 829.414 306.454C829.723 306.209 830.709 306.072 831.169 306.209C832.335 306.547 833.37 307.061 834.471 307.507C835.722 307.673 836.988 307.845 838.247 308.021C839.218 307.933 840.168 307.776 841.139 307.762C844.685 307.727 845.167 308.129 844.131 310.226C843.851 310.784 843.75 311.421 843.836 312.004C843.915 312.508 844.606 312.729 845.246 312.543C845.807 312.376 846.346 312.126 846.757 311.837C849.842 309.623 849.828 309.608 853.014 310.73C853.295 310.833 853.575 310.965 853.82 311.088C855.28 311.837 856.712 311.891 858.258 311.176C859.028 310.818 859.948 310.583 860.74 310.314C862.365 310.681 863.897 311.019 865.422 311.367C867.458 311.053 869.479 311.142 871.486 311.548C871.795 311.504 872.177 311.347 872.421 311.416C875.083 312.111 877.694 312.768 879.816 314.213C882.873 316.295 886.67 317.167 891.137 316.114C892.008 315.903 893.159 316.192 894.029 315.981C900.467 314.414 907.271 314.316 914.011 313.846C916.687 313.655 919.104 313.948 921.535 314.463C923.657 314.909 925.822 315.394 927.75 316.118C929.095 316.633 930.08 316.363 931.296 316.128C933.742 315.668 935.763 316.084 937.093 317.583C937.259 317.764 937.453 317.951 937.539 318.151C938.18 319.616 939.712 320.077 941.942 319.93C946.214 319.65 950.321 319.861 954.119 321.438C955.105 321.84 956.666 321.571 957.881 321.796C959.097 322.021 960.212 322.477 961.384 322.834C962.715 322.732 963.369 323.094 963.211 323.986C964.952 324.823 966.908 325.465 968.584 326.312C970.62 327.341 972.282 328.683 974.123 329.883C974.583 330.187 975.108 330.432 975.605 330.711C976.511 331.216 978.022 331.138 979.108 330.466C979.798 330.03 980.453 329.56 981.028 329.046C982.064 328.115 983.344 328.654 984.56 328.732C985.15 328.654 985.776 328.62 986.351 328.497C989.013 327.914 991.645 328.061 994.256 328.678C996.313 327.939 998.515 327.625 1000.86 327.826C1003.11 328.017 1005.49 328.037 1007.58 328.541C1009.87 329.1 1012.08 327.87 1014.25 328.742C1015.97 329.448 1017.33 328.943 1018.42 328.002C1018.91 327.576 1019.4 327.478 1020.08 327.733C1022.34 328.595 1024.48 327.699 1026.96 327.508C1027.82 327.944 1028.82 328.468 1029.87 328.963C1032.98 330.408 1036.95 330.52 1039.63 328.727C1041.85 327.238 1044.59 326.861 1047.27 326.185C1050.16 325.47 1053.2 325.436 1055.66 326.543C1059.3 328.164 1063.37 328.713 1067.45 329.374C1069.02 329.634 1070.96 329.776 1071.98 330.447C1073.53 331.466 1075 332.005 1077.06 331.598C1079.38 331.152 1081.44 331.196 1083.42 332.269C1084.01 332.592 1085.44 332.715 1086.1 332.48C1088.22 331.72 1090.43 331.485 1092.72 331.696C1096.53 332.063 1100.35 330.814 1104.14 331.75C1106.51 330.584 1109.12 330.991 1111.62 331.402C1113.28 331.671 1114.75 331.769 1116.34 331.28C1118.47 330.618 1120.8 330.991 1123.03 330.834C1125.52 330.653 1127.41 329.075 1130.23 329.09C1131.84 329.1 1133.56 328.585 1135.02 328.845C1137.98 329.359 1140.78 328.82 1143.62 328.732C1143.83 328.732 1144.06 329.021 1144.3 329.178C1146.07 329.134 1147.73 329.203 1148.39 330.555C1149.9 330.902 1151.41 331.25 1152.92 331.608C1154.76 330.883 1156.54 332.279 1158.44 331.711C1158.84 331.588 1159.66 331.867 1160.13 332.093C1162.16 333.033 1163.98 333.572 1166 331.98C1166.99 331.196 1168.61 330.751 1169.95 330.158C1170.02 329.947 1170.01 329.619 1170.21 329.555C1171.3 329.217 1172.56 329.051 1173.51 328.605C1174.53 328.11 1175.2 327.317 1176.17 326.758C1176.56 326.548 1177.33 326.611 1177.92 326.557C1179.36 326.097 1181.02 325.798 1182.22 325.147C1184.67 323.814 1186.86 322.291 1189.04 320.929C1190.64 320.816 1191.95 320.772 1193.21 320.625C1196.06 320.277 1199.18 320.356 1201.13 318.553C1203.83 317.872 1206.54 317.201 1209.23 316.515C1211.41 317.039 1213.01 316.383 1214.49 315.487C1216.61 314.198 1218.73 312.9 1220.89 311.582C1221.45 311.636 1222.07 311.773 1222.69 311.749C1225.45 311.68 1227.24 310.877 1227.85 309.466C1228.01 309.05 1228.12 308.629 1228.14 308.212C1228.24 306.733 1229.51 305.704 1231.61 305.562C1235.13 305.302 1237.61 304.063 1239.88 302.505C1240.53 302.045 1241.11 301.521 1241.83 301.104C1243.11 300.355 1244.64 300.051 1246.35 300.301C1247.28 300.433 1248.21 300.649 1249.06 300.815C1249.97 300.232 1250.87 299.664 1251.89 299.013C1253.15 299.507 1254.24 299.943 1255.59 300.492C1257.13 299.698 1258.84 298.758 1260.65 297.94C1261.38 297.602 1262.34 297.445 1263.25 297.347C1265.45 297.088 1267.68 296.901 1269.64 296.72C1270.37 295.971 1270.97 295.466 1271.38 294.908C1272.79 292.914 1275.34 292.101 1278.5 292.209C1281.19 292.311 1283.56 291.817 1286.02 291.268C1288.46 290.71 1291.24 290.553 1293.12 289.333C1294.43 288.495 1295.19 287.276 1296.19 286.232C1296.6 284.831 1296.84 283.411 1297.51 282.068C1298.07 280.903 1299.03 279.942 1301.38 279.796C1303.83 279.639 1306.22 279.124 1308.61 278.767C1309.47 277.547 1310.86 277.39 1312.54 277.983C1314.38 278.635 1316.07 279.1 1317.35 277.479C1317.6 277.165 1318.34 276.984 1318.9 276.817C1319.16 276.739 1319.55 276.773 1319.87 276.827C1322.34 277.243 1324.31 276.783 1325.95 275.539C1327.9 274.059 1330 272.761 1333.46 273.256C1334 273.334 1334.67 272.996 1335.28 272.854C1339.89 271.781 1343.63 272.864 1346.49 275.113C1347.99 276.278 1349.76 276.465 1351.62 276.499C1353.18 276.523 1354.76 275.975 1356.29 276.665C1358.75 276.832 1361.21 277.003 1363.7 277.17C1365.42 278.493 1367.89 277.64 1369.91 278.101C1370.49 278.179 1371.24 278.145 1371.6 278.37C1375.71 280.898 1377.14 284.836 1382.2 286.884C1382.53 287.868 1382.87 288.863 1383.2 289.862C1384.77 289.749 1386.35 289.651 1388.03 289.539C1388.36 290.244 1388.61 290.812 1388.89 291.376C1389.54 292.708 1391.12 293.433 1393.06 293.276C1393.99 293.198 1394.93 293.066 1395.87 292.938C1397.38 292.738 1398.73 292.057 1400.44 292.346C1401.59 292.547 1402.79 292.635 1404.15 292.806C1404.21 294.217 1404.3 295.647 1404.38 297.083C1405.65 297.127 1406.91 297.171 1408.18 297.23C1409.23 296.637 1410.53 296.436 1411.81 296.627C1413.72 296.906 1415.28 297.479 1416.49 298.65C1417.95 300.071 1418.28 299.983 1420.38 299.174C1421.48 298.748 1422.53 298.258 1423.72 297.945C1424.2 297.822 1425.1 297.955 1425.5 298.204C1426.35 298.753 1426.84 299.635 1427.81 300.041C1429.15 300.6 1430.76 300.894 1432.3 301.192C1432.84 301.295 1433.71 301.192 1434.11 300.957C1435.44 300.183 1436.78 299.424 1438.05 298.606L1438.05 13.8667C1436.65 14.0675 1435.21 14.1703 1433.68 14.092C1432.5 14.0381 1431.27 14.2487 1430.13 14.3271C1429.49 13.7442 1428.93 13.2396 1428.38 12.74C1427.81 13.1759 1427.28 13.9695 1426.69 13.9842C1424.74 14.0283 1423.07 14.1949 1421.71 15.1942C1420.03 16.4139 1417.9 16.3355 1415.71 15.8751C1415.67 16.5217 1415.31 17.041 1414.18 16.8058C1413.34 16.6246 1412.61 16.2229 1411.83 15.924C1411.27 16.071 1410.6 16.4139 1410.16 16.3257C1408.29 15.8996 1406.62 15.5077 1404.75 16.5168C1403.22 17.3348 1401.18 17.4328 1399.18 17.232C1397.9 17.0997 1396.62 16.9871 1395.52 17.6483C1394.32 18.388 1392.68 18.6085 1391.3 19.0934C1389.11 19.8527 1387.75 19.2159 1386.22 18.4468C1386 18.3342 1385.51 18.2656 1385.3 18.3439C1382.24 19.4951 1378.4 19.3972 1375.6 20.95C1374.37 21.6309 1373.13 22.3804 1371.69 22.8164C1370 23.3209 1367.86 23.2964 1366.33 23.9234C1364.8 24.5602 1363.37 24.6288 1361.78 24.5064C1360.51 24.4035 1359.11 23.8794 1358.04 24.09C1353.19 25.1089 1348.36 23.9234 1343.55 24.1684C1341.38 24.281 1339.98 23.272 1338.67 22.3461C1338.06 21.9297 1337.79 21.3272 1337.26 20.7002C1335.05 21.239 1332.94 21.7632 1330.84 22.2775C1329.56 22.591 1328.95 22.2334 1328.54 20.8471C1328.47 20.6463 1328.52 20.4308 1328.52 20.2201C1326.67 20.465 1324.83 20.759 1322.95 20.9696C1320.92 21.2048 1320.01 20.7687 1318.91 19.1228C1318.8 18.9563 1318.62 18.7995 1318.4 18.5644C1317.3 18.8779 1316.16 19.1914 1315.05 19.505C1315.05 19.8723 1314.95 20.2299 1314.77 20.5777C1314.54 21.4741 1313.8 22.0571 1312.32 22.0081C1310.47 21.9297 1308.61 21.7632 1306.73 21.6407L1306.7 21.6505C1306.75 22.1452 1306.81 22.6351 1306.88 23.1299C1309.4 24.2713 1309.37 24.6288 1306.73 25.6722C1306.33 25.9074 1305.96 26.1523 1305.55 26.3678C1305.5 26.3678 1305.07 26.1768 1305.04 26.0543C1304.92 25.4861 1304.89 24.9129 1304.84 24.33C1302.46 24.2174 1300.62 24.7905 1299.93 26.5784C1298.53 25.4126 1298.33 24.1292 1296.23 24.1831C1293.52 24.2615 1291.28 23.4532 1289.08 22.5617C1288.16 22.5959 1287.19 22.7527 1286.31 22.64C1284.24 22.3706 1282.65 22.8409 1281.23 23.7373C1280.92 24.5994 1280.01 25.1922 1278.9 25.5596C1278.14 25.8192 1276.86 26.0739 1276.32 25.8388C1274.18 24.8983 1272.85 25.4224 1271.63 26.5638C1271.12 27.034 1270.66 27.5141 1270.12 28.0529C1269.01 26.9214 1268.17 25.8388 1266.27 25.3244C1265.89 25.2215 1265.81 24.6288 1265.6 24.2615C1264.58 23.4777 1263.17 22.7527 1264.61 21.5868C1265.11 21.1852 1264.74 20.9157 1264.35 20.4798C1263.49 19.5637 1262.43 18.8241 1261.21 18.0942C1259.6 17.1193 1257.87 16.6148 1255.92 17.1977C1253.09 18.0354 1250.43 18.3048 1247.42 17.5651C1246.34 17.3055 1244.79 17.5651 1243.61 17.8541C1241.37 18.4126 1239.06 18.0109 1236.83 18.2558C1234.97 18.4566 1233.86 17.5504 1232.45 17.0605C1230.51 17.4181 1229.17 17.0361 1228.53 15.7526C1226.6 15.8408 1224.63 15.8065 1222.76 16.0662C1220.22 16.4237 1217.74 16.9626 1215.3 17.5112C1213.95 17.8149 1212.8 17.6925 1211.55 17.33C1210.68 17.0704 1209.69 16.8499 1208.74 16.8352C1205.45 16.8009 1202.28 16.6344 1199.26 15.591C1198.22 15.2334 1196.67 15.5469 1195.46 15.3216C1193.14 14.8856 1191.32 16.4531 1188.91 15.782C1187.59 15.4146 1186.6 16.3405 1185.52 16.7421C1183.15 17.6043 1180.73 17.9962 1178.02 17.3447C1176.84 17.0557 1175.31 16.7176 1174.26 16.9773C1172.02 17.5259 1170.74 17.2565 1169.45 15.9486C1168.59 15.0864 1167.08 14.5182 1165.87 13.8128C1163.77 13.9597 1162.3 13.5434 1161.31 12.1914C1160.77 11.4419 1159.51 11.3635 1158.08 11.7211C1154.67 12.5588 1153.73 12.1228 1152.37 9.42858C1151.78 8.94854 1151.27 8.12066 1150.58 8.05209C1147.51 7.71408 1144.57 7.13607 1141.22 7.92962C1136.7 8.99261 1131.8 9.40899 1127.08 10.1242C1124.55 10.5063 1122.76 9.61963 1120.97 8.6791C1120.1 8.41946 1119.05 8.2872 1118.41 7.87573C1116.7 6.80295 1114.93 5.94079 1112.41 6.05346C1109.62 6.18573 1107.27 5.67139 1105.46 4.19693C1103.85 2.88901 1101.98 3.54541 1100.38 3.95199C1098.17 3.34946 1096.09 2.76651 1094.04 2.19339C1091.64 2.88898 1089.87 1.24307 1087.58 1.46841C1085.25 2.08563 1083.11 2.85471 1080.36 1.73782C1078.26 0.885468 1075.62 0.586671 1073.19 0.0919203C1072.61 -0.0305467 1071.87 -0.0305466 1071.33 0.0919205C1068.31 0.8071 1065.2 1.44391 1062.36 2.39911C1060.39 3.04575 1058.76 4.15772 1056.91 5.09824C1054.27 4.81903 1051.29 5.43625 1048.9 4.40265C1046.93 5.55384 1045.28 7.05277 1043.05 7.69449C1039.59 8.68891 1036.41 10.4916 1032.21 10.1682C1031.04 10.0801 1030.34 10.472 1029.78 10.9521C1028.69 11.8926 1027.28 12.1963 1025.57 12.2257C1023.96 12.2698 1021.97 12.0444 1020.83 12.5735C1018.68 13.5679 1016.41 12.6862 1014.26 13.1907C1012.2 13.661 1009.86 13.6708 1007.57 13.2593C1005.93 12.9556 1004.48 13.4258 1003.07 14.0332C1002.31 14.3565 1001.2 14.3223 1000.24 14.4497C999.91 15.1746 999.205 15.5371 998.025 15.4685L997.846 15.5469C997.73 16.2866 997.105 16.6785 995.99 16.7422C995.565 17.0116 995.083 17.5455 994.738 17.5014C993.278 17.3447 992.127 16.5266 990.286 16.9969C988.66 17.4328 988.531 17.2418 988.113 15.9437C988.049 15.7429 988.049 15.5273 988.034 15.3265C986.919 15.3706 986.322 15.7967 986.128 16.4776C985.797 16.8009 985.452 17.139 985.128 17.4623C984.819 17.1242 984.488 16.7814 984.179 16.4434C983.424 16.3748 982.668 16.3209 981.913 16.2621C979.856 17.2026 977.871 18.2215 975.72 19.0592C974.684 19.4756 973.253 19.8773 972.138 19.7401C968.491 19.3139 965.24 19.6176 962.082 20.9696C959.55 22.0571 956.579 22.1453 953.652 21.6652C950.724 21.195 948.689 22.0914 946.782 23.321C946.358 23.5806 945.926 24.0704 945.488 24.0704C942.711 24.0949 939.92 23.9675 937.137 23.9823C936.266 23.992 935.346 24.2174 934.526 24.4427C932.634 24.9473 932.734 23.8157 932.058 23.2769C931.699 22.9878 931.109 22.8164 930.613 22.5813C930.332 23.1838 929.872 23.7569 928.821 23.7765C927.045 23.801 925.225 23.2181 923.642 24.3692C923.168 24.7269 921.887 24.815 921.031 24.7513C919.061 24.5848 917.385 24.8395 915.673 25.5351C914.097 26.172 912.285 26.5883 910.594 27.1124C910.019 28.1754 908.753 28.5575 907.142 28.4988C906.271 28.4743 905.401 28.2734 904.531 28.151L904.495 28.1608C902.689 29.6156 902.394 29.6156 900.718 28.1069L900.682 28.0971C900.107 28.3224 899.517 28.3665 898.877 28.2293C897.776 28.9886 896.82 29.8948 895.525 30.468C893.95 31.1636 892.072 31.5849 890.893 31.9571C889.382 33.8725 888.181 35.3812 886.98 36.89C885.8 38.389 884.923 40.0594 883.333 41.3575C881.966 42.4646 879.787 43.1455 877.96 44.0076C877.65 44.3554 877.449 44.8355 876.989 45.0265C875.068 45.7858 873.076 46.4716 871.234 47.128C869.314 46.7802 867.487 46.4471 865.645 46.1091C864.645 46.6333 863.588 47.1182 862.653 47.6767C860.747 48.818 858.726 49.8124 856.129 50.2288C855.669 50.4101 855.043 50.8313 854.733 50.753C851.856 50.0035 849.029 49.1756 846.188 48.3674C843.081 48.0882 840.009 47.853 836.967 48.6025C836.866 48.627 836.557 48.3135 836.355 48.1567C835.881 48.3233 835.406 48.338 834.924 48.191C834.133 48.4947 833.377 49.0434 832.572 49.0629C828.99 49.2099 825.854 48.338 823.041 46.9125C822.825 46.7998 822.811 46.5304 822.696 46.3393C819.15 46.4275 815.532 46.697 813.036 44.4387C812.69 44.135 812 43.8803 811.41 43.8117C807.598 43.41 803.836 42.9153 800.218 41.9992C798.017 42.2784 795.83 42.5821 793.615 42.8271C793.003 42.8957 792.334 42.8173 791.694 42.8026C790.442 42.9496 789.176 43.0279 787.982 43.2631C786.832 43.4884 785.695 44.3015 784.566 43.5521C784.185 43.2924 784.911 42.445 784.76 41.9062C784.494 40.9117 783.969 39.9369 783.559 38.9425C781.667 39.3001 780.401 40.0839 779.646 41.235L779.631 41.2448C778.365 41.6612 777.135 42.0972 775.884 42.5185C773.827 42.4303 771.791 42.3519 769.755 42.2588C769.676 42.7634 769.216 43.1112 768.604 42.9545C768.245 42.8761 767.993 42.396 767.928 42.0727C767.864 41.6906 768.058 41.2889 768.123 40.8872L767.928 40.3043L768.007 39.7116C767.497 38.9082 766.598 38.4673 765.267 38.3449C764.037 38.2322 762.836 38.0657 761.62 37.9285C760.023 37.7179 758.448 37.4485 756.837 37.3113C755.902 37.2329 754.895 37.4338 754.096 36.9194C751.269 35.0629 747.047 34.8179 743.99 33.3288C741.329 32.0306 738.567 32.0747 735.66 32.1972C734.049 32.2658 732.424 32.4568 730.877 32.7458C728.381 33.2259 726.36 32.6772 724.583 31.6584C723.382 30.9628 722.397 30.1153 721.332 29.3315C719.987 29.2629 718.98 28.7927 718.34 28.0873C717.318 26.9802 716.052 26.2503 713.988 26.1278C711.981 26.0152 711.621 25.0551 711.801 23.948C710.765 23.6345 709.974 24.2615 709.14 24.2615C707.924 24.2517 706.723 23.7814 705.493 23.7373C701.371 23.6051 698.293 21.8367 694.761 20.8178C693.546 20.4504 692.56 20.5484 691.424 20.4602C686.87 20.1026 682.432 19.4756 680.447 16.1397C679.641 14.7876 679.001 14.6309 676.699 15.0424C674.743 15.4 672.837 15.3216 670.902 15.2432C670.391 15.209 669.787 14.8955 669.442 14.6064C667.701 13.0634 665.169 12.9409 662.522 12.7352C657.113 12.3188 652.416 11.0696 650.38 7.29774C649.445 7.41041 648.488 7.50837 647.539 7.63575C644.597 8.00312 642.547 7.31245 641.145 5.56364C640.605 4.88276 640.173 3.9961 638.663 3.81977C636.426 3.92262 634.7 5.3971 632.204 4.88273C632.038 5.46568 631.923 6.04859 631.693 6.61683C631.628 6.77357 631.233 6.90583 630.952 6.95484C630.822 6.96464 630.456 6.71971 630.456 6.59724C630.405 5.60282 630.42 4.6182 630.405 3.61891C630.046 3.19273 629.434 2.9821 628.844 3.23683C627.859 3.6728 626.938 4.18714 626.118 4.76029C625.277 5.3285 624.788 6.20536 623.802 6.58256C622.932 6.90586 621.601 6.71482 620.501 6.8177C620.27 6.82749 620.091 7.0969 619.889 7.25367C618.839 8.40483 618.314 8.63996 617.458 8.28236C616.667 7.95906 616.293 7.47898 616.422 6.85197C616.501 6.46989 616.573 6.07798 616.638 5.70079C616.113 5.50975 615.372 5.0738 615.113 5.16197C613.437 5.77919 611.991 6.76381 610.215 7.14097C607.244 7.79249 605.122 8.96327 603.266 10.4965C602.46 11.1578 601.475 11.7261 600.504 12.2992C598.497 13.4749 594.786 13.8324 592.405 12.6372C590.319 11.584 588.938 12.0102 587.183 12.7156C586.118 13.1515 585.686 14.1166 584.126 14.1607C581.68 14.2292 579.817 15.0914 578.328 16.2768C576.652 17.5994 575.127 18.927 571.955 18.6918C571.214 18.638 570.279 19.2503 569.574 19.652C568.344 20.3573 567.157 21.0824 566.107 21.8906C565.251 22.5274 564.812 23.414 563.87 23.9627C562.69 24.6681 561.259 25.251 559.813 25.6968C558.713 26.0446 557.216 25.9221 556.231 26.3336C554.426 27.0831 552.649 27.2937 550.664 26.8382C549.743 26.6275 548.873 26.3238 547.937 26.1328C543.931 25.3049 539.558 25.5645 535.63 24.3987C534.925 24.188 533.71 24.5113 532.854 24.7807C531.689 25.1384 530.653 25.6772 529.631 26.1034C526.675 25.7458 523.978 24.8297 521.007 25.2657C518.59 26.7108 517.475 28.8907 514.468 29.9439C514.123 30.8158 513.332 31.1293 512.001 30.7962C511.577 30.8403 511.145 30.8501 510.721 30.806C507.204 31.2322 503.751 30.8158 500.284 30.5268C499.723 30.6052 499.219 30.7521 498.759 30.9872C498.45 31.7808 497.673 32.0257 496.493 31.8053L496.543 31.9523C494.882 33.755 492.911 35.3519 489.394 35.5087C486.797 35.6213 486.452 36.7529 486.171 38.0167C486.121 38.198 485.79 38.34 485.596 38.4968C485.215 38.2959 484.79 38.1294 484.495 37.8795C484.33 37.7326 484.395 37.4779 484.395 37.277C484.359 35.5625 482.424 35.396 480.481 35.2196C479.086 35.7438 477.655 36.214 476.31 36.797C474.914 37.3995 473.353 37.9383 471.771 37.7473C468.268 37.3309 466.412 38.8789 464.211 40.0643C463.981 41.0734 462.88 41.3184 461.564 41.2155C460.679 41.1371 459.809 40.8677 458.931 40.6913C457.104 40.7697 455.845 40.03 454.479 39.4275C451.062 38.6241 447.48 39.6969 443.963 38.9474C440.265 38.1637 436.338 39.114 432.936 38.6339C431.31 39.3148 430.08 39.9859 428.663 40.3925C427.217 40.7942 425.21 40.6374 424.096 41.2449C421.614 42.5773 419.247 41.8915 416.485 41.5045C415.486 42.1217 414.45 42.8908 413.212 43.4835C411.918 44.086 410.422 44.5024 409.019 45.007C406.868 46.3492 404.617 46.9664 401.56 46.0259C399.078 45.2764 397.467 46.3051 396.367 47.6914C395.295 46.9762 394.245 46.2708 393.209 45.5556C391.252 45.5017 389.296 45.4332 387.361 45.3744C386.361 46.3051 385.325 47.1771 383.254 46.5843C380.671 46.5304 378.075 46.4619 375.5 46.3933C375.464 46.8097 375.42 47.2114 375.384 47.6375C374.795 49.1022 372.982 48.8132 371.378 48.8132C371.148 49.4941 370.508 49.886 369.393 49.9203C368.702 49.9301 368.026 49.9301 367.336 49.9301C367.719 48.4311 369.067 47.6179 371.378 47.4905L371.392 47.4808L371.493 46.2267C370.177 46.1826 368.86 46.1239 367.551 46.0798C366.861 46.0259 366.17 45.9573 365.48 45.8985C364.034 46.3933 362.653 46.9272 360.962 46.2218C359.582 45.6634 358.121 45.1833 356.589 44.62C355.438 44.8453 354.208 45.0903 352.971 45.3352C352.59 45.056 352.151 44.8111 351.856 44.4829C350.446 42.9251 350.015 42.7585 348.389 43.3072C347.533 43.5962 346.792 44.0665 345.893 44.2918C345.008 44.5171 343.987 44.5171 343.052 44.6739C340.311 45.1196 337.297 44.4829 334.658 45.4675C334.427 45.5458 334.018 45.443 333.701 45.4234C332.126 45.2911 330.565 45.3793 329.069 44.7082C327.788 44.1399 326.048 43.993 324.516 43.655C322.343 45.2568 319.603 44.4583 317.056 44.3359C316.747 44.3114 316.495 43.7187 316.201 43.3954C314.625 43.3611 312.899 43.4836 312.467 42.063C309.54 40.9314 309.446 40.9559 308.374 42.8222C308.454 43.3611 308.554 43.895 308.641 44.4241C308.475 45.4332 308.346 46.4374 307.001 47.1232C306.526 47.3681 305.979 47.5396 305.476 47.7404C305.181 47.4171 304.749 47.1036 304.62 46.7558C304.469 46.3737 304.584 45.9622 304.584 45.5605C304.684 44.2967 304.778 43.0182 304.864 41.7543L304.814 41.6858C302.857 41.6515 300.901 41.6074 298.944 41.5731L298.88 41.6172C299.074 41.9748 299.096 42.3471 298.93 42.7145C299.491 43.1504 300.182 43.5423 300.527 44.0469C300.656 44.2379 300.016 44.6641 299.736 44.9874C299.52 44.8747 299.175 44.7865 299.11 44.6494C298.894 44.091 298.75 43.4982 298.57 42.9251C296.6 43.3072 294.909 44.5024 292.543 43.8215C290.637 43.3856 288.766 43.4835 286.875 43.8656C286.529 44.5171 285.738 44.8502 284.774 44.7719C281.883 44.5269 279.272 44.5269 278.085 44.9384C277.035 45.3205 276.229 46.0553 274.783 45.7663C273.877 45.8887 272.956 46.0014 272.043 46.1141C268.41 46.55 268 46.4276 267.015 44.0763C266.403 42.5969 264.749 43.1015 263.332 43.0574C262.756 43.895 261.807 44.331 260.34 44.2085C260.03 44.184 259.663 44.2183 259.405 44.1301C255.297 42.6753 250.874 42.6067 246.392 42.7879C245.011 42.8418 243.99 42.352 243.4 41.5241C241.364 40.3288 239.537 39.0062 237.948 37.5514C233.941 36.9929 229.467 38.0216 225.885 35.9838C225.669 35.8613 225.259 35.8516 224.95 35.8369C220.792 35.7585 216.52 36.1063 212.758 34.4848C212.542 34.3967 212.082 34.4163 211.823 34.5094C209.852 35.1804 207.996 34.1713 206.155 34.3085C204.119 34.4555 202.292 34.0636 200.422 33.7844C198.134 33.4366 196.02 33.4953 193.732 33.9166C191.287 34.3869 188.769 34.4996 186.338 33.3778C185.122 32.8292 183.295 32.7606 181.706 32.6528C180.181 32.5401 179.569 31.869 178.828 31.1881C178.447 30.8403 177.958 30.5513 177.534 30.2378C176.843 30.2133 176.167 30.1937 175.477 30.1839C175.347 30.7767 175.261 31.3694 175.067 31.9523C175.002 32.1189 174.671 32.3197 174.426 32.3687C174.261 32.403 173.851 32.1874 173.786 32.0454C173.175 30.6444 171.65 30.1643 169.564 30.1986C169.254 30.5219 168.938 30.8501 168.629 31.1587C167.348 30.1986 168.895 30.375 169.564 30.1986C168.988 28.6752 166.866 28.9691 165.291 28.6556C164.176 28.1951 163.076 27.7493 161.975 27.2889C161.091 27.3672 160.184 27.4456 159.3 27.5338C157.775 27.6905 156.142 27.7934 155.142 26.9411C154.487 26.3679 154.415 25.5205 154.077 24.8053C150.992 24.7171 148.949 23.4043 147.014 22.0768C145.978 21.3616 145.208 20.4652 144.316 19.6471C143.396 19.7598 142.41 20.0733 141.569 19.9508C140.368 19.7696 139.332 19.0788 138.152 18.9564C136.627 18.7996 134.994 19.5932 133.484 19.025C131.909 18.442 130.261 19.1132 128.837 18.8242C127.06 18.4665 125.435 17.7611 123.795 17.1586C121.529 16.3307 119.177 15.7135 116.595 15.4147C116.12 15.3706 115.76 14.8906 115.343 14.5967C113.473 14.2048 111.595 13.8129 109.74 13.421C109.15 14.0235 108.164 14.2587 107.294 13.9795C105.863 13.5337 104.582 12.892 103.288 12.2992C101.281 11.3685 99.1659 11.1481 96.9145 11.7751C94.2818 12.5148 91.6924 13.3083 89.1101 14.0676C85.4776 12.167 81.651 10.668 77.2273 9.86953C75.9972 9.6589 74.8104 9.28662 74.1845 8.46856C71.6239 8.23343 69.0416 7.99829 66.4809 7.75335C65.3156 8.2236 64.0352 8.04236 62.7693 8.09137C61.1941 8.14523 59.5971 8.36078 58.1155 8.71838C56.9646 8.98782 56.0798 9.79117 54.9289 9.96261C53.4184 10.188 51.7568 10.0508 50.1456 10.0165C47.2684 9.96262 44.3624 9.94794 41.4996 9.72748C40.5934 9.65891 39.6438 9.25723 38.9172 9.7373C36.5363 11.3832 33.393 10.477 30.6526 10.8542C29.4225 11.0207 28.171 11.1432 26.9194 11.2901C24.9773 13.2153 21.1506 13.0144 18.6834 14.3567C18.3885 14.9053 17.9785 15.4099 17.0074 15.5225C14.9502 15.7478 12.9001 15.8605 10.879 15.3902C9.00876 15.4931 7.13144 15.5911 5.2612 15.6939C2.00998 14.0823 -2.13321 14.3713 -5.75125 13.4896C-8.92337 12.7156 -12.0307 13.3084 -14.7713 14.5869C-15.3826 15.0327 -15.8574 15.7037 -16.6127 15.8752C-18.5835 16.3112 -19.7489 17.2076 -20.871 18.2706C-22.3959 19.6912 -23.5683 20.1075 -25.5895 19.1768C-27.7619 18.1922 -29.2365 19.2552 -30.9987 19.2307C-33.6601 19.9459 -37.0625 18.7703 -39.2996 20.5631C-42.1552 20.4848 -44.9532 21.6163 -47.8087 20.7983C-49.1035 20.4309 -50.4055 20.1174 -51.3262 20.9011C-54.2178 23.3161 -58.4545 24.3351 -62.4178 25.6234C-63.173 25.109 -64.0435 24.771 -64.9641 24.5849L-64.9641 284.542C-63.5327 283.759 -61.9934 282.931 -60.4613 282.103L-60.4973 282.103ZM1434.7 295.878L1435.26 296.137L1434.6 296.269L1434.71 295.878L1434.7 295.878ZM1396.72 22.2236C1397.28 22.111 1398 21.9101 1398.41 22.0571C1398.81 22.204 1399.1 22.7184 1399.09 23.0662C1399.07 23.3552 1398.45 23.894 1398.25 23.8695C1397.71 23.7912 1397.2 23.4875 1396.76 23.2327C1396.56 23.1103 1396.53 22.8654 1396.42 22.6841C1396.53 22.5273 1396.55 22.2579 1396.72 22.2236ZM1384.37 284.092L1384.6 284.562L1383.94 284.493L1384.37 284.092ZM1258.41 23.4434L1258.99 23.703L1258.33 23.8353L1258.41 23.4434ZM1241.79 32.3294C1241.9 32.2168 1242.2 32.1825 1242.41 32.1188C1242.65 32.4666 1243.03 32.7899 1243.07 33.1475C1243.15 33.7206 1243.15 34.3427 1242.23 34.6905C1242.13 34.7248 1241.75 34.5876 1241.65 34.4652C1240.98 33.7402 1241.01 33.0103 1241.78 32.3294L1241.79 32.3294ZM1215.54 20.95L1215.46 21.3517L1214.89 21.0823L1215.54 20.95ZM1185.92 19.9507C1186.02 19.9262 1186.22 20.1858 1186.37 20.3181C1186.17 20.4063 1185.87 20.6218 1185.79 20.5875C1185.1 20.3279 1185.15 20.0732 1185.92 19.9507ZM811.892 47.853C812.086 48.0098 812.482 48.1763 812.453 48.2988C812.338 48.6466 812.057 48.9601 811.827 49.3275C811.518 49.0825 810.971 48.8229 811.022 48.6123C811.072 48.3429 811.583 48.1078 811.892 47.853ZM781.264 42.4548C781.279 42.7585 780.753 43.0573 780.459 43.3708C780.264 43.2386 779.948 43.1259 779.897 42.9789C779.746 42.4058 779.703 41.8376 779.617 41.2546C780.523 41.4457 781.243 41.8131 781.257 42.4499L781.264 42.4548ZM706.615 28.0236L706.845 28.4498L706.22 28.3959L706.615 28.0285L706.615 28.0236ZM677.433 18.4322C677.742 18.6918 678.289 18.9367 678.239 19.1474C678.188 19.4168 677.678 19.652 677.368 19.8969C677.174 19.7499 676.779 19.5736 676.807 19.4609C676.922 19.1229 677.203 18.7996 677.433 18.4322ZM669.859 19.3923L669.78 19.794L669.204 19.5344L669.859 19.3874L669.859 19.3923ZM639.26 9.27677C639.785 9.35514 640.281 9.53639 640.857 9.69315C640.461 9.88419 640.066 10.2418 639.756 10.2075C639.332 10.1732 638.987 9.8401 638.591 9.63926C638.821 9.51679 639.087 9.25715 639.267 9.28166L639.26 9.27677ZM540.896 28.4694L541.471 28.7388L540.795 28.8858L540.896 28.4694ZM522.474 27.6611C522.884 27.8179 523.381 28.3567 523.244 28.5576C522.913 29.0523 522.244 29.4638 521.323 30.2378C520.877 29.3658 520.439 28.8711 520.439 28.391C520.453 27.7395 521.604 27.3525 522.474 27.6611ZM438.589 281.417L439.151 281.677L438.496 281.809L438.597 281.417L438.589 281.417ZM367.278 49.9546C366.983 50.2436 366.702 50.5571 366.408 50.851C365.228 49.935 366.739 50.1456 367.278 49.9546ZM162.752 30.5415C162.946 30.6885 163.342 30.8648 163.313 30.9775C163.198 31.3253 162.918 31.6486 162.687 32.016C162.378 31.7564 161.831 31.5016 161.882 31.2861C161.932 31.0167 162.443 30.7815 162.752 30.5366L162.752 30.5415ZM98.6985 13.1173C98.7992 13.1173 98.9789 13.3524 99.1228 13.4847C98.943 13.5729 98.648 13.7884 98.5617 13.7541C97.8712 13.4945 97.9359 13.2496 98.6913 13.1173L98.6985 13.1173ZM371.349 48.8132C371.349 48.8132 371.364 48.8034 371.364 48.7887L371.328 48.8132L371.342 48.8132L371.349 48.8132ZM375.478 46.3982L375.478 46.3541L375.399 46.3982L375.478 46.3982Z" fill="#F0F0F0"/>
</g>
<defs>
<clipPath id="clip0_126_300">
<rect width="1503" height="167" fill="white" transform="translate(1438 166.999) rotate(180)"/>
</clipPath>
</defs>
</svg>
