<svg width="1440" height="333" viewBox="0 0 1440 333" fill="none" xmlns="http://www.w3.org/2000/svg">
<g clip-path="url(#clip0_117_208)">
<path d="M1468.5 158.897C1468.12 159.186 1467.81 159.69 1467.36 159.734C1464.51 160.038 1461.63 160.239 1457.37 160.587C1456.99 160.577 1456.12 159.568 1454.85 158.999C1453.59 158.451 1451.6 158.519 1451.19 157.221C1447.05 156.918 1442.73 157.422 1438.82 155.957C1438.13 155.688 1436.88 155.923 1435.94 156.07C1434.34 156.33 1433.51 155.757 1432.77 155.032C1432.23 154.517 1431.78 153.969 1431.17 153.297C1430.27 153.621 1429.5 153.89 1428.73 154.169C1425.9 155.179 1423.2 155.379 1420.79 153.611C1419.51 152.67 1418.03 152.773 1416.46 153.366C1414.74 154.003 1413 153.591 1412.22 152.641C1410.69 150.838 1408.47 150.437 1405.64 150.559C1404.35 150.628 1403.03 150.535 1402.14 149.756C1401.58 149.599 1401.03 149.432 1400.47 149.261C1399.52 149.227 1398.52 149.305 1397.62 149.148C1392.01 148.156 1387.12 147.711 1382.94 147.816C1382.58 148.374 1382.36 149.001 1381.85 149.496C1381.33 150.02 1379.71 149.942 1379.38 149.393C1379.05 148.835 1378.99 148.208 1378.81 147.605C1378.17 147.493 1377.53 147.37 1376.89 147.258C1375.95 147.346 1374.97 147.36 1374.07 147.547C1373.56 147.659 1373.2 148.061 1372.78 148.32C1371.99 149.307 1370.55 149.669 1368.47 149.408L1368.87 149.609L1368.42 149.452C1368.67 150.255 1368.95 151.054 1368.15 151.803C1367.33 152.597 1366.56 153.405 1365.74 154.243C1364.42 153.572 1364.36 152.283 1362.6 152.004C1362.01 151.813 1361.44 151.838 1360.88 152.083C1360.76 152.92 1360.68 153.773 1360.49 154.61C1360.46 154.777 1360.1 154.924 1359.88 155.081C1359.52 154.855 1358.9 154.645 1358.88 154.409C1358.82 153.572 1358.95 152.719 1359 151.867C1358.29 151.578 1357.63 151.22 1356.86 151.039C1355.88 150.814 1355.25 151.23 1354.94 151.798C1354.75 152.146 1354.71 152.523 1354.6 152.886C1354.61 153.738 1354.83 154.6 1354.61 155.404C1353.97 157.677 1351.54 158.314 1348.2 157.172C1347.61 156.971 1347.04 156.771 1346.46 156.579C1342.96 157.432 1339.48 158.279 1335.99 159.132C1334.19 158.794 1333.3 159.906 1331.99 160.17C1330.18 160.552 1328.41 160.831 1326.91 161.635C1326.49 161.914 1326.09 162.36 1325.59 162.428C1324.66 162.551 1323.62 162.326 1322.69 162.438C1321.44 162.595 1320.26 162.918 1319.04 163.178C1317.6 165.279 1314.95 164.843 1312.34 164.486C1308.82 164.407 1306.14 166.724 1302.31 165.95C1301.9 165.872 1300.9 166.646 1300.45 167.126C1299.76 167.885 1298.91 168.591 1297.56 168.493C1295.33 168.302 1293.24 168.449 1291.09 168.841C1290.45 168.953 1289.51 168.361 1288.71 168.091C1287.82 168.003 1286.65 168.116 1286.1 167.787C1284.44 166.813 1282.35 166.524 1280.44 165.95C1279.97 165.803 1279.69 165.382 1279.33 165.078C1274.57 163.286 1269.35 163.075 1264.16 163.633C1262.52 163.815 1261.3 164.035 1259.64 163.565C1256.98 162.791 1253.96 162.526 1251.33 161.708C1247.66 160.557 1243.8 160.376 1239.9 160.209C1238.21 160.141 1236.68 160.41 1235.39 161.169C1234.19 161.885 1232.87 162.423 1231.24 162.781C1229.14 163.227 1227.21 164.045 1225.14 164.618C1223.04 165.191 1220.83 165.603 1218.72 166.176C1217.54 166.489 1216.24 167.239 1215.1 166.69C1213.21 165.774 1210.52 166.803 1208.92 165.323C1207.84 164.305 1206.13 164.192 1204.65 164.966C1200.72 167.038 1195.94 167.773 1191.26 168.65C1190.31 168.831 1189.4 168.596 1188.62 168.111C1187.9 167.665 1186.9 167.317 1186.01 167.743C1183.2 169.12 1180 169.095 1176.71 169.066C1173.74 169.032 1171.03 169.468 1168.91 171.045C1167.79 171.897 1166.13 172.118 1164.51 171.427C1163.41 170.967 1162.32 170.496 1161.23 170.006C1159.49 169.213 1157.82 168.919 1155.94 169.938C1155.2 170.34 1154.15 170.295 1153.2 169.962C1151.05 169.179 1148.91 168.943 1146.75 169.972C1145.57 170.531 1144.22 169.781 1142.98 170.06C1142.85 170.844 1143.17 171.741 1141.57 172.186C1140.86 171.794 1140.16 171.358 1139.4 170.967C1138.63 170.55 1137.9 170.32 1136.78 170.653C1133.66 171.584 1130.38 171.158 1127.14 170.898C1122.52 172.319 1118.1 174.557 1112.57 172.387C1112.26 172.265 1111.48 172.657 1110.9 172.789C1108.47 173.372 1105.73 172.274 1103.34 173.406C1103.01 173.563 1101.93 173.431 1101.62 173.195C1098.96 171.216 1094.03 171.75 1091.74 169.326C1091.35 168.899 1090.07 168.679 1089.16 168.645C1086.6 168.522 1084 168.463 1081.48 168.228C1078.66 167.959 1076.41 168.272 1074.16 169.281C1073.76 169.448 1072.95 169.291 1072.36 169.213C1072.08 169.179 1071.74 169.022 1071.62 168.855C1070.28 167.018 1067.86 166.739 1065.07 166.783C1063.59 166.808 1062.8 166.102 1062.55 165.172C1059.6 163.349 1056.62 161.547 1053.71 159.69C1053.3 159.445 1053.22 159.009 1052.99 158.637C1051.76 158.847 1050.55 159.161 1049.29 159.239C1047.74 159.328 1046.05 159.44 1044.89 158.465C1043.59 158.397 1042.23 158.118 1041 158.284C1038.5 158.632 1035.89 157.211 1033.44 158.529C1033.13 158.696 1032.23 158.529 1031.66 158.407C1030.11 158.083 1028.34 157.912 1027.13 157.3C1024.11 155.756 1021.01 154.982 1017.15 155.634C1016.59 155.737 1015.65 155.031 1014.95 154.659C1014.45 154.39 1014.03 154.066 1013.5 153.728C1011.65 153.518 1009.69 153.371 1007.8 153.057C1003.72 152.386 1000.12 152.69 997.017 154.703C995.881 155.443 994.37 155.923 992.975 156.54C992.284 156.173 991.45 155.835 990.803 155.374C988.767 153.875 986.199 153.919 983.588 154.311C981.682 154.591 979.855 155.071 977.985 155.453C976.438 155.756 974.812 156.383 973.316 156.281C969.749 156.036 967.008 157.055 964.181 158.137C962.239 158.887 960.218 159.582 958.182 160.219C955.391 161.081 952.039 160.209 950.917 158.362C950.443 157.579 950.148 156.761 949.802 156.026C947.731 155.791 946.745 156.766 945.429 157.334C942.537 158.588 939.416 158.798 936.143 157.971C935.531 157.814 934.942 157.613 934.431 157.353C932.791 156.55 931.208 156.917 930.029 157.667C927.828 159.053 925.655 159.323 923.131 158.103C922.375 157.745 921.671 157.329 920.498 157.466C917.391 157.824 914.715 157.491 913.039 155.428C912.658 154.958 911.557 154.576 910.708 154.453C908.997 154.218 907.918 153.591 906.745 152.788C904.479 151.186 903.314 151.299 901.983 153.449C900.703 155.521 898.157 156.819 896.035 158.382C895.841 158.529 895.445 158.696 895.179 158.661C891.927 158.313 890.302 160.684 887.158 160.631C885.482 160.596 884.101 161.248 882.871 161.997C881.936 162.58 880.951 163.139 879.85 163.575C879.404 163.756 878.419 163.722 878.009 163.506C875.722 162.33 873.506 161.091 871.32 159.822C869.809 158.95 868.162 158.279 866.112 158.279C864.975 158.269 864.4 157.775 863.594 157.461C860.854 156.423 860.703 156.442 857.775 158.044C858.084 159.288 858.336 160.528 856.408 161.414C854.272 161.066 852.085 160.797 849.999 160.341C849.194 160.16 848.633 159.558 847.964 159.156C843.706 159.112 840.008 157.579 835.772 157.309C832.341 157.099 830.413 154.277 826.435 154.4C825.939 154.409 825.22 153.998 824.953 153.66C824.018 152.43 822.486 151.823 820.501 151.48C818.99 151.22 817.545 150.765 815.653 150.285C812.481 147.463 809.078 144.431 805.676 141.409C803.72 141.276 801.734 140.914 799.843 141.071C797.426 141.271 795.189 141.017 793.203 140.346C791.132 139.65 789.406 140.355 787.564 140.434C785.507 139.317 783.536 138.22 781.551 137.122C781.335 135.78 778.443 135.589 778.494 134.124C777.293 134.056 776.753 133.566 776.602 132.851C774.682 132.738 772.739 132.483 770.833 132.571C768.647 132.674 767.086 132.101 765.791 131.117C764.539 130.176 763.46 129.138 762.223 128.173C761.828 127.869 761.187 127.501 760.662 127.511C758.476 127.536 756.224 127.957 754.109 127.737C750.707 127.379 747.161 127.702 743.838 126.776C742.723 126.463 741.407 126.419 740.155 126.282C738.055 126.056 738.069 126.047 735.588 123.695C734.782 122.936 733.552 122.735 732.236 122.632C731.89 122.946 731.646 123.416 731.171 123.548C729.2 124.141 727.208 124.699 725.158 125.135C724.323 125.302 723.302 125.101 722.755 124.518C722 123.69 722.101 122.515 720.389 122.079C719.303 122.505 718.022 122.804 717.152 123.387C714.541 125.145 711.563 125.077 708.362 124.317C705.636 124.361 704.974 123.142 704.6 121.746C703.32 121.623 701.953 121.677 700.968 120.972C699.572 119.963 697.616 119.316 695.789 119.517C693.962 119.708 692.746 118.9 691.257 118.934C689.43 118.988 688.301 118.194 686.833 117.827C685.647 117.523 684.107 117.2 683.035 117.445C679.389 118.297 675.281 118.003 671.843 119.448C670.268 120.095 668.786 119.659 667.441 118.821C665.6 117.68 664.78 115.887 662.118 115.275C660.212 115.622 658.342 115.99 656.45 116.293C654.263 116.651 652.997 115.206 651.041 115.074C650.732 115.064 650.401 114.986 650.091 114.961C647.034 114.701 644.258 114.795 642.402 116.798C642.071 117.165 640.712 117.136 639.82 117.278C636.389 117.303 632.936 117.112 629.613 118.018C628.527 118.321 627.167 118.209 625.93 118.228C624.038 118.273 622.132 118.263 620.248 118.273C619.047 119.345 617.522 120.075 615.436 120.129C612.825 120.207 610.357 120.354 608.386 121.731C607.89 122.079 606.559 122.147 605.725 122.02C603.308 121.653 601.258 121.839 599.517 123.073C597.906 124.214 596.036 124.773 593.49 124.562C592.389 124.459 590.994 124.979 590.023 125.459C584.779 128.089 584.11 128.638 580.557 132.41C579.902 133.115 579.377 133.899 578.586 134.546C578.277 134.79 577.291 134.928 576.831 134.79C575.665 134.452 574.63 133.938 573.529 133.492C572.278 133.326 571.012 133.154 569.753 132.978C568.782 133.066 567.832 133.223 566.861 133.238C563.315 133.272 562.833 132.87 563.869 130.774C564.149 130.215 564.25 129.578 564.164 128.995C564.085 128.491 563.394 128.27 562.754 128.457C562.193 128.623 561.653 128.873 561.243 129.162C558.158 131.376 558.172 131.391 554.986 130.269C554.705 130.166 554.425 130.034 554.18 129.912C552.72 129.162 551.288 129.108 549.742 129.823C548.972 130.181 548.052 130.416 547.26 130.685C545.635 130.318 544.103 129.98 542.578 129.632C540.542 129.946 538.521 129.858 536.514 129.451C536.205 129.495 535.823 129.652 535.579 129.583C532.917 128.888 530.306 128.231 528.184 126.786C525.127 124.704 521.33 123.832 516.863 124.886C515.992 125.096 514.841 124.807 513.971 125.018C507.533 126.585 500.729 126.683 493.989 127.154C491.313 127.345 488.896 127.051 486.465 126.536C484.343 126.091 482.178 125.606 480.25 124.881C478.905 124.366 477.92 124.636 476.704 124.871C474.258 125.331 472.237 124.915 470.907 123.416C470.741 123.235 470.547 123.049 470.461 122.848C469.82 121.383 468.288 120.923 466.058 121.07C461.786 121.349 457.679 121.138 453.881 119.561C452.895 119.159 451.334 119.429 450.119 119.203C448.903 118.978 447.788 118.522 446.616 118.165C445.285 118.268 444.631 117.905 444.789 117.014C443.048 116.176 441.092 115.534 439.416 114.687C437.38 113.658 435.718 112.316 433.877 111.116C433.417 110.812 432.892 110.567 432.395 110.288C431.489 109.783 429.978 109.862 428.892 110.533C428.202 110.969 427.547 111.439 426.972 111.953C425.936 112.884 424.656 112.345 423.44 112.267C422.85 112.345 422.224 112.379 421.649 112.502C418.987 113.085 416.355 112.938 413.744 112.321C411.687 113.06 409.485 113.374 407.141 113.173C404.889 112.982 402.508 112.962 400.422 112.458C398.135 111.899 395.919 113.129 393.754 112.257C392.028 111.552 390.669 112.056 389.582 112.997C389.086 113.423 388.597 113.521 387.921 113.266C385.655 112.404 383.519 113.3 381.037 113.491C380.181 113.055 379.181 112.531 378.131 112.037C375.024 110.592 371.046 110.479 368.37 112.272C366.155 113.761 363.407 114.138 360.731 114.814C357.84 115.529 354.797 115.564 352.337 114.456C348.705 112.835 344.633 112.286 340.555 111.625C338.98 111.365 337.038 111.223 336.016 110.552C334.47 109.533 332.995 108.995 330.938 109.401C328.622 109.847 326.565 109.803 324.579 108.73C323.989 108.407 322.558 108.284 321.903 108.519C319.782 109.279 317.566 109.514 315.279 109.303C311.466 108.936 307.654 110.185 303.856 109.249C301.49 110.415 298.879 110.009 296.383 109.597C294.721 109.328 293.247 109.23 291.664 109.72C289.528 110.381 287.197 110.009 284.975 110.165C282.479 110.347 280.587 111.924 277.774 111.909C276.163 111.899 274.437 112.414 272.977 112.154C270.02 111.64 267.222 112.179 264.381 112.267C264.165 112.267 263.935 111.978 263.705 111.821C261.928 111.865 260.274 111.797 259.612 110.445C258.102 110.097 256.591 109.749 255.08 109.391C253.239 110.116 251.462 108.72 249.556 109.288C249.161 109.411 248.341 109.132 247.866 108.906C245.845 107.966 244.018 107.427 241.996 109.019C241.011 109.803 239.385 110.249 238.055 110.841C237.975 111.052 237.99 111.38 237.788 111.444C236.702 111.782 235.436 111.948 234.487 112.394C233.465 112.889 232.797 113.682 231.825 114.241C231.444 114.452 230.675 114.388 230.085 114.442C228.639 114.902 226.977 115.201 225.776 115.853C223.331 117.185 221.144 118.708 218.957 120.07C217.36 120.183 216.051 120.227 214.785 120.374C211.944 120.722 208.822 120.643 206.866 122.446C204.168 123.127 201.457 123.798 198.766 124.484C196.594 123.96 194.99 124.616 193.508 125.513C191.386 126.801 189.272 128.099 187.114 129.417C186.553 129.363 185.934 129.226 185.308 129.25C182.546 129.319 180.755 130.122 180.151 131.533C179.985 131.949 179.885 132.371 179.856 132.787C179.755 134.266 178.489 135.295 176.389 135.437C172.872 135.697 170.39 136.936 168.124 138.494C167.47 138.954 166.894 139.478 166.168 139.895C164.887 140.644 163.355 140.948 161.65 140.698C160.715 140.566 159.795 140.35 158.939 140.184C158.032 140.767 157.133 141.335 156.112 141.986C154.846 141.492 153.76 141.056 152.415 140.507C150.868 141.301 149.163 142.241 147.351 143.059C146.624 143.397 145.66 143.554 144.754 143.652C142.553 143.912 140.316 144.098 138.36 144.279C137.633 145.028 137.029 145.533 136.619 146.091C135.209 148.085 132.655 148.898 129.505 148.791C126.808 148.688 124.441 149.182 121.981 149.731C119.535 150.29 116.759 150.446 114.882 151.666C113.565 152.504 112.81 153.723 111.81 154.767C111.4 156.168 111.156 157.588 110.494 158.931C109.933 160.096 108.969 161.057 106.617 161.204C104.171 161.36 101.783 161.875 99.3878 162.232C98.5319 163.452 97.1364 163.609 95.4604 163.016C93.619 162.364 91.9287 161.899 90.6483 163.521C90.4038 163.834 89.6629 164.015 89.1018 164.182C88.8357 164.26 88.4473 164.226 88.1308 164.172C85.6636 163.756 83.6927 164.216 82.0527 165.46C80.0962 166.94 77.9958 168.238 74.5432 167.743C74.0037 167.665 73.3276 168.003 72.7162 168.145C68.1126 169.218 64.3723 168.135 61.5095 165.887C60.0133 164.721 58.2366 164.535 56.3808 164.5C54.82 164.476 53.2447 165.024 51.7126 164.334C49.2454 164.167 46.7854 163.996 44.3038 163.829C42.5775 162.507 40.1103 163.359 38.089 162.898C37.5136 162.82 36.7583 162.854 36.3987 162.629C32.2915 160.101 30.8601 156.163 25.8034 154.115C25.4725 153.131 25.1272 152.136 24.8036 151.137C23.2283 151.25 21.6458 151.348 19.9699 151.46C19.639 150.755 19.3944 150.187 19.1139 149.623C18.4593 148.291 16.8769 147.566 14.9419 147.723C14.0069 147.801 13.0718 147.933 12.1295 148.061C10.619 148.261 9.27386 148.942 7.56192 148.653C6.41104 148.453 5.20981 148.364 3.85033 148.193C3.7856 146.782 3.69928 145.352 3.62016 143.916C2.35419 143.872 1.08822 143.828 -0.17775 143.769C-1.22793 144.362 -2.52986 144.563 -3.81022 144.372C-5.71636 144.093 -7.27725 143.52 -8.49286 142.349C-9.95304 140.928 -10.2839 141.016 -12.3843 141.825C-13.4848 142.251 -14.535 142.741 -15.7218 143.054C-16.1966 143.177 -17.1029 143.044 -17.4985 142.795C-18.3545 142.246 -18.8436 141.364 -19.8147 140.958C-21.1454 140.399 -22.7566 140.105 -24.3031 139.807C-24.8426 139.704 -25.7129 139.807 -26.1085 140.042C-27.4392 140.816 -28.7843 141.575 -30.0503 142.393L-30.0503 427.132C-28.6549 426.932 -27.2091 426.829 -25.677 426.907C-24.4973 426.961 -23.2745 426.75 -22.1309 426.672C-21.4907 427.255 -20.9296 427.759 -20.3758 428.259C-19.8147 427.823 -19.2752 427.029 -18.6854 427.015C-16.7433 426.971 -15.0673 426.804 -13.7078 425.805C-12.0319 424.585 -9.89555 424.663 -7.70888 425.124C-7.67291 424.477 -7.31326 423.958 -6.18396 424.193C-5.34237 424.374 -4.60869 424.776 -3.83184 425.075C-3.27079 424.928 -2.60184 424.585 -2.15588 424.673C-0.285694 425.099 1.37589 425.491 3.25326 424.482C4.77818 423.664 6.821 423.566 8.82065 423.767C10.101 423.899 11.3814 424.012 12.4819 423.351C13.6831 422.611 15.3231 422.391 16.7042 421.906C18.8909 421.146 20.2503 421.783 21.7824 422.552C21.9982 422.665 22.4874 422.733 22.7032 422.655C25.7602 421.504 29.6012 421.602 32.3993 420.049C33.6293 419.368 34.8665 418.619 36.3123 418.183C38.0027 417.678 40.139 417.703 41.6711 417.076C43.196 416.439 44.6274 416.37 46.2243 416.493C47.4902 416.596 48.8857 417.12 49.9575 416.909C54.8055 415.89 59.6392 417.076 64.4514 416.831C66.6236 416.718 68.0191 417.727 69.3282 418.653C69.9396 419.069 70.213 419.672 70.738 420.299C72.9535 419.76 75.061 419.236 77.1614 418.722C78.4417 418.408 79.0532 418.766 79.4632 420.152C79.5279 420.353 79.4775 420.568 79.4775 420.779C81.3333 420.534 83.1748 420.24 85.0449 420.029C87.0806 419.794 87.9869 420.23 89.0874 421.876C89.2025 422.043 89.3823 422.2 89.5981 422.435C90.6986 422.121 91.8351 421.808 92.95 421.494C92.95 421.127 93.0507 420.769 93.2306 420.421C93.4608 419.525 94.2016 418.942 95.6762 418.991C97.532 419.069 99.3878 419.236 101.265 419.358L101.301 419.349C101.251 418.854 101.186 418.364 101.121 417.869C98.6037 416.728 98.6253 416.37 101.272 415.327C101.668 415.092 102.042 414.847 102.452 414.631C102.502 414.631 102.927 414.822 102.963 414.945C103.078 415.513 103.114 416.086 103.157 416.669C105.538 416.782 107.379 416.209 108.07 414.421C109.465 415.586 109.667 416.87 111.767 416.816C114.479 416.738 116.716 417.546 118.917 418.437C119.838 418.403 120.809 418.246 121.693 418.359C123.765 418.628 125.355 418.158 126.772 417.262C127.081 416.4 127.987 415.807 129.102 415.439C129.857 415.18 131.138 414.925 131.684 415.16C133.821 416.101 135.151 415.577 136.367 414.435C136.878 413.965 137.338 413.485 137.878 412.946C138.992 414.078 139.834 415.16 141.726 415.675C142.107 415.778 142.186 416.37 142.402 416.738C143.423 417.521 144.833 418.246 143.387 419.412C142.891 419.814 143.258 420.083 143.654 420.519C144.509 421.435 145.574 422.175 146.79 422.905C148.401 423.88 150.127 424.384 152.084 423.801C154.911 422.964 157.572 422.694 160.579 423.434C161.665 423.694 163.211 423.434 164.391 423.145C166.628 422.587 168.944 422.988 171.174 422.743C173.03 422.542 174.145 423.449 175.547 423.939C177.489 423.581 178.835 423.963 179.475 425.246C181.395 425.158 183.366 425.193 185.243 424.933C187.775 424.575 190.257 424.037 192.703 423.488C194.048 423.184 195.199 423.307 196.45 423.669C197.321 423.929 198.306 424.149 199.263 424.164C202.55 424.198 205.722 424.365 208.743 425.408C209.779 425.766 211.325 425.452 212.541 425.678C214.857 426.114 216.684 424.546 219.094 425.217C220.41 425.584 221.396 424.659 222.482 424.257C224.848 423.395 227.265 423.003 229.977 423.654C231.156 423.943 232.689 424.281 233.739 424.022C235.976 423.473 237.256 423.743 238.551 425.05C239.407 425.913 240.917 426.481 242.133 427.186C244.233 427.039 245.701 427.456 246.686 428.808C247.226 429.557 248.492 429.636 249.923 429.278C253.325 428.44 254.275 428.876 255.627 431.571C256.217 432.051 256.728 432.878 257.418 432.947C260.49 433.285 263.431 433.863 266.783 433.069C271.301 432.006 276.199 431.59 280.918 430.875C283.45 430.493 285.241 431.379 287.032 432.32C287.902 432.58 288.952 432.712 289.592 433.123C291.304 434.196 293.074 435.058 295.591 434.946C298.382 434.813 300.734 435.328 302.54 436.802C304.151 438.11 306.021 437.454 307.618 437.047C309.834 437.65 311.905 438.233 313.962 438.806C316.365 438.11 318.134 439.756 320.422 439.531C322.752 438.913 324.888 438.144 327.636 439.261C329.737 440.114 332.384 440.412 334.815 440.907C335.39 441.03 336.131 441.03 336.671 440.907C339.692 440.192 342.799 439.555 345.64 438.6C347.611 437.953 349.237 436.841 351.093 435.901C353.725 436.18 356.71 435.563 359.098 436.596C361.069 435.445 362.716 433.946 364.946 433.305C368.413 432.31 371.585 430.508 375.793 430.831C376.959 430.919 377.664 430.527 378.225 430.047C379.311 429.107 380.721 428.803 382.433 428.773C384.044 428.729 386.029 428.955 387.166 428.426C389.316 427.431 391.589 428.313 393.74 427.808C395.797 427.338 398.142 427.328 400.429 427.74C402.069 428.044 403.515 427.573 404.932 426.966C405.688 426.643 406.802 426.677 407.759 426.549C408.09 425.825 408.795 425.462 409.975 425.531L410.154 425.452C410.269 424.713 410.895 424.321 412.01 424.257C412.435 423.988 412.916 423.454 413.262 423.498C414.722 423.654 415.873 424.473 417.714 424.002C419.34 423.566 419.469 423.757 419.887 425.055C419.951 425.256 419.951 425.472 419.966 425.673C421.081 425.629 421.678 425.202 421.872 424.522C422.203 424.198 422.548 423.86 422.872 423.537C423.181 423.875 423.512 424.218 423.821 424.556C424.576 424.624 425.332 424.678 426.087 424.737C428.144 423.797 430.129 422.778 432.28 421.94C433.316 421.524 434.747 421.122 435.862 421.259C439.509 421.685 442.76 421.382 445.918 420.03C448.45 418.942 451.421 418.854 454.348 419.334C457.276 419.804 459.311 418.908 461.218 417.678C461.642 417.419 462.073 416.929 462.512 416.929C465.289 416.904 468.08 417.032 470.863 417.017C471.734 417.007 472.654 416.782 473.474 416.556C475.366 416.052 475.265 417.183 475.942 417.722C476.301 418.011 476.891 418.183 477.387 418.418C477.668 417.815 478.128 417.242 479.178 417.223C480.955 417.198 482.775 417.781 484.357 416.63C484.832 416.272 486.113 416.184 486.969 416.248C488.939 416.414 490.615 416.16 492.327 415.464C493.903 414.827 495.715 414.411 497.406 413.887C497.981 412.824 499.247 412.442 500.858 412.5C501.729 412.525 502.599 412.726 503.469 412.848L503.505 412.838C505.311 411.384 505.606 411.384 507.282 412.892L507.318 412.902C507.893 412.677 508.483 412.633 509.123 412.77C510.223 412.011 511.18 411.104 512.475 410.531C514.05 409.836 515.927 409.414 517.107 409.042C518.618 407.127 519.819 405.618 521.02 404.109C522.2 402.61 523.077 400.94 524.667 399.642C526.034 398.535 528.213 397.854 530.04 396.992C530.349 396.644 530.551 396.164 531.011 395.973C532.932 395.213 534.924 394.528 536.766 393.871C538.686 394.219 540.513 394.552 542.355 394.89C543.354 394.366 544.412 393.881 545.347 393.323C547.253 392.181 549.274 391.187 551.871 390.77C552.331 390.589 552.957 390.168 553.266 390.246C556.144 390.996 558.97 391.824 561.812 392.632C564.919 392.911 567.99 393.146 571.033 392.397C571.134 392.372 571.443 392.686 571.645 392.842C572.119 392.676 572.594 392.661 573.076 392.808C573.867 392.504 574.622 391.956 575.428 391.936C579.01 391.789 582.146 392.661 584.959 394.087C585.175 394.199 585.189 394.469 585.304 394.66C588.85 394.572 592.468 394.302 594.964 396.56C595.31 396.864 596 397.119 596.59 397.187C600.402 397.589 604.164 398.084 607.782 399C609.983 398.721 612.17 398.417 614.385 398.172C614.997 398.104 615.666 398.182 616.306 398.197C617.558 398.05 618.823 397.971 620.017 397.736C621.168 397.511 622.305 396.698 623.434 397.447C623.815 397.707 623.089 398.554 623.24 399.093C623.506 400.087 624.031 401.062 624.441 402.057C626.333 401.699 627.599 400.915 628.354 399.764L628.369 399.754C629.635 399.338 630.865 398.902 632.116 398.481C634.173 398.569 636.209 398.647 638.245 398.74C638.324 398.236 638.784 397.888 639.395 398.045C639.755 398.123 640.007 398.603 640.072 398.927C640.136 399.309 639.942 399.71 639.877 400.112L640.072 400.695L639.993 401.288C640.503 402.091 641.402 402.532 642.733 402.654C643.963 402.767 645.164 402.934 646.38 403.071C647.977 403.281 649.552 403.551 651.163 403.688C652.098 403.766 653.105 403.565 653.904 404.08C656.731 405.936 660.953 406.181 664.01 407.67C666.671 408.969 669.433 408.924 672.339 408.802C673.951 408.733 675.576 408.542 677.123 408.253C679.619 407.773 681.64 408.322 683.417 409.341C684.618 410.036 685.603 410.884 686.668 411.668C688.013 411.736 689.02 412.207 689.66 412.912C690.682 414.019 691.948 414.749 694.012 414.871C696.019 414.984 696.378 415.944 696.199 417.051C697.234 417.365 698.026 416.738 698.86 416.738C700.076 416.748 701.277 417.218 702.507 417.262C706.628 417.394 709.707 419.163 713.239 420.181C714.454 420.549 715.44 420.451 716.576 420.539C721.13 420.897 725.568 421.524 727.553 424.86C728.359 426.212 728.999 426.368 731.3 425.957C733.257 425.599 735.163 425.678 737.098 425.756C737.609 425.79 738.213 426.104 738.558 426.393C740.299 427.936 742.831 428.058 745.478 428.264C750.887 428.68 755.584 429.93 757.62 433.701C758.555 433.589 759.511 433.491 760.461 433.363C763.403 432.996 765.453 433.687 766.855 435.436C767.395 436.116 767.827 437.003 769.337 437.179C771.574 437.077 773.3 435.602 775.796 436.117C775.962 435.534 776.077 434.951 776.307 434.382C776.372 434.226 776.767 434.093 777.048 434.044C777.177 434.035 777.544 434.28 777.544 434.402C777.595 435.396 777.58 436.381 777.595 437.38C777.954 437.807 778.566 438.017 779.156 437.762C780.141 437.326 781.062 436.812 781.882 436.239C782.723 435.671 783.212 434.794 784.198 434.417C785.068 434.093 786.399 434.284 787.499 434.182C787.73 434.172 787.909 433.902 788.111 433.746C789.161 432.594 789.686 432.359 790.542 432.717C791.333 433.04 791.707 433.52 791.578 434.147C791.499 434.529 791.427 434.921 791.362 435.298C791.887 435.489 792.628 435.925 792.887 435.837C794.563 435.22 796.009 434.235 797.785 433.858C800.756 433.207 802.878 432.036 804.734 430.503C805.539 429.841 806.525 429.273 807.496 428.7C809.503 427.524 813.214 427.167 815.595 428.362C817.681 429.415 819.062 428.989 820.817 428.284C821.882 427.848 822.313 426.883 823.874 426.839C826.32 426.77 828.183 425.908 829.672 424.722C831.348 423.4 832.873 422.072 836.045 422.307C836.786 422.361 837.721 421.749 838.426 421.347C839.656 420.642 840.843 419.917 841.893 419.109C842.749 418.472 843.188 417.585 844.13 417.037C845.31 416.331 846.741 415.748 848.187 415.302C849.287 414.955 850.783 415.077 851.769 414.666C853.574 413.916 855.351 413.706 857.336 414.161C858.257 414.372 859.127 414.675 860.062 414.866C864.069 415.694 868.442 415.435 872.37 416.601C873.075 416.811 874.29 416.488 875.146 416.219C876.311 415.861 877.347 415.322 878.369 414.896C881.325 415.253 884.022 416.17 886.993 415.734C889.41 414.288 890.525 412.109 893.532 411.055C893.877 410.183 894.668 409.87 895.999 410.203C896.423 410.159 896.855 410.149 897.279 410.193C900.796 409.767 904.249 410.183 907.716 410.472C908.277 410.394 908.781 410.247 909.241 410.012C909.55 409.218 910.327 408.974 911.507 409.194L911.456 409.047C913.118 407.244 915.089 405.647 918.606 405.491C921.203 405.378 921.548 404.246 921.829 402.983C921.879 402.801 922.21 402.659 922.404 402.503C922.785 402.703 923.21 402.87 923.505 403.12C923.67 403.267 923.605 403.521 923.605 403.722C923.641 405.437 925.576 405.603 927.518 405.78C928.914 405.256 930.345 404.785 931.69 404.202C933.086 403.6 934.647 403.061 936.229 403.252C939.732 403.668 941.588 402.12 943.789 400.935C944.019 399.926 945.12 399.681 946.436 399.784C947.321 399.862 948.191 400.132 949.069 400.308C950.896 400.23 952.154 400.969 953.521 401.572C956.938 402.375 960.52 401.302 964.037 402.052C967.734 402.836 971.662 401.885 975.064 402.365C976.69 401.684 977.92 401.013 979.337 400.607C980.783 400.205 982.789 400.362 983.904 399.754C986.386 398.422 988.753 399.108 991.515 399.495C992.514 398.878 993.55 398.109 994.787 397.516C996.082 396.913 997.578 396.497 998.981 395.992C1001.13 394.65 1003.38 394.033 1006.44 394.973C1008.92 395.723 1010.53 394.694 1011.63 393.308C1012.71 394.023 1013.76 394.728 1014.79 395.444C1016.75 395.498 1018.7 395.566 1020.64 395.625C1021.64 394.694 1022.67 393.822 1024.75 394.415C1027.33 394.469 1029.93 394.537 1032.5 394.606C1032.54 394.19 1032.58 393.788 1032.62 393.362C1033.21 391.897 1035.02 392.186 1036.62 392.186C1036.85 391.505 1037.49 391.113 1038.61 391.079C1039.3 391.069 1039.97 391.069 1040.66 391.069C1040.28 392.568 1038.93 393.381 1036.62 393.509L1036.61 393.519L1036.51 394.773C1037.82 394.817 1039.14 394.875 1040.45 394.92C1041.14 394.973 1041.83 395.042 1042.52 395.101C1043.97 394.606 1045.35 394.072 1047.04 394.777C1048.42 395.336 1049.88 395.816 1051.41 396.379C1052.56 396.154 1053.79 395.909 1055.03 395.664C1055.41 395.943 1055.85 396.188 1056.14 396.516C1057.55 398.074 1057.99 398.241 1059.61 397.692C1060.47 397.403 1061.21 396.933 1062.11 396.707C1062.99 396.482 1064.01 396.482 1064.95 396.325C1067.69 395.88 1070.7 396.516 1073.34 395.532C1073.57 395.453 1073.98 395.556 1074.3 395.576C1075.87 395.708 1077.44 395.62 1078.93 396.291C1080.21 396.859 1081.95 397.006 1083.48 397.344C1085.66 395.743 1088.4 396.541 1090.94 396.663C1091.25 396.688 1091.5 397.281 1091.8 397.604C1093.37 397.638 1095.1 397.516 1095.53 398.936C1098.46 400.068 1098.55 400.043 1099.63 398.177C1099.55 397.638 1099.45 397.104 1099.36 396.575C1099.52 395.566 1099.65 394.562 1101 393.876C1101.47 393.631 1102.02 393.46 1102.52 393.259C1102.82 393.582 1103.25 393.896 1103.38 394.244C1103.53 394.626 1103.42 395.037 1103.42 395.439C1103.32 396.703 1103.22 397.981 1103.14 399.245L1103.19 399.314C1105.14 399.348 1107.1 399.392 1109.06 399.426L1109.12 399.382C1108.93 399.025 1108.9 398.652 1109.07 398.285C1108.51 397.849 1107.82 397.457 1107.47 396.952C1107.34 396.761 1107.98 396.335 1108.26 396.012C1108.48 396.125 1108.83 396.213 1108.89 396.35C1109.11 396.908 1109.25 397.501 1109.43 398.074C1111.4 397.692 1113.09 396.497 1115.46 397.178C1117.36 397.614 1119.23 397.516 1121.13 397.134C1121.47 396.482 1122.26 396.149 1123.23 396.227C1126.12 396.472 1128.73 396.472 1129.92 396.061C1130.97 395.679 1131.77 394.944 1133.22 395.233C1134.12 395.111 1135.04 394.998 1135.96 394.885C1139.59 394.449 1140 394.572 1140.99 396.923C1141.6 398.402 1143.25 397.898 1144.67 397.942C1145.24 397.104 1146.19 396.668 1147.66 396.791C1147.97 396.815 1148.34 396.781 1148.6 396.869C1152.7 398.324 1157.13 398.393 1161.61 398.211C1162.99 398.157 1164.01 398.647 1164.6 399.475C1166.64 400.67 1168.46 401.993 1170.05 403.448C1174.06 404.006 1178.53 402.978 1182.11 405.016C1182.33 405.138 1182.74 405.148 1183.05 405.162C1187.21 405.241 1191.48 404.893 1195.24 406.514C1195.46 406.603 1195.92 406.583 1196.18 406.49C1198.15 405.819 1200 406.828 1201.85 406.691C1203.88 406.544 1205.71 406.936 1207.58 407.215C1209.87 407.563 1211.98 407.504 1214.27 407.083C1216.71 406.612 1219.23 406.5 1221.66 407.622C1222.88 408.17 1224.7 408.239 1226.29 408.347C1227.82 408.459 1228.43 409.13 1229.17 409.811C1229.55 410.159 1230.04 410.448 1230.47 410.762C1231.16 410.786 1231.83 410.806 1232.52 410.815C1232.65 410.223 1232.74 409.63 1232.93 409.047C1233 408.881 1233.33 408.68 1233.57 408.631C1233.74 408.596 1234.15 408.812 1234.21 408.954C1234.83 410.355 1236.35 410.835 1238.44 410.801C1238.75 410.477 1239.06 410.149 1239.37 409.841C1240.65 410.801 1239.11 410.624 1238.44 410.801C1239.01 412.324 1241.13 412.03 1242.71 412.344C1243.82 412.804 1244.92 413.25 1246.02 413.71C1246.91 413.632 1247.82 413.554 1248.7 413.466C1250.23 413.309 1251.86 413.206 1252.86 414.058C1253.51 414.631 1253.58 415.479 1253.92 416.194C1257.01 416.282 1259.05 417.595 1260.99 418.923C1262.02 419.638 1262.79 420.534 1263.68 421.352C1264.6 421.24 1265.59 420.926 1266.43 421.049C1267.63 421.23 1268.67 421.921 1269.85 422.043C1271.37 422.2 1273.01 421.406 1274.52 421.974C1276.09 422.557 1277.74 421.886 1279.16 422.175C1280.94 422.533 1282.57 423.238 1284.21 423.841C1286.47 424.669 1288.82 425.286 1291.41 425.585C1291.88 425.629 1292.24 426.109 1292.66 426.403C1294.53 426.795 1296.4 427.186 1298.26 427.578C1298.85 426.976 1299.84 426.741 1300.71 427.02C1302.14 427.466 1303.42 428.107 1304.71 428.7C1306.72 429.631 1308.83 429.851 1311.09 429.224C1313.72 428.485 1316.31 427.691 1318.89 426.932C1322.52 428.832 1326.35 430.331 1330.77 431.13C1332 431.34 1333.19 431.713 1333.82 432.531C1336.38 432.766 1338.96 433.001 1341.52 433.246C1342.68 432.776 1343.96 432.957 1345.23 432.908C1346.81 432.854 1348.4 432.639 1349.88 432.281C1351.04 432.012 1351.92 431.208 1353.07 431.037C1354.58 430.811 1356.24 430.949 1357.85 430.983C1360.73 431.037 1363.64 431.051 1366.5 431.272C1367.41 431.34 1368.36 431.742 1369.08 431.262C1371.46 429.616 1374.61 430.522 1377.35 430.145C1378.58 429.979 1379.83 429.856 1381.08 429.709C1383.02 427.784 1386.85 427.985 1389.32 426.643C1389.61 426.094 1390.02 425.59 1390.99 425.477C1393.05 425.252 1395.1 425.139 1397.12 425.609C1398.99 425.506 1400.87 425.408 1402.74 425.305C1405.99 426.917 1410.13 426.628 1413.75 427.51C1416.92 428.284 1420.03 427.691 1422.77 426.413C1423.38 425.967 1423.86 425.296 1424.61 425.124C1426.58 424.688 1427.75 423.792 1428.87 422.729C1430.4 421.308 1431.57 420.892 1433.59 421.823C1435.76 422.807 1437.24 421.744 1439 421.769C1441.66 421.054 1445.06 422.229 1447.3 420.436C1450.16 420.515 1452.95 419.383 1455.81 420.201C1457.1 420.569 1458.41 420.882 1459.33 420.098C1462.22 417.683 1466.45 416.664 1470.42 415.376C1471.17 415.89 1472.04 416.228 1472.96 416.415L1472.96 156.457C1471.53 157.241 1469.99 158.069 1468.46 158.897L1468.5 158.897ZM-26.6984 145.121L-27.2594 144.862L-26.6049 144.73L-26.7056 145.121L-26.6984 145.121ZM11.2807 418.775C10.7196 418.888 10.0003 419.089 9.5903 418.942C9.19469 418.795 8.89978 418.281 8.91416 417.933C8.92855 417.644 9.55434 417.105 9.74855 417.129C10.288 417.208 10.7987 417.512 11.2447 417.766C11.4389 417.889 11.4749 418.134 11.5756 418.315C11.4749 418.472 11.4461 418.741 11.2807 418.775ZM23.6311 156.907L23.4009 156.437L24.0555 156.506L23.6311 156.907ZM149.588 417.556L149.012 417.296L149.667 417.164L149.588 417.556ZM166.211 408.67C166.096 408.782 165.801 408.817 165.585 408.88C165.355 408.533 164.974 408.209 164.93 407.852C164.851 407.278 164.851 406.656 165.772 406.309C165.873 406.274 166.247 406.411 166.347 406.534C167.024 407.259 166.988 407.989 166.218 408.67L166.211 408.67ZM192.458 420.049L192.537 419.647L193.113 419.917L192.458 420.049ZM222.079 421.048C221.978 421.073 221.784 420.813 221.633 420.681C221.827 420.593 222.129 420.377 222.208 420.412C222.899 420.671 222.849 420.926 222.079 421.048ZM596.108 393.146C595.914 392.989 595.518 392.823 595.547 392.7C595.662 392.353 595.943 392.039 596.173 391.672C596.482 391.917 597.029 392.176 596.978 392.387C596.928 392.656 596.417 392.891 596.108 393.146ZM626.736 398.544C626.721 398.241 627.246 397.942 627.541 397.628C627.736 397.761 628.052 397.873 628.102 398.02C628.253 398.593 628.297 399.162 628.383 399.745C627.477 399.554 626.757 399.186 626.743 398.549L626.736 398.544ZM701.385 412.976L701.155 412.549L701.78 412.603L701.385 412.971L701.385 412.976ZM730.567 422.567C730.257 422.307 729.711 422.062 729.761 421.852C729.811 421.582 730.322 421.347 730.631 421.102C730.826 421.249 731.221 421.426 731.193 421.538C731.077 421.876 730.797 422.2 730.567 422.567ZM738.141 421.607L738.22 421.205L738.796 421.465L738.141 421.612L738.141 421.607ZM768.74 431.722C768.215 431.644 767.719 431.463 767.143 431.306C767.539 431.115 767.934 430.757 768.244 430.792C768.668 430.826 769.013 431.159 769.409 431.36C769.179 431.482 768.913 431.742 768.733 431.718L768.74 431.722ZM867.104 412.53L866.529 412.26L867.205 412.113L867.104 412.53ZM885.526 413.338C885.116 413.181 884.619 412.643 884.756 412.442C885.087 411.947 885.756 411.535 886.677 410.761C887.123 411.633 887.561 412.128 887.561 412.608C887.547 413.26 886.396 413.647 885.526 413.338ZM969.411 159.582L968.849 159.323L969.504 159.19L969.403 159.582L969.411 159.582ZM1040.72 391.045C1041.02 390.756 1041.3 390.442 1041.59 390.148C1042.77 391.064 1041.26 390.854 1040.72 391.045ZM1245.25 410.458C1245.05 410.311 1244.66 410.135 1244.69 410.022C1244.8 409.674 1245.08 409.351 1245.31 408.983C1245.62 409.243 1246.17 409.498 1246.12 409.713C1246.07 409.983 1245.56 410.218 1245.25 410.463L1245.25 410.458ZM1309.3 427.882C1309.2 427.882 1309.02 427.647 1308.88 427.515C1309.06 427.427 1309.35 427.211 1309.44 427.245C1310.13 427.505 1310.06 427.75 1309.31 427.882L1309.3 427.882ZM1036.65 392.186C1036.65 392.186 1036.64 392.196 1036.64 392.211L1036.67 392.186L1036.66 392.186L1036.65 392.186ZM1032.52 394.601L1032.52 394.645L1032.6 394.601L1032.52 394.601Z" fill="#F0F0F0"/>
</g>
<defs>
<clipPath id="clip0_117_208">
<rect width="1503" height="333" fill="white" transform="translate(-30)"/>
</clipPath>
</defs>
</svg>
