<svg width="1440" height="333" viewBox="0 0 1440 333" fill="none" xmlns="http://www.w3.org/2000/svg">
<g clip-path="url(#clip0_134_30)">
<path d="M-25.4973 174.104C-25.1161 173.815 -24.8068 173.311 -24.3607 173.266C-21.5051 172.963 -18.628 172.762 -14.3697 172.414C-13.9885 172.424 -13.1182 173.433 -11.8522 174.001C-10.5862 174.55 -8.60083 174.481 -8.19091 175.779C-4.04773 176.083 0.268193 175.579 4.18116 177.043C4.87171 177.313 6.1233 177.078 7.05835 176.931C8.65516 176.671 9.48963 177.244 10.2305 177.969C10.77 178.483 11.2159 179.032 11.8273 179.703C12.7336 179.38 13.5033 179.11 14.273 178.831C17.0999 177.822 19.7972 177.621 22.2069 179.39C23.4872 180.33 24.9689 180.227 26.5442 179.635C28.2561 178.998 29.9968 179.409 30.7809 180.36C32.3058 182.162 34.5284 182.564 37.3552 182.441C38.65 182.373 39.9663 182.466 40.8583 183.245C41.4193 183.402 41.9733 183.568 42.5343 183.74C43.4838 183.774 44.4763 183.696 45.3755 183.852C50.9861 184.845 55.8821 185.289 60.0636 185.185C60.4233 184.626 60.639 183.999 61.1497 183.504C61.6748 182.98 63.286 183.059 63.6169 183.607C63.9479 184.166 64.0126 184.793 64.1924 185.395C64.8326 185.508 65.4728 185.63 66.1129 185.743C67.048 185.655 68.0335 185.64 68.9254 185.454C69.436 185.341 69.7958 184.94 70.2202 184.68C71.0114 183.694 72.4476 183.331 74.5288 183.593L74.1331 183.392L74.5791 183.549C74.3345 182.745 74.054 181.947 74.8452 181.197C75.6652 180.404 76.442 179.595 77.2621 178.758C78.5784 179.429 78.6431 180.717 80.3982 180.996C80.988 181.187 81.5635 181.163 82.1245 180.918C82.2396 180.08 82.3187 179.228 82.5057 178.39C82.5418 178.224 82.9014 178.077 83.1172 177.92C83.4768 178.145 84.1027 178.356 84.1171 178.591C84.1818 179.429 84.0523 180.281 84.002 181.134C84.7068 181.423 85.3687 181.78 86.1383 181.961C87.1238 182.187 87.7495 181.77 88.0587 181.202C88.2529 180.854 88.2889 180.477 88.4041 180.115C88.3897 179.262 88.174 178.4 88.3897 177.597C89.0299 175.324 91.4611 174.687 94.7986 175.828C95.3884 176.029 95.9639 176.23 96.5393 176.421C100.042 175.569 103.524 174.721 107.005 173.869C108.811 174.207 109.703 173.095 111.012 172.83C112.817 172.448 114.594 172.169 116.09 171.366C116.514 171.087 116.91 170.641 117.406 170.572C118.341 170.45 119.377 170.675 120.312 170.562C121.564 170.406 122.743 170.082 123.959 169.823C125.405 167.721 128.052 168.157 130.663 168.515C134.18 168.593 136.856 166.276 140.69 167.05C141.1 167.129 142.1 166.355 142.546 165.875C143.236 165.115 144.092 164.41 145.437 164.508C147.674 164.699 149.76 164.552 151.911 164.16C152.551 164.047 153.486 164.64 154.292 164.909C155.177 164.998 156.349 164.885 156.903 165.213C158.565 166.188 160.651 166.477 162.557 167.05C163.031 167.197 163.312 167.618 163.672 167.922C168.433 169.715 173.648 169.926 178.842 169.367C180.482 169.186 181.697 168.966 183.359 169.436C186.02 170.21 189.041 170.474 191.674 171.292C195.335 172.443 199.198 172.625 203.097 172.791C204.787 172.86 206.319 172.59 207.614 171.831C208.815 171.116 210.131 170.577 211.757 170.22C213.857 169.774 215.785 168.956 217.857 168.383C219.957 167.809 222.165 167.398 224.28 166.825C225.46 166.511 226.761 165.762 227.898 166.31C229.79 167.227 232.48 166.198 234.077 167.677C235.163 168.696 236.868 168.809 238.349 168.035C242.277 165.963 247.06 165.228 251.743 164.351C252.692 164.17 253.599 164.405 254.375 164.89C255.102 165.336 256.102 165.683 256.986 165.257C259.799 163.881 263 163.905 266.287 163.935C269.258 163.969 271.969 163.533 274.091 161.956C275.206 161.103 276.868 160.883 278.494 161.574C279.594 162.034 280.68 162.504 281.766 162.994C283.507 163.788 285.183 164.082 287.06 163.063C287.801 162.661 288.851 162.705 289.801 163.038C291.952 163.822 294.088 164.057 296.246 163.028C297.426 162.47 298.778 163.219 300.022 162.94C300.152 162.156 299.828 161.26 301.432 160.814C302.137 161.206 302.842 161.642 303.604 162.034C304.374 162.45 305.101 162.681 306.215 162.348C309.337 161.417 312.624 161.843 315.861 162.103C320.479 160.682 324.896 158.443 330.434 160.613C330.744 160.736 331.52 160.344 332.096 160.212C334.527 159.629 337.275 160.726 339.656 159.595C339.987 159.438 341.066 159.57 341.382 159.805C344.043 161.784 348.971 161.25 351.258 163.675C351.654 164.101 352.934 164.322 353.84 164.356C356.401 164.478 358.998 164.537 361.515 164.772C364.342 165.042 366.594 164.728 368.845 163.719C369.24 163.553 370.046 163.709 370.636 163.788C370.917 163.822 371.262 163.979 371.377 164.145C372.722 165.982 375.139 166.262 377.93 166.217C379.411 166.193 380.195 166.898 380.447 167.829C383.404 169.651 386.381 171.454 389.287 173.311C389.698 173.555 389.784 173.991 390.014 174.364C391.244 174.153 392.445 173.84 393.711 173.761C395.258 173.673 396.948 173.56 398.113 174.535C399.408 174.604 400.775 174.883 402.005 174.716C404.501 174.369 407.112 175.789 409.564 174.472C409.874 174.305 410.766 174.472 411.341 174.594C412.888 174.917 414.657 175.089 415.873 175.701C418.894 177.244 421.987 178.018 425.849 177.367C426.411 177.264 427.346 177.969 428.051 178.341C428.547 178.611 428.971 178.934 429.496 179.272C431.352 179.483 433.309 179.63 435.2 179.943C439.279 180.614 442.875 180.311 445.983 178.297C447.119 177.558 448.63 177.078 450.025 176.46C450.716 176.828 451.55 177.166 452.197 177.626C454.233 179.125 456.801 179.081 459.412 178.689C461.318 178.41 463.145 177.93 465.015 177.548C466.562 177.244 468.188 176.617 469.684 176.72C473.251 176.965 475.992 175.946 478.819 174.863C480.761 174.114 482.782 173.418 484.818 172.782C487.609 171.919 490.961 172.791 492.083 174.638C492.557 175.422 492.852 176.24 493.198 176.975C495.269 177.21 496.255 176.235 497.571 175.667C500.463 174.413 503.584 174.202 506.857 175.03C507.469 175.187 508.058 175.388 508.569 175.647C510.209 176.451 511.792 176.083 512.971 175.334C515.172 173.947 517.345 173.678 519.869 174.898C520.625 175.255 521.329 175.672 522.502 175.535C525.609 175.177 528.285 175.51 529.961 177.572C530.342 178.043 531.443 178.425 532.292 178.547C534.003 178.782 535.082 179.409 536.255 180.213C538.521 181.814 539.686 181.702 541.017 179.551C542.297 177.479 544.843 176.181 546.965 174.618C547.159 174.472 547.555 174.305 547.821 174.339C551.073 174.687 552.698 172.316 555.841 172.37C557.518 172.404 558.899 171.753 560.129 171.003C561.064 170.42 562.049 169.862 563.15 169.426C563.596 169.245 564.581 169.279 564.991 169.495C567.278 170.67 569.494 171.91 571.68 173.178C573.191 174.05 574.838 174.721 576.888 174.721C578.025 174.731 578.6 175.226 579.406 175.539C582.146 176.578 582.297 176.558 585.225 174.956C584.916 173.712 584.664 172.473 586.592 171.586C588.728 171.934 590.915 172.203 593.001 172.659C593.806 172.84 594.367 173.443 595.036 173.845C599.294 173.889 602.992 175.422 607.228 175.691C610.659 175.902 612.587 178.724 616.565 178.601C617.061 178.591 617.78 179.003 618.047 179.341C618.982 180.57 620.514 181.178 622.499 181.521C624.01 181.78 625.455 182.236 627.347 182.716C630.519 185.537 633.922 188.57 637.324 191.592C639.28 191.724 641.266 192.087 643.157 191.93C645.574 191.729 647.811 191.984 649.797 192.655C651.868 193.351 653.594 192.645 655.436 192.567C657.493 193.684 659.464 194.781 661.449 195.878C661.665 197.221 664.557 197.412 664.506 198.876C665.707 198.945 666.247 199.435 666.398 200.15C668.318 200.263 670.261 200.517 672.167 200.429C674.353 200.326 675.914 200.899 677.209 201.884C678.461 202.824 679.54 203.863 680.777 204.828C681.172 205.132 681.813 205.499 682.338 205.489C684.524 205.465 686.776 205.044 688.891 205.264C692.293 205.622 695.839 205.298 699.162 206.224C700.277 206.538 701.593 206.582 702.845 206.719C704.945 206.944 704.931 206.954 707.412 209.305C708.218 210.065 709.448 210.265 710.764 210.368C711.11 210.055 711.354 209.585 711.829 209.452C713.8 208.86 715.792 208.301 717.842 207.865C718.677 207.699 719.698 207.899 720.245 208.482C721 209.31 720.899 210.486 722.611 210.922C723.697 210.496 724.978 210.197 725.848 209.614C728.459 207.855 731.437 207.924 734.638 208.683C737.364 208.639 738.026 209.859 738.4 211.255C739.68 211.377 741.047 211.324 742.032 212.029C743.428 213.038 745.384 213.685 747.211 213.484C749.038 213.293 750.254 214.101 751.743 214.067C753.57 214.013 754.699 214.806 756.167 215.174C757.353 215.478 758.893 215.801 759.965 215.556C763.611 214.704 767.719 214.997 771.157 213.552C772.732 212.906 774.214 213.342 775.559 214.179C777.4 215.321 778.22 217.114 780.882 217.726C782.788 217.378 784.658 217.011 786.55 216.707C788.737 216.349 790.003 217.795 791.959 217.927C792.268 217.937 792.599 218.015 792.909 218.039C795.966 218.299 798.742 218.206 800.598 216.203C800.929 215.835 802.288 215.865 803.18 215.722C806.611 215.698 810.064 215.889 813.387 214.983C814.473 214.679 815.833 214.792 817.07 214.772C818.962 214.728 820.868 214.738 822.752 214.728C823.953 213.655 825.478 212.925 827.564 212.871C830.175 212.793 832.643 212.646 834.614 211.27C835.11 210.922 836.441 210.853 837.275 210.981C839.692 211.348 841.742 211.162 843.483 209.927C845.094 208.786 846.964 208.228 849.51 208.438C850.611 208.541 852.006 208.022 852.977 207.542C858.221 204.911 858.89 204.363 862.443 200.591C863.098 199.885 863.623 199.102 864.414 198.455C864.723 198.21 865.709 198.073 866.169 198.21C867.335 198.548 868.37 199.062 869.471 199.508C870.722 199.675 871.988 199.846 873.247 200.023C874.218 199.934 875.168 199.778 876.139 199.763C879.685 199.729 880.167 200.13 879.131 202.227C878.851 202.785 878.75 203.422 878.836 204.005C878.915 204.51 879.606 204.73 880.246 204.544C880.807 204.377 881.346 204.128 881.757 203.839C884.842 201.624 884.828 201.61 888.014 202.731C888.295 202.834 888.575 202.967 888.82 203.089C890.28 203.839 891.712 203.892 893.258 203.177C894.028 202.82 894.948 202.584 895.74 202.315C897.365 202.682 898.897 203.02 900.422 203.368C902.458 203.055 904.479 203.143 906.486 203.549C906.795 203.505 907.177 203.349 907.421 203.417C910.083 204.113 912.694 204.769 914.816 206.214C917.873 208.296 921.67 209.168 926.137 208.115C927.008 207.904 928.159 208.193 929.029 207.983C935.467 206.415 942.271 206.317 949.011 205.847C951.687 205.656 954.104 205.95 956.535 206.464C958.657 206.91 960.822 207.395 962.75 208.12C964.095 208.634 965.08 208.365 966.296 208.13C968.742 207.669 970.763 208.086 972.093 209.585C972.259 209.766 972.453 209.952 972.539 210.153C973.18 211.617 974.712 212.078 976.942 211.931C981.214 211.652 985.321 211.862 989.119 213.44C990.105 213.841 991.666 213.572 992.881 213.797C994.097 214.023 995.212 214.478 996.384 214.836C997.715 214.733 998.369 215.095 998.211 215.987C999.952 216.825 1001.91 217.466 1003.58 218.314C1005.62 219.343 1007.28 220.685 1009.12 221.885C1009.58 222.189 1010.11 222.434 1010.6 222.713C1011.51 223.217 1013.02 223.139 1014.11 222.468C1014.8 222.032 1015.45 221.562 1016.03 221.047C1017.06 220.116 1018.34 220.655 1019.56 220.734C1020.15 220.655 1020.78 220.621 1021.35 220.499C1024.01 219.916 1026.65 220.063 1029.26 220.68C1031.31 219.94 1033.51 219.627 1035.86 219.827C1038.11 220.019 1040.49 220.038 1042.58 220.543C1044.87 221.101 1047.08 219.872 1049.25 220.744C1050.97 221.449 1052.33 220.944 1053.42 220.004C1053.91 219.578 1054.4 219.48 1055.08 219.734C1057.34 220.597 1059.48 219.7 1061.96 219.509C1062.82 219.945 1063.82 220.469 1064.87 220.964C1067.98 222.409 1071.95 222.522 1074.63 220.729C1076.85 219.24 1079.59 218.862 1082.27 218.186C1085.16 217.471 1088.2 217.437 1090.66 218.544C1094.3 220.165 1098.37 220.714 1102.45 221.375C1104.02 221.635 1105.96 221.777 1106.98 222.448C1108.53 223.467 1110 224.006 1112.06 223.599C1114.38 223.154 1116.44 223.198 1118.42 224.27C1119.01 224.594 1120.44 224.716 1121.1 224.481C1123.22 223.722 1125.43 223.487 1127.72 223.697C1131.53 224.065 1135.35 222.816 1139.14 223.751C1141.51 222.585 1144.12 222.992 1146.62 223.403C1148.28 223.673 1149.75 223.771 1151.34 223.281C1153.47 222.62 1155.8 222.992 1158.03 222.835C1160.52 222.654 1162.41 221.077 1165.23 221.091C1166.84 221.101 1168.56 220.587 1170.02 220.846C1172.98 221.361 1175.78 220.822 1178.62 220.734C1178.83 220.734 1179.06 221.023 1179.3 221.179C1181.07 221.135 1182.73 221.204 1183.39 222.556C1184.9 222.904 1186.41 223.252 1187.92 223.609C1189.76 222.884 1191.54 224.28 1193.44 223.712C1193.84 223.59 1194.66 223.869 1195.13 224.094C1197.16 225.035 1198.98 225.574 1201 223.981C1201.99 223.198 1203.61 222.752 1204.95 222.159C1205.02 221.949 1205.01 221.62 1205.21 221.557C1206.3 221.219 1207.56 221.052 1208.51 220.606C1209.53 220.112 1210.2 219.318 1211.17 218.76C1211.56 218.549 1212.33 218.613 1212.92 218.559C1214.36 218.098 1216.02 217.799 1217.22 217.148C1219.67 215.816 1221.86 214.292 1224.04 212.93C1225.64 212.818 1226.95 212.774 1228.21 212.627C1231.06 212.279 1234.18 212.357 1236.13 210.554C1238.83 209.874 1241.54 209.202 1244.23 208.517C1246.41 209.041 1248.01 208.384 1249.49 207.488C1251.61 206.2 1253.73 204.902 1255.89 203.584C1256.45 203.638 1257.07 203.775 1257.69 203.75C1260.45 203.682 1262.24 202.878 1262.85 201.468C1263.01 201.051 1263.12 200.63 1263.14 200.214C1263.24 198.734 1264.51 197.706 1266.61 197.563C1270.13 197.304 1272.61 196.065 1274.88 194.507C1275.53 194.046 1276.11 193.522 1276.83 193.106C1278.11 192.356 1279.64 192.053 1281.35 192.302C1282.28 192.435 1283.21 192.65 1284.06 192.817C1284.97 192.234 1285.87 191.666 1286.89 191.014C1288.15 191.509 1289.24 191.945 1290.59 192.493C1292.13 191.7 1293.84 190.759 1295.65 189.941C1296.38 189.603 1297.34 189.447 1298.25 189.349C1300.45 189.089 1302.68 188.903 1304.64 188.722C1305.37 187.972 1305.97 187.468 1306.38 186.909C1307.79 184.915 1310.34 184.102 1313.5 184.21C1316.19 184.313 1318.56 183.818 1321.02 183.269C1323.46 182.711 1326.24 182.554 1328.12 181.335C1329.43 180.497 1330.19 179.277 1331.19 178.234C1331.6 176.833 1331.84 175.412 1332.51 174.07C1333.07 172.904 1334.03 171.944 1336.38 171.797C1338.83 171.64 1341.22 171.126 1343.61 170.768C1344.47 169.549 1345.86 169.392 1347.54 169.985C1349.38 170.636 1351.07 171.101 1352.35 169.48C1352.6 169.166 1353.34 168.985 1353.9 168.819C1354.16 168.74 1354.55 168.775 1354.87 168.828C1357.34 169.245 1359.31 168.784 1360.95 167.54C1362.9 166.061 1365 164.763 1368.46 165.257C1369 165.336 1369.67 164.998 1370.28 164.856C1374.89 163.783 1378.63 164.866 1381.49 167.114C1382.99 168.28 1384.76 168.466 1386.62 168.5C1388.18 168.525 1389.76 167.976 1391.29 168.667C1393.75 168.833 1396.21 169.005 1398.7 169.171C1400.42 170.494 1402.89 169.642 1404.91 170.102C1405.49 170.18 1406.24 170.146 1406.6 170.372C1410.71 172.899 1412.14 176.838 1417.2 178.885C1417.53 179.87 1417.87 180.864 1418.2 181.864C1419.77 181.751 1421.35 181.653 1423.03 181.54C1423.36 182.246 1423.61 182.814 1423.89 183.377C1424.54 184.71 1426.12 185.435 1428.06 185.278C1428.99 185.199 1429.93 185.067 1430.87 184.94C1432.38 184.739 1433.73 184.058 1435.44 184.347C1436.59 184.548 1437.79 184.636 1439.15 184.808C1439.21 186.218 1439.3 187.649 1439.38 189.084C1440.65 189.128 1441.91 189.172 1443.18 189.231C1444.23 188.638 1445.53 188.437 1446.81 188.628C1448.72 188.908 1450.28 189.481 1451.49 190.652C1452.95 192.072 1453.28 191.984 1455.38 191.176C1456.48 190.75 1457.53 190.26 1458.72 189.946C1459.2 189.824 1460.1 189.956 1460.5 190.206C1461.35 190.754 1461.84 191.636 1462.81 192.043C1464.15 192.601 1465.76 192.895 1467.3 193.194C1467.84 193.297 1468.71 193.194 1469.11 192.959C1470.44 192.185 1471.78 191.426 1473.05 190.608L1473.05 -94.1319C1471.65 -93.931 1470.21 -93.8282 1468.68 -93.9066C1467.5 -93.9604 1466.27 -93.7498 1465.13 -93.6714C1464.49 -94.2543 1463.93 -94.7589 1463.38 -95.2586C1462.81 -94.8226 1462.28 -94.029 1461.69 -94.0143C1459.74 -93.9702 1458.07 -93.8037 1456.71 -92.8044C1455.03 -91.5846 1452.9 -91.663 1450.71 -92.1235C1450.67 -91.4768 1450.31 -90.9576 1449.18 -91.1927C1448.34 -91.374 1447.61 -91.7757 1446.83 -92.0745C1446.27 -91.9275 1445.6 -91.5846 1445.16 -91.6728C1443.29 -92.099 1441.62 -92.4908 1439.75 -91.4818C1438.22 -90.6637 1436.18 -90.5657 1434.18 -90.7665C1432.9 -90.8988 1431.62 -91.0115 1430.52 -90.3502C1429.32 -89.6105 1427.68 -89.39 1426.3 -88.9051C1424.11 -88.1458 1422.75 -88.7826 1421.22 -89.5517C1421 -89.6644 1420.51 -89.733 1420.3 -89.6546C1417.24 -88.5034 1413.4 -88.6014 1410.6 -87.0486C1409.37 -86.3677 1408.13 -85.6182 1406.69 -85.1822C1405 -84.6776 1402.86 -84.7021 1401.33 -84.0751C1399.8 -83.4383 1398.37 -83.3697 1396.78 -83.4922C1395.51 -83.5951 1394.11 -84.1192 1393.04 -83.9085C1388.19 -82.8897 1383.36 -84.0751 1378.55 -83.8302C1376.38 -83.7175 1374.98 -84.7266 1373.67 -85.6524C1373.06 -86.0688 1372.79 -86.6714 1372.26 -87.2984C1370.05 -86.7595 1367.94 -86.2354 1365.84 -85.721C1364.56 -85.4075 1363.95 -85.7651 1363.54 -87.1514C1363.47 -87.3522 1363.52 -87.5678 1363.52 -87.7785C1361.67 -87.5335 1359.83 -87.2396 1357.96 -87.0289C1355.92 -86.7938 1355.01 -87.2298 1353.91 -88.8757C1353.8 -89.0423 1353.62 -89.199 1353.4 -89.4342C1352.3 -89.1206 1351.16 -88.8071 1350.05 -88.4936C1350.05 -88.1262 1349.95 -87.7687 1349.77 -87.4208C1349.54 -86.5244 1348.8 -85.9415 1347.32 -85.9905C1345.47 -86.0688 1343.61 -86.2354 1341.73 -86.3578L1341.7 -86.3481C1341.75 -85.8533 1341.81 -85.3634 1341.88 -84.8687C1344.4 -83.7273 1344.37 -83.3697 1341.73 -82.3263C1341.33 -82.0912 1340.96 -81.8463 1340.55 -81.6307C1340.5 -81.6307 1340.07 -81.8218 1340.04 -81.9442C1339.92 -82.5125 1339.89 -83.0856 1339.84 -83.6685C1337.46 -83.7812 1335.62 -83.2081 1334.93 -81.4201C1333.53 -82.5859 1333.33 -83.8694 1331.23 -83.8155C1328.52 -83.7371 1326.28 -84.5454 1324.08 -85.4369C1323.16 -85.4026 1322.19 -85.2459 1321.31 -85.3585C1319.24 -85.628 1317.65 -85.1577 1316.23 -84.2613C1315.92 -83.3991 1315.01 -82.8064 1313.9 -82.439C1313.14 -82.1794 1311.86 -81.9246 1311.32 -82.1598C1309.18 -83.1003 1307.85 -82.5762 1306.63 -81.4348C1306.12 -80.9645 1305.66 -80.4845 1305.12 -79.9456C1304.01 -81.0772 1303.17 -82.1598 1301.27 -82.6741C1300.89 -82.777 1300.81 -83.3697 1300.6 -83.7371C1299.58 -84.5209 1298.17 -85.2459 1299.61 -86.4117C1300.11 -86.8134 1299.74 -87.0828 1299.35 -87.5188C1298.49 -88.4348 1297.43 -89.1745 1296.21 -89.9044C1294.6 -90.8792 1292.87 -91.3838 1290.92 -90.8009C1288.09 -89.9632 1285.43 -89.6938 1282.42 -90.4335C1281.34 -90.6931 1279.79 -90.4335 1278.61 -90.1445C1276.37 -89.586 1274.06 -89.9877 1271.83 -89.7428C1269.97 -89.5419 1268.86 -90.4482 1267.45 -90.938C1265.51 -90.5804 1264.17 -90.9625 1263.53 -92.2459C1261.6 -92.1578 1259.63 -92.1921 1257.76 -91.9324C1255.22 -91.5748 1252.74 -91.036 1250.3 -90.4874C1248.95 -90.1836 1247.8 -90.3061 1246.55 -90.6686C1245.68 -90.9282 1244.69 -91.1486 1243.74 -91.1634C1240.45 -91.1977 1237.28 -91.3642 1234.26 -92.4076C1233.22 -92.7652 1231.67 -92.4517 1230.46 -92.677C1228.14 -93.113 1226.32 -91.5455 1223.91 -92.2165C1222.59 -92.5839 1221.6 -91.6581 1220.52 -91.2564C1218.15 -90.3943 1215.73 -90.0024 1213.02 -90.6539C1211.84 -90.9429 1210.31 -91.2809 1209.26 -91.0213C1207.02 -90.4727 1205.74 -90.7421 1204.45 -92.05C1203.59 -92.9121 1202.08 -93.4804 1200.87 -94.1858C1198.77 -94.0388 1197.3 -94.4552 1196.31 -95.8072C1195.77 -96.5567 1194.51 -96.6351 1193.08 -96.2775C1189.67 -95.4398 1188.73 -95.8758 1187.37 -98.57C1186.78 -99.05 1186.27 -99.8779 1185.58 -99.9465C1182.51 -100.285 1179.57 -100.863 1176.22 -100.069C1171.7 -99.006 1166.8 -98.5896 1162.08 -97.8744C1159.55 -97.4923 1157.76 -98.379 1155.97 -99.3195C1155.1 -99.5791 1154.05 -99.7114 1153.41 -100.123C1151.7 -101.196 1149.93 -102.058 1147.41 -101.945C1144.62 -101.813 1142.27 -102.327 1140.46 -103.802C1138.85 -105.11 1136.98 -104.453 1135.38 -104.047C1133.17 -104.649 1131.09 -105.232 1129.04 -105.805C1126.64 -105.11 1124.87 -106.756 1122.58 -106.53C1120.25 -105.913 1118.11 -105.144 1115.36 -106.261C1113.26 -107.113 1110.62 -107.412 1108.19 -107.907C1107.61 -108.029 1106.87 -108.029 1106.33 -107.907C1103.31 -107.191 1100.2 -106.555 1097.36 -105.599C1095.39 -104.953 1093.76 -103.841 1091.91 -102.9C1089.27 -103.18 1086.29 -102.562 1083.9 -103.596C1081.93 -102.445 1080.28 -100.946 1078.05 -100.304C1074.59 -99.3097 1071.41 -97.5071 1067.21 -97.8304C1066.04 -97.9185 1065.34 -97.5266 1064.78 -97.0465C1063.69 -96.106 1062.28 -95.8023 1060.57 -95.773C1058.96 -95.7289 1056.97 -95.9542 1055.83 -95.4251C1053.68 -94.4307 1051.41 -95.3124 1049.26 -94.8079C1047.2 -94.3377 1044.86 -94.3278 1042.57 -94.7393C1040.93 -95.043 1039.48 -94.5728 1038.07 -93.9654C1037.31 -93.6421 1036.2 -93.6763 1035.24 -93.549C1034.91 -92.824 1034.21 -92.4615 1033.03 -92.5301L1032.85 -92.4517C1032.73 -91.712 1032.1 -91.3201 1030.99 -91.2564C1030.57 -90.987 1030.08 -90.4531 1029.74 -90.4972C1028.28 -90.6539 1027.13 -91.472 1025.29 -91.0017C1023.66 -90.5658 1023.53 -90.7568 1023.11 -92.0549C1023.05 -92.2557 1023.05 -92.4713 1023.03 -92.6721C1021.92 -92.6281 1021.32 -92.2019 1021.13 -91.521C1020.8 -91.1977 1020.45 -90.8597 1020.13 -90.5364C1019.82 -90.8744 1019.49 -91.2172 1019.18 -91.5552C1018.42 -91.6238 1017.67 -91.6777 1016.91 -91.7365C1014.86 -90.796 1012.87 -89.7771 1010.72 -88.9394C1009.68 -88.5231 1008.25 -88.1213 1007.14 -88.2585C1003.49 -88.6847 1000.24 -88.381 997.082 -87.029C994.55 -85.9415 991.579 -85.8533 988.652 -86.3334C985.724 -86.8037 983.689 -85.9072 981.782 -84.6777C981.358 -84.418 980.926 -83.9282 980.488 -83.9282C977.711 -83.9037 974.92 -84.0311 972.137 -84.0164C971.266 -84.0066 970.346 -83.7812 969.526 -83.5559C967.634 -83.0513 967.735 -84.1829 967.058 -84.7218C966.699 -85.0108 966.109 -85.1822 965.613 -85.4174C965.332 -84.8148 964.872 -84.2417 963.822 -84.2221C962.045 -84.1976 960.225 -84.7805 958.643 -83.6294C958.168 -83.2718 956.887 -83.1836 956.031 -83.2473C954.061 -83.4138 952.385 -83.1591 950.673 -82.4635C949.097 -81.8267 947.285 -81.4103 945.594 -80.8862C945.019 -79.8232 943.753 -79.4411 942.142 -79.4999C941.271 -79.5244 940.401 -79.7252 939.531 -79.8477L939.495 -79.8379C937.689 -78.383 937.394 -78.383 935.718 -79.8917L935.682 -79.9016C935.107 -79.6762 934.517 -79.6321 933.877 -79.7693C932.777 -79.01 931.82 -78.1038 930.525 -77.5307C928.95 -76.8351 927.072 -76.4138 925.893 -76.0415C924.382 -74.1261 923.181 -72.6174 921.98 -71.1086C920.8 -69.6097 919.923 -67.9393 918.333 -66.6411C916.966 -65.534 914.787 -64.8532 912.96 -63.991C912.65 -63.6432 912.449 -63.1631 911.989 -62.9721C910.068 -62.2128 908.076 -61.527 906.234 -60.8706C904.314 -61.2184 902.487 -61.5515 900.645 -61.8895C899.646 -61.3653 898.588 -60.8804 897.653 -60.322C895.747 -59.1806 893.726 -58.1862 891.129 -57.7698C890.669 -57.5886 890.043 -57.1673 889.734 -57.2457C886.856 -57.9951 884.03 -58.823 881.188 -59.6313C878.081 -59.9105 875.009 -60.1456 871.967 -59.3961C871.866 -59.3717 871.557 -59.6851 871.355 -59.8419C870.881 -59.6753 870.406 -59.6607 869.924 -59.8076C869.133 -59.5039 868.378 -58.9553 867.572 -58.9357C863.99 -58.7887 860.854 -59.6607 858.041 -61.0862C857.825 -61.1988 857.811 -61.4683 857.696 -61.6593C854.15 -61.5711 850.532 -61.3017 848.036 -63.5599C847.69 -63.8636 847 -64.1184 846.41 -64.1869C842.598 -64.5886 838.836 -65.0834 835.218 -65.9994C833.017 -65.7202 830.83 -65.4165 828.615 -65.1716C828.003 -65.103 827.334 -65.1814 826.694 -65.196C825.442 -65.0491 824.177 -64.9707 822.983 -64.7356C821.832 -64.5102 820.695 -63.6971 819.566 -64.4466C819.185 -64.7062 819.911 -65.5536 819.76 -66.0925C819.494 -67.0869 818.969 -68.0617 818.559 -69.0561C816.667 -68.6985 815.401 -67.9148 814.646 -66.7636L814.631 -66.7538C813.365 -66.3374 812.135 -65.9015 810.884 -65.4802C808.827 -65.5684 806.791 -65.6467 804.755 -65.7398C804.676 -65.2353 804.216 -64.8874 803.605 -65.0442C803.245 -65.1226 802.993 -65.6027 802.928 -65.926C802.864 -66.308 803.058 -66.7097 803.123 -67.1114L802.928 -67.6943L803.007 -68.287C802.497 -69.0904 801.598 -69.5313 800.267 -69.6538C799.037 -69.7664 797.836 -69.933 796.62 -70.0701C795.023 -70.2808 793.448 -70.5502 791.837 -70.6873C790.902 -70.7657 789.895 -70.5649 789.096 -71.0793C786.269 -72.9358 782.047 -73.1807 778.99 -74.6699C776.329 -75.968 773.567 -75.924 770.661 -75.8015C769.049 -75.7329 767.424 -75.5418 765.877 -75.2528C763.381 -74.7728 761.36 -75.3214 759.583 -76.3403C758.382 -77.0359 757.397 -77.8834 756.332 -78.6671C754.987 -78.7357 753.98 -79.206 753.34 -79.9114C752.318 -81.0185 751.052 -81.7484 748.988 -81.8708C746.981 -81.9835 746.622 -82.9436 746.801 -84.0507C745.766 -84.3642 744.974 -83.7372 744.14 -83.7372C742.924 -83.747 741.723 -84.2172 740.493 -84.2613C736.371 -84.3936 733.293 -86.162 729.761 -87.1809C728.546 -87.5483 727.56 -87.4503 726.424 -87.5385C721.87 -87.8961 717.432 -88.5231 715.447 -91.859C714.641 -93.211 714.001 -93.3678 711.7 -92.9563C709.743 -92.5987 707.837 -92.6771 705.902 -92.7554C705.391 -92.7897 704.787 -93.1032 704.442 -93.3922C702.701 -94.9353 700.169 -95.0578 697.522 -95.2635C692.113 -95.6799 687.416 -96.929 685.38 -100.701C684.445 -100.588 683.489 -100.49 682.539 -100.363C679.597 -99.9956 677.547 -100.686 676.145 -102.435C675.605 -103.116 675.173 -104.003 673.663 -104.179C671.426 -104.076 669.7 -102.602 667.204 -103.116C667.038 -102.533 666.923 -101.95 666.693 -101.382C666.628 -101.225 666.233 -101.093 665.952 -101.044C665.823 -101.034 665.456 -101.279 665.456 -101.401C665.405 -102.396 665.42 -103.38 665.405 -104.38C665.046 -104.806 664.434 -105.017 663.844 -104.762C662.859 -104.326 661.938 -103.812 661.118 -103.238C660.277 -102.67 659.788 -101.793 658.802 -101.416C657.932 -101.093 656.601 -101.284 655.501 -101.181C655.27 -101.171 655.091 -100.902 654.889 -100.745C653.839 -99.5939 653.314 -99.3587 652.458 -99.7163C651.667 -100.04 651.293 -100.52 651.422 -101.147C651.501 -101.529 651.573 -101.921 651.638 -102.298C651.113 -102.489 650.372 -102.925 650.113 -102.837C648.437 -102.219 646.991 -101.235 645.215 -100.858C642.244 -100.206 640.122 -99.0354 638.266 -97.5021C637.461 -96.8409 636.475 -96.2726 635.504 -95.6995C633.497 -94.5238 629.786 -94.1662 627.405 -95.3615C625.319 -96.4147 623.938 -95.9885 622.183 -95.2831C621.118 -94.8472 620.686 -93.8821 619.126 -93.838C616.68 -93.7695 614.817 -92.9073 613.328 -91.7218C611.652 -90.3992 610.127 -89.0717 606.955 -89.3069C606.214 -89.3607 605.279 -88.7484 604.574 -88.3467C603.344 -87.6413 602.157 -86.9163 601.107 -86.1081C600.251 -85.4713 599.812 -84.5846 598.87 -84.036C597.69 -83.3306 596.259 -82.7477 594.813 -82.3019C593.713 -81.9541 592.217 -82.0766 591.231 -81.6651C589.426 -80.9156 587.649 -80.705 585.664 -81.1605C584.743 -81.3712 583.873 -81.6749 582.938 -81.8659C578.931 -82.6938 574.558 -82.4342 570.63 -83.6C569.925 -83.8107 568.71 -83.4874 567.854 -83.2179C566.689 -82.8603 565.653 -82.3215 564.631 -81.8953C561.675 -82.2529 558.978 -83.169 556.007 -82.733C553.59 -81.2879 552.475 -79.108 549.468 -78.0548C549.123 -77.1829 548.332 -76.8694 547.001 -77.2025C546.577 -77.1584 546.145 -77.1486 545.721 -77.1927C542.204 -76.7665 538.751 -77.1829 535.284 -77.4719C534.723 -77.3935 534.219 -77.2466 533.759 -77.0115C533.45 -76.2179 532.673 -75.973 531.493 -76.1934L531.544 -76.0464C529.882 -74.2437 527.911 -72.6468 524.394 -72.49C521.797 -72.3774 521.452 -71.2458 521.171 -69.982C521.121 -69.8007 520.79 -69.6587 520.596 -69.5019C520.215 -69.7028 519.79 -69.8693 519.495 -70.1192C519.33 -70.2661 519.395 -70.5208 519.395 -70.7217C519.359 -72.4362 517.424 -72.6027 515.482 -72.7791C514.086 -72.2549 512.655 -71.7847 511.31 -71.2017C509.914 -70.5992 508.353 -70.0604 506.771 -70.2514C503.268 -70.6678 501.412 -69.1198 499.211 -67.9344C498.981 -66.9253 497.88 -66.6804 496.564 -66.7832C495.679 -66.8616 494.809 -67.131 493.931 -67.3074C492.104 -67.229 490.846 -67.9687 489.479 -68.5712C486.062 -69.3746 482.48 -68.3018 478.963 -69.0513C475.266 -69.835 471.338 -68.8847 467.936 -69.3648C466.31 -68.6839 465.08 -68.0128 463.663 -67.6062C462.217 -67.2045 460.211 -67.3613 459.096 -66.7538C456.614 -65.4214 454.247 -66.1072 451.485 -66.4942C450.486 -65.877 449.45 -65.1079 448.213 -64.5152C446.918 -63.9127 445.422 -63.4963 444.019 -62.9917C441.868 -61.6495 439.617 -61.0323 436.56 -61.9728C434.078 -62.7223 432.467 -61.6936 431.367 -60.3073C430.295 -61.0225 429.245 -61.7279 428.209 -62.4431C426.252 -62.497 424.296 -62.5656 422.361 -62.6243C421.361 -61.6936 420.325 -60.8217 418.254 -61.4144C415.671 -61.4683 413.075 -61.5369 410.5 -61.6054C410.464 -61.1891 410.42 -60.7874 410.385 -60.3612C409.795 -58.8965 407.982 -59.1855 406.378 -59.1855C406.148 -58.5046 405.508 -58.1128 404.393 -58.0785C403.702 -58.0687 403.026 -58.0687 402.336 -58.0687C402.719 -59.5676 404.067 -60.3808 406.378 -60.5082L406.392 -60.5179L406.493 -61.772C405.177 -61.8161 403.86 -61.8748 402.551 -61.9189C401.861 -61.9728 401.17 -62.0414 400.48 -62.1002C399.034 -61.6054 397.653 -61.0715 395.963 -61.7769C394.582 -62.3353 393.121 -62.8154 391.589 -63.3787C390.438 -63.1534 389.208 -62.9085 387.971 -62.6635C387.59 -62.9428 387.151 -63.1877 386.856 -63.5159C385.446 -65.0736 385.015 -65.2402 383.389 -64.6915C382.533 -64.4025 381.792 -63.9323 380.893 -63.7069C380.008 -63.4816 378.987 -63.4816 378.052 -63.3249C375.311 -62.8791 372.298 -63.5159 369.658 -62.5313C369.428 -62.4529 369.018 -62.5558 368.701 -62.5754C367.126 -62.7076 365.565 -62.6195 364.069 -63.2906C362.788 -63.8588 361.048 -64.0057 359.516 -64.3437C357.343 -62.7419 354.603 -63.5404 352.056 -63.6628C351.747 -63.6874 351.496 -64.2801 351.201 -64.6034C349.625 -64.6377 347.899 -64.5152 347.467 -65.9358C344.54 -67.0674 344.446 -67.0429 343.375 -65.1765C343.454 -64.6377 343.554 -64.1037 343.641 -63.5747C343.475 -62.5656 343.346 -61.5614 342.001 -60.8756C341.526 -60.6307 340.979 -60.4592 340.476 -60.2583C340.181 -60.5816 339.749 -60.8952 339.62 -61.243C339.469 -61.625 339.584 -62.0365 339.584 -62.4382C339.684 -63.7021 339.778 -64.9806 339.864 -66.2444L339.814 -66.313C337.857 -66.3473 335.901 -66.3913 333.944 -66.4256L333.88 -66.3816C334.074 -66.024 334.096 -65.6517 333.93 -65.2843C334.491 -64.8483 335.182 -64.4564 335.527 -63.9519C335.656 -63.7608 335.016 -63.3346 334.736 -63.0113C334.52 -63.124 334.175 -63.2122 334.11 -63.3493C333.894 -63.9078 333.75 -64.5005 333.57 -65.0736C331.6 -64.6915 329.909 -63.4963 327.543 -64.1772C325.637 -64.6132 323.766 -64.5152 321.875 -64.1331C321.529 -63.4816 320.738 -63.1485 319.774 -63.2269C316.883 -63.4718 314.272 -63.4718 313.085 -63.0603C312.035 -62.6782 311.229 -61.9434 309.783 -62.2325C308.877 -62.11 307.956 -61.9974 307.043 -61.8847C303.41 -61.4487 303 -61.5711 302.015 -63.9225C301.403 -65.4018 299.749 -64.8973 298.332 -64.9414C297.756 -64.1037 296.807 -63.6677 295.34 -63.7902C295.03 -63.8147 294.663 -63.7804 294.405 -63.8686C290.297 -65.3235 285.874 -65.392 281.392 -65.2108C280.011 -65.1569 278.99 -65.6468 278.4 -66.4747C276.364 -67.6699 274.538 -68.9925 272.948 -70.4474C268.941 -71.0058 264.467 -69.9771 260.885 -72.0149C260.669 -72.1374 260.259 -72.1472 259.95 -72.1619C255.793 -72.2402 251.52 -71.8925 247.758 -73.5139C247.542 -73.6021 247.082 -73.5825 246.823 -73.4894C244.852 -72.8183 242.996 -73.8274 241.155 -73.6902C239.119 -73.5433 237.292 -73.9352 235.422 -74.2144C233.135 -74.5622 231.02 -74.5034 228.732 -74.0821C226.287 -73.6119 223.769 -73.4992 221.338 -74.621C220.122 -75.1696 218.295 -75.2382 216.706 -75.346C215.181 -75.4586 214.569 -76.1297 213.829 -76.8106C213.447 -77.1584 212.958 -77.4474 212.534 -77.7609C211.843 -77.7854 211.167 -77.805 210.477 -77.8148C210.347 -77.2221 210.261 -76.6294 210.067 -76.0464C210.002 -75.8799 209.671 -75.6791 209.426 -75.6301C209.261 -75.5958 208.851 -75.8113 208.786 -75.9534C208.175 -77.3544 206.65 -77.8344 204.564 -77.8002C204.255 -77.4769 203.938 -77.1486 203.629 -76.84C202.349 -77.8001 203.895 -77.6238 204.564 -77.8002C203.988 -79.3236 201.866 -79.0297 200.291 -79.3432C199.176 -79.8036 198.076 -80.2494 196.975 -80.7099C196.091 -80.6315 195.184 -80.5532 194.3 -80.465C192.775 -80.3082 191.142 -80.2053 190.142 -81.0577C189.487 -81.6308 189.415 -82.4783 189.077 -83.1935C185.992 -83.2817 183.949 -84.5944 182.014 -85.922C180.978 -86.6372 180.208 -87.5336 179.316 -88.3517C178.396 -88.239 177.41 -87.9255 176.569 -88.048C175.368 -88.2292 174.332 -88.9199 173.152 -89.0424C171.627 -89.1991 169.994 -88.4056 168.484 -88.9738C166.909 -89.5567 165.261 -88.8856 163.837 -89.1746C162.06 -89.5322 160.435 -90.2376 158.795 -90.8401C156.529 -91.668 154.177 -92.2852 151.595 -92.584C151.12 -92.6281 150.76 -93.1082 150.343 -93.4021C148.473 -93.794 146.595 -94.1859 144.74 -94.5778C144.15 -93.9752 143.164 -93.7401 142.294 -94.0193C140.863 -94.4651 139.582 -95.1068 138.288 -95.6995C136.281 -96.6303 134.166 -96.8507 131.915 -96.2237C129.282 -95.484 126.692 -94.6904 124.11 -93.9311C120.478 -95.8318 116.651 -97.3308 112.227 -98.1292C110.997 -98.3399 109.81 -98.7122 109.185 -99.5302C106.624 -99.7653 104.042 -100 101.481 -100.245C100.316 -99.7752 99.0353 -99.9564 97.7693 -99.9074C96.1941 -99.8535 94.5972 -99.638 93.1155 -99.2804C91.9646 -99.011 91.0799 -98.2076 89.929 -98.0362C88.4185 -97.8108 86.7569 -97.948 85.1457 -97.9823C82.2685 -98.0362 79.3625 -98.0508 76.4997 -98.2713C75.5934 -98.3399 74.6438 -98.7415 73.9173 -98.2615C71.5364 -96.6156 68.3931 -97.5218 65.6526 -97.1446C64.4225 -96.9781 63.171 -96.8556 61.9195 -96.7086C59.9773 -94.7835 56.1507 -94.9843 53.6835 -93.6421C53.3886 -93.0935 52.9785 -92.5889 52.0075 -92.4763C49.9502 -92.2509 47.9002 -92.1383 45.8791 -92.6086C44.0088 -92.5057 42.1315 -92.4077 40.2613 -92.3048C37.01 -93.9165 32.8668 -93.6274 29.2488 -94.5092C26.0767 -95.2832 22.9694 -94.6904 20.2288 -93.4119C19.6175 -92.9661 19.1426 -92.295 18.3874 -92.1236C16.4165 -91.6876 15.2511 -90.7912 14.1291 -89.7282C12.6042 -88.3076 11.4318 -87.8912 9.41055 -88.822C7.23819 -89.8066 5.76358 -88.7436 4.00137 -88.7681C1.33999 -88.0529 -2.06247 -89.2285 -4.29953 -87.4356C-7.15512 -87.514 -9.9531 -86.3825 -12.8087 -87.2005C-14.1035 -87.5679 -15.4055 -87.8814 -16.3261 -87.0977C-19.2177 -84.6827 -23.4544 -83.6637 -27.4177 -82.3754C-28.1729 -82.8898 -29.0434 -83.2278 -29.9641 -83.4139L-29.9641 176.544C-28.5327 175.76 -26.9934 174.932 -25.4613 174.104L-25.4973 174.104ZM1469.7 187.879L1470.26 188.139L1469.6 188.271L1469.71 187.879L1469.7 187.879ZM1431.72 -85.7749C1432.28 -85.8876 1433 -86.0884 1433.41 -85.9415C1433.81 -85.7945 1434.1 -85.2802 1434.09 -84.9324C1434.07 -84.6433 1433.45 -84.1045 1433.25 -84.129C1432.71 -84.2074 1432.2 -84.5111 1431.76 -84.7658C1431.56 -84.8882 1431.53 -85.1332 1431.42 -85.3144C1431.53 -85.4712 1431.55 -85.7406 1431.72 -85.7749ZM1419.37 176.093L1419.6 176.563L1418.94 176.495L1419.37 176.093ZM1293.41 -84.5552L1293.99 -84.2956L1293.33 -84.1633L1293.41 -84.5552ZM1276.79 -75.6691C1276.9 -75.7818 1277.2 -75.8161 1277.41 -75.8798C1277.65 -75.532 1278.03 -75.2087 1278.07 -74.8511C1278.15 -74.278 1278.15 -73.6558 1277.23 -73.308C1277.13 -73.2738 1276.75 -73.4109 1276.65 -73.5334C1275.98 -74.2584 1276.01 -74.9883 1276.78 -75.6691L1276.79 -75.6691ZM1250.54 -87.0486L1250.46 -86.6469L1249.89 -86.9163L1250.54 -87.0486ZM1220.92 -88.0479C1221.02 -88.0723 1221.22 -87.8127 1221.37 -87.6805C1221.17 -87.5923 1220.87 -87.3768 1220.79 -87.4111C1220.1 -87.6707 1220.15 -87.9254 1220.92 -88.0479ZM846.892 -60.1456C847.086 -59.9889 847.482 -59.8223 847.453 -59.6999C847.338 -59.352 847.057 -59.0386 846.827 -58.6712C846.518 -58.9161 845.971 -59.1757 846.022 -59.3863C846.072 -59.6558 846.583 -59.8909 846.892 -60.1456ZM816.264 -65.5439C816.279 -65.2401 815.754 -64.9413 815.459 -64.6278C815.264 -64.7601 814.948 -64.8727 814.898 -65.0197C814.746 -65.5928 814.703 -66.1611 814.617 -66.744C815.523 -66.553 816.243 -66.1856 816.257 -65.5488L816.264 -65.5439ZM741.615 -79.9751L741.845 -79.5489L741.22 -79.6028L741.615 -79.9702L741.615 -79.9751ZM712.433 -89.5664C712.743 -89.3068 713.289 -89.0619 713.239 -88.8513C713.189 -88.5819 712.678 -88.3467 712.368 -88.1018C712.174 -88.2488 711.779 -88.4251 711.807 -88.5378C711.923 -88.8758 712.203 -89.1991 712.433 -89.5664ZM704.859 -88.6064L704.78 -88.2047L704.204 -88.4643L704.859 -88.6113L704.859 -88.6064ZM674.26 -98.7219C674.785 -98.6435 675.281 -98.4623 675.857 -98.3055C675.461 -98.1145 675.066 -97.7569 674.756 -97.7912C674.332 -97.8255 673.987 -98.1586 673.591 -98.3594C673.821 -98.4819 674.087 -98.7415 674.267 -98.717L674.26 -98.7219ZM575.896 -79.5293L576.471 -79.2599L575.795 -79.1129L575.896 -79.5293ZM557.474 -80.3376C557.884 -80.1808 558.381 -79.642 558.244 -79.4411C557.913 -78.9464 557.244 -78.5349 556.323 -77.7609C555.877 -78.6329 555.439 -79.1276 555.439 -79.6077C555.453 -80.2592 556.604 -80.6462 557.474 -80.3376ZM473.589 173.418L474.151 173.678L473.496 173.81L473.597 173.418L473.589 173.418ZM402.278 -58.0442C401.983 -57.7552 401.703 -57.4417 401.408 -57.1477C400.228 -58.0638 401.739 -57.8531 402.278 -58.0442ZM197.752 -77.4572C197.946 -77.3103 198.342 -77.1339 198.313 -77.0213C198.198 -76.6735 197.918 -76.3501 197.687 -75.9828C197.378 -76.2424 196.831 -76.4971 196.882 -76.7126C196.932 -76.9821 197.443 -77.2172 197.752 -77.4621L197.752 -77.4572ZM133.699 -94.8815C133.799 -94.8815 133.979 -94.6464 134.123 -94.5141C133.943 -94.4259 133.648 -94.2104 133.562 -94.2447C132.871 -94.5043 132.936 -94.7492 133.691 -94.8815L133.699 -94.8815ZM406.349 -59.1855C406.349 -59.1855 406.364 -59.1953 406.364 -59.21L406.328 -59.1855L406.342 -59.1855L406.349 -59.1855ZM410.478 -61.6006L410.478 -61.6446L410.399 -61.6006L410.478 -61.6006Z" fill="#F0F0F0"/>
</g>
<defs>
<clipPath id="clip0_134_30">
<rect width="1503" height="333" fill="white" transform="translate(1473 333) rotate(-180)"/>
</clipPath>
</defs>
</svg>
