<svg width="1440" height="242" viewBox="0 0 1440 242" fill="none" xmlns="http://www.w3.org/2000/svg">
<g clip-path="url(#clip0_126_302)">
<path d="M-58.4973 191.103C-58.1161 190.814 -57.8068 190.309 -57.3607 190.265C-54.5051 189.962 -51.6281 189.761 -47.3698 189.413C-46.9885 189.423 -46.1182 190.432 -44.8522 191C-43.5862 191.549 -41.6008 191.48 -41.1909 192.778C-37.0477 193.082 -32.7318 192.577 -28.8189 194.042C-28.1283 194.311 -26.8767 194.076 -25.9417 193.929C-24.3449 193.67 -23.5104 194.243 -22.7695 194.968C-22.23 195.482 -21.7841 196.031 -21.1727 196.702C-20.2664 196.379 -19.4967 196.109 -18.7271 195.83C-15.9002 194.821 -13.2028 194.62 -10.7931 196.388C-9.51282 197.329 -8.03113 197.226 -6.45581 196.633C-4.7439 195.997 -3.00318 196.408 -2.21912 197.358C-0.694218 199.161 1.52844 199.563 4.35522 199.44C5.65002 199.372 6.9663 199.465 7.85827 200.244C8.41931 200.4 8.97326 200.567 9.5343 200.738C10.4838 200.773 11.4763 200.694 12.3755 200.851C17.9861 201.844 22.8821 202.288 27.0636 202.183C27.4233 201.625 27.639 200.998 28.1497 200.503C28.6748 199.979 30.286 200.057 30.6169 200.606C30.9479 201.165 31.0126 201.792 31.1924 202.394C31.8326 202.507 32.4728 202.629 33.1129 202.742C34.048 202.654 35.0334 202.639 35.9254 202.453C36.436 202.34 36.7958 201.939 37.2202 201.679C38.0113 200.693 39.4476 200.33 41.5288 200.591L41.1331 200.391L41.5791 200.547C41.3345 199.744 41.054 198.945 41.8452 198.196C42.6652 197.402 43.442 196.594 44.2621 195.757C45.5784 196.428 45.6431 197.716 47.3982 197.995C47.988 198.186 48.5635 198.162 49.1245 197.917C49.2396 197.079 49.3187 196.227 49.5057 195.389C49.5417 195.223 49.9014 195.076 50.1172 194.919C50.4768 195.144 51.1027 195.355 51.1171 195.59C51.1818 196.428 51.0522 197.28 51.0019 198.132C51.7068 198.421 52.3686 198.779 53.1383 198.96C54.1238 199.186 54.7495 198.769 55.0587 198.201C55.2529 197.853 55.2889 197.476 55.404 197.113C55.3896 196.261 55.1739 195.399 55.3896 194.596C56.0299 192.323 58.4611 191.686 61.7986 192.827C62.3884 193.028 62.9639 193.229 63.5393 193.42C67.0424 192.568 70.5237 191.72 74.0051 190.868C75.8105 191.206 76.7025 190.094 78.0117 189.829C79.8171 189.447 81.5937 189.168 83.0898 188.365C83.5143 188.085 83.9099 187.64 84.4062 187.571C85.3413 187.449 86.3771 187.674 87.3121 187.561C88.5637 187.404 89.7434 187.081 90.9591 186.822C92.4049 184.72 95.0519 185.156 97.663 185.514C101.18 185.592 103.856 183.275 107.69 184.049C108.1 184.127 109.1 183.353 109.546 182.873C110.236 182.114 111.092 181.409 112.437 181.507C114.674 181.698 116.76 181.551 118.911 181.159C119.551 181.046 120.486 181.639 121.292 181.908C122.177 181.996 123.349 181.884 123.903 182.212C125.565 183.187 127.651 183.476 129.557 184.049C130.031 184.196 130.312 184.617 130.672 184.921C135.433 186.714 140.648 186.924 145.842 186.366C147.482 186.185 148.697 185.964 150.359 186.435C153.02 187.209 156.041 187.473 158.674 188.291C162.335 189.442 166.198 189.623 170.097 189.79C171.787 189.859 173.319 189.589 174.614 188.83C175.815 188.115 177.131 187.576 178.757 187.218C180.857 186.773 182.785 185.954 184.857 185.381C186.957 184.808 189.165 184.397 191.28 183.824C192.46 183.51 193.761 182.761 194.898 183.309C196.79 184.225 199.48 183.197 201.077 184.676C202.163 185.695 203.868 185.808 205.349 185.034C209.277 182.961 214.06 182.227 218.743 181.35C219.692 181.169 220.599 181.404 221.375 181.889C222.102 182.334 223.102 182.682 223.986 182.256C226.799 180.88 230 180.904 233.287 180.933C236.258 180.968 238.969 180.532 241.091 178.954C242.206 178.102 243.868 177.882 245.494 178.572C246.594 179.033 247.68 179.503 248.766 179.993C250.507 180.786 252.183 181.08 254.06 180.061C254.801 179.66 255.851 179.704 256.801 180.037C258.952 180.821 261.088 181.056 263.246 180.027C264.426 179.469 265.778 180.218 267.022 179.939C267.152 179.155 266.828 178.259 268.432 177.813C269.137 178.205 269.842 178.641 270.604 179.033C271.374 179.449 272.101 179.679 273.215 179.346C276.337 178.416 279.624 178.842 282.861 179.101C287.479 177.681 291.896 175.442 297.434 177.612C297.744 177.735 298.52 177.343 299.096 177.211C301.527 176.628 304.275 177.725 306.656 176.593C306.987 176.437 308.066 176.569 308.382 176.804C311.043 178.783 315.971 178.249 318.258 180.674C318.654 181.1 319.934 181.32 320.84 181.355C323.401 181.477 325.998 181.536 328.515 181.771C331.342 182.04 333.594 181.727 335.845 180.718C336.24 180.551 337.046 180.708 337.636 180.786C337.916 180.821 338.262 180.978 338.377 181.144C339.722 182.981 342.139 183.26 344.93 183.216C346.411 183.192 347.195 183.897 347.447 184.828C350.404 186.65 353.381 188.453 356.287 190.309C356.698 190.554 356.784 190.99 357.014 191.362C358.244 191.152 359.445 190.838 360.711 190.76C362.258 190.672 363.948 190.559 365.113 191.534C366.408 191.603 367.775 191.882 369.005 191.715C371.501 191.367 374.112 192.788 376.564 191.47C376.874 191.304 377.766 191.47 378.341 191.593C379.888 191.916 381.657 192.087 382.873 192.7C385.894 194.243 388.987 195.017 392.849 194.365C393.411 194.262 394.346 194.968 395.051 195.34C395.547 195.61 395.971 195.933 396.496 196.271C398.352 196.481 400.309 196.628 402.2 196.942C406.279 197.613 409.875 197.309 412.983 195.296C414.119 194.556 415.63 194.076 417.025 193.459C417.716 193.826 418.55 194.164 419.197 194.625C421.233 196.124 423.801 196.08 426.412 195.688C428.318 195.409 430.145 194.929 432.015 194.547C433.562 194.243 435.188 193.616 436.684 193.719C440.251 193.964 442.992 192.945 445.819 191.862C447.761 191.113 449.782 190.417 451.818 189.78C454.609 188.918 457.961 189.79 459.083 191.637C459.557 192.421 459.852 193.239 460.198 193.973C462.269 194.209 463.255 193.234 464.571 192.665C467.463 191.411 470.584 191.201 473.857 192.029C474.469 192.185 475.058 192.386 475.569 192.646C477.209 193.449 478.791 193.082 479.971 192.332C482.172 190.946 484.345 190.677 486.869 191.896C487.625 192.254 488.329 192.67 489.502 192.533C492.609 192.176 495.285 192.509 496.961 194.571C497.342 195.041 498.443 195.423 499.292 195.546C501.003 195.781 502.082 196.408 503.255 197.211C505.521 198.813 506.686 198.701 508.017 196.55C509.297 194.478 511.843 193.18 513.965 191.617C514.159 191.47 514.555 191.304 514.821 191.338C518.073 191.686 519.698 189.315 522.841 189.369C524.518 189.403 525.898 188.752 527.129 188.002C528.064 187.419 529.049 186.861 530.15 186.425C530.596 186.243 531.581 186.278 531.991 186.493C534.278 187.669 536.494 188.908 538.68 190.177C540.191 191.049 541.838 191.72 543.888 191.72C545.025 191.73 545.6 192.225 546.406 192.538C549.146 193.577 549.297 193.557 552.225 191.955C551.916 190.711 551.664 189.472 553.592 188.585C555.728 188.933 557.915 189.202 560.001 189.658C560.806 189.839 561.367 190.442 562.036 190.843C566.294 190.887 569.992 192.421 574.228 192.69C577.659 192.901 579.587 195.722 583.565 195.6C584.061 195.59 584.78 196.001 585.047 196.339C585.982 197.569 587.514 198.176 589.499 198.519C591.01 198.779 592.455 199.234 594.347 199.715C597.519 202.536 600.922 205.568 604.324 208.591C606.28 208.723 608.266 209.085 610.157 208.929C612.574 208.728 614.811 208.983 616.797 209.654C618.868 210.349 620.594 209.644 622.436 209.566C624.493 210.682 626.464 211.78 628.449 212.877C628.665 214.219 631.557 214.41 631.506 215.875C632.707 215.943 633.247 216.433 633.398 217.149C635.318 217.261 637.261 217.516 639.167 217.428C641.353 217.325 642.914 217.898 644.209 218.883C645.461 219.823 646.54 220.862 647.777 221.827C648.172 222.13 648.813 222.498 649.338 222.488C651.524 222.463 653.776 222.042 655.891 222.263C659.293 222.62 662.839 222.297 666.162 223.223C667.277 223.536 668.593 223.58 669.845 223.718C671.945 223.943 671.931 223.953 674.412 226.304C675.218 227.063 676.448 227.264 677.764 227.367C678.11 227.053 678.354 226.583 678.829 226.451C680.8 225.858 682.792 225.3 684.842 224.864C685.677 224.697 686.698 224.898 687.245 225.481C688 226.309 687.899 227.485 689.611 227.921C690.697 227.494 691.978 227.196 692.848 226.613C695.459 224.854 698.437 224.923 701.638 225.682C704.364 225.638 705.026 226.858 705.4 228.254C706.68 228.376 708.047 228.322 709.032 229.028C710.428 230.037 712.384 230.683 714.211 230.482C716.038 230.291 717.254 231.1 718.743 231.065C720.57 231.011 721.699 231.805 723.167 232.172C724.353 232.476 725.893 232.799 726.965 232.555C730.611 231.702 734.719 231.996 738.157 230.551C739.732 229.904 741.214 230.34 742.559 231.178C744.4 232.319 745.22 234.112 747.882 234.725C749.788 234.377 751.658 234.009 753.55 233.706C755.737 233.348 757.003 234.793 758.959 234.925C759.268 234.935 759.599 235.014 759.909 235.038C762.966 235.298 765.742 235.205 767.598 233.201C767.929 232.834 769.288 232.863 770.18 232.721C773.611 232.697 777.064 232.888 780.387 231.981C781.473 231.678 782.833 231.79 784.07 231.771C785.962 231.727 787.868 231.736 789.752 231.727C790.953 230.654 792.478 229.924 794.564 229.87C797.175 229.792 799.643 229.645 801.614 228.268C802.11 227.92 803.441 227.852 804.275 227.979C806.692 228.347 808.742 228.161 810.483 226.926C812.094 225.785 813.964 225.226 816.51 225.437C817.611 225.54 819.006 225.021 819.977 224.54C825.221 221.91 825.89 221.361 829.443 217.589C830.098 216.884 830.623 216.1 831.414 215.454C831.723 215.209 832.709 215.072 833.169 215.209C834.335 215.547 835.37 216.061 836.471 216.507C837.722 216.673 838.988 216.845 840.247 217.021C841.218 216.933 842.168 216.776 843.139 216.762C846.685 216.727 847.167 217.129 846.131 219.226C845.851 219.784 845.75 220.421 845.836 221.004C845.915 221.508 846.606 221.729 847.246 221.543C847.807 221.376 848.346 221.126 848.757 220.837C851.842 218.623 851.828 218.608 855.014 219.73C855.295 219.833 855.575 219.965 855.82 220.088C857.28 220.837 858.712 220.891 860.258 220.176C861.028 219.818 861.948 219.583 862.74 219.314C864.365 219.681 865.897 220.019 867.422 220.367C869.458 220.053 871.479 220.142 873.486 220.548C873.795 220.504 874.177 220.347 874.421 220.416C877.083 221.111 879.694 221.768 881.816 223.213C884.873 225.295 888.67 226.167 893.137 225.114C894.008 224.903 895.159 225.192 896.029 224.981C902.467 223.414 909.271 223.316 916.011 222.846C918.687 222.655 921.104 222.948 923.535 223.463C925.657 223.909 927.822 224.394 929.75 225.118C931.095 225.633 932.08 225.363 933.296 225.128C935.742 224.668 937.763 225.084 939.093 226.583C939.259 226.764 939.453 226.951 939.539 227.151C940.18 228.616 941.712 229.077 943.942 228.93C948.214 228.65 952.321 228.861 956.119 230.438C957.105 230.84 958.666 230.571 959.881 230.796C961.097 231.021 962.212 231.477 963.384 231.834C964.715 231.732 965.369 232.094 965.211 232.986C966.952 233.823 968.908 234.465 970.584 235.312C972.62 236.341 974.282 237.683 976.123 238.883C976.583 239.187 977.108 239.432 977.605 239.711C978.511 240.216 980.022 240.138 981.108 239.466C981.798 239.03 982.453 238.56 983.028 238.046C984.064 237.115 985.344 237.654 986.56 237.732C987.15 237.654 987.776 237.62 988.351 237.497C991.013 236.914 993.645 237.061 996.256 237.678C998.313 236.939 1000.51 236.625 1002.86 236.826C1005.11 237.017 1007.49 237.037 1009.58 237.541C1011.87 238.1 1014.08 236.87 1016.25 237.742C1017.97 238.448 1019.33 237.943 1020.42 237.002C1020.91 236.576 1021.4 236.478 1022.08 236.733C1024.34 237.595 1026.48 236.699 1028.96 236.508C1029.82 236.944 1030.82 237.468 1031.87 237.963C1034.98 239.408 1038.95 239.52 1041.63 237.727C1043.85 236.238 1046.59 235.861 1049.27 235.185C1052.16 234.47 1055.2 234.436 1057.66 235.543C1061.3 237.164 1065.37 237.713 1069.45 238.374C1071.02 238.634 1072.96 238.776 1073.98 239.447C1075.53 240.466 1077 241.005 1079.06 240.598C1081.38 240.152 1083.44 240.196 1085.42 241.269C1086.01 241.592 1087.44 241.715 1088.1 241.48C1090.22 240.72 1092.43 240.485 1094.72 240.696C1098.53 241.063 1102.35 239.814 1106.14 240.75C1108.51 239.584 1111.12 239.991 1113.62 240.402C1115.28 240.671 1116.75 240.769 1118.34 240.28C1120.47 239.618 1122.8 239.991 1125.03 239.834C1127.52 239.653 1129.41 238.075 1132.23 238.09C1133.84 238.1 1135.56 237.585 1137.02 237.845C1139.98 238.359 1142.78 237.82 1145.62 237.732C1145.83 237.732 1146.06 238.021 1146.3 238.178C1148.07 238.134 1149.73 238.203 1150.39 239.555C1151.9 239.902 1153.41 240.25 1154.92 240.608C1156.76 239.883 1158.54 241.279 1160.44 240.711C1160.84 240.588 1161.66 240.867 1162.13 241.093C1164.16 242.033 1165.98 242.572 1168 240.98C1168.99 240.196 1170.61 239.751 1171.95 239.158C1172.02 238.947 1172.01 238.619 1172.21 238.555C1173.3 238.217 1174.56 238.051 1175.51 237.605C1176.53 237.11 1177.2 236.317 1178.17 235.758C1178.56 235.548 1179.33 235.611 1179.92 235.557C1181.36 235.097 1183.02 234.798 1184.22 234.147C1186.67 232.814 1188.86 231.291 1191.04 229.929C1192.64 229.816 1193.95 229.772 1195.21 229.625C1198.06 229.277 1201.18 229.356 1203.13 227.553C1205.83 226.872 1208.54 226.201 1211.23 225.515C1213.41 226.039 1215.01 225.383 1216.49 224.487C1218.61 223.198 1220.73 221.9 1222.89 220.582C1223.45 220.636 1224.07 220.773 1224.69 220.749C1227.45 220.68 1229.24 219.877 1229.85 218.466C1230.01 218.05 1230.12 217.629 1230.14 217.212C1230.24 215.733 1231.51 214.704 1233.61 214.562C1237.13 214.302 1239.61 213.063 1241.88 211.505C1242.53 211.045 1243.11 210.521 1243.83 210.104C1245.11 209.355 1246.64 209.051 1248.35 209.301C1249.28 209.433 1250.21 209.649 1251.06 209.815C1251.97 209.232 1252.87 208.664 1253.89 208.013C1255.15 208.507 1256.24 208.943 1257.59 209.492C1259.13 208.698 1260.84 207.758 1262.65 206.94C1263.38 206.602 1264.34 206.445 1265.25 206.347C1267.45 206.088 1269.68 205.901 1271.64 205.72C1272.37 204.971 1272.97 204.466 1273.38 203.908C1274.79 201.914 1277.34 201.101 1280.5 201.209C1283.19 201.311 1285.56 200.817 1288.02 200.268C1290.46 199.71 1293.24 199.553 1295.12 198.333C1296.43 197.495 1297.19 196.276 1298.19 195.232C1298.6 193.831 1298.84 192.411 1299.51 191.068C1300.07 189.903 1301.03 188.942 1303.38 188.796C1305.83 188.639 1308.22 188.124 1310.61 187.767C1311.47 186.547 1312.86 186.39 1314.54 186.983C1316.38 187.635 1318.07 188.1 1319.35 186.479C1319.6 186.165 1320.34 185.984 1320.9 185.817C1321.16 185.739 1321.55 185.773 1321.87 185.827C1324.34 186.243 1326.31 185.783 1327.95 184.539C1329.9 183.059 1332 181.761 1335.46 182.256C1336 182.334 1336.67 181.996 1337.28 181.854C1341.89 180.781 1345.63 181.864 1348.49 184.113C1349.99 185.278 1351.76 185.465 1353.62 185.499C1355.18 185.523 1356.76 184.975 1358.29 185.665C1360.75 185.832 1363.21 186.003 1365.7 186.17C1367.42 187.493 1369.89 186.64 1371.91 187.101C1372.49 187.179 1373.24 187.145 1373.6 187.37C1377.71 189.898 1379.14 193.836 1384.2 195.884C1384.53 196.868 1384.87 197.863 1385.2 198.862C1386.77 198.749 1388.35 198.651 1390.03 198.539C1390.36 199.244 1390.61 199.812 1390.89 200.376C1391.54 201.708 1393.12 202.433 1395.06 202.276C1395.99 202.198 1396.93 202.066 1397.87 201.938C1399.38 201.738 1400.73 201.057 1402.44 201.346C1403.59 201.547 1404.79 201.635 1406.15 201.806C1406.21 203.217 1406.3 204.647 1406.38 206.083C1407.65 206.127 1408.91 206.171 1410.18 206.23C1411.23 205.637 1412.53 205.436 1413.81 205.627C1415.72 205.906 1417.28 206.479 1418.49 207.65C1419.95 209.071 1420.28 208.983 1422.38 208.174C1423.48 207.748 1424.53 207.258 1425.72 206.945C1426.2 206.822 1427.1 206.955 1427.5 207.204C1428.35 207.753 1428.84 208.635 1429.81 209.041C1431.15 209.6 1432.76 209.894 1434.3 210.192C1434.84 210.295 1435.71 210.192 1436.11 209.957C1437.44 209.183 1438.78 208.424 1440.05 207.606L1440.05 -77.1333C1438.65 -76.9325 1437.21 -76.8297 1435.68 -76.908C1434.5 -76.9619 1433.27 -76.7513 1432.13 -76.6729C1431.49 -77.2558 1430.93 -77.7604 1430.38 -78.26C1429.81 -77.8241 1429.28 -77.0305 1428.69 -77.0158C1426.74 -76.9717 1425.07 -76.8051 1423.71 -75.8058C1422.03 -74.5861 1419.9 -74.6645 1417.71 -75.1249C1417.67 -74.4783 1417.31 -73.959 1416.18 -74.1942C1415.34 -74.3754 1414.61 -74.7771 1413.83 -75.076C1413.27 -74.929 1412.6 -74.5861 1412.16 -74.6743C1410.29 -75.1004 1408.62 -75.4923 1406.75 -74.4832C1405.22 -73.6652 1403.18 -73.5672 1401.18 -73.768C1399.9 -73.9003 1398.62 -74.0129 1397.52 -73.3517C1396.32 -72.612 1394.68 -72.3915 1393.3 -71.9066C1391.11 -71.1473 1389.75 -71.7841 1388.22 -72.5532C1388 -72.6658 1387.51 -72.7344 1387.3 -72.6561C1384.24 -71.5049 1380.4 -71.6028 1377.6 -70.05C1376.37 -69.3691 1375.13 -68.6196 1373.69 -68.1836C1372 -67.6791 1369.86 -67.7036 1368.33 -67.0766C1366.8 -66.4398 1365.37 -66.3712 1363.78 -66.4936C1362.51 -66.5965 1361.11 -67.1206 1360.04 -66.91C1355.19 -65.8911 1350.36 -67.0766 1345.55 -66.8316C1343.38 -66.719 1341.98 -67.728 1340.67 -68.6539C1340.06 -69.0703 1339.79 -69.6728 1339.26 -70.2998C1337.05 -69.761 1334.94 -69.2368 1332.84 -68.7225C1331.56 -68.409 1330.95 -68.7666 1330.54 -70.1529C1330.47 -70.3537 1330.52 -70.5692 1330.52 -70.7799C1328.67 -70.535 1326.83 -70.241 1324.95 -70.0304C1322.92 -69.7952 1322.01 -70.2313 1320.91 -71.8772C1320.8 -72.0437 1320.62 -72.2005 1320.4 -72.4356C1319.3 -72.1221 1318.16 -71.8086 1317.05 -71.495C1317.05 -71.1277 1316.95 -70.7701 1316.77 -70.4223C1316.54 -69.5259 1315.8 -68.9429 1314.32 -68.9919C1312.47 -69.0703 1310.61 -69.2368 1308.73 -69.3593L1308.7 -69.3495C1308.75 -68.8548 1308.81 -68.3649 1308.88 -67.8701C1311.4 -66.7287 1311.37 -66.3712 1308.73 -65.3278C1308.33 -65.0926 1307.96 -64.8477 1307.55 -64.6322C1307.5 -64.6322 1307.07 -64.8232 1307.04 -64.9457C1306.92 -65.5139 1306.89 -66.0871 1306.84 -66.67C1304.46 -66.7826 1302.62 -66.2095 1301.93 -64.4216C1300.53 -65.5874 1300.33 -66.8708 1298.23 -66.8169C1295.52 -66.7385 1293.28 -67.5468 1291.08 -68.4383C1290.16 -68.4041 1289.19 -68.2473 1288.31 -68.36C1286.24 -68.6294 1284.65 -68.1591 1283.23 -67.2627C1282.92 -66.4006 1282.01 -65.8078 1280.9 -65.4404C1280.14 -65.1808 1278.86 -64.9261 1278.32 -65.1612C1276.18 -66.1017 1274.85 -65.5776 1273.63 -64.4362C1273.12 -63.966 1272.66 -63.4859 1272.12 -62.9471C1271.01 -64.0786 1270.17 -65.1612 1268.27 -65.6756C1267.89 -65.7785 1267.81 -66.3712 1267.6 -66.7385C1266.58 -67.5223 1265.17 -68.2473 1266.61 -69.4132C1267.11 -69.8148 1266.74 -70.0843 1266.35 -70.5202C1265.49 -71.4363 1264.43 -72.1759 1263.21 -72.9058C1261.6 -73.8807 1259.87 -74.3852 1257.92 -73.8023C1255.09 -72.9646 1252.43 -72.6952 1249.42 -73.4349C1248.34 -73.6945 1246.79 -73.4349 1245.61 -73.1459C1243.37 -72.5874 1241.06 -72.9891 1238.83 -72.7442C1236.97 -72.5434 1235.86 -73.4496 1234.45 -73.9395C1232.51 -73.5819 1231.17 -73.9639 1230.53 -75.2474C1228.6 -75.1592 1226.63 -75.1935 1224.76 -74.9338C1222.22 -74.5763 1219.74 -74.0374 1217.3 -73.4888C1215.95 -73.1851 1214.8 -73.3075 1213.55 -73.67C1212.68 -73.9296 1211.69 -74.1501 1210.74 -74.1648C1207.45 -74.1991 1204.28 -74.3656 1201.26 -75.409C1200.22 -75.7666 1198.67 -75.4531 1197.46 -75.6784C1195.14 -76.1144 1193.32 -74.5469 1190.91 -75.218C1189.59 -75.5854 1188.6 -74.6595 1187.52 -74.2579C1185.15 -73.3957 1182.73 -73.0038 1180.02 -73.6553C1178.84 -73.9443 1177.31 -74.2824 1176.26 -74.0227C1174.02 -73.4741 1172.74 -73.7435 1171.45 -75.0514C1170.59 -75.9136 1169.08 -76.4818 1167.87 -77.1872C1165.77 -77.0403 1164.3 -77.4566 1163.31 -78.8086C1162.77 -79.5581 1161.51 -79.6365 1160.08 -79.2789C1156.67 -78.4412 1155.73 -78.8772 1154.37 -81.5714C1153.78 -82.0515 1153.27 -82.8793 1152.58 -82.9479C1149.51 -83.2859 1146.57 -83.8639 1143.22 -83.0704C1138.7 -82.0074 1133.8 -81.591 1129.08 -80.8758C1126.55 -80.4937 1124.76 -81.3804 1122.97 -82.3209C1122.1 -82.5805 1121.05 -82.7128 1120.41 -83.1243C1118.7 -84.1971 1116.93 -85.0592 1114.41 -84.9465C1111.62 -84.8143 1109.27 -85.3286 1107.46 -86.8031C1105.85 -88.111 1103.98 -87.4546 1102.38 -87.048C1100.17 -87.6505 1098.09 -88.2335 1096.04 -88.8066C1093.64 -88.111 1091.87 -89.7569 1089.58 -89.5316C1087.25 -88.9144 1085.11 -88.1453 1082.36 -89.2622C1080.26 -90.1145 1077.62 -90.4133 1075.19 -90.9081C1074.61 -91.0305 1073.87 -91.0305 1073.33 -90.9081C1070.31 -90.1929 1067.2 -89.5561 1064.36 -88.6009C1062.39 -87.9543 1060.76 -86.8423 1058.91 -85.9018C1056.27 -86.181 1053.29 -85.5637 1050.9 -86.5973C1048.93 -85.4462 1047.28 -83.9472 1045.05 -83.3055C1041.59 -82.3111 1038.41 -80.5084 1034.21 -80.8318C1033.04 -80.9199 1032.34 -80.528 1031.78 -80.0479C1030.69 -79.1074 1029.28 -78.8037 1027.57 -78.7743C1025.96 -78.7302 1023.97 -78.9556 1022.83 -78.4265C1020.68 -77.4321 1018.41 -78.3138 1016.26 -77.8093C1014.2 -77.339 1011.86 -77.3292 1009.57 -77.7407C1007.93 -78.0444 1006.48 -77.5742 1005.07 -76.9668C1004.31 -76.6435 1003.2 -76.6777 1002.24 -76.5503C1001.91 -75.8254 1001.21 -75.4629 1000.03 -75.5315L999.846 -75.4531C999.73 -74.7134 999.105 -74.3215 997.99 -74.2578C997.565 -73.9884 997.083 -73.4545 996.738 -73.4986C995.278 -73.6553 994.127 -74.4734 992.286 -74.0031C990.66 -73.5672 990.531 -73.7582 990.113 -75.0563C990.049 -75.2571 990.049 -75.4727 990.034 -75.6735C988.919 -75.6294 988.322 -75.2033 988.128 -74.5224C987.797 -74.1991 987.452 -73.861 987.128 -73.5377C986.819 -73.8758 986.488 -74.2186 986.179 -74.5566C985.424 -74.6252 984.668 -74.6791 983.913 -74.7379C981.856 -73.7974 979.871 -72.7785 977.72 -71.9408C976.684 -71.5244 975.253 -71.1227 974.138 -71.2599C970.491 -71.6861 967.24 -71.3824 964.082 -70.0304C961.55 -68.9429 958.579 -68.8547 955.652 -69.3348C952.724 -69.805 950.689 -68.9086 948.782 -67.679C948.358 -67.4194 947.926 -66.9296 947.488 -66.9296C944.711 -66.9051 941.92 -67.0325 939.137 -67.0177C938.266 -67.008 937.346 -66.7826 936.526 -66.5573C934.634 -66.0527 934.734 -67.1843 934.058 -67.7231C933.699 -68.0122 933.109 -68.1836 932.613 -68.4187C932.332 -67.8162 931.872 -67.2431 930.821 -67.2235C929.045 -67.199 927.225 -67.7819 925.642 -66.6308C925.168 -66.2731 923.887 -66.185 923.031 -66.2487C921.061 -66.4152 919.385 -66.1605 917.673 -65.4649C916.097 -64.828 914.285 -64.4117 912.594 -63.8876C912.019 -62.8246 910.753 -62.4425 909.142 -62.5012C908.271 -62.5257 907.401 -62.7266 906.531 -62.849L906.495 -62.8392C904.689 -61.3844 904.394 -61.3844 902.718 -62.8931L902.682 -62.9029C902.107 -62.6776 901.517 -62.6335 900.877 -62.7707C899.776 -62.0114 898.82 -61.1052 897.525 -60.532C895.95 -59.8364 894.072 -59.4151 892.893 -59.0429C891.382 -57.1275 890.181 -55.6188 888.98 -54.11C887.8 -52.611 886.923 -50.9406 885.333 -49.6425C883.966 -48.5354 881.787 -47.8545 879.96 -46.9924C879.65 -46.6446 879.449 -46.1645 878.989 -45.9735C877.068 -45.2142 875.076 -44.5284 873.234 -43.872C871.314 -44.2198 869.487 -44.5529 867.645 -44.8909C866.645 -44.3667 865.588 -43.8818 864.653 -43.3233C862.747 -42.182 860.726 -41.1876 858.129 -40.7712C857.669 -40.5899 857.043 -40.1687 856.733 -40.247C853.856 -40.9965 851.029 -41.8244 848.188 -42.6326C845.081 -42.9118 842.009 -43.147 838.967 -42.3975C838.866 -42.373 838.557 -42.6865 838.355 -42.8433C837.881 -42.6767 837.406 -42.662 836.924 -42.809C836.133 -42.5053 835.377 -41.9566 834.572 -41.9371C830.99 -41.7901 827.854 -42.662 825.041 -44.0875C824.825 -44.2002 824.811 -44.4696 824.696 -44.6607C821.15 -44.5725 817.532 -44.303 815.036 -46.5613C814.69 -46.865 814 -47.1197 813.41 -47.1883C809.598 -47.59 805.836 -48.0847 802.218 -49.0008C800.017 -48.7216 797.83 -48.4179 795.615 -48.1729C795.003 -48.1043 794.334 -48.1827 793.694 -48.1974C792.442 -48.0504 791.176 -47.9721 789.982 -47.7369C788.832 -47.5116 787.695 -46.6985 786.566 -47.4479C786.185 -47.7076 786.911 -48.555 786.76 -49.0938C786.494 -50.0883 785.969 -51.0631 785.559 -52.0575C783.667 -51.6999 782.401 -50.9161 781.646 -49.765L781.631 -49.7552C780.365 -49.3388 779.135 -48.9028 777.884 -48.4815C775.827 -48.5697 773.791 -48.6481 771.755 -48.7412C771.676 -48.2366 771.216 -47.8888 770.604 -48.0455C770.245 -48.1239 769.993 -48.604 769.928 -48.9273C769.864 -49.3094 770.058 -49.7111 770.123 -50.1128L769.928 -50.6957L770.007 -51.2884C769.497 -52.0918 768.598 -52.5327 767.267 -52.6551C766.037 -52.7678 764.836 -52.9343 763.62 -53.0715C762.023 -53.2821 760.448 -53.5515 758.837 -53.6887C757.902 -53.7671 756.895 -53.5662 756.096 -54.0806C753.269 -55.9371 749.047 -56.1821 745.99 -57.6712C743.329 -58.9694 740.567 -58.9253 737.66 -58.8028C736.049 -58.7342 734.424 -58.5432 732.877 -58.2542C730.381 -57.7741 728.36 -58.3228 726.583 -59.3416C725.382 -60.0372 724.397 -60.8847 723.332 -61.6685C721.987 -61.7371 720.98 -62.2073 720.34 -62.9127C719.318 -64.0198 718.052 -64.7497 715.988 -64.8722C713.981 -64.9848 713.621 -65.9449 713.801 -67.052C712.765 -67.3655 711.974 -66.7385 711.14 -66.7385C709.924 -66.7483 708.723 -67.2186 707.493 -67.2627C703.371 -67.3949 700.293 -69.1633 696.761 -70.1822C695.546 -70.5496 694.56 -70.4516 693.424 -70.5398C688.87 -70.8974 684.432 -71.5244 682.447 -74.8603C681.641 -76.2124 681.001 -76.3691 678.699 -75.9576C676.743 -75.6 674.837 -75.6784 672.902 -75.7568C672.391 -75.791 671.787 -76.1045 671.442 -76.3936C669.701 -77.9366 667.169 -78.0591 664.522 -78.2648C659.113 -78.6812 654.416 -79.9304 652.38 -83.7023C651.445 -83.5896 650.488 -83.4916 649.539 -83.3642C646.597 -82.9969 644.547 -83.6876 643.145 -85.4364C642.605 -86.1172 642.173 -87.0039 640.663 -87.1802C638.426 -87.0774 636.7 -85.6029 634.204 -86.1173C634.038 -85.5343 633.923 -84.9514 633.693 -84.3832C633.628 -84.2264 633.233 -84.0942 632.952 -84.0452C632.822 -84.0354 632.456 -84.2803 632.456 -84.4028C632.405 -85.3972 632.42 -86.3818 632.405 -87.3811C632.046 -87.8073 631.434 -88.0179 630.844 -87.7632C629.859 -87.3272 628.938 -86.8129 628.118 -86.2397C627.277 -85.6715 626.788 -84.7946 625.802 -84.4174C624.932 -84.0941 623.601 -84.2852 622.501 -84.1823C622.27 -84.1725 622.091 -83.9031 621.889 -83.7463C620.839 -82.5952 620.314 -82.36 619.458 -82.7176C618.667 -83.0409 618.293 -83.521 618.422 -84.148C618.501 -84.5301 618.573 -84.922 618.638 -85.2992C618.113 -85.4903 617.372 -85.9262 617.113 -85.838C615.437 -85.2208 613.991 -84.2362 612.215 -83.859C609.244 -83.2075 607.122 -82.0367 605.266 -80.5035C604.46 -79.8422 603.475 -79.2739 602.504 -78.7008C600.497 -77.5251 596.786 -77.1676 594.405 -78.3628C592.319 -79.416 590.938 -78.9898 589.183 -78.2844C588.118 -77.8485 587.686 -76.8834 586.126 -76.8393C583.68 -76.7708 581.817 -75.9086 580.328 -74.7232C578.652 -73.4006 577.127 -72.073 573.955 -72.3082C573.214 -72.362 572.279 -71.7497 571.574 -71.348C570.344 -70.6427 569.157 -69.9176 568.107 -69.1094C567.251 -68.4726 566.812 -67.586 565.87 -67.0373C564.69 -66.3319 563.259 -65.749 561.813 -65.3032C560.713 -64.9554 559.216 -65.0779 558.231 -64.6664C556.426 -63.9169 554.649 -63.7063 552.664 -64.1618C551.743 -64.3725 550.873 -64.6762 549.937 -64.8672C545.931 -65.6951 541.558 -65.4355 537.63 -66.6013C536.925 -66.812 535.71 -66.4887 534.854 -66.2193C533.689 -65.8616 532.653 -65.3228 531.631 -64.8966C528.675 -65.2542 525.978 -66.1703 523.007 -65.7343C520.59 -64.2892 519.475 -62.1093 516.468 -61.0561C516.123 -60.1842 515.332 -59.8707 514.001 -60.2038C513.577 -60.1597 513.145 -60.1499 512.721 -60.194C509.204 -59.7678 505.751 -60.1842 502.284 -60.4732C501.723 -60.3948 501.219 -60.2479 500.759 -60.0128C500.45 -59.2192 499.673 -58.9743 498.493 -59.1947L498.543 -59.0477C496.882 -57.245 494.911 -55.6481 491.394 -55.4913C488.797 -55.3787 488.452 -54.2471 488.171 -52.9833C488.121 -52.802 487.79 -52.66 487.596 -52.5032C487.215 -52.7041 486.79 -52.8706 486.495 -53.1205C486.33 -53.2674 486.395 -53.5221 486.395 -53.723C486.359 -55.4375 484.424 -55.604 482.481 -55.7804C481.086 -55.2562 479.655 -54.786 478.31 -54.203C476.914 -53.6005 475.353 -53.0617 473.771 -53.2527C470.268 -53.6691 468.412 -52.1211 466.211 -50.9357C465.981 -49.9266 464.88 -49.6816 463.564 -49.7845C462.679 -49.8629 461.809 -50.1323 460.931 -50.3087C459.104 -50.2303 457.845 -50.97 456.479 -51.5725C453.062 -52.3759 449.48 -51.3031 445.963 -52.0526C442.265 -52.8363 438.338 -51.886 434.936 -52.3661C433.31 -51.6852 432.08 -51.0141 430.663 -50.6075C429.217 -50.2058 427.21 -50.3626 426.096 -49.7551C423.614 -48.4227 421.247 -49.1085 418.485 -49.4955C417.486 -48.8783 416.45 -48.1092 415.212 -47.5165C413.918 -46.914 412.422 -46.4976 411.019 -45.993C408.868 -44.6508 406.617 -44.0336 403.56 -44.9741C401.078 -45.7236 399.467 -44.6949 398.367 -43.3086C397.295 -44.0238 396.245 -44.7292 395.209 -45.4444C393.252 -45.4983 391.296 -45.5668 389.361 -45.6256C388.361 -44.6949 387.325 -43.8229 385.254 -44.4157C382.671 -44.4696 380.075 -44.5381 377.5 -44.6067C377.464 -44.1903 377.42 -43.7886 377.384 -43.3625C376.795 -41.8978 374.982 -42.1868 373.378 -42.1868C373.148 -41.5059 372.508 -41.114 371.393 -41.0797C370.702 -41.0699 370.026 -41.0699 369.336 -41.0699C369.719 -42.5689 371.067 -43.3821 373.378 -43.5095L373.392 -43.5192L373.493 -44.7733C372.177 -44.8174 370.86 -44.8761 369.551 -44.9202C368.861 -44.9741 368.17 -45.0427 367.48 -45.1015C366.034 -44.6067 364.653 -44.0728 362.962 -44.7782C361.582 -45.3366 360.121 -45.8167 358.589 -46.38C357.438 -46.1547 356.208 -45.9097 354.971 -45.6648C354.59 -45.944 354.151 -46.1889 353.856 -46.5171C352.446 -48.0749 352.015 -48.2415 350.389 -47.6928C349.533 -47.4038 348.792 -46.9335 347.893 -46.7082C347.008 -46.4829 345.987 -46.4829 345.052 -46.3261C342.311 -45.8804 339.297 -46.5171 336.658 -45.5325C336.427 -45.4542 336.018 -45.557 335.701 -45.5766C334.126 -45.7089 332.565 -45.6207 331.069 -46.2918C329.788 -46.8601 328.048 -47.007 326.516 -47.345C324.343 -45.7432 321.603 -46.5417 319.056 -46.6641C318.747 -46.6886 318.495 -47.2813 318.201 -47.6046C316.625 -47.6389 314.899 -47.5164 314.467 -48.937C311.54 -50.0686 311.446 -50.0441 310.374 -48.1778C310.454 -47.6389 310.554 -47.105 310.641 -46.5759C310.475 -45.5668 310.346 -44.5626 309.001 -43.8768C308.526 -43.6319 307.979 -43.4604 307.476 -43.2596C307.181 -43.5829 306.749 -43.8964 306.62 -44.2442C306.469 -44.6263 306.584 -45.0378 306.584 -45.4395C306.684 -46.7033 306.778 -47.9818 306.864 -49.2457L306.814 -49.3142C304.857 -49.3485 302.901 -49.3926 300.944 -49.4269L300.88 -49.3828C301.074 -49.0252 301.096 -48.6529 300.93 -48.2855C301.491 -47.8496 302.182 -47.4577 302.527 -46.9531C302.656 -46.7621 302.016 -46.3359 301.736 -46.0126C301.52 -46.1253 301.175 -46.2135 301.11 -46.3506C300.894 -46.909 300.75 -47.5018 300.57 -48.0749C298.6 -47.6928 296.909 -46.4976 294.543 -47.1785C292.637 -47.6144 290.766 -47.5165 288.875 -47.1344C288.529 -46.4829 287.738 -46.1498 286.774 -46.2281C283.883 -46.4731 281.272 -46.4731 280.085 -46.0616C279.035 -45.6795 278.229 -44.9447 276.783 -45.2337C275.877 -45.1113 274.956 -44.9986 274.043 -44.8859C270.41 -44.45 270 -44.5724 269.015 -46.9237C268.403 -48.4031 266.749 -47.8985 265.332 -47.9426C264.756 -47.105 263.807 -46.669 262.34 -46.7915C262.03 -46.816 261.663 -46.7817 261.405 -46.8699C257.297 -48.3247 252.874 -48.3933 248.392 -48.2121C247.011 -48.1582 245.99 -48.648 245.4 -49.4759C243.364 -50.6712 241.537 -51.9938 239.948 -53.4486C235.941 -54.0071 231.467 -52.9784 227.885 -55.0162C227.669 -55.1387 227.259 -55.1484 226.95 -55.1631C222.792 -55.2415 218.52 -54.8937 214.758 -56.5152C214.542 -56.6033 214.082 -56.5837 213.823 -56.4906C211.852 -55.8196 209.996 -56.8287 208.155 -56.6915C206.119 -56.5445 204.292 -56.9364 202.422 -57.2156C200.134 -57.5634 198.02 -57.5047 195.732 -57.0834C193.287 -56.6131 190.769 -56.5004 188.338 -57.6222C187.122 -58.1708 185.295 -58.2394 183.706 -58.3472C182.181 -58.4599 181.569 -59.131 180.828 -59.8119C180.447 -60.1597 179.958 -60.4487 179.534 -60.7622C178.843 -60.7867 178.167 -60.8063 177.477 -60.8161C177.347 -60.2233 177.261 -59.6306 177.067 -59.0477C177.002 -58.8811 176.671 -58.6803 176.426 -58.6313C176.261 -58.597 175.851 -58.8126 175.786 -58.9546C175.175 -60.3556 173.65 -60.8357 171.564 -60.8014C171.254 -60.4781 170.938 -60.1499 170.629 -59.8413C169.348 -60.8014 170.895 -60.625 171.564 -60.8014C170.988 -62.3248 168.866 -62.0309 167.291 -62.3444C166.176 -62.8049 165.076 -63.2507 163.975 -63.7111C163.091 -63.6328 162.184 -63.5544 161.3 -63.4662C159.775 -63.3095 158.142 -63.2066 157.142 -64.0589C156.487 -64.6321 156.415 -65.4795 156.077 -66.1947C152.992 -66.2829 150.949 -67.5957 149.014 -68.9232C147.978 -69.6384 147.208 -70.5348 146.316 -71.3529C145.396 -71.2402 144.41 -70.9267 143.569 -71.0492C142.368 -71.2304 141.332 -71.9212 140.152 -72.0436C138.627 -72.2004 136.994 -71.4068 135.484 -71.975C133.909 -72.558 132.261 -71.8868 130.837 -72.1758C129.06 -72.5335 127.435 -73.2389 125.795 -73.8414C123.529 -74.6693 121.177 -75.2865 118.595 -75.5853C118.12 -75.6294 117.76 -76.1094 117.343 -76.4033C115.473 -76.7952 113.595 -77.1871 111.74 -77.579C111.15 -76.9765 110.164 -76.7413 109.294 -77.0205C107.863 -77.4663 106.582 -78.108 105.288 -78.7008C103.281 -79.6315 101.166 -79.8519 98.9145 -79.2249C96.2818 -78.4852 93.6924 -77.6917 91.1101 -76.9324C87.4776 -78.833 83.651 -80.332 79.2273 -81.1305C77.9972 -81.3411 76.8104 -81.7134 76.1845 -82.5314C73.6239 -82.7666 71.0416 -83.0017 68.4809 -83.2466C67.3156 -82.7764 66.0352 -82.9576 64.7693 -82.9086C63.1941 -82.8548 61.5971 -82.6392 60.1155 -82.2816C58.9646 -82.0122 58.0798 -81.2088 56.9289 -81.0374C55.4184 -80.812 53.7568 -80.9492 52.1456 -80.9835C49.2684 -81.0374 46.3624 -81.0521 43.4996 -81.2725C42.5934 -81.3411 41.6438 -81.7428 40.9172 -81.2627C38.5363 -79.6168 35.393 -80.523 32.6526 -80.1458C31.4225 -79.9793 30.171 -79.8568 28.9194 -79.7099C26.9773 -77.7847 23.1506 -77.9856 20.6834 -76.6433C20.3885 -76.0947 19.9785 -75.5901 19.0074 -75.4775C16.9502 -75.2522 14.9001 -75.1395 12.879 -75.6098C11.0088 -75.5069 9.13144 -75.4089 7.2612 -75.3061C4.00998 -76.9177 -0.133207 -76.6287 -3.75125 -77.5104C-6.92337 -78.2844 -10.0307 -77.6916 -12.7713 -76.4131C-13.3826 -75.9673 -13.8574 -75.2963 -14.6127 -75.1248C-16.5835 -74.6888 -17.7489 -73.7924 -18.871 -72.7294C-20.3959 -71.3088 -21.5683 -70.8925 -23.5895 -71.8232C-25.7619 -72.8078 -27.2365 -71.7448 -28.9987 -71.7693C-31.6601 -71.0541 -35.0625 -72.2297 -37.2996 -70.4369C-40.1552 -70.5152 -42.9532 -69.3837 -45.8087 -70.2017C-47.1035 -70.5691 -48.4055 -70.8826 -49.3262 -70.0989C-52.2178 -67.6839 -56.4545 -66.6649 -60.4178 -65.3766C-61.173 -65.891 -62.0435 -66.229 -62.9641 -66.4151L-62.9641 193.542C-61.5327 192.759 -59.9934 191.931 -58.4613 191.103L-58.4973 191.103ZM1436.7 204.878L1437.26 205.137L1436.6 205.269L1436.71 204.878L1436.7 204.878ZM1398.72 -68.7764C1399.28 -68.889 1400 -69.0899 1400.41 -68.9429C1400.81 -68.796 1401.1 -68.2816 1401.09 -67.9338C1401.07 -67.6448 1400.45 -67.106 1400.25 -67.1305C1399.71 -67.2088 1399.2 -67.5125 1398.76 -67.7673C1398.56 -67.8897 1398.53 -68.1346 1398.42 -68.3159C1398.53 -68.4727 1398.55 -68.7421 1398.72 -68.7764ZM1386.37 193.092L1386.6 193.562L1385.94 193.493L1386.37 193.092ZM1260.41 -67.5566L1260.99 -67.297L1260.33 -67.1647L1260.41 -67.5566ZM1243.79 -58.6706C1243.9 -58.7832 1244.2 -58.8175 1244.41 -58.8812C1244.65 -58.5334 1245.03 -58.2101 1245.07 -57.8525C1245.15 -57.2794 1245.15 -56.6573 1244.23 -56.3095C1244.13 -56.2752 1243.75 -56.4124 1243.65 -56.5348C1242.98 -57.2598 1243.01 -57.9897 1243.78 -58.6706L1243.79 -58.6706ZM1217.54 -70.05L1217.46 -69.6483L1216.89 -69.9177L1217.54 -70.05ZM1187.92 -71.0493C1188.02 -71.0738 1188.22 -70.8142 1188.37 -70.6819C1188.17 -70.5937 1187.87 -70.3782 1187.79 -70.4125C1187.1 -70.6721 1187.15 -70.9268 1187.92 -71.0493ZM813.892 -43.147C814.086 -42.9902 814.482 -42.8237 814.453 -42.7012C814.338 -42.3534 814.057 -42.0399 813.827 -41.6725C813.518 -41.9175 812.971 -42.1771 813.022 -42.3877C813.072 -42.6571 813.583 -42.8922 813.892 -43.147ZM783.264 -48.5452C783.279 -48.2415 782.753 -47.9427 782.459 -47.6292C782.264 -47.7614 781.948 -47.8741 781.897 -48.0211C781.746 -48.5942 781.703 -49.1624 781.617 -49.7454C782.523 -49.5543 783.243 -49.1869 783.257 -48.5501L783.264 -48.5452ZM708.615 -62.9764L708.845 -62.5502L708.22 -62.6041L708.615 -62.9715L708.615 -62.9764ZM679.433 -72.5678C679.742 -72.3082 680.289 -72.0633 680.239 -71.8526C680.188 -71.5832 679.678 -71.348 679.368 -71.1031C679.174 -71.2501 678.779 -71.4264 678.807 -71.5391C678.922 -71.8771 679.203 -72.2004 679.433 -72.5678ZM671.859 -71.6077L671.78 -71.206L671.204 -71.4656L671.859 -71.6126L671.859 -71.6077ZM641.26 -81.7232C641.785 -81.6449 642.281 -81.4636 642.857 -81.3068C642.461 -81.1158 642.066 -80.7582 641.756 -80.7925C641.332 -80.8268 640.987 -81.1599 640.591 -81.3607C640.821 -81.4832 641.087 -81.7429 641.267 -81.7183L641.26 -81.7232ZM542.896 -62.5306L543.471 -62.2612L542.795 -62.1142L542.896 -62.5306ZM524.474 -63.3389C524.884 -63.1821 525.381 -62.6433 525.244 -62.4424C524.913 -61.9477 524.244 -61.5362 523.323 -60.7622C522.877 -61.6342 522.439 -62.1289 522.439 -62.609C522.453 -63.2605 523.604 -63.6475 524.474 -63.3389ZM440.589 190.417L441.151 190.677L440.496 190.809L440.597 190.417L440.589 190.417ZM369.278 -41.0454C368.983 -40.7564 368.702 -40.4429 368.408 -40.149C367.228 -41.065 368.739 -40.8544 369.278 -41.0454ZM164.752 -60.4585C164.946 -60.3115 165.342 -60.1352 165.313 -60.0225C165.198 -59.6747 164.918 -59.3514 164.687 -58.984C164.378 -59.2436 163.831 -59.4984 163.882 -59.7139C163.932 -59.9833 164.443 -60.2185 164.752 -60.4634L164.752 -60.4585ZM100.698 -77.8827C100.799 -77.8827 100.979 -77.6476 101.123 -77.5153C100.943 -77.4271 100.648 -77.2116 100.562 -77.2459C99.8712 -77.5055 99.9359 -77.7504 100.691 -77.8827L100.698 -77.8827ZM373.349 -42.1868C373.349 -42.1868 373.364 -42.1966 373.364 -42.2113L373.328 -42.1868L373.342 -42.1868L373.349 -42.1868ZM377.478 -44.6018L377.478 -44.6459L377.399 -44.6018L377.478 -44.6018Z" fill="#F2F2F2"/>
</g>
<defs>
<clipPath id="clip0_126_302">
<rect width="1503" height="242" fill="white" transform="translate(1440 241.999) rotate(180)"/>
</clipPath>
</defs>
</svg>
