<svg width="1440" height="333" viewBox="0 0 1440 333" fill="none" xmlns="http://www.w3.org/2000/svg">
<g clip-path="url(#clip0_117_165)">
<path d="M-58.4973 282.104C-58.1161 281.815 -57.8068 281.311 -57.3607 281.266C-54.5051 280.963 -51.6281 280.762 -47.3698 280.414C-46.9885 280.424 -46.1182 281.433 -44.8522 282.001C-43.5862 282.55 -41.6008 282.481 -41.1909 283.779C-37.0477 284.083 -32.7318 283.579 -28.8189 285.043C-28.1283 285.313 -26.8767 285.078 -25.9417 284.931C-24.3449 284.671 -23.5104 285.244 -22.7695 285.969C-22.23 286.483 -21.7841 287.032 -21.1727 287.703C-20.2664 287.38 -19.4967 287.11 -18.7271 286.831C-15.9002 285.822 -13.2028 285.621 -10.7931 287.39C-9.51282 288.33 -8.03113 288.227 -6.45581 287.635C-4.7439 286.998 -3.00318 287.409 -2.21912 288.36C-0.694218 290.162 1.52844 290.564 4.35522 290.441C5.65002 290.373 6.9663 290.466 7.85827 291.245C8.41931 291.402 8.97326 291.568 9.5343 291.74C10.4838 291.774 11.4763 291.696 12.3755 291.852C17.9861 292.845 22.8821 293.289 27.0636 293.185C27.4233 292.626 27.639 291.999 28.1497 291.504C28.6748 290.98 30.286 291.059 30.6169 291.607C30.9479 292.166 31.0126 292.793 31.1924 293.395C31.8326 293.508 32.4728 293.63 33.1129 293.743C34.048 293.655 35.0334 293.64 35.9254 293.454C36.436 293.341 36.7958 292.94 37.2202 292.68C38.0113 291.694 39.4476 291.331 41.5288 291.593L41.1331 291.392L41.5791 291.549C41.3345 290.745 41.054 289.947 41.8452 289.197C42.6652 288.404 43.442 287.595 44.2621 286.758C45.5784 287.429 45.6431 288.717 47.3982 288.996C47.988 289.187 48.5635 289.163 49.1245 288.918C49.2396 288.08 49.3187 287.228 49.5057 286.39C49.5417 286.224 49.9014 286.077 50.1172 285.92C50.4768 286.145 51.1027 286.356 51.1171 286.591C51.1818 287.429 51.0522 288.281 51.0019 289.134C51.7068 289.423 52.3686 289.78 53.1383 289.961C54.1238 290.187 54.7495 289.77 55.0587 289.202C55.2529 288.854 55.2889 288.477 55.404 288.115C55.3896 287.262 55.1739 286.4 55.3896 285.597C56.0299 283.324 58.4611 282.687 61.7986 283.828C62.3884 284.029 62.9639 284.23 63.5393 284.421C67.0424 283.569 70.5237 282.721 74.0051 281.869C75.8105 282.207 76.7025 281.095 78.0117 280.83C79.8171 280.448 81.5937 280.169 83.0898 279.366C83.5143 279.087 83.9099 278.641 84.4062 278.572C85.3413 278.45 86.3771 278.675 87.3121 278.562C88.5637 278.406 89.7434 278.082 90.9591 277.823C92.4049 275.721 95.0519 276.157 97.663 276.515C101.18 276.593 103.856 274.276 107.69 275.05C108.1 275.129 109.1 274.355 109.546 273.874C110.236 273.115 111.092 272.41 112.437 272.508C114.674 272.699 116.76 272.552 118.911 272.16C119.551 272.047 120.486 272.64 121.292 272.909C122.177 272.998 123.349 272.885 123.903 273.213C125.565 274.188 127.651 274.477 129.557 275.05C130.031 275.197 130.312 275.618 130.672 275.922C135.433 277.715 140.648 277.926 145.842 277.367C147.482 277.186 148.697 276.965 150.359 277.436C153.02 278.21 156.041 278.474 158.674 279.292C162.335 280.443 166.198 280.625 170.097 280.791C171.787 280.86 173.319 280.59 174.614 279.831C175.815 279.116 177.131 278.577 178.757 278.22C180.857 277.774 182.785 276.956 184.857 276.383C186.957 275.809 189.165 275.398 191.28 274.825C192.46 274.511 193.761 273.762 194.898 274.31C196.79 275.226 199.48 274.198 201.077 275.677C202.163 276.696 203.868 276.809 205.349 276.035C209.277 273.963 214.06 273.228 218.743 272.351C219.692 272.17 220.599 272.405 221.375 272.89C222.102 273.336 223.102 273.683 223.986 273.257C226.799 271.881 230 271.905 233.287 271.935C236.258 271.969 238.969 271.533 241.091 269.956C242.206 269.103 243.868 268.883 245.494 269.574C246.594 270.034 247.68 270.504 248.766 270.994C250.507 271.788 252.183 272.082 254.06 271.063C254.801 270.661 255.851 270.705 256.801 271.038C258.952 271.822 261.088 272.057 263.246 271.028C264.426 270.47 265.778 271.219 267.022 270.94C267.152 270.156 266.828 269.26 268.432 268.814C269.137 269.206 269.842 269.642 270.604 270.034C271.374 270.45 272.101 270.681 273.215 270.348C276.337 269.417 279.624 269.843 282.861 270.103C287.479 268.682 291.896 266.443 297.434 268.613C297.744 268.736 298.52 268.344 299.096 268.212C301.527 267.629 304.275 268.726 306.656 267.594C306.987 267.438 308.066 267.57 308.382 267.805C311.043 269.784 315.971 269.25 318.258 271.675C318.654 272.101 319.934 272.322 320.84 272.356C323.401 272.478 325.998 272.537 328.515 272.772C331.342 273.042 333.594 272.728 335.845 271.719C336.24 271.553 337.046 271.709 337.636 271.788C337.916 271.822 338.262 271.979 338.377 272.145C339.722 273.982 342.139 274.261 344.93 274.217C346.411 274.193 347.195 274.898 347.447 275.829C350.404 277.651 353.381 279.454 356.287 281.311C356.698 281.555 356.784 281.991 357.014 282.364C358.244 282.153 359.445 281.84 360.711 281.761C362.258 281.673 363.948 281.56 365.113 282.535C366.408 282.604 367.775 282.883 369.005 282.716C371.501 282.369 374.112 283.789 376.564 282.471C376.874 282.305 377.766 282.471 378.341 282.594C379.888 282.917 381.657 283.089 382.873 283.701C385.894 285.244 388.987 286.018 392.849 285.367C393.411 285.264 394.346 285.969 395.051 286.341C395.547 286.611 395.971 286.934 396.496 287.272C398.352 287.483 400.309 287.63 402.2 287.943C406.279 288.614 409.875 288.311 412.983 286.297C414.119 285.558 415.63 285.078 417.025 284.46C417.716 284.828 418.55 285.166 419.197 285.626C421.233 287.125 423.801 287.081 426.412 286.689C428.318 286.41 430.145 285.93 432.015 285.548C433.562 285.244 435.188 284.617 436.684 284.72C440.251 284.965 442.992 283.946 445.819 282.863C447.761 282.114 449.782 281.418 451.818 280.781C454.609 279.919 457.961 280.791 459.083 282.638C459.557 283.422 459.852 284.24 460.198 284.975C462.269 285.21 463.255 284.235 464.571 283.667C467.463 282.413 470.584 282.202 473.857 283.03C474.469 283.187 475.058 283.387 475.569 283.647C477.209 284.45 478.791 284.083 479.971 283.334C482.172 281.947 484.345 281.678 486.869 282.898C487.625 283.255 488.329 283.672 489.502 283.534C492.609 283.177 495.285 283.51 496.961 285.572C497.342 286.043 498.443 286.425 499.292 286.547C501.003 286.782 502.082 287.409 503.255 288.213C505.521 289.814 506.686 289.702 508.017 287.551C509.297 285.479 511.843 284.181 513.965 282.618C514.159 282.471 514.555 282.305 514.821 282.339C518.073 282.687 519.698 280.316 522.841 280.37C524.518 280.404 525.898 279.753 527.129 279.003C528.064 278.42 529.049 277.862 530.15 277.426C530.596 277.245 531.581 277.279 531.991 277.495C534.278 278.67 536.494 279.909 538.68 281.178C540.191 282.05 541.838 282.721 543.888 282.721C545.025 282.731 545.6 283.226 546.406 283.539C549.146 284.578 549.297 284.558 552.225 282.956C551.916 281.712 551.664 280.473 553.592 279.586C555.728 279.934 557.915 280.203 560.001 280.659C560.806 280.84 561.367 281.443 562.036 281.844C566.294 281.889 569.992 283.422 574.228 283.691C577.659 283.902 579.587 286.723 583.565 286.601C584.061 286.591 584.78 287.003 585.047 287.341C585.982 288.57 587.514 289.178 589.499 289.52C591.01 289.78 592.455 290.236 594.347 290.716C597.519 293.537 600.922 296.57 604.324 299.592C606.28 299.724 608.266 300.087 610.157 299.93C612.574 299.729 614.811 299.984 616.797 300.655C618.868 301.351 620.594 300.645 622.436 300.567C624.493 301.684 626.464 302.781 628.449 303.878C628.665 305.22 631.557 305.411 631.506 306.876C632.707 306.945 633.247 307.435 633.398 308.15C635.318 308.262 637.261 308.517 639.167 308.429C641.353 308.326 642.914 308.899 644.209 309.884C645.461 310.824 646.54 311.863 647.777 312.828C648.172 313.132 648.813 313.499 649.338 313.489C651.524 313.465 653.776 313.043 655.891 313.264C659.293 313.621 662.839 313.298 666.162 314.224C667.277 314.537 668.593 314.582 669.845 314.719C671.945 314.944 671.931 314.954 674.412 317.305C675.218 318.064 676.448 318.265 677.764 318.368C678.11 318.055 678.354 317.584 678.829 317.452C680.8 316.859 682.792 316.301 684.842 315.865C685.677 315.698 686.698 315.899 687.245 316.482C688 317.31 687.899 318.486 689.611 318.922C690.697 318.496 691.978 318.197 692.848 317.614C695.459 315.855 698.437 315.924 701.638 316.683C704.364 316.639 705.026 317.859 705.4 319.255C706.68 319.377 708.047 319.323 709.032 320.029C710.428 321.038 712.384 321.685 714.211 321.484C716.038 321.293 717.254 322.101 718.743 322.067C720.57 322.013 721.699 322.806 723.167 323.174C724.353 323.477 725.893 323.801 726.965 323.556C730.611 322.703 734.719 322.997 738.157 321.552C739.732 320.906 741.214 321.342 742.559 322.179C744.4 323.321 745.22 325.114 747.882 325.726C749.788 325.378 751.658 325.011 753.55 324.707C755.737 324.349 757.003 325.794 758.959 325.927C759.268 325.936 759.599 326.015 759.909 326.039C762.966 326.299 765.742 326.206 767.598 324.202C767.929 323.835 769.288 323.864 770.18 323.722C773.611 323.698 777.064 323.889 780.387 322.983C781.473 322.679 782.833 322.792 784.07 322.772C785.962 322.728 787.868 322.738 789.752 322.728C790.953 321.655 792.478 320.925 794.564 320.871C797.175 320.793 799.643 320.646 801.614 319.27C802.11 318.922 803.441 318.853 804.275 318.98C806.692 319.348 808.742 319.162 810.483 317.927C812.094 316.786 813.964 316.227 816.51 316.438C817.611 316.541 819.006 316.022 819.977 315.542C825.221 312.911 825.89 312.363 829.443 308.591C830.098 307.885 830.623 307.101 831.414 306.455C831.723 306.21 832.709 306.073 833.169 306.21C834.335 306.548 835.37 307.062 836.471 307.508C837.722 307.675 838.988 307.846 840.247 308.022C841.218 307.934 842.168 307.777 843.139 307.763C846.685 307.728 847.167 308.13 846.131 310.227C845.851 310.785 845.75 311.422 845.836 312.005C845.915 312.509 846.606 312.73 847.246 312.544C847.807 312.377 848.346 312.127 848.757 311.838C851.842 309.624 851.828 309.61 855.014 310.731C855.295 310.834 855.575 310.966 855.82 311.089C857.28 311.838 858.712 311.892 860.258 311.177C861.028 310.819 861.948 310.584 862.74 310.315C864.365 310.682 865.897 311.02 867.422 311.368C869.458 311.055 871.479 311.143 873.486 311.549C873.795 311.505 874.177 311.349 874.421 311.417C877.083 312.113 879.694 312.769 881.816 314.214C884.873 316.296 888.67 317.168 893.137 316.115C894.008 315.904 895.159 316.193 896.029 315.983C902.467 314.415 909.271 314.317 916.011 313.847C918.687 313.656 921.104 313.95 923.535 314.464C925.657 314.91 927.822 315.395 929.75 316.12C931.095 316.634 932.08 316.365 933.296 316.13C935.742 315.669 937.763 316.085 939.093 317.584C939.259 317.766 939.453 317.952 939.539 318.153C940.18 319.617 941.712 320.078 943.942 319.931C948.214 319.652 952.321 319.862 956.119 321.44C957.105 321.841 958.666 321.572 959.881 321.797C961.097 322.022 962.212 322.478 963.384 322.836C964.715 322.733 965.369 323.095 965.211 323.987C966.952 324.824 968.908 325.466 970.584 326.314C972.62 327.342 974.282 328.685 976.123 329.885C976.583 330.188 977.108 330.433 977.605 330.713C978.511 331.217 980.022 331.139 981.108 330.468C981.798 330.032 982.453 329.561 983.028 329.047C984.064 328.116 985.344 328.655 986.56 328.734C987.15 328.655 987.776 328.621 988.351 328.498C991.013 327.915 993.645 328.062 996.256 328.68C998.313 327.94 1000.51 327.626 1002.86 327.827C1005.11 328.018 1007.49 328.038 1009.58 328.542C1011.87 329.101 1014.08 327.871 1016.25 328.743C1017.97 329.449 1019.33 328.944 1020.42 328.004C1020.91 327.577 1021.4 327.479 1022.08 327.734C1024.34 328.596 1026.48 327.7 1028.96 327.509C1029.82 327.945 1030.82 328.469 1031.87 328.964C1034.98 330.409 1038.95 330.522 1041.63 328.729C1043.85 327.239 1046.59 326.862 1049.27 326.186C1052.16 325.471 1055.2 325.437 1057.66 326.544C1061.3 328.165 1065.37 328.714 1069.45 329.375C1071.02 329.635 1072.96 329.777 1073.98 330.448C1075.53 331.467 1077 332.006 1079.06 331.599C1081.38 331.153 1083.44 331.198 1085.42 332.27C1086.01 332.594 1087.44 332.716 1088.1 332.481C1090.22 331.722 1092.43 331.487 1094.72 331.697C1098.53 332.065 1102.35 330.815 1106.14 331.751C1108.51 330.585 1111.12 330.992 1113.62 331.403C1115.28 331.673 1116.75 331.771 1118.34 331.281C1120.47 330.619 1122.8 330.992 1125.03 330.835C1127.52 330.654 1129.41 329.076 1132.23 329.091C1133.84 329.101 1135.56 328.587 1137.02 328.846C1139.98 329.361 1142.78 328.822 1145.62 328.734C1145.83 328.734 1146.06 329.023 1146.3 329.179C1148.07 329.135 1149.73 329.204 1150.39 330.556C1151.9 330.904 1153.41 331.251 1154.92 331.609C1156.76 330.884 1158.54 332.28 1160.44 331.712C1160.84 331.589 1161.66 331.869 1162.13 332.094C1164.16 333.034 1165.98 333.573 1168 331.981C1168.99 331.198 1170.61 330.752 1171.95 330.159C1172.02 329.948 1172.01 329.62 1172.21 329.556C1173.3 329.218 1174.56 329.052 1175.51 328.606C1176.53 328.111 1177.2 327.318 1178.17 326.759C1178.56 326.549 1179.33 326.612 1179.92 326.559C1181.36 326.098 1183.02 325.799 1184.22 325.148C1186.67 323.815 1188.86 322.292 1191.04 320.93C1192.64 320.817 1193.95 320.773 1195.21 320.626C1198.06 320.279 1201.18 320.357 1203.13 318.554C1205.83 317.873 1208.54 317.202 1211.23 316.516C1213.41 317.041 1215.01 316.384 1216.49 315.488C1218.61 314.199 1220.73 312.901 1222.89 311.584C1223.45 311.637 1224.07 311.775 1224.69 311.75C1227.45 311.682 1229.24 310.878 1229.85 309.467C1230.01 309.051 1230.12 308.63 1230.14 308.213C1230.24 306.734 1231.51 305.705 1233.61 305.563C1237.13 305.304 1239.61 304.064 1241.88 302.507C1242.53 302.046 1243.11 301.522 1243.83 301.106C1245.11 300.356 1246.64 300.052 1248.35 300.302C1249.28 300.434 1250.21 300.65 1251.06 300.817C1251.97 300.234 1252.87 299.665 1253.89 299.014C1255.15 299.509 1256.24 299.945 1257.59 300.493C1259.13 299.7 1260.84 298.759 1262.65 297.941C1263.38 297.603 1264.34 297.446 1265.25 297.348C1267.45 297.089 1269.68 296.903 1271.64 296.721C1272.37 295.972 1272.97 295.467 1273.38 294.909C1274.79 292.915 1277.34 292.102 1280.5 292.21C1283.19 292.313 1285.56 291.818 1288.02 291.269C1290.46 290.711 1293.24 290.554 1295.12 289.334C1296.43 288.497 1297.19 287.277 1298.19 286.233C1298.6 284.832 1298.84 283.412 1299.51 282.07C1300.07 280.904 1301.03 279.944 1303.38 279.797C1305.83 279.64 1308.22 279.126 1310.61 278.768C1311.47 277.548 1312.86 277.392 1314.54 277.984C1316.38 278.636 1318.07 279.101 1319.35 277.48C1319.6 277.166 1320.34 276.985 1320.9 276.818C1321.16 276.74 1321.55 276.774 1321.87 276.828C1324.34 277.245 1326.31 276.784 1327.95 275.54C1329.9 274.061 1332 272.762 1335.46 273.257C1336 273.336 1336.67 272.998 1337.28 272.855C1341.89 271.783 1345.63 272.865 1348.49 275.114C1349.99 276.28 1351.76 276.466 1353.62 276.5C1355.18 276.525 1356.76 275.976 1358.29 276.667C1360.75 276.833 1363.21 277.005 1365.7 277.171C1367.42 278.494 1369.89 277.641 1371.91 278.102C1372.49 278.18 1373.24 278.146 1373.6 278.371C1377.71 280.899 1379.14 284.837 1384.2 286.885C1384.53 287.87 1384.87 288.864 1385.2 289.863C1386.77 289.751 1388.35 289.653 1390.03 289.54C1390.36 290.245 1390.61 290.814 1390.89 291.377C1391.54 292.709 1393.12 293.434 1395.06 293.278C1395.99 293.199 1396.93 293.067 1397.87 292.94C1399.38 292.739 1400.73 292.058 1402.44 292.347C1403.59 292.548 1404.79 292.636 1406.15 292.807C1406.21 294.218 1406.3 295.649 1406.38 297.084C1407.65 297.128 1408.91 297.172 1410.18 297.231C1411.23 296.638 1412.53 296.437 1413.81 296.628C1415.72 296.907 1417.28 297.481 1418.49 298.651C1419.95 300.072 1420.28 299.984 1422.38 299.176C1423.48 298.749 1424.53 298.259 1425.72 297.946C1426.2 297.824 1427.1 297.956 1427.5 298.206C1428.35 298.754 1428.84 299.636 1429.81 300.043C1431.15 300.601 1432.76 300.895 1434.3 301.194C1434.84 301.297 1435.71 301.194 1436.11 300.959C1437.44 300.185 1438.78 299.425 1440.05 298.607L1440.05 13.8679C1438.65 14.0687 1437.21 14.1716 1435.68 14.0932C1434.5 14.0393 1433.27 14.25 1432.13 14.3284C1431.49 13.7454 1430.93 13.2408 1430.38 12.7412C1429.81 13.1772 1429.28 13.9708 1428.69 13.9854C1426.74 14.0295 1425.07 14.1961 1423.71 15.1954C1422.03 16.4151 1419.9 16.3368 1417.71 15.8763C1417.67 16.5229 1417.31 17.0422 1416.18 16.807C1415.34 16.6258 1414.61 16.2241 1413.83 15.9253C1413.27 16.0722 1412.6 16.4151 1412.16 16.327C1410.29 15.9008 1408.62 15.5089 1406.75 16.518C1405.22 17.3361 1403.18 17.4341 1401.18 17.2332C1399.9 17.101 1398.62 16.9883 1397.52 17.6496C1396.32 18.3893 1394.68 18.6097 1393.3 19.0947C1391.11 19.8539 1389.75 19.2171 1388.22 18.4481C1388 18.3354 1387.51 18.2668 1387.3 18.3452C1384.24 19.4963 1380.4 19.3984 1377.6 20.9512C1376.37 21.6321 1375.13 22.3816 1373.69 22.8176C1372 23.3221 1369.86 23.2976 1368.33 23.9247C1366.8 24.5615 1365.37 24.63 1363.78 24.5076C1362.51 24.4047 1361.11 23.8806 1360.04 24.0912C1355.19 25.1101 1350.36 23.9247 1345.55 24.1696C1343.38 24.2823 1341.98 23.2732 1340.67 22.3473C1340.06 21.9309 1339.79 21.3284 1339.26 20.7014C1337.05 21.2402 1334.94 21.7644 1332.84 22.2788C1331.56 22.5923 1330.95 22.2347 1330.54 20.8484C1330.47 20.6475 1330.52 20.432 1330.52 20.2213C1328.67 20.4663 1326.83 20.7602 1324.95 20.9708C1322.92 21.206 1322.01 20.77 1320.91 19.1241C1320.8 18.9575 1320.62 18.8008 1320.4 18.5656C1319.3 18.8791 1318.16 19.1927 1317.05 19.5062C1317.05 19.8735 1316.95 20.2311 1316.77 20.5789C1316.54 21.4754 1315.8 22.0583 1314.32 22.0093C1312.47 21.9309 1310.61 21.7644 1308.73 21.6419L1308.7 21.6517C1308.75 22.1465 1308.81 22.6363 1308.88 23.1311C1311.4 24.2725 1311.37 24.63 1308.73 25.6734C1308.33 25.9086 1307.96 26.1535 1307.55 26.369C1307.5 26.369 1307.07 26.178 1307.04 26.0556C1306.92 25.4873 1306.89 24.9142 1306.84 24.3312C1304.46 24.2186 1302.62 24.7917 1301.93 26.5797C1300.53 25.4138 1300.33 24.1304 1298.23 24.1843C1295.52 24.2627 1293.28 23.4544 1291.08 22.5629C1290.16 22.5972 1289.19 22.7539 1288.31 22.6412C1286.24 22.3718 1284.65 22.8421 1283.23 23.7385C1282.92 24.6007 1282.01 25.1934 1280.9 25.5608C1280.14 25.8204 1278.86 26.0751 1278.32 25.84C1276.18 24.8995 1274.85 25.4236 1273.63 26.565C1273.12 27.0353 1272.66 27.5153 1272.12 28.0542C1271.01 26.9226 1270.17 25.84 1268.27 25.3256C1267.89 25.2228 1267.81 24.6301 1267.6 24.2627C1266.58 23.4789 1265.17 22.7539 1266.61 21.5881C1267.11 21.1864 1266.74 20.9169 1266.35 20.481C1265.49 19.565 1264.43 18.8253 1263.21 18.0954C1261.6 17.1206 1259.87 16.616 1257.92 17.1989C1255.09 18.0366 1252.43 18.306 1249.42 17.5663C1248.34 17.3067 1246.79 17.5663 1245.61 17.8553C1243.37 18.4138 1241.06 18.0121 1238.83 18.257C1236.97 18.4578 1235.86 17.5516 1234.45 17.0618C1232.51 17.4194 1231.17 17.0373 1230.53 15.7539C1228.6 15.842 1226.63 15.8077 1224.76 16.0674C1222.22 16.4249 1219.74 16.9638 1217.3 17.5124C1215.95 17.8162 1214.8 17.6937 1213.55 17.3312C1212.68 17.0716 1211.69 16.8512 1210.74 16.8364C1207.45 16.8021 1204.28 16.6356 1201.26 15.5922C1200.22 15.2346 1198.67 15.5481 1197.46 15.3228C1195.14 14.8868 1193.32 16.4543 1190.91 15.7833C1189.59 15.4159 1188.6 16.3417 1187.52 16.7434C1185.15 17.6055 1182.73 17.9974 1180.02 17.3459C1178.84 17.0569 1177.31 16.7189 1176.26 16.9785C1174.02 17.5271 1172.74 17.2577 1171.45 15.9498C1170.59 15.0877 1169.08 14.5194 1167.87 13.814C1165.77 13.961 1164.3 13.5446 1163.31 12.1926C1162.77 11.4431 1161.51 11.3647 1160.08 11.7223C1156.67 12.56 1155.73 12.124 1154.37 9.4298C1153.78 8.94976 1153.27 8.12188 1152.58 8.05331C1149.51 7.7153 1146.57 7.13729 1143.22 7.93084C1138.7 8.99383 1133.8 9.41021 1129.08 10.1254C1126.55 10.5075 1124.76 9.62085 1122.97 8.68033C1122.1 8.42068 1121.05 8.28842 1120.41 7.87695C1118.7 6.80417 1116.93 5.94201 1114.41 6.05469C1111.62 6.18695 1109.27 5.67261 1107.46 4.19815C1105.85 2.89023 1103.98 3.54663 1102.38 3.95322C1100.17 3.35068 1098.09 2.76773 1096.04 2.19461C1093.64 2.8902 1091.87 1.24429 1089.58 1.46964C1087.25 2.08685 1085.11 2.85593 1082.36 1.73904C1080.26 0.886689 1077.62 0.587892 1075.19 0.093141C1074.61 -0.029326 1073.87 -0.0293259 1073.33 0.0931412C1070.31 0.808321 1067.2 1.44513 1064.36 2.40033C1062.39 3.04697 1060.76 4.15894 1058.91 5.09946C1056.27 4.82025 1053.29 5.43747 1050.9 4.40387C1048.93 5.55506 1047.28 7.05399 1045.05 7.69571C1041.59 8.69013 1038.41 10.4928 1034.21 10.1695C1033.04 10.0813 1032.34 10.4732 1031.78 10.9533C1030.69 11.8938 1029.28 12.1975 1027.57 12.2269C1025.96 12.271 1023.97 12.0457 1022.83 12.5747C1020.68 13.5691 1018.41 12.6874 1016.26 13.1919C1014.2 13.6622 1011.86 13.672 1009.57 13.2605C1007.93 12.9568 1006.48 13.427 1005.07 14.0345C1004.31 14.3578 1003.2 14.3235 1002.24 14.4509C1001.91 15.1759 1001.21 15.5383 1000.03 15.4697L999.846 15.5481C999.73 16.2878 999.105 16.6797 997.99 16.7434C997.565 17.0128 997.083 17.5468 996.738 17.5027C995.278 17.3459 994.127 16.5278 992.286 16.9981C990.66 17.4341 990.531 17.2431 990.113 15.9449C990.049 15.7441 990.049 15.5285 990.034 15.3277C988.919 15.3718 988.322 15.798 988.128 16.4789C987.797 16.8022 987.452 17.1402 987.128 17.4635C986.819 17.1255 986.488 16.7826 986.179 16.4446C985.424 16.376 984.668 16.3221 983.913 16.2633C981.856 17.2038 979.871 18.2228 977.72 19.0604C976.684 19.4768 975.253 19.8785 974.138 19.7413C970.491 19.3151 967.24 19.6188 964.082 20.9709C961.55 22.0584 958.579 22.1465 955.652 21.6665C952.724 21.1962 950.689 22.0926 948.782 23.3222C948.358 23.5818 947.926 24.0716 947.488 24.0716C944.711 24.0961 941.92 23.9688 939.137 23.9835C938.266 23.9933 937.346 24.2186 936.526 24.444C934.634 24.9485 934.734 23.8169 934.058 23.2781C933.699 22.9891 933.109 22.8176 932.613 22.5825C932.332 23.185 931.872 23.7581 930.821 23.7778C929.045 23.8022 927.225 23.2193 925.642 24.3705C925.168 24.7281 923.887 24.8162 923.031 24.7525C921.061 24.586 919.385 24.8407 917.673 25.5363C916.097 26.1732 914.285 26.5895 912.594 27.1137C912.019 28.1767 910.753 28.5588 909.142 28.5C908.271 28.4755 907.401 28.2746 906.531 28.1522L906.495 28.162C904.689 29.6168 904.394 29.6169 902.718 28.1081L902.682 28.0983C902.107 28.3236 901.517 28.3677 900.877 28.2305C899.776 28.9898 898.82 29.896 897.525 30.4692C895.95 31.1648 894.072 31.5861 892.893 31.9584C891.382 33.8737 890.181 35.3825 888.98 36.8912C887.8 38.3902 886.923 40.0606 885.333 41.3587C883.966 42.4658 881.787 43.1467 879.96 44.0088C879.65 44.3566 879.449 44.8367 878.989 45.0278C877.068 45.787 875.076 46.4728 873.234 47.1292C871.314 46.7815 869.487 46.4484 867.645 46.1103C866.645 46.6345 865.588 47.1194 864.653 47.6779C862.747 48.8192 860.726 49.8136 858.129 50.23C857.669 50.4113 857.043 50.8326 856.733 50.7542C853.856 50.0047 851.029 49.1769 848.188 48.3686C845.081 48.0894 842.009 47.8542 838.967 48.6037C838.866 48.6282 838.557 48.3147 838.355 48.158C837.881 48.3245 837.406 48.3392 836.924 48.1923C836.133 48.496 835.377 49.0446 834.572 49.0642C830.99 49.2111 827.854 48.3392 825.041 46.9137C824.825 46.801 824.811 46.5316 824.696 46.3406C821.15 46.4288 817.532 46.6982 815.036 44.4399C814.69 44.1362 814 43.8815 813.41 43.8129C809.598 43.4112 805.836 42.9165 802.218 42.0005C800.017 42.2797 797.83 42.5834 795.615 42.8283C795.003 42.8969 794.334 42.8185 793.694 42.8038C792.442 42.9508 791.176 43.0292 789.982 43.2643C788.832 43.4896 787.695 44.3028 786.566 43.5533C786.185 43.2937 786.911 42.4462 786.76 41.9074C786.494 40.913 785.969 39.9382 785.559 38.9438C783.667 39.3014 782.401 40.0851 781.646 41.2363L781.631 41.2461C780.365 41.6624 779.135 42.0984 777.884 42.5197C775.827 42.4315 773.791 42.3531 771.755 42.2601C771.676 42.7646 771.216 43.1124 770.604 42.9557C770.245 42.8773 769.993 42.3972 769.928 42.0739C769.864 41.6918 770.058 41.2902 770.123 40.8885L769.928 40.3055L770.007 39.7128C769.497 38.9095 768.598 38.4686 767.267 38.3461C766.037 38.2334 764.836 38.0669 763.62 37.9297C762.023 37.7191 760.448 37.4497 758.837 37.3125C757.902 37.2341 756.895 37.435 756.096 36.9206C753.269 35.0641 749.047 34.8192 745.99 33.33C743.329 32.0319 740.567 32.0759 737.66 32.1984C736.049 32.267 734.424 32.458 732.877 32.747C730.381 33.2271 728.36 32.6785 726.583 31.6596C725.382 30.964 724.397 30.1165 723.332 29.3328C721.987 29.2642 720.98 28.7939 720.34 28.0885C719.318 26.9814 718.052 26.2515 715.988 26.1291C713.981 26.0164 713.621 25.0563 713.801 23.9492C712.765 23.6357 711.974 24.2627 711.14 24.2627C709.924 24.2529 708.723 23.7827 707.493 23.7386C703.371 23.6063 700.293 21.8379 696.761 20.819C695.546 20.4516 694.56 20.5496 693.424 20.4614C688.87 20.1038 684.432 19.4768 682.447 16.1409C681.641 14.7889 681.001 14.6321 678.699 15.0436C676.743 15.4012 674.837 15.3228 672.902 15.2445C672.391 15.2102 671.787 14.8967 671.442 14.6076C669.701 13.0646 667.169 12.9421 664.522 12.7364C659.113 12.32 654.416 11.0709 652.38 7.29896C651.445 7.41163 650.488 7.50959 649.539 7.63697C646.597 8.00434 644.547 7.31367 643.145 5.56486C642.605 4.88398 642.173 3.99732 640.663 3.82099C638.426 3.92384 636.7 5.39832 634.204 4.88395C634.038 5.4669 633.923 6.04981 633.693 6.61805C633.628 6.77479 633.233 6.90705 632.952 6.95606C632.822 6.96586 632.456 6.72093 632.456 6.59846C632.405 5.60404 632.42 4.61942 632.405 3.62013C632.046 3.19395 631.434 2.98332 630.844 3.23805C629.859 3.67402 628.938 4.18836 628.118 4.76152C627.277 5.32972 626.788 6.20658 625.802 6.58378C624.932 6.90708 623.601 6.71604 622.501 6.81892C622.27 6.82872 622.091 7.09812 621.889 7.25489C620.839 8.40605 620.314 8.64118 619.458 8.28358C618.667 7.96028 618.293 7.4802 618.422 6.85319C618.501 6.47111 618.573 6.0792 618.638 5.70201C618.113 5.51097 617.372 5.07502 617.113 5.16319C615.437 5.78041 613.991 6.76503 612.215 7.14219C609.244 7.79371 607.122 8.96449 605.266 10.4978C604.46 11.159 603.475 11.7273 602.504 12.3004C600.497 13.4761 596.786 13.8337 594.405 12.6384C592.319 11.5852 590.938 12.0114 589.183 12.7168C588.118 13.1528 587.686 14.1178 586.126 14.1619C583.68 14.2305 581.817 15.0926 580.328 16.2781C578.652 17.6007 577.127 18.9282 573.955 18.693C573.214 18.6392 572.279 19.2515 571.574 19.6532C570.344 20.3586 569.157 21.0836 568.107 21.8918C567.251 22.5286 566.812 23.4153 565.87 23.9639C564.69 24.6693 563.259 25.2522 561.813 25.698C560.713 26.0458 559.216 25.9233 558.231 26.3348C556.426 27.0843 554.649 27.2949 552.664 26.8394C551.743 26.6287 550.873 26.325 549.937 26.134C545.931 25.3061 541.558 25.5658 537.63 24.3999C536.925 24.1893 535.71 24.5126 534.854 24.782C533.689 25.1396 532.653 25.6784 531.631 26.1046C528.675 25.747 525.978 24.831 523.007 25.2669C520.59 26.712 519.475 28.8919 516.468 29.9451C516.123 30.817 515.332 31.1305 514.001 30.7974C513.577 30.8415 513.145 30.8513 512.721 30.8072C509.204 31.2334 505.751 30.817 502.284 30.528C501.723 30.6064 501.219 30.7533 500.759 30.9885C500.45 31.782 499.673 32.027 498.493 31.8065L498.543 31.9535C496.882 33.7562 494.911 35.3531 491.394 35.5099C488.797 35.6226 488.452 36.7541 488.171 38.0179C488.121 38.1992 487.79 38.3412 487.596 38.498C487.215 38.2971 486.79 38.1306 486.495 37.8808C486.33 37.7338 486.395 37.4791 486.395 37.2783C486.359 35.5637 484.424 35.3972 482.481 35.2208C481.086 35.745 479.655 36.2153 478.31 36.7982C476.914 37.4007 475.353 37.9396 473.771 37.7485C470.268 37.3321 468.412 38.8801 466.211 40.0655C465.981 41.0746 464.88 41.3196 463.564 41.2167C462.679 41.1383 461.809 40.8689 460.931 40.6926C459.104 40.771 457.845 40.0312 456.479 39.4287C453.062 38.6254 449.48 39.6981 445.963 38.9487C442.265 38.1649 438.338 39.1152 434.936 38.6352C433.31 39.3161 432.08 39.9871 430.663 40.3937C429.217 40.7954 427.21 40.6387 426.096 41.2461C423.614 42.5785 421.247 41.8927 418.485 41.5057C417.486 42.123 416.45 42.892 415.212 43.4847C413.918 44.0872 412.422 44.5037 411.019 45.0082C408.868 46.3504 406.617 46.9676 403.56 46.0271C401.078 45.2776 399.467 46.3063 398.367 47.6926C397.295 46.9774 396.245 46.272 395.209 45.5569C393.252 45.503 391.296 45.4344 389.361 45.3756C388.361 46.3063 387.325 47.1783 385.254 46.5855C382.671 46.5316 380.075 46.4631 377.5 46.3945C377.464 46.8109 377.42 47.2126 377.384 47.6388C376.795 49.1034 374.982 48.8144 373.378 48.8144C373.148 49.4953 372.508 49.8872 371.393 49.9215C370.702 49.9313 370.026 49.9313 369.336 49.9313C369.719 48.4323 371.067 47.6191 373.378 47.4918L373.392 47.482L373.493 46.228C372.177 46.1839 370.86 46.1251 369.551 46.081C368.861 46.0271 368.17 45.9585 367.48 45.8997C366.034 46.3945 364.653 46.9284 362.962 46.2231C361.582 45.6646 360.121 45.1845 358.589 44.6212C357.438 44.8466 356.208 45.0915 354.971 45.3364C354.59 45.0572 354.151 44.8123 353.856 44.4841C352.446 42.9263 352.015 42.7598 350.389 43.3084C349.533 43.5974 348.792 44.0677 347.893 44.293C347.008 44.5183 345.987 44.5183 345.052 44.6751C342.311 45.1209 339.297 44.4841 336.658 45.4687C336.427 45.5471 336.018 45.4442 335.701 45.4246C334.126 45.2923 332.565 45.3805 331.069 44.7094C329.788 44.1411 328.048 43.9942 326.516 43.6562C324.343 45.258 321.603 44.4596 319.056 44.3371C318.747 44.3126 318.495 43.7199 318.201 43.3966C316.625 43.3623 314.899 43.4848 314.467 42.0642C311.54 40.9326 311.446 40.9571 310.374 42.8235C310.454 43.3623 310.554 43.8962 310.641 44.4253C310.475 45.4344 310.346 46.4386 309.001 47.1244C308.526 47.3693 307.979 47.5408 307.476 47.7416C307.181 47.4183 306.749 47.1048 306.62 46.757C306.469 46.3749 306.584 45.9634 306.584 45.5617C306.684 44.2979 306.778 43.0194 306.864 41.7556L306.814 41.687C304.857 41.6527 302.901 41.6086 300.944 41.5743L300.88 41.6184C301.074 41.976 301.096 42.3483 300.93 42.7157C301.491 43.1516 302.182 43.5436 302.527 44.0481C302.656 44.2391 302.016 44.6653 301.736 44.9886C301.52 44.876 301.175 44.7878 301.11 44.6506C300.894 44.0922 300.75 43.4995 300.57 42.9263C298.6 43.3084 296.909 44.5036 294.543 43.8228C292.637 43.3868 290.766 43.4848 288.875 43.8669C288.529 44.5184 287.738 44.8514 286.774 44.7731C283.883 44.5281 281.272 44.5281 280.085 44.9396C279.035 45.3217 278.229 46.0565 276.783 45.7675C275.877 45.89 274.956 46.0026 274.043 46.1153C270.41 46.5512 270 46.4288 269.015 44.0775C268.403 42.5981 266.749 43.1027 265.332 43.0586C264.756 43.8962 263.807 44.3322 262.34 44.2098C262.03 44.1853 261.663 44.2196 261.405 44.1314C257.297 42.6765 252.874 42.6079 248.392 42.7892C247.011 42.8431 245.99 42.3532 245.4 41.5253C243.364 40.3301 241.537 39.0075 239.948 37.5526C235.941 36.9942 231.467 38.0228 227.885 35.985C227.669 35.8626 227.259 35.8528 226.95 35.8381C222.792 35.7597 218.52 36.1075 214.758 34.4861C214.542 34.3979 214.082 34.4175 213.823 34.5106C211.852 35.1817 209.996 34.1726 208.155 34.3097C206.119 34.4567 204.292 34.0648 202.422 33.7856C200.134 33.4378 198.02 33.4966 195.732 33.9179C193.287 34.3881 190.769 34.5008 188.338 33.379C187.122 32.8304 185.295 32.7618 183.706 32.654C182.181 32.5413 181.569 31.8703 180.828 31.1893C180.447 30.8415 179.958 30.5525 179.534 30.239C178.843 30.2145 178.167 30.1949 177.477 30.1851C177.347 30.7779 177.261 31.3706 177.067 31.9535C177.002 32.1201 176.671 32.3209 176.426 32.3699C176.261 32.4042 175.851 32.1886 175.786 32.0466C175.175 30.6456 173.65 30.1655 171.564 30.1998C171.254 30.5231 170.938 30.8513 170.629 31.16C169.348 30.1998 170.895 30.3762 171.564 30.1998C170.988 28.6764 168.866 28.9703 167.291 28.6568C166.176 28.1963 165.076 27.7505 163.975 27.2901C163.091 27.3685 162.184 27.4468 161.3 27.535C159.775 27.6918 158.142 27.7946 157.142 26.9423C156.487 26.3692 156.415 25.5217 156.077 24.8065C152.992 24.7183 150.949 23.4055 149.014 22.078C147.978 21.3628 147.208 20.4664 146.316 19.6483C145.396 19.761 144.41 20.0745 143.569 19.952C142.368 19.7708 141.332 19.0801 140.152 18.9576C138.627 18.8008 136.994 19.5944 135.484 19.0262C133.909 18.4433 132.261 19.1144 130.837 18.8254C129.06 18.4678 127.435 17.7624 125.795 17.1598C123.529 16.332 121.177 15.7147 118.595 15.4159C118.12 15.3719 117.76 14.8918 117.343 14.5979C115.473 14.206 113.595 13.8141 111.74 13.4222C111.15 14.0247 110.164 14.2599 109.294 13.9807C107.863 13.5349 106.582 12.8932 105.288 12.3005C103.281 11.3697 101.166 11.1493 98.9145 11.7763C96.2818 12.516 93.6924 13.3096 91.1101 14.0688C87.4776 12.1682 83.651 10.6692 79.2273 9.87075C77.9972 9.66012 76.8104 9.28784 76.1845 8.46978C73.6239 8.23465 71.0416 7.99951 68.4809 7.75458C67.3156 8.22482 66.0352 8.04358 64.7693 8.09259C63.1941 8.14645 61.5971 8.362 60.1155 8.7196C58.9646 8.98904 58.0798 9.79239 56.9289 9.96384C55.4184 10.1892 53.7568 10.052 52.1456 10.0177C49.2684 9.96384 46.3624 9.94916 43.4996 9.7287C42.5934 9.66013 41.6438 9.25845 40.9172 9.73853C38.5363 11.3844 35.393 10.4782 32.6526 10.8554C31.4225 11.0219 30.171 11.1444 28.9194 11.2914C26.9773 13.2165 23.1506 13.0157 20.6834 14.3579C20.3885 14.9065 19.9785 15.4111 19.0074 15.5237C16.9502 15.7491 14.9001 15.8617 12.879 15.3915C11.0088 15.4943 9.13144 15.5923 7.2612 15.6952C4.00998 14.0835 -0.133207 14.3726 -3.75125 13.4908C-6.92337 12.7168 -10.0307 13.3096 -12.7713 14.5881C-13.3826 15.0339 -13.8574 15.705 -14.6127 15.8764C-16.5835 16.3124 -17.7489 17.2088 -18.871 18.2718C-20.3959 19.6924 -21.5683 20.1088 -23.5895 19.178C-25.7619 18.1935 -27.2365 19.2564 -28.9987 19.2319C-31.6601 19.9471 -35.0625 18.7715 -37.2996 20.5644C-40.1552 20.486 -42.9532 21.6176 -45.8087 20.7995C-47.1035 20.4321 -48.4055 20.1186 -49.3262 20.9024C-52.2178 23.3174 -56.4545 24.3363 -60.4178 25.6246C-61.173 25.1102 -62.0435 24.7723 -62.9641 24.5861L-62.9641 284.544C-61.5327 283.76 -59.9934 282.932 -58.4613 282.104L-58.4973 282.104ZM1436.7 295.879L1437.26 296.138L1436.6 296.271L1436.71 295.879L1436.7 295.879ZM1398.72 22.2249C1399.28 22.1122 1400 21.9113 1400.41 22.0583C1400.81 22.2053 1401.1 22.7196 1401.09 23.0674C1401.07 23.3564 1400.45 23.8953 1400.25 23.8708C1399.71 23.7924 1399.2 23.4887 1398.76 23.234C1398.56 23.1115 1398.53 22.8666 1398.42 22.6853C1398.53 22.5286 1398.55 22.2592 1398.72 22.2249ZM1386.37 284.093L1386.6 284.563L1385.94 284.494L1386.37 284.093ZM1260.41 23.4446L1260.99 23.7042L1260.33 23.8365L1260.41 23.4446ZM1243.79 32.3306C1243.9 32.218 1244.2 32.1837 1244.41 32.12C1244.65 32.4678 1245.03 32.7911 1245.07 33.1487C1245.15 33.7218 1245.15 34.344 1244.23 34.6918C1244.13 34.726 1243.75 34.5889 1243.65 34.4664C1242.98 33.7414 1243.01 33.0115 1243.78 32.3306L1243.79 32.3306ZM1217.54 20.9512L1217.46 21.3529L1216.89 21.0835L1217.54 20.9512ZM1187.92 19.9519C1188.02 19.9275 1188.22 20.1871 1188.37 20.3193C1188.17 20.4075 1187.87 20.623 1187.79 20.5887C1187.1 20.3291 1187.15 20.0744 1187.92 19.9519ZM813.892 47.8542C814.086 48.011 814.482 48.1775 814.453 48.3C814.338 48.6478 814.057 48.9613 813.827 49.3287C813.518 49.0838 812.971 48.8242 813.022 48.6135C813.072 48.3441 813.583 48.109 813.892 47.8542ZM783.264 42.456C783.279 42.7597 782.753 43.0585 782.459 43.372C782.264 43.2398 781.948 43.1271 781.897 42.9802C781.746 42.407 781.703 41.8388 781.617 41.2559C782.523 41.4469 783.243 41.8143 783.257 42.4511L783.264 42.456ZM708.615 28.0248L708.845 28.451L708.22 28.3971L708.615 28.0297L708.615 28.0248ZM679.433 18.4334C679.742 18.6931 680.289 18.938 680.239 19.1486C680.188 19.418 679.678 19.6532 679.368 19.8981C679.174 19.7511 678.779 19.5748 678.807 19.4621C678.922 19.1241 679.203 18.8008 679.433 18.4334ZM671.859 19.3935L671.78 19.7952L671.204 19.5356L671.859 19.3886L671.859 19.3935ZM641.26 9.27799C641.785 9.35636 642.281 9.53761 642.857 9.69438C642.461 9.88542 642.066 10.243 641.756 10.2087C641.332 10.1744 640.987 9.84132 640.591 9.64048C640.821 9.51801 641.087 9.25837 641.267 9.28288L641.26 9.27799ZM542.896 28.4706L543.471 28.74L542.795 28.887L542.896 28.4706ZM524.474 27.6623C524.884 27.8191 525.381 28.358 525.244 28.5588C524.913 29.0535 524.244 29.465 523.323 30.239C522.877 29.3671 522.439 28.8723 522.439 28.3922C522.453 27.7407 523.604 27.3537 524.474 27.6623ZM440.589 281.418L441.151 281.678L440.496 281.81L440.597 281.418L440.589 281.418ZM369.278 49.9558C368.983 50.2448 368.702 50.5583 368.408 50.8522C367.228 49.9362 368.739 50.1468 369.278 49.9558ZM164.752 30.5427C164.946 30.6897 165.342 30.866 165.313 30.9787C165.198 31.3265 164.918 31.6498 164.687 32.0172C164.378 31.7576 163.831 31.5029 163.882 31.2873C163.932 31.0179 164.443 30.7828 164.752 30.5378L164.752 30.5427ZM100.698 13.1185C100.799 13.1185 100.979 13.3536 101.123 13.4859C100.943 13.5741 100.648 13.7896 100.562 13.7553C99.8712 13.4957 99.9359 13.2508 100.691 13.1185L100.698 13.1185ZM373.349 48.8144C373.349 48.8144 373.364 48.8046 373.364 48.7899L373.328 48.8144L373.342 48.8144L373.349 48.8144ZM377.478 46.3994L377.478 46.3553L377.399 46.3994L377.478 46.3994Z" fill="#F0F0F0"/>
</g>
<defs>
<clipPath id="clip0_117_165">
<rect width="1503" height="333" fill="white" transform="translate(1440 333) rotate(180)"/>
</clipPath>
</defs>
</svg>
