<svg width="1440" height="351" viewBox="0 0 1440 351" fill="none" xmlns="http://www.w3.org/2000/svg">
<g clip-path="url(#clip0_117_206)">
<path d="M1512.27 -10.3514C1511.87 -10.0468 1511.54 -9.51496 1511.07 -9.46849C1508.07 -9.14836 1505.05 -8.93667 1500.57 -8.57007C1500.17 -8.58039 1499.25 -9.64404 1497.92 -10.243C1496.59 -10.8213 1494.5 -10.749 1494.07 -12.1173C1489.72 -12.4374 1485.18 -11.9056 1481.07 -13.4494C1480.34 -13.7334 1479.03 -13.4856 1478.04 -13.3307C1476.36 -13.057 1475.49 -13.6611 1474.71 -14.4253C1474.14 -14.9675 1473.67 -15.5458 1473.03 -16.2532C1472.08 -15.9124 1471.27 -15.6284 1470.46 -15.3341C1467.49 -14.2704 1464.65 -14.0587 1462.12 -15.9227C1460.77 -16.9141 1459.22 -16.8056 1457.56 -16.1809C1455.76 -15.5096 1453.93 -15.9434 1453.11 -16.945C1451.5 -18.8452 1449.17 -19.2686 1446.19 -19.1395C1444.83 -19.0672 1443.45 -19.1653 1442.51 -19.9863C1441.92 -20.1515 1441.34 -20.327 1440.75 -20.5078C1439.75 -20.5439 1438.71 -20.4613 1437.76 -20.6265C1431.87 -21.673 1426.72 -22.1411 1422.32 -22.031C1421.94 -21.4423 1421.72 -20.7814 1421.18 -20.2599C1420.63 -19.7075 1418.93 -19.7901 1418.59 -20.3684C1418.24 -20.957 1418.17 -21.6179 1417.98 -22.253C1417.31 -22.3717 1416.64 -22.5008 1415.96 -22.6196C1414.98 -22.5266 1413.94 -22.5112 1413.01 -22.315C1412.47 -22.1962 1412.09 -21.7728 1411.65 -21.4991C1410.81 -20.4596 1409.3 -20.0775 1407.12 -20.3529L1407.53 -20.1412L1407.06 -20.3064C1407.32 -19.4596 1407.62 -18.618 1406.78 -17.828C1405.92 -16.9915 1405.1 -16.1396 1404.24 -15.2566C1402.86 -15.964 1402.79 -17.322 1400.95 -17.6163C1400.33 -17.8177 1399.72 -17.7918 1399.13 -17.5337C1399.01 -16.6507 1398.93 -15.7523 1398.73 -14.8694C1398.69 -14.6938 1398.31 -14.5389 1398.09 -14.3737C1397.71 -14.6112 1397.05 -14.8332 1397.04 -15.0811C1396.97 -15.964 1397.1 -16.8624 1397.16 -17.7609C1396.42 -18.0655 1395.72 -18.4424 1394.91 -18.6335C1393.88 -18.871 1393.22 -18.4321 1392.89 -17.8332C1392.69 -17.4666 1392.65 -17.069 1392.53 -16.6869C1392.55 -15.7885 1392.77 -14.8797 1392.55 -14.0329C1391.87 -11.6371 1389.32 -10.9659 1385.81 -12.169C1385.19 -12.3806 1384.58 -12.5923 1383.98 -12.7937C1380.3 -11.8953 1376.64 -11.002 1372.98 -10.1036C1371.08 -10.4599 1370.14 -9.2878 1368.76 -9.00897C1366.87 -8.60623 1365 -8.31192 1363.43 -7.46513C1362.98 -7.17082 1362.56 -6.70095 1362.04 -6.62866C1361.06 -6.49958 1359.97 -6.7371 1358.99 -6.61834C1357.67 -6.45311 1356.43 -6.11233 1355.15 -5.83867C1353.63 -3.62359 1350.85 -4.08313 1348.11 -4.46006C1344.41 -4.54267 1341.6 -2.1004 1337.57 -2.91621C1337.13 -2.99882 1336.08 -2.18302 1335.61 -1.67701C1334.89 -0.876686 1333.99 -0.133163 1332.57 -0.236431C1330.22 -0.437802 1328.03 -0.282903 1325.77 0.130164C1325.1 0.248923 1324.11 -0.375841 1323.27 -0.659826C1322.34 -0.752768 1321.1 -0.634009 1320.52 -0.979952C1318.78 -2.00746 1316.58 -2.3121 1314.58 -2.91621C1314.08 -3.07112 1313.78 -3.51517 1313.41 -3.8353C1308.4 -5.72509 1302.92 -5.94711 1297.46 -5.35849C1295.74 -5.16745 1294.46 -4.9351 1292.71 -5.43078C1289.91 -6.24659 1286.74 -6.52541 1283.97 -7.38769C1280.12 -8.60108 1276.06 -8.79213 1271.96 -8.96768C1270.18 -9.03997 1268.57 -8.75599 1267.21 -7.95567C1265.95 -7.20181 1264.57 -6.63384 1262.86 -6.25692C1260.65 -5.78705 1258.62 -4.92477 1256.45 -4.32066C1254.24 -3.71655 1251.92 -3.28282 1249.69 -2.67871C1248.45 -2.34826 1247.08 -1.55827 1245.89 -2.13656C1243.9 -3.10211 1241.07 -2.01781 1239.39 -3.57714C1238.25 -4.65112 1236.46 -4.76988 1234.9 -3.95407C1230.77 -1.76996 1225.75 -0.995464 1220.82 -0.071221C1219.83 0.119823 1218.87 -0.128018 1218.06 -0.639192C1217.29 -1.10906 1216.24 -1.47566 1215.31 -1.02645C1212.35 0.424463 1208.99 0.398645 1205.53 0.367661C1202.41 0.33152 1199.56 0.791061 1197.33 2.45366C1196.16 3.35209 1194.41 3.58444 1192.7 2.85641C1191.55 2.37105 1190.4 1.87536 1189.26 1.35903C1187.43 0.522565 1185.67 0.212758 1183.7 1.28674C1182.92 1.71013 1181.81 1.66366 1180.82 1.31255C1178.55 0.486416 1176.31 0.238574 1174.04 1.32288C1172.8 1.9115 1171.38 1.12151 1170.07 1.41582C1169.93 2.24196 1170.27 3.18685 1168.59 3.65672C1167.85 3.24365 1167.11 2.78411 1166.3 2.37104C1165.5 1.93215 1164.73 1.68948 1163.56 2.04059C1160.28 3.02162 1156.82 2.57241 1153.42 2.29875C1148.57 3.79613 1143.92 6.15579 1138.1 3.86841C1137.78 3.73933 1136.96 4.15239 1136.35 4.29181C1133.8 4.90625 1130.91 3.74966 1128.41 4.94239C1128.06 5.10762 1126.92 4.96821 1126.59 4.72036C1123.79 2.63436 1118.61 3.19717 1116.21 0.641304C1115.79 0.192093 1114.45 -0.0402566 1113.5 -0.076401C1110.8 -0.205487 1108.07 -0.26745 1105.43 -0.515291C1102.46 -0.799277 1100.09 -0.468821 1097.72 0.59483C1097.31 0.770383 1096.46 0.60516 1095.84 0.522541C1095.54 0.486401 1095.18 0.321179 1095.06 0.145619C1093.65 -1.79064 1091.11 -2.08495 1088.17 -2.03848C1086.61 -2.01267 1085.79 -2.75619 1085.53 -3.73723C1082.42 -5.658 1079.29 -7.55812 1076.23 -9.51504C1075.8 -9.7732 1075.71 -10.2327 1075.47 -10.6252C1074.18 -10.4031 1072.91 -10.0727 1071.58 -9.99007C1069.96 -9.89713 1068.18 -9.77837 1066.95 -10.8059C1065.59 -10.8782 1064.16 -11.1725 1062.86 -10.9969C1060.24 -10.6303 1057.49 -12.1277 1054.92 -10.7388C1054.59 -10.5632 1053.65 -10.7388 1053.05 -10.8678C1051.42 -11.2086 1049.56 -11.3893 1048.28 -12.0348C1045.11 -13.6612 1041.86 -14.477 1037.8 -13.7903C1037.21 -13.6819 1036.22 -14.4254 1035.48 -14.8178C1034.96 -15.1018 1034.52 -15.4426 1033.96 -15.7989C1032.01 -16.0209 1029.96 -16.1758 1027.97 -16.5062C1023.68 -17.2136 1019.9 -16.8935 1016.63 -14.7713C1015.44 -13.9917 1013.85 -13.4857 1012.38 -12.8351C1011.66 -13.2223 1010.78 -13.5786 1010.1 -14.064C1007.96 -15.644 1005.26 -15.5975 1002.52 -15.1844C1000.51 -14.8901 998.591 -14.3841 996.625 -13.9814C994.999 -13.6612 993.29 -13.0003 991.717 -13.1088C987.967 -13.3669 985.086 -12.2929 982.114 -11.1518C980.073 -10.3618 977.948 -9.62865 975.808 -8.95741C972.874 -8.04866 969.35 -8.96774 968.171 -10.9143C967.672 -11.7405 967.362 -12.6027 966.999 -13.3772C964.821 -13.6251 963.785 -12.5976 962.401 -11.9986C959.362 -10.6768 956.08 -10.4548 952.639 -11.3274C951.997 -11.4926 951.377 -11.7043 950.84 -11.978C949.116 -12.8248 947.452 -12.4375 946.212 -11.6475C943.898 -10.1863 941.615 -9.90231 938.961 -11.188C938.167 -11.5649 937.426 -12.0038 936.193 -11.8592C932.927 -11.4823 930.114 -11.8334 928.352 -14.0072C927.951 -14.5029 926.794 -14.9056 925.902 -15.0347C924.102 -15.2825 922.968 -15.9434 921.736 -16.7902C919.354 -18.4787 918.129 -18.3599 916.73 -16.0932C915.384 -13.9091 912.707 -12.5408 910.476 -10.8937C910.272 -10.7388 909.856 -10.5632 909.577 -10.5994C906.159 -10.966 904.45 -8.4669 901.145 -8.5237C899.384 -8.55984 897.932 -7.87312 896.639 -7.08312C895.656 -6.46868 894.62 -5.88006 893.463 -5.42052C892.994 -5.22948 891.958 -5.26562 891.527 -5.49281C889.123 -6.73202 886.794 -8.03835 884.495 -9.37566C882.907 -10.2947 881.176 -11.0021 879.021 -11.0021C877.826 -11.0124 877.221 -11.5339 876.374 -11.8644C873.493 -12.959 873.334 -12.9384 870.257 -11.25C870.582 -9.93847 870.846 -8.63213 868.82 -7.69757C866.574 -8.06416 864.276 -8.34815 862.083 -8.82834C861.236 -9.01939 860.646 -9.65448 859.943 -10.0779C855.466 -10.1244 851.58 -11.7405 847.126 -12.0245C843.519 -12.2465 841.493 -15.2206 837.311 -15.0915C836.789 -15.0812 836.033 -15.5149 835.754 -15.8712C834.77 -17.1672 833.16 -17.8074 831.073 -18.1689C829.485 -18.4425 827.965 -18.9227 825.977 -19.4287C822.642 -22.4028 819.065 -25.599 815.489 -28.7848C813.432 -28.9242 811.345 -29.3062 809.356 -29.141C806.816 -28.9293 804.464 -29.1978 802.377 -29.9052C800.199 -30.6384 798.385 -29.8949 796.449 -29.8123C794.286 -30.9895 792.214 -32.1461 790.127 -33.3027C789.901 -34.7175 786.861 -34.9188 786.914 -36.4627C785.651 -36.535 785.084 -37.0513 784.925 -37.8051C782.906 -37.9239 780.865 -38.1924 778.861 -38.0995C776.562 -37.991 774.921 -38.5951 773.56 -39.633C772.244 -40.6243 771.11 -41.719 769.81 -42.7362C769.394 -43.0563 768.721 -43.4435 768.169 -43.4332C765.87 -43.4074 763.503 -42.9633 761.28 -43.1957C757.704 -43.5726 753.976 -43.2318 750.482 -44.2077C749.31 -44.5382 747.927 -44.5846 746.611 -44.7292C744.403 -44.9667 744.418 -44.9771 741.809 -47.4555C740.962 -48.2558 739.669 -48.4675 738.286 -48.5759C737.923 -48.2455 737.666 -47.7498 737.167 -47.6104C735.095 -46.9856 733 -46.397 730.845 -45.9374C729.968 -45.7619 728.894 -45.9736 728.32 -46.588C727.526 -47.4606 727.632 -48.6998 725.832 -49.1594C724.69 -48.7102 723.344 -48.3952 722.429 -47.7808C719.684 -45.9271 716.554 -45.9994 713.189 -46.7997C710.323 -46.7533 709.628 -48.0389 709.234 -49.5105C707.888 -49.6396 706.452 -49.5828 705.416 -50.3263C703.949 -51.39 701.892 -52.0715 699.972 -51.8598C698.051 -51.6585 696.773 -52.5104 695.208 -52.4743C693.287 -52.4175 692.1 -53.2539 690.557 -53.6412C689.31 -53.9613 687.692 -54.3021 686.565 -54.0439C682.731 -53.1455 678.414 -53.4553 674.799 -51.9321C673.143 -51.2506 671.586 -51.7101 670.172 -52.593C668.236 -53.7961 667.374 -55.6859 664.576 -56.3313C662.572 -55.9647 660.606 -55.5775 658.618 -55.2573C656.319 -54.8804 654.988 -56.4036 652.931 -56.543C652.606 -56.5533 652.258 -56.6359 651.933 -56.6618C648.72 -56.9354 645.801 -56.8373 643.85 -54.7255C643.502 -54.3383 642.073 -54.3692 641.135 -54.2195C637.529 -54.1937 633.899 -54.3951 630.406 -53.4398C629.264 -53.1197 627.835 -53.2385 626.534 -53.2178C624.546 -53.1713 622.542 -53.1817 620.561 -53.1713C619.298 -52.0406 617.695 -51.2712 615.502 -51.2144C612.757 -51.1318 610.164 -50.9769 608.092 -49.526C607.57 -49.1594 606.171 -49.0871 605.294 -49.2214C602.753 -49.6086 600.598 -49.4124 598.768 -48.1112C597.075 -46.9082 595.109 -46.3196 592.432 -46.5416C591.275 -46.65 589.808 -46.1027 588.787 -45.5967C583.275 -42.824 582.572 -42.2457 578.836 -38.2699C578.148 -37.5264 577.596 -36.7002 576.764 -36.0187C576.439 -35.7605 575.403 -35.6159 574.919 -35.7605C573.694 -36.1168 572.606 -36.6589 571.449 -37.1288C570.133 -37.3043 568.802 -37.4851 567.479 -37.6709C566.458 -37.578 565.46 -37.4128 564.439 -37.3973C560.711 -37.3611 560.205 -37.7845 561.294 -39.9944C561.588 -40.5831 561.694 -41.2543 561.604 -41.8687C561.52 -42.4006 560.794 -42.6329 560.121 -42.4367C559.532 -42.2612 558.965 -41.9978 558.534 -41.6932C555.29 -39.3594 555.305 -39.3439 551.955 -40.5263C551.66 -40.6347 551.365 -40.7741 551.108 -40.9032C549.573 -41.6932 548.068 -41.75 546.443 -40.9961C545.634 -40.6192 544.666 -40.3714 543.834 -40.0874C542.125 -40.4746 540.515 -40.8309 538.911 -41.1975C536.772 -40.8671 534.647 -40.96 532.537 -41.3886C532.212 -41.3421 531.811 -41.1769 531.554 -41.2492C528.756 -41.9823 526.012 -42.6742 523.781 -44.1974C520.567 -46.3919 516.575 -47.3109 511.879 -46.2008C510.964 -45.9788 509.754 -46.2834 508.839 -46.0614C502.072 -44.4091 494.919 -44.3059 487.833 -43.8102C485.021 -43.6088 482.48 -43.9186 479.924 -44.4608C477.693 -44.9306 475.417 -45.4418 473.391 -46.206C471.977 -46.7481 470.941 -46.4642 469.663 -46.2163C467.092 -45.731 464.967 -46.1698 463.569 -47.7498C463.395 -47.9409 463.19 -48.1371 463.1 -48.3488C462.427 -49.8926 460.816 -50.378 458.472 -50.2231C453.981 -49.9288 449.663 -50.1508 445.67 -51.8134C444.635 -52.2368 442.994 -51.9528 441.716 -52.1903C440.438 -52.4278 439.266 -52.908 438.033 -53.285C436.634 -53.1765 435.946 -53.5586 436.113 -54.4984C434.283 -55.3813 432.226 -56.0577 430.464 -56.951C428.324 -58.0353 426.578 -59.45 424.642 -60.715C424.158 -61.0352 423.606 -61.2933 423.084 -61.5877C422.132 -62.1195 420.544 -62.0369 419.402 -61.3295C418.676 -60.8699 417.988 -60.3743 417.383 -59.8321C416.294 -58.8511 414.948 -59.419 413.67 -59.5017C413.05 -59.419 412.392 -59.3829 411.787 -59.2538C408.99 -58.6394 406.222 -58.7943 403.477 -59.4449C401.315 -58.6652 399.001 -58.3347 396.536 -58.5464C394.169 -58.7478 391.666 -58.7685 389.473 -59.3003C387.069 -59.8889 384.74 -58.5929 382.464 -59.512C380.649 -60.2555 379.22 -59.7237 378.078 -58.7323C377.556 -58.2831 377.042 -58.1798 376.331 -58.4483C373.95 -59.3571 371.704 -58.4122 369.095 -58.2108C368.195 -58.6704 367.144 -59.2228 366.04 -59.7443C362.774 -61.2675 358.592 -61.3863 355.779 -59.4965C353.45 -57.9268 350.562 -57.5293 347.749 -56.8167C344.709 -56.0629 341.511 -56.0267 338.925 -57.1936C335.106 -58.9027 330.826 -59.481 326.539 -60.1781C324.883 -60.4517 322.841 -60.6015 321.768 -61.3088C320.142 -62.3828 318.592 -62.9508 316.429 -62.5222C313.994 -62.0524 311.832 -62.0988 309.745 -63.2296C309.125 -63.5704 307.62 -63.6995 306.932 -63.4516C304.701 -62.6513 302.372 -62.4035 299.968 -62.6255C295.96 -63.0128 291.953 -61.6961 287.96 -62.6823C285.472 -61.4534 282.728 -61.882 280.104 -62.3157C278.357 -62.5997 276.807 -62.703 275.143 -62.1866C272.898 -61.4896 270.448 -61.882 268.111 -61.7168C265.487 -61.5257 263.499 -59.8631 260.542 -59.8786C258.848 -59.8889 257.034 -59.3468 255.499 -59.6204C252.391 -60.1626 249.449 -59.5946 246.463 -59.5017C246.236 -59.5017 245.994 -59.8063 245.752 -59.9716C243.884 -59.9251 242.145 -59.9974 241.449 -61.4225C239.861 -61.7891 238.273 -62.1557 236.685 -62.5326C234.75 -61.7684 232.882 -63.24 230.878 -62.641C230.462 -62.5119 229.6 -62.8062 229.101 -63.0438C226.977 -64.0351 225.056 -64.6031 222.931 -62.925C221.895 -62.0989 220.186 -61.629 218.787 -61.0042C218.704 -60.7822 218.719 -60.4363 218.508 -60.3691C217.366 -60.0129 216.035 -59.8373 215.037 -59.3674C213.963 -58.8459 213.26 -58.0095 212.239 -57.4209C211.838 -57.1988 211.029 -57.266 210.409 -57.2092C208.889 -56.7238 207.143 -56.4088 205.88 -55.7221C203.309 -54.3177 201.01 -52.7119 198.712 -51.2765C197.033 -51.1577 195.657 -51.1112 194.326 -50.9563C191.339 -50.5897 188.057 -50.6723 186.001 -48.7722C183.165 -48.0545 180.314 -47.3471 177.486 -46.6243C175.203 -47.1768 173.517 -46.4849 171.959 -45.54C169.728 -44.182 167.505 -42.8137 165.237 -41.4248C164.647 -41.4816 163.997 -41.6261 163.339 -41.6003C160.435 -41.528 158.552 -40.6812 157.917 -39.1942C157.743 -38.7553 157.637 -38.3113 157.607 -37.8724C157.501 -36.313 156.171 -35.2287 153.963 -35.079C150.265 -34.8053 147.656 -33.499 145.274 -31.8571C144.586 -31.3717 143.981 -30.8192 143.218 -30.3803C141.872 -29.5903 140.261 -29.2702 138.469 -29.5336C137.486 -29.673 136.518 -29.9002 135.618 -30.0757C134.666 -29.4613 133.72 -28.8623 132.647 -28.1756C131.316 -28.6971 130.174 -29.1566 128.76 -29.7349C127.134 -28.8985 125.342 -27.9071 123.437 -27.0448C122.673 -26.6885 121.66 -26.5233 120.707 -26.42C118.393 -26.1464 116.042 -25.9502 113.985 -25.7591C113.221 -24.9691 112.586 -24.4373 112.155 -23.8487C110.673 -21.7472 107.989 -20.8901 104.677 -21.0037C101.841 -21.1121 99.3534 -20.5906 96.7673 -20.0123C94.1964 -19.4237 91.2777 -19.2585 89.3041 -17.9728C87.9204 -17.0899 87.1264 -15.8042 86.0753 -14.7044C85.6443 -13.2277 85.3872 -11.7303 84.6916 -10.3155C84.1018 -9.08665 83.0885 -8.07463 80.6159 -7.91973C78.045 -7.7545 75.5346 -7.21235 73.0166 -6.83543C72.1168 -5.54975 70.6499 -5.38452 68.888 -6.00929C66.9523 -6.69602 65.1753 -7.18654 63.8294 -5.47746C63.5723 -5.14701 62.7935 -4.95596 62.2037 -4.78041C61.9239 -4.69779 61.5156 -4.73394 61.1829 -4.79074C58.5893 -5.22962 56.5174 -4.74426 54.7934 -3.43277C52.7366 -1.87343 50.5287 -0.505149 46.8992 -1.02665C46.332 -1.10926 45.6213 -0.752991 44.9785 -0.603253C40.1392 0.527522 36.2072 -0.613581 33.1977 -2.98356C31.6249 -4.21245 29.7572 -4.40866 27.8063 -4.4448C26.1655 -4.47062 24.5095 -3.89232 22.8989 -4.62035C20.3053 -4.79591 17.7193 -4.97662 15.1106 -5.15218C13.2958 -6.54629 10.7022 -5.64786 8.57744 -6.13322C7.97251 -6.21583 7.17855 -6.17969 6.80047 -6.41721C2.48285 -9.0815 0.978118 -13.2328 -4.33762 -15.3911C-4.68545 -16.429 -5.04841 -17.4771 -5.38867 -18.5305C-7.04464 -18.4117 -8.70818 -18.3084 -10.47 -18.1897C-10.8178 -18.9332 -11.0749 -19.5321 -11.3698 -20.1259C-12.0579 -21.5304 -13.7215 -22.2945 -15.7555 -22.1293C-16.7385 -22.0467 -17.7215 -21.9073 -18.7121 -21.773C-20.3 -21.5614 -21.714 -20.8436 -23.5136 -21.1483C-24.7235 -21.36 -25.9862 -21.4529 -27.4153 -21.6336C-27.4834 -23.1207 -27.5741 -24.6284 -27.6573 -26.1413C-28.9881 -26.1877 -30.319 -26.2342 -31.6498 -26.2962C-32.7538 -25.6714 -34.1224 -25.4597 -35.4684 -25.6611C-37.4722 -25.9554 -39.113 -26.5595 -40.3909 -27.7935C-41.9259 -29.2909 -42.2737 -29.198 -44.4817 -28.346C-45.6386 -27.8968 -46.7426 -27.3805 -47.9902 -27.05C-48.4893 -26.9209 -49.442 -27.0603 -49.8579 -27.3237C-50.7577 -27.902 -51.2719 -28.8314 -52.2927 -29.2599C-53.6916 -29.8486 -55.3854 -30.1584 -57.0111 -30.4733C-57.5782 -30.5817 -58.4932 -30.4733 -58.909 -30.2255C-60.3079 -29.4097 -61.7219 -28.6093 -63.0527 -27.7471L-63.0528 272.384C-61.5859 272.172 -60.066 272.064 -58.4554 272.146C-57.2153 272.203 -55.9299 271.981 -54.7276 271.898C-54.0546 272.513 -53.4648 273.045 -52.8826 273.571C-52.2928 273.112 -51.7257 272.275 -51.1056 272.26C-49.064 272.213 -47.3022 272.038 -45.873 270.984C-44.1112 269.699 -41.8654 269.781 -39.5667 270.267C-39.5289 269.585 -39.1509 269.038 -37.9637 269.286C-37.079 269.477 -36.3077 269.9 -35.4911 270.215C-34.9013 270.06 -34.1981 269.699 -33.7293 269.792C-31.7633 270.241 -30.0166 270.654 -28.043 269.59C-26.44 268.728 -24.2925 268.625 -22.1904 268.836C-20.8444 268.976 -19.4985 269.095 -18.3416 268.398C-17.0788 267.618 -15.3548 267.386 -13.903 266.874C-11.6043 266.074 -10.1752 266.745 -8.56456 267.556C-8.33772 267.675 -7.82353 267.747 -7.59669 267.664C-4.38305 266.451 -0.345196 266.554 2.59623 264.917C3.88925 264.2 5.18983 263.41 6.70969 262.95C8.48664 262.418 10.7324 262.444 12.343 261.783C13.9461 261.112 15.4508 261.04 17.1295 261.169C18.4603 261.277 19.9272 261.83 21.0539 261.608C26.1503 260.534 31.2317 261.783 36.2903 261.525C38.5739 261.406 40.0408 262.47 41.417 263.446C42.0597 263.885 42.3471 264.52 42.8991 265.181C45.228 264.613 47.4435 264.06 49.6515 263.518C50.9974 263.188 51.6402 263.565 52.0712 265.026C52.1392 265.238 52.0863 265.465 52.0863 265.687C54.0372 265.429 55.9729 265.119 57.9389 264.897C60.0788 264.649 61.0316 265.109 62.1885 266.843C62.3095 267.019 62.4985 267.184 62.7254 267.432C63.8823 267.102 65.077 266.771 66.249 266.441C66.249 266.053 66.3549 265.677 66.5439 265.31C66.7859 264.365 67.5647 263.751 69.1148 263.802C71.0657 263.885 73.0166 264.06 74.9901 264.189L75.0279 264.179C74.975 263.658 74.9069 263.141 74.8389 262.62C72.1924 261.417 72.215 261.04 74.9977 259.94C75.4136 259.692 75.8068 259.434 76.2378 259.207C76.2907 259.207 76.7368 259.408 76.7746 259.537C76.8956 260.136 76.9334 260.74 76.9788 261.355C79.4816 261.474 81.4174 260.869 82.1433 258.985C83.6102 260.214 83.822 261.566 86.0299 261.51C88.8806 261.427 91.2322 262.279 93.5461 263.219C94.5139 263.183 95.5347 263.017 96.4648 263.136C98.6425 263.42 100.314 262.924 101.803 261.98C102.128 261.071 103.081 260.446 104.253 260.059C105.047 259.785 106.393 259.517 106.968 259.764C109.214 260.756 110.612 260.203 111.89 259C112.427 258.505 112.911 257.999 113.478 257.431C114.65 258.623 115.535 259.764 117.524 260.307C117.924 260.415 118.008 261.04 118.234 261.427C119.308 262.253 120.79 263.017 119.27 264.246C118.749 264.67 119.134 264.954 119.55 265.413C120.45 266.379 121.569 267.158 122.847 267.928C124.541 268.955 126.355 269.487 128.412 268.873C131.384 267.99 134.182 267.706 137.342 268.485C138.484 268.759 140.11 268.485 141.35 268.181C143.702 267.592 146.136 268.016 148.48 267.757C150.431 267.546 151.603 268.501 153.078 269.017C155.119 268.64 156.533 269.043 157.206 270.396C159.225 270.303 161.297 270.339 163.271 270.065C165.932 269.688 168.541 269.12 171.112 268.542C172.526 268.222 173.736 268.351 175.052 268.733C175.967 269.007 177.002 269.239 178.008 269.255C181.464 269.291 184.798 269.466 187.974 270.566C189.063 270.943 190.689 270.613 191.967 270.85C194.401 271.31 196.322 269.657 198.855 270.365C200.239 270.752 201.275 269.776 202.417 269.353C204.904 268.444 207.445 268.031 210.296 268.718C211.536 269.022 213.146 269.379 214.25 269.105C216.602 268.527 217.948 268.811 219.309 270.189C220.209 271.098 221.797 271.697 223.075 272.441C225.283 272.286 226.825 272.725 227.861 274.15C228.428 274.94 229.759 275.022 231.264 274.645C234.84 273.762 235.839 274.222 237.26 277.062C237.88 277.568 238.417 278.44 239.143 278.513C242.372 278.869 245.464 279.478 248.988 278.642C253.737 277.521 258.886 277.082 263.846 276.329C266.508 275.926 268.391 276.86 270.274 277.852C271.189 278.125 272.293 278.265 272.966 278.699C274.765 279.829 276.625 280.738 279.272 280.619C282.206 280.48 284.678 281.022 286.576 282.576C288.27 283.955 290.236 283.263 291.915 282.834C294.244 283.469 296.421 284.084 298.584 284.688C301.109 283.955 302.97 285.69 305.374 285.452C307.824 284.802 310.07 283.991 312.958 285.168C315.166 286.067 317.949 286.382 320.505 286.903C321.11 287.032 321.889 287.032 322.456 286.903C325.631 286.149 328.898 285.478 331.885 284.471C333.957 283.79 335.666 282.618 337.616 281.626C340.384 281.92 343.522 281.27 346.032 282.359C348.104 281.146 349.836 279.566 352.18 278.89C355.825 277.841 359.159 275.941 363.583 276.282C364.808 276.375 365.549 275.962 366.138 275.456C367.28 274.465 368.762 274.144 370.562 274.114C372.256 274.067 374.343 274.305 375.537 273.747C377.798 272.699 380.188 273.628 382.449 273.096C384.611 272.601 387.076 272.59 389.481 273.024C391.205 273.344 392.725 272.848 394.214 272.208C395.008 271.867 396.18 271.904 397.186 271.769C397.534 271.005 398.275 270.623 399.515 270.695L399.704 270.613C399.825 269.833 400.483 269.42 401.655 269.353C402.101 269.069 402.608 268.506 402.971 268.553C404.506 268.718 405.715 269.58 407.651 269.084C409.36 268.625 409.496 268.826 409.935 270.195C410.003 270.406 410.003 270.633 410.018 270.845C411.19 270.799 411.818 270.349 412.022 269.632C412.37 269.291 412.732 268.935 413.073 268.594C413.398 268.95 413.746 269.312 414.071 269.668C414.865 269.74 415.659 269.797 416.453 269.859C418.615 268.868 420.702 267.794 422.963 266.911C424.052 266.472 425.557 266.048 426.729 266.193C430.563 266.642 433.98 266.322 437.3 264.897C439.961 263.751 443.084 263.658 446.162 264.164C449.239 264.659 451.379 263.715 453.383 262.418C453.829 262.145 454.283 261.629 454.744 261.629C457.663 261.603 460.597 261.737 463.523 261.721C464.438 261.711 465.406 261.474 466.268 261.236C468.257 260.704 468.151 261.897 468.862 262.465C469.24 262.77 469.86 262.95 470.381 263.198C470.676 262.563 471.16 261.959 472.264 261.938C474.132 261.912 476.045 262.527 477.709 261.314C478.208 260.937 479.554 260.844 480.453 260.911C482.525 261.086 484.287 260.818 486.087 260.085C487.743 259.413 489.648 258.975 491.425 258.422C492.03 257.302 493.361 256.899 495.055 256.961C495.97 256.987 496.885 257.198 497.8 257.327L497.837 257.317C499.735 255.784 500.045 255.784 501.807 257.374L501.845 257.384C502.45 257.147 503.07 257.1 503.743 257.245C504.9 256.444 505.905 255.489 507.266 254.885C508.922 254.152 510.896 253.708 512.136 253.315C513.724 251.297 514.987 249.706 516.25 248.116C517.49 246.536 518.412 244.775 520.083 243.407C521.52 242.24 523.811 241.522 525.732 240.614C526.057 240.247 526.269 239.741 526.753 239.54C528.771 238.739 530.866 238.016 532.802 237.325C534.821 237.691 536.741 238.042 538.677 238.399C539.728 237.846 540.84 237.335 541.823 236.746C543.826 235.543 545.951 234.495 548.681 234.056C549.165 233.865 549.823 233.421 550.148 233.504C553.172 234.294 556.144 235.166 559.131 236.018C562.397 236.313 565.626 236.56 568.825 235.77C568.931 235.745 569.256 236.075 569.467 236.24C569.967 236.065 570.466 236.049 570.972 236.204C571.804 235.884 572.598 235.306 573.445 235.285C577.21 235.13 580.507 236.049 583.464 237.552C583.691 237.671 583.706 237.955 583.827 238.156C587.555 238.063 591.358 237.779 593.982 240.159C594.345 240.479 595.071 240.748 595.691 240.82C599.698 241.244 603.653 241.765 607.456 242.731C609.77 242.436 612.069 242.116 614.398 241.858C615.041 241.786 615.744 241.868 616.417 241.884C617.733 241.729 619.063 241.646 620.319 241.398C621.528 241.161 622.723 240.304 623.91 241.094C624.311 241.367 623.547 242.261 623.706 242.829C623.986 243.877 624.538 244.904 624.969 245.953C626.958 245.576 628.288 244.749 629.082 243.536L629.097 243.526C630.428 243.087 631.721 242.627 633.037 242.183C635.2 242.276 637.34 242.359 639.479 242.457C639.563 241.925 640.047 241.559 640.689 241.724C641.067 241.806 641.332 242.312 641.4 242.653C641.468 243.056 641.264 243.479 641.196 243.903L641.4 244.517L641.317 245.142C641.854 245.989 642.799 246.453 644.198 246.582C645.491 246.701 646.754 246.877 648.032 247.021C649.71 247.243 651.366 247.527 653.06 247.672C654.043 247.755 655.102 247.543 655.941 248.085C658.913 250.042 663.351 250.3 666.565 251.87C669.363 253.238 672.266 253.192 675.321 253.063C677.015 252.99 678.724 252.789 680.349 252.484C682.973 251.978 685.098 252.556 686.966 253.63C688.229 254.364 689.264 255.257 690.384 256.083C691.798 256.155 692.856 256.651 693.529 257.395C694.603 258.562 695.934 259.331 698.104 259.46C700.214 259.579 700.592 260.591 700.403 261.758C701.491 262.088 702.323 261.427 703.2 261.427C704.478 261.438 705.741 261.933 707.034 261.98C711.367 262.119 714.603 263.983 718.316 265.057C719.594 265.444 720.63 265.341 721.824 265.434C726.611 265.811 731.276 266.472 733.363 269.988C734.21 271.413 734.883 271.578 737.303 271.145C739.359 270.768 741.363 270.85 743.397 270.933C743.934 270.969 744.569 271.3 744.932 271.604C746.762 273.231 749.424 273.36 752.206 273.577C757.893 274.015 762.83 275.332 764.97 279.308C765.953 279.189 766.959 279.086 767.957 278.952C771.05 278.564 773.205 279.292 774.679 281.136C775.246 281.853 775.7 282.788 777.288 282.974C779.64 282.865 781.454 281.311 784.078 281.853C784.252 281.239 784.373 280.625 784.615 280.026C784.683 279.86 785.099 279.721 785.394 279.669C785.53 279.659 785.916 279.917 785.916 280.046C785.969 281.094 785.953 282.132 785.969 283.186C786.347 283.635 786.989 283.857 787.609 283.588C788.645 283.129 789.613 282.587 790.475 281.983C791.36 281.384 791.874 280.459 792.91 280.062C793.825 279.721 795.224 279.922 796.381 279.814C796.623 279.804 796.812 279.52 797.023 279.354C798.127 278.141 798.679 277.893 799.579 278.27C800.411 278.611 800.804 279.117 800.668 279.778C800.585 280.181 800.509 280.594 800.441 280.991C800.993 281.193 801.772 281.652 802.044 281.559C803.806 280.909 805.326 279.871 807.194 279.473C810.317 278.786 812.547 277.552 814.498 275.936C815.345 275.239 816.381 274.64 817.402 274.036C819.511 272.797 823.413 272.42 825.916 273.68C828.109 274.79 829.561 274.341 831.406 273.597C832.525 273.138 832.978 272.121 834.619 272.074C837.19 272.002 839.149 271.093 840.714 269.843C842.476 268.449 844.079 267.05 847.413 267.298C848.192 267.355 849.175 266.709 849.916 266.286C851.209 265.542 852.457 264.778 853.561 263.926C854.461 263.255 854.922 262.32 855.912 261.742C857.153 260.999 858.657 260.384 860.177 259.914C861.334 259.548 862.907 259.677 863.943 259.243C865.841 258.453 867.708 258.231 869.795 258.711C870.763 258.933 871.678 259.253 872.661 259.455C876.873 260.327 881.47 260.054 885.599 261.283C886.34 261.505 887.618 261.164 888.518 260.88C889.743 260.503 890.831 259.935 891.905 259.486C895.013 259.863 897.849 260.828 900.972 260.369C903.512 258.846 904.684 256.548 907.845 255.438C908.208 254.519 909.04 254.188 910.439 254.539C910.885 254.493 911.338 254.483 911.784 254.529C915.482 254.08 919.112 254.519 922.756 254.823C923.346 254.741 923.875 254.586 924.359 254.338C924.684 253.501 925.501 253.243 926.741 253.476L926.688 253.321C928.435 251.421 930.507 249.737 934.204 249.572C936.934 249.453 937.297 248.261 937.592 246.928C937.645 246.737 937.993 246.588 938.197 246.422C938.598 246.634 939.044 246.81 939.354 247.073C939.528 247.228 939.46 247.496 939.46 247.708C939.497 249.515 941.532 249.691 943.573 249.877C945.04 249.324 946.545 248.829 947.959 248.214C949.426 247.579 951.067 247.011 952.73 247.212C956.413 247.651 958.363 246.02 960.677 244.77C960.919 243.707 962.076 243.448 963.46 243.557C964.39 243.639 965.305 243.923 966.227 244.109C968.148 244.027 969.471 244.806 970.908 245.441C974.5 246.288 978.265 245.157 981.963 245.947C985.849 246.774 989.978 245.772 993.555 246.278C995.263 245.56 996.557 244.853 998.046 244.424C999.566 244.001 1001.68 244.166 1002.85 243.526C1005.46 242.121 1007.94 242.844 1010.85 243.252C1011.9 242.602 1012.99 241.791 1014.29 241.166C1015.65 240.531 1017.22 240.092 1018.7 239.56C1020.96 238.146 1023.32 237.495 1026.54 238.486C1029.15 239.276 1030.84 238.192 1032 236.731C1033.12 237.485 1034.23 238.228 1035.32 238.982C1037.37 239.039 1039.43 239.111 1041.46 239.173C1042.52 238.192 1043.6 237.273 1045.78 237.898C1048.5 237.955 1051.23 238.027 1053.93 238.099C1053.97 237.66 1054.02 237.237 1054.05 236.788C1054.67 235.244 1056.58 235.548 1058.27 235.548C1058.51 234.831 1059.18 234.418 1060.35 234.382C1061.08 234.371 1061.79 234.371 1062.52 234.371C1062.11 235.951 1060.7 236.808 1058.27 236.943L1058.25 236.953L1058.14 238.275C1059.53 238.321 1060.91 238.383 1062.29 238.43C1063.01 238.486 1063.74 238.559 1064.47 238.621C1065.99 238.099 1067.44 237.536 1069.22 238.28C1070.67 238.869 1072.2 239.375 1073.81 239.968C1075.02 239.731 1076.32 239.473 1077.62 239.214C1078.02 239.509 1078.48 239.767 1078.79 240.113C1080.27 241.755 1080.72 241.93 1082.43 241.352C1083.33 241.047 1084.11 240.552 1085.06 240.314C1085.99 240.077 1087.06 240.077 1088.04 239.912C1090.92 239.442 1094.09 240.113 1096.87 239.075C1097.11 238.992 1097.54 239.101 1097.87 239.122C1099.53 239.261 1101.17 239.168 1102.74 239.875C1104.09 240.474 1105.92 240.629 1107.53 240.985C1109.81 239.297 1112.69 240.139 1115.37 240.268C1115.7 240.294 1115.96 240.918 1116.27 241.259C1117.93 241.295 1119.74 241.166 1120.19 242.664C1123.27 243.856 1123.37 243.83 1124.5 241.863C1124.41 241.295 1124.31 240.732 1124.22 240.175C1124.39 239.111 1124.53 238.053 1125.94 237.33C1126.44 237.072 1127.02 236.891 1127.54 236.679C1127.85 237.02 1128.31 237.35 1128.44 237.717C1128.6 238.12 1128.48 238.554 1128.48 238.977C1128.38 240.309 1128.28 241.657 1128.19 242.989L1128.24 243.061C1130.3 243.097 1132.35 243.144 1134.41 243.18L1134.48 243.133C1134.27 242.757 1134.25 242.364 1134.43 241.977C1133.84 241.517 1133.11 241.104 1132.75 240.572C1132.61 240.371 1133.28 239.922 1133.58 239.581C1133.81 239.7 1134.17 239.793 1134.24 239.937C1134.46 240.526 1134.61 241.151 1134.8 241.755C1136.88 241.352 1138.65 240.092 1141.14 240.81C1143.14 241.269 1145.11 241.166 1147.1 240.763C1147.46 240.077 1148.29 239.726 1149.31 239.808C1152.35 240.066 1155.09 240.066 1156.34 239.633C1157.44 239.23 1158.29 238.455 1159.81 238.76C1160.76 238.631 1161.73 238.512 1162.69 238.393C1166.51 237.934 1166.94 238.063 1167.98 240.541C1168.62 242.101 1170.36 241.569 1171.85 241.615C1172.45 240.733 1173.45 240.273 1174.99 240.402C1175.32 240.428 1175.7 240.392 1175.98 240.485C1180.29 242.018 1184.94 242.09 1189.65 241.899C1191.11 241.843 1192.18 242.359 1192.8 243.232C1194.94 244.491 1196.86 245.886 1198.53 247.419C1202.74 248.008 1207.45 246.923 1211.21 249.071C1211.44 249.2 1211.87 249.211 1212.2 249.226C1216.57 249.309 1221.06 248.942 1225.01 250.651C1225.24 250.744 1225.72 250.724 1226 250.626C1228.07 249.918 1230.02 250.982 1231.95 250.837C1234.09 250.682 1236.01 251.095 1237.98 251.39C1240.38 251.756 1242.61 251.694 1245.01 251.25C1247.58 250.755 1250.23 250.636 1252.79 251.818C1254.06 252.397 1255.98 252.469 1257.66 252.582C1259.26 252.701 1259.9 253.409 1260.68 254.126C1261.08 254.493 1261.6 254.798 1262.04 255.128C1262.77 255.154 1263.48 255.174 1264.2 255.185C1264.34 254.56 1264.43 253.935 1264.63 253.321C1264.7 253.145 1265.05 252.934 1265.31 252.882C1265.48 252.846 1265.91 253.073 1265.98 253.223C1266.62 254.699 1268.23 255.205 1270.42 255.169C1270.74 254.829 1271.08 254.483 1271.4 254.157C1272.75 255.169 1271.12 254.983 1270.42 255.169C1271.02 256.775 1273.25 256.465 1274.91 256.796C1276.08 257.281 1277.24 257.751 1278.4 258.236C1279.33 258.154 1280.28 258.071 1281.21 257.978C1282.81 257.813 1284.53 257.704 1285.58 258.603C1286.27 259.207 1286.34 260.1 1286.7 260.854C1289.94 260.947 1292.09 262.331 1294.12 263.73C1295.21 264.484 1296.02 265.429 1296.96 266.291C1297.93 266.172 1298.96 265.842 1299.85 265.971C1301.11 266.162 1302.2 266.89 1303.44 267.019C1305.04 267.184 1306.76 266.348 1308.35 266.947C1310 267.561 1311.74 266.854 1313.23 267.159C1315.1 267.536 1316.81 268.279 1318.53 268.914C1320.92 269.787 1323.39 270.437 1326.1 270.752C1326.6 270.799 1326.98 271.305 1327.42 271.615C1329.38 272.028 1331.36 272.441 1333.31 272.854C1333.93 272.219 1334.96 271.971 1335.88 272.265C1337.38 272.735 1338.73 273.411 1340.09 274.036C1342.2 275.017 1344.42 275.25 1346.79 274.589C1349.56 273.809 1352.28 272.973 1354.99 272.172C1358.81 274.176 1362.84 275.756 1367.49 276.597C1368.78 276.819 1370.03 277.212 1370.68 278.074C1373.38 278.322 1376.09 278.57 1378.78 278.828C1380.01 278.332 1381.35 278.523 1382.68 278.472C1384.34 278.415 1386.02 278.188 1387.58 277.811C1388.79 277.527 1389.72 276.68 1390.93 276.499C1392.51 276.262 1394.26 276.406 1395.96 276.442C1398.98 276.499 1402.03 276.515 1405.04 276.747C1406 276.819 1407 277.243 1407.76 276.737C1410.26 275.002 1413.57 275.957 1416.45 275.559C1417.74 275.384 1419.06 275.255 1420.37 275.1C1422.41 273.071 1426.44 273.282 1429.03 271.868C1429.34 271.289 1429.77 270.757 1430.79 270.639C1432.95 270.401 1435.11 270.282 1437.23 270.778C1439.2 270.67 1441.17 270.566 1443.14 270.458C1446.56 272.157 1450.91 271.852 1454.72 272.782C1458.05 273.597 1461.32 272.973 1464.2 271.625C1464.84 271.155 1465.34 270.448 1466.13 270.267C1468.21 269.807 1469.43 268.863 1470.61 267.742C1472.21 266.245 1473.45 265.806 1475.57 266.787C1477.85 267.825 1479.4 266.704 1481.26 266.73C1484.05 265.976 1487.63 267.215 1489.98 265.326C1492.98 265.408 1495.93 264.216 1498.93 265.078C1500.29 265.465 1501.66 265.796 1502.63 264.969C1505.67 262.424 1510.12 261.35 1514.29 259.992C1515.08 260.534 1515.99 260.89 1516.96 261.087L1516.96 -12.9228C1515.46 -12.0966 1513.84 -11.224 1512.23 -10.3514L1512.27 -10.3514ZM-59.5291 -24.8711L-60.1189 -25.1447L-59.4308 -25.2841L-59.5366 -24.8711L-59.5291 -24.8711ZM-19.6044 263.575C-20.1942 263.694 -20.9503 263.905 -21.3813 263.751C-21.7972 263.596 -22.1072 263.054 -22.0921 262.687C-22.077 262.382 -21.4191 261.814 -21.215 261.84C-20.6478 261.923 -20.111 262.243 -19.6422 262.511C-19.438 262.64 -19.4002 262.899 -19.2943 263.09C-19.4002 263.255 -19.4304 263.539 -19.6044 263.575ZM-6.6212 -12.448L-6.86317 -12.9437L-6.17507 -12.8714L-6.6212 -12.448ZM125.788 262.289L125.183 262.016L125.872 261.876L125.788 262.289ZM143.263 252.923C143.142 253.042 142.832 253.078 142.605 253.145C142.363 252.778 141.962 252.438 141.917 252.061C141.834 251.457 141.834 250.801 142.802 250.434C142.908 250.398 143.301 250.543 143.407 250.672C144.117 251.436 144.08 252.205 143.271 252.923L143.263 252.923ZM170.855 264.918L170.938 264.494L171.543 264.778L170.855 264.918ZM201.993 265.971C201.887 265.997 201.683 265.723 201.524 265.584C201.729 265.491 202.046 265.263 202.129 265.3C202.855 265.573 202.802 265.842 201.993 265.971ZM595.184 236.56C594.98 236.395 594.564 236.22 594.594 236.091C594.715 235.724 595.01 235.393 595.252 235.006C595.577 235.264 596.152 235.538 596.099 235.76C596.046 236.044 595.509 236.292 595.184 236.56ZM627.381 242.25C627.366 241.93 627.918 241.615 628.228 241.285C628.432 241.424 628.765 241.543 628.818 241.698C628.977 242.302 629.022 242.901 629.113 243.515C628.16 243.314 627.404 242.927 627.389 242.256L627.381 242.25ZM705.854 257.462L705.612 257.012L706.27 257.069L705.854 257.457L705.854 257.462ZM736.531 267.572C736.206 267.298 735.632 267.04 735.685 266.818C735.737 266.534 736.274 266.286 736.599 266.028C736.804 266.183 737.219 266.369 737.189 266.487C737.068 266.844 736.773 267.184 736.531 267.572ZM744.494 266.56L744.577 266.136L745.182 266.41L744.494 266.565L744.494 266.56ZM776.66 277.222C776.108 277.139 775.587 276.948 774.982 276.783C775.398 276.582 775.813 276.205 776.139 276.241C776.585 276.277 776.948 276.628 777.364 276.84C777.122 276.969 776.842 277.243 776.653 277.217L776.66 277.222ZM880.064 256.992L879.459 256.708L880.17 256.553L880.064 256.992ZM899.429 257.844C898.998 257.679 898.476 257.111 898.62 256.899C898.968 256.377 899.671 255.944 900.639 255.128C901.108 256.047 901.569 256.568 901.569 257.075C901.554 257.761 900.344 258.169 899.429 257.844ZM987.611 -9.62864L987.022 -9.90231L987.71 -10.0417L987.604 -9.62864L987.611 -9.62864ZM1062.58 234.345C1062.89 234.041 1063.18 233.71 1063.49 233.4C1064.73 234.366 1063.14 234.144 1062.58 234.345ZM1277.58 254.808C1277.38 254.653 1276.96 254.467 1276.99 254.348C1277.11 253.982 1277.41 253.641 1277.65 253.254C1277.97 253.527 1278.55 253.796 1278.49 254.023C1278.44 254.307 1277.91 254.555 1277.58 254.813L1277.58 254.808ZM1344.92 273.174C1344.81 273.174 1344.62 272.926 1344.47 272.787C1344.66 272.694 1344.97 272.467 1345.06 272.503C1345.78 272.776 1345.72 273.035 1344.92 273.174L1344.92 273.174ZM1058.3 235.548C1058.3 235.548 1058.28 235.559 1058.28 235.574L1058.32 235.548L1058.3 235.548L1058.3 235.548ZM1053.96 238.094L1053.96 238.14L1054.04 238.094L1053.96 238.094Z" fill="#F2F2F2"/>
</g>
<defs>
<clipPath id="clip0_117_206">
<rect width="1580" height="351" fill="white" transform="translate(-63)"/>
</clipPath>
</defs>
</svg>
