<svg width="1440" height="230" viewBox="0 0 1440 230" fill="none" xmlns="http://www.w3.org/2000/svg">
<g clip-path="url(#clip0_117_204)">
<path d="M-58.4973 346.103C-58.1161 345.814 -57.8068 345.309 -57.3607 345.265C-54.5051 344.962 -51.6281 344.761 -47.3698 344.413C-46.9885 344.423 -46.1182 345.432 -44.8522 346C-43.5862 346.549 -41.6008 346.48 -41.1909 347.778C-37.0477 348.082 -32.7318 347.577 -28.8189 349.042C-28.1283 349.311 -26.8767 349.076 -25.9417 348.929C-24.3449 348.67 -23.5104 349.243 -22.7695 349.968C-22.23 350.482 -21.7841 351.031 -21.1727 351.702C-20.2664 351.379 -19.4967 351.109 -18.7271 350.83C-15.9002 349.821 -13.2028 349.62 -10.7931 351.388C-9.51282 352.329 -8.03113 352.226 -6.45581 351.633C-4.7439 350.997 -3.00318 351.408 -2.21912 352.358C-0.694218 354.161 1.52844 354.563 4.35522 354.44C5.65002 354.372 6.9663 354.465 7.85827 355.244C8.41931 355.4 8.97326 355.567 9.5343 355.738C10.4838 355.773 11.4763 355.694 12.3755 355.851C17.9861 356.844 22.8821 357.288 27.0636 357.183C27.4233 356.625 27.639 355.998 28.1497 355.503C28.6748 354.979 30.286 355.057 30.6169 355.606C30.9479 356.165 31.0126 356.792 31.1924 357.394C31.8326 357.507 32.4728 357.629 33.1129 357.742C34.048 357.654 35.0334 357.639 35.9254 357.453C36.436 357.34 36.7958 356.939 37.2202 356.679C38.0113 355.693 39.4476 355.33 41.5288 355.591L41.1331 355.391L41.5791 355.547C41.3345 354.744 41.054 353.945 41.8452 353.196C42.6652 352.402 43.442 351.594 44.2621 350.757C45.5784 351.428 45.6431 352.716 47.3982 352.995C47.988 353.186 48.5635 353.162 49.1245 352.917C49.2396 352.079 49.3187 351.227 49.5057 350.389C49.5417 350.223 49.9014 350.076 50.1172 349.919C50.4768 350.144 51.1027 350.355 51.1171 350.59C51.1818 351.428 51.0522 352.28 51.0019 353.132C51.7068 353.421 52.3686 353.779 53.1383 353.96C54.1238 354.186 54.7495 353.769 55.0587 353.201C55.2529 352.853 55.2889 352.476 55.404 352.113C55.3896 351.261 55.1739 350.399 55.3896 349.596C56.0299 347.323 58.4611 346.686 61.7986 347.827C62.3884 348.028 62.9639 348.229 63.5393 348.42C67.0424 347.568 70.5237 346.72 74.0051 345.868C75.8105 346.206 76.7025 345.094 78.0117 344.829C79.8171 344.447 81.5937 344.168 83.0898 343.365C83.5143 343.085 83.9099 342.64 84.4062 342.571C85.3413 342.449 86.3771 342.674 87.3121 342.561C88.5637 342.404 89.7434 342.081 90.9591 341.822C92.4049 339.72 95.0519 340.156 97.663 340.514C101.18 340.592 103.856 338.275 107.69 339.049C108.1 339.127 109.1 338.353 109.546 337.873C110.236 337.114 111.092 336.409 112.437 336.507C114.674 336.698 116.76 336.551 118.911 336.159C119.551 336.046 120.486 336.639 121.292 336.908C122.177 336.996 123.349 336.884 123.903 337.212C125.565 338.187 127.651 338.476 129.557 339.049C130.031 339.196 130.312 339.617 130.672 339.921C135.433 341.714 140.648 341.924 145.842 341.366C147.482 341.185 148.697 340.964 150.359 341.435C153.02 342.209 156.041 342.473 158.674 343.291C162.335 344.442 166.198 344.623 170.097 344.79C171.787 344.859 173.319 344.589 174.614 343.83C175.815 343.115 177.131 342.576 178.757 342.218C180.857 341.773 182.785 340.954 184.857 340.381C186.957 339.808 189.165 339.397 191.28 338.824C192.46 338.51 193.761 337.761 194.898 338.309C196.79 339.225 199.48 338.197 201.077 339.676C202.163 340.695 203.868 340.808 205.349 340.034C209.277 337.961 214.06 337.227 218.743 336.35C219.692 336.169 220.599 336.404 221.375 336.889C222.102 337.334 223.102 337.682 223.986 337.256C226.799 335.88 230 335.904 233.287 335.933C236.258 335.968 238.969 335.532 241.091 333.954C242.206 333.102 243.868 332.882 245.494 333.572C246.594 334.033 247.68 334.503 248.766 334.993C250.507 335.786 252.183 336.08 254.06 335.061C254.801 334.66 255.851 334.704 256.801 335.037C258.952 335.821 261.088 336.056 263.246 335.027C264.426 334.469 265.778 335.218 267.022 334.939C267.152 334.155 266.828 333.259 268.432 332.813C269.137 333.205 269.842 333.641 270.604 334.033C271.374 334.449 272.101 334.679 273.215 334.346C276.337 333.416 279.624 333.842 282.861 334.101C287.479 332.681 291.896 330.442 297.434 332.612C297.744 332.735 298.52 332.343 299.096 332.211C301.527 331.628 304.275 332.725 306.656 331.593C306.987 331.437 308.066 331.569 308.382 331.804C311.043 333.783 315.971 333.249 318.258 335.674C318.654 336.1 319.934 336.32 320.84 336.355C323.401 336.477 325.998 336.536 328.515 336.771C331.342 337.04 333.594 336.727 335.845 335.718C336.24 335.551 337.046 335.708 337.636 335.786C337.916 335.821 338.262 335.978 338.377 336.144C339.722 337.981 342.139 338.26 344.93 338.216C346.411 338.192 347.195 338.897 347.447 339.828C350.404 341.65 353.381 343.453 356.287 345.309C356.698 345.554 356.784 345.99 357.014 346.362C358.244 346.152 359.445 345.838 360.711 345.76C362.258 345.672 363.948 345.559 365.113 346.534C366.408 346.603 367.775 346.882 369.005 346.715C371.501 346.367 374.112 347.788 376.564 346.47C376.874 346.304 377.766 346.47 378.341 346.593C379.888 346.916 381.657 347.087 382.873 347.7C385.894 349.243 388.987 350.017 392.849 349.365C393.411 349.262 394.346 349.968 395.051 350.34C395.547 350.61 395.971 350.933 396.496 351.271C398.352 351.481 400.309 351.628 402.2 351.942C406.279 352.613 409.875 352.309 412.983 350.296C414.119 349.556 415.63 349.076 417.025 348.459C417.716 348.826 418.55 349.164 419.197 349.625C421.233 351.124 423.801 351.08 426.412 350.688C428.318 350.409 430.145 349.929 432.015 349.547C433.562 349.243 435.188 348.616 436.684 348.719C440.251 348.964 442.992 347.945 445.819 346.862C447.761 346.113 449.782 345.417 451.818 344.78C454.609 343.918 457.961 344.79 459.083 346.637C459.557 347.421 459.852 348.239 460.198 348.973C462.269 349.209 463.255 348.234 464.571 347.665C467.463 346.411 470.584 346.201 473.857 347.029C474.469 347.185 475.058 347.386 475.569 347.646C477.209 348.449 478.791 348.082 479.971 347.332C482.172 345.946 484.345 345.677 486.869 346.896C487.625 347.254 488.329 347.67 489.502 347.533C492.609 347.176 495.285 347.509 496.961 349.571C497.342 350.041 498.443 350.423 499.292 350.546C501.003 350.781 502.082 351.408 503.255 352.211C505.521 353.813 506.686 353.701 508.017 351.55C509.297 349.478 511.843 348.18 513.965 346.617C514.159 346.47 514.555 346.304 514.821 346.338C518.073 346.686 519.698 344.315 522.841 344.369C524.518 344.403 525.898 343.752 527.129 343.002C528.064 342.419 529.049 341.861 530.15 341.425C530.596 341.243 531.581 341.278 531.991 341.493C534.278 342.669 536.494 343.908 538.68 345.177C540.191 346.049 541.838 346.72 543.888 346.72C545.025 346.73 545.6 347.225 546.406 347.538C549.146 348.577 549.297 348.557 552.225 346.955C551.916 345.711 551.664 344.472 553.592 343.585C555.728 343.933 557.915 344.202 560.001 344.658C560.806 344.839 561.367 345.442 562.036 345.843C566.294 345.887 569.992 347.421 574.228 347.69C577.659 347.901 579.587 350.722 583.565 350.6C584.061 350.59 584.78 351.001 585.047 351.339C585.982 352.569 587.514 353.176 589.499 353.519C591.01 353.779 592.455 354.234 594.347 354.715C597.519 357.536 600.922 360.568 604.324 363.591C606.28 363.723 608.266 364.085 610.157 363.929C612.574 363.728 614.811 363.983 616.797 364.654C618.868 365.349 620.594 364.644 622.436 364.566C624.493 365.682 626.464 366.78 628.449 367.877C628.665 369.219 631.557 369.41 631.506 370.875C632.707 370.943 633.247 371.433 633.398 372.149C635.318 372.261 637.261 372.516 639.167 372.428C641.353 372.325 642.914 372.898 644.209 373.883C645.461 374.823 646.54 375.862 647.777 376.827C648.172 377.13 648.813 377.498 649.338 377.488C651.524 377.463 653.776 377.042 655.891 377.263C659.293 377.62 662.839 377.297 666.162 378.223C667.277 378.536 668.593 378.58 669.845 378.718C671.945 378.943 671.931 378.953 674.412 381.304C675.218 382.063 676.448 382.264 677.764 382.367C678.11 382.053 678.354 381.583 678.829 381.451C680.8 380.858 682.792 380.3 684.842 379.864C685.677 379.697 686.698 379.898 687.245 380.481C688 381.309 687.899 382.485 689.611 382.921C690.697 382.494 691.978 382.196 692.848 381.613C695.459 379.854 698.437 379.923 701.638 380.682C704.364 380.638 705.026 381.858 705.4 383.254C706.68 383.376 708.047 383.322 709.032 384.028C710.428 385.037 712.384 385.683 714.211 385.482C716.038 385.291 717.254 386.1 718.743 386.065C720.57 386.011 721.699 386.805 723.167 387.172C724.353 387.476 725.893 387.799 726.965 387.555C730.611 386.702 734.719 386.996 738.157 385.551C739.732 384.904 741.214 385.34 742.559 386.178C744.4 387.319 745.22 389.112 747.882 389.725C749.788 389.377 751.658 389.009 753.55 388.706C755.737 388.348 757.003 389.793 758.959 389.925C759.268 389.935 759.599 390.014 759.909 390.038C762.966 390.298 765.742 390.205 767.598 388.201C767.929 387.834 769.288 387.863 770.18 387.721C773.611 387.697 777.064 387.888 780.387 386.981C781.473 386.678 782.833 386.79 784.07 386.771C785.962 386.727 787.868 386.736 789.752 386.727C790.953 385.654 792.478 384.924 794.564 384.87C797.175 384.792 799.643 384.645 801.614 383.268C802.11 382.92 803.441 382.852 804.275 382.979C806.692 383.347 808.742 383.161 810.483 381.926C812.094 380.785 813.964 380.226 816.51 380.437C817.611 380.54 819.006 380.021 819.977 379.54C825.221 376.91 825.89 376.361 829.443 372.589C830.098 371.884 830.623 371.1 831.414 370.454C831.723 370.209 832.709 370.072 833.169 370.209C834.335 370.547 835.37 371.061 836.471 371.507C837.722 371.673 838.988 371.845 840.247 372.021C841.218 371.933 842.168 371.776 843.139 371.762C846.685 371.727 847.167 372.129 846.131 374.226C845.851 374.784 845.75 375.421 845.836 376.004C845.915 376.508 846.606 376.729 847.246 376.543C847.807 376.376 848.346 376.126 848.757 375.837C851.842 373.623 851.828 373.608 855.014 374.73C855.295 374.833 855.575 374.965 855.82 375.088C857.28 375.837 858.712 375.891 860.258 375.176C861.028 374.818 861.948 374.583 862.74 374.314C864.365 374.681 865.897 375.019 867.422 375.367C869.458 375.053 871.479 375.142 873.486 375.548C873.795 375.504 874.177 375.347 874.421 375.416C877.083 376.111 879.694 376.768 881.816 378.213C884.873 380.295 888.67 381.167 893.137 380.114C894.008 379.903 895.159 380.192 896.029 379.981C902.467 378.414 909.271 378.316 916.011 377.846C918.687 377.655 921.104 377.948 923.535 378.463C925.657 378.909 927.822 379.394 929.75 380.118C931.095 380.633 932.08 380.363 933.296 380.128C935.742 379.668 937.763 380.084 939.093 381.583C939.259 381.764 939.453 381.951 939.539 382.151C940.18 383.616 941.712 384.077 943.942 383.93C948.214 383.65 952.321 383.861 956.119 385.438C957.105 385.84 958.666 385.571 959.881 385.796C961.097 386.021 962.212 386.477 963.384 386.834C964.715 386.732 965.369 387.094 965.211 387.986C966.952 388.823 968.908 389.465 970.584 390.312C972.62 391.341 974.282 392.683 976.123 393.883C976.583 394.187 977.108 394.432 977.605 394.711C978.511 395.216 980.022 395.138 981.108 394.466C981.798 394.03 982.453 393.56 983.028 393.046C984.064 392.115 985.344 392.654 986.56 392.732C987.15 392.654 987.776 392.62 988.351 392.497C991.013 391.914 993.645 392.061 996.256 392.678C998.313 391.939 1000.51 391.625 1002.86 391.826C1005.11 392.017 1007.49 392.037 1009.58 392.541C1011.87 393.1 1014.08 391.87 1016.25 392.742C1017.97 393.448 1019.33 392.943 1020.42 392.002C1020.91 391.576 1021.4 391.478 1022.08 391.733C1024.34 392.595 1026.48 391.699 1028.96 391.508C1029.82 391.944 1030.82 392.468 1031.87 392.963C1034.98 394.408 1038.95 394.52 1041.63 392.727C1043.85 391.238 1046.59 390.861 1049.27 390.185C1052.16 389.47 1055.2 389.436 1057.66 390.543C1061.3 392.164 1065.37 392.713 1069.45 393.374C1071.02 393.634 1072.96 393.776 1073.98 394.447C1075.53 395.466 1077 396.005 1079.06 395.598C1081.38 395.152 1083.44 395.196 1085.42 396.269C1086.01 396.592 1087.44 396.715 1088.1 396.48C1090.22 395.72 1092.43 395.485 1094.72 395.696C1098.53 396.063 1102.35 394.814 1106.14 395.75C1108.51 394.584 1111.12 394.991 1113.62 395.402C1115.28 395.671 1116.75 395.769 1118.34 395.28C1120.47 394.618 1122.8 394.991 1125.03 394.834C1127.52 394.653 1129.41 393.075 1132.23 393.09C1133.84 393.1 1135.56 392.585 1137.02 392.845C1139.98 393.359 1142.78 392.82 1145.62 392.732C1145.83 392.732 1146.06 393.021 1146.3 393.178C1148.07 393.134 1149.73 393.203 1150.39 394.555C1151.9 394.902 1153.41 395.25 1154.92 395.608C1156.76 394.883 1158.54 396.279 1160.44 395.711C1160.84 395.588 1161.66 395.867 1162.13 396.093C1164.16 397.033 1165.98 397.572 1168 395.98C1168.99 395.196 1170.61 394.751 1171.95 394.158C1172.02 393.947 1172.01 393.619 1172.21 393.555C1173.3 393.217 1174.56 393.051 1175.51 392.605C1176.53 392.11 1177.2 391.317 1178.17 390.758C1178.56 390.548 1179.33 390.611 1179.92 390.557C1181.36 390.097 1183.02 389.798 1184.22 389.147C1186.67 387.814 1188.86 386.291 1191.04 384.929C1192.64 384.816 1193.95 384.772 1195.21 384.625C1198.06 384.277 1201.18 384.356 1203.13 382.553C1205.83 381.872 1208.54 381.201 1211.23 380.515C1213.41 381.039 1215.01 380.383 1216.49 379.487C1218.61 378.198 1220.73 376.9 1222.89 375.582C1223.45 375.636 1224.07 375.773 1224.69 375.749C1227.45 375.68 1229.24 374.877 1229.85 373.466C1230.01 373.05 1230.12 372.629 1230.14 372.212C1230.24 370.733 1231.51 369.704 1233.61 369.562C1237.13 369.302 1239.61 368.063 1241.88 366.505C1242.53 366.045 1243.11 365.521 1243.83 365.104C1245.11 364.355 1246.64 364.051 1248.35 364.301C1249.28 364.433 1250.21 364.649 1251.06 364.815C1251.97 364.232 1252.87 363.664 1253.89 363.013C1255.15 363.507 1256.24 363.943 1257.59 364.492C1259.13 363.698 1260.84 362.758 1262.65 361.94C1263.38 361.602 1264.34 361.445 1265.25 361.347C1267.45 361.088 1269.68 360.901 1271.64 360.72C1272.37 359.971 1272.97 359.466 1273.38 358.908C1274.79 356.914 1277.34 356.101 1280.5 356.209C1283.19 356.311 1285.56 355.817 1288.02 355.268C1290.46 354.71 1293.24 354.553 1295.12 353.333C1296.43 352.495 1297.19 351.276 1298.19 350.232C1298.6 348.831 1298.84 347.411 1299.51 346.068C1300.07 344.903 1301.03 343.942 1303.38 343.796C1305.83 343.639 1308.22 343.124 1310.61 342.767C1311.47 341.547 1312.86 341.39 1314.54 341.983C1316.38 342.635 1318.07 343.1 1319.35 341.479C1319.6 341.165 1320.34 340.984 1320.9 340.817C1321.16 340.739 1321.55 340.773 1321.87 340.827C1324.34 341.243 1326.31 340.783 1327.95 339.539C1329.9 338.059 1332 336.761 1335.46 337.256C1336 337.334 1336.67 336.996 1337.28 336.854C1341.89 335.781 1345.63 336.864 1348.49 339.113C1349.99 340.278 1351.76 340.465 1353.62 340.499C1355.18 340.523 1356.76 339.975 1358.29 340.665C1360.75 340.832 1363.21 341.003 1365.7 341.17C1367.42 342.493 1369.89 341.64 1371.91 342.101C1372.49 342.179 1373.24 342.145 1373.6 342.37C1377.71 344.898 1379.14 348.836 1384.2 350.884C1384.53 351.868 1384.87 352.863 1385.2 353.862C1386.77 353.749 1388.35 353.651 1390.03 353.539C1390.36 354.244 1390.61 354.812 1390.89 355.376C1391.54 356.708 1393.12 357.433 1395.06 357.276C1395.99 357.198 1396.93 357.066 1397.87 356.938C1399.38 356.738 1400.73 356.057 1402.44 356.346C1403.59 356.547 1404.79 356.635 1406.15 356.806C1406.21 358.217 1406.3 359.647 1406.38 361.083C1407.65 361.127 1408.91 361.171 1410.18 361.23C1411.23 360.637 1412.53 360.436 1413.81 360.627C1415.72 360.906 1417.28 361.479 1418.49 362.65C1419.95 364.071 1420.28 363.983 1422.38 363.174C1423.48 362.748 1424.53 362.258 1425.72 361.945C1426.2 361.822 1427.1 361.955 1427.5 362.204C1428.35 362.753 1428.84 363.635 1429.81 364.041C1431.15 364.6 1432.76 364.894 1434.3 365.192C1434.84 365.295 1435.71 365.192 1436.11 364.957C1437.44 364.183 1438.78 363.424 1440.05 362.606L1440.05 77.8667C1438.65 78.0675 1437.21 78.1703 1435.68 78.092C1434.5 78.0381 1433.27 78.2487 1432.13 78.3271C1431.49 77.7442 1430.93 77.2396 1430.38 76.74C1429.81 77.1759 1429.28 77.9695 1428.69 77.9842C1426.74 78.0283 1425.07 78.1949 1423.71 79.1942C1422.03 80.4139 1419.9 80.3355 1417.71 79.8751C1417.67 80.5217 1417.31 81.041 1416.18 80.8058C1415.34 80.6246 1414.61 80.2229 1413.83 79.924C1413.27 80.071 1412.6 80.4139 1412.16 80.3257C1410.29 79.8996 1408.62 79.5077 1406.75 80.5168C1405.22 81.3348 1403.18 81.4328 1401.18 81.232C1399.9 81.0997 1398.62 80.9871 1397.52 81.6483C1396.32 82.388 1394.68 82.6085 1393.3 83.0934C1391.11 83.8527 1389.75 83.2159 1388.22 82.4468C1388 82.3342 1387.51 82.2656 1387.3 82.3439C1384.24 83.4951 1380.4 83.3972 1377.6 84.95C1376.37 85.6309 1375.13 86.3804 1373.69 86.8164C1372 87.3209 1369.86 87.2964 1368.33 87.9234C1366.8 88.5602 1365.37 88.6288 1363.78 88.5064C1362.51 88.4035 1361.11 87.8794 1360.04 88.09C1355.19 89.1089 1350.36 87.9234 1345.55 88.1684C1343.38 88.281 1341.98 87.272 1340.67 86.3461C1340.06 85.9297 1339.79 85.3272 1339.26 84.7002C1337.05 85.239 1334.94 85.7632 1332.84 86.2775C1331.56 86.591 1330.95 86.2334 1330.54 84.8471C1330.47 84.6463 1330.52 84.4308 1330.52 84.2201C1328.67 84.465 1326.83 84.759 1324.95 84.9696C1322.92 85.2048 1322.01 84.7687 1320.91 83.1228C1320.8 82.9563 1320.62 82.7995 1320.4 82.5644C1319.3 82.8779 1318.16 83.1914 1317.05 83.505C1317.05 83.8723 1316.95 84.2299 1316.77 84.5777C1316.54 85.4741 1315.8 86.0571 1314.32 86.0081C1312.47 85.9297 1310.61 85.7632 1308.73 85.6407L1308.7 85.6505C1308.75 86.1452 1308.81 86.6351 1308.88 87.1299C1311.4 88.2713 1311.37 88.6288 1308.73 89.6722C1308.33 89.9074 1307.96 90.1523 1307.55 90.3678C1307.5 90.3678 1307.07 90.1768 1307.04 90.0543C1306.92 89.4861 1306.89 88.9129 1306.84 88.33C1304.46 88.2174 1302.62 88.7905 1301.93 90.5784C1300.53 89.4126 1300.33 88.1292 1298.23 88.1831C1295.52 88.2615 1293.28 87.4532 1291.08 86.5617C1290.16 86.5959 1289.19 86.7527 1288.31 86.64C1286.24 86.3706 1284.65 86.8409 1283.23 87.7373C1282.92 88.5994 1282.01 89.1922 1280.9 89.5596C1280.14 89.8192 1278.86 90.0739 1278.32 89.8388C1276.18 88.8983 1274.85 89.4224 1273.63 90.5638C1273.12 91.034 1272.66 91.5141 1272.12 92.0529C1271.01 90.9214 1270.17 89.8388 1268.27 89.3244C1267.89 89.2215 1267.81 88.6288 1267.6 88.2615C1266.58 87.4777 1265.17 86.7527 1266.61 85.5868C1267.11 85.1852 1266.74 84.9157 1266.35 84.4798C1265.49 83.5637 1264.43 82.8241 1263.21 82.0942C1261.6 81.1193 1259.87 80.6148 1257.92 81.1977C1255.09 82.0354 1252.43 82.3048 1249.42 81.5651C1248.34 81.3055 1246.79 81.5651 1245.61 81.8541C1243.37 82.4126 1241.06 82.0109 1238.83 82.2558C1236.97 82.4566 1235.86 81.5504 1234.45 81.0605C1232.51 81.4181 1231.17 81.0361 1230.53 79.7526C1228.6 79.8408 1226.63 79.8065 1224.76 80.0662C1222.22 80.4237 1219.74 80.9626 1217.3 81.5112C1215.95 81.8149 1214.8 81.6925 1213.55 81.33C1212.68 81.0704 1211.69 80.8499 1210.74 80.8352C1207.45 80.8009 1204.28 80.6344 1201.26 79.591C1200.22 79.2334 1198.67 79.5469 1197.46 79.3216C1195.14 78.8856 1193.32 80.4531 1190.91 79.782C1189.59 79.4146 1188.6 80.3405 1187.52 80.7421C1185.15 81.6043 1182.73 81.9962 1180.02 81.3447C1178.84 81.0557 1177.31 80.7176 1176.26 80.9773C1174.02 81.5259 1172.74 81.2565 1171.45 79.9486C1170.59 79.0864 1169.08 78.5182 1167.87 77.8128C1165.77 77.9597 1164.3 77.5434 1163.31 76.1914C1162.77 75.4419 1161.51 75.3635 1160.08 75.7211C1156.67 76.5588 1155.73 76.1228 1154.37 73.4286C1153.78 72.9485 1153.27 72.1207 1152.58 72.0521C1149.51 71.7141 1146.57 71.1361 1143.22 71.9296C1138.7 72.9926 1133.8 73.409 1129.08 74.1242C1126.55 74.5063 1124.76 73.6196 1122.97 72.6791C1122.1 72.4195 1121.05 72.2872 1120.41 71.8757C1118.7 70.8029 1116.93 69.9408 1114.41 70.0535C1111.62 70.1857 1109.27 69.6714 1107.46 68.1969C1105.85 66.889 1103.98 67.5454 1102.38 67.952C1100.17 67.3495 1098.09 66.7665 1096.04 66.1934C1093.64 66.889 1091.87 65.2431 1089.58 65.4684C1087.25 66.0856 1085.11 66.8547 1082.36 65.7378C1080.26 64.8855 1077.62 64.5867 1075.19 64.0919C1074.61 63.9695 1073.87 63.9695 1073.33 64.0919C1070.31 64.8071 1067.2 65.4439 1064.36 66.3991C1062.39 67.0457 1060.76 68.1577 1058.91 69.0982C1056.27 68.819 1053.29 69.4363 1050.9 68.4027C1048.93 69.5538 1047.28 71.0528 1045.05 71.6945C1041.59 72.6889 1038.41 74.4916 1034.21 74.1682C1033.04 74.0801 1032.34 74.472 1031.78 74.9521C1030.69 75.8926 1029.28 76.1963 1027.57 76.2257C1025.96 76.2698 1023.97 76.0444 1022.83 76.5735C1020.68 77.5679 1018.41 76.6862 1016.26 77.1907C1014.2 77.661 1011.86 77.6708 1009.57 77.2593C1007.93 76.9556 1006.48 77.4258 1005.07 78.0332C1004.31 78.3565 1003.2 78.3223 1002.24 78.4497C1001.91 79.1746 1001.21 79.5371 1000.03 79.4685L999.846 79.5469C999.73 80.2866 999.105 80.6785 997.99 80.7422C997.565 81.0116 997.083 81.5455 996.738 81.5014C995.278 81.3447 994.127 80.5266 992.286 80.9969C990.66 81.4328 990.531 81.2418 990.113 79.9437C990.049 79.7429 990.049 79.5273 990.034 79.3265C988.919 79.3706 988.322 79.7967 988.128 80.4776C987.797 80.8009 987.452 81.139 987.128 81.4623C986.819 81.1242 986.488 80.7814 986.179 80.4434C985.424 80.3748 984.668 80.3209 983.913 80.2621C981.856 81.2026 979.871 82.2215 977.72 83.0592C976.684 83.4756 975.253 83.8773 974.138 83.7401C970.491 83.3139 967.24 83.6176 964.082 84.9696C961.55 86.0571 958.579 86.1453 955.652 85.6652C952.724 85.195 950.689 86.0914 948.782 87.321C948.358 87.5806 947.926 88.0704 947.488 88.0704C944.711 88.0949 941.92 87.9675 939.137 87.9823C938.266 87.992 937.346 88.2174 936.526 88.4427C934.634 88.9473 934.734 87.8157 934.058 87.2769C933.699 86.9878 933.109 86.8164 932.613 86.5813C932.332 87.1838 931.872 87.7569 930.821 87.7765C929.045 87.801 927.225 87.2181 925.642 88.3692C925.168 88.7269 923.887 88.815 923.031 88.7513C921.061 88.5848 919.385 88.8395 917.673 89.5351C916.097 90.172 914.285 90.5883 912.594 91.1124C912.019 92.1754 910.753 92.5575 909.142 92.4988C908.271 92.4743 907.401 92.2734 906.531 92.151L906.495 92.1608C904.689 93.6156 904.394 93.6156 902.718 92.1069L902.682 92.0971C902.107 92.3224 901.517 92.3665 900.877 92.2293C899.776 92.9886 898.82 93.8948 897.525 94.468C895.95 95.1636 894.072 95.5849 892.893 95.9571C891.382 97.8725 890.181 99.3812 888.98 100.89C887.8 102.389 886.923 104.059 885.333 105.358C883.966 106.465 881.787 107.145 879.96 108.008C879.65 108.355 879.449 108.835 878.989 109.027C877.068 109.786 875.076 110.472 873.234 111.128C871.314 110.78 869.487 110.447 867.645 110.109C866.645 110.633 865.588 111.118 864.653 111.677C862.747 112.818 860.726 113.812 858.129 114.229C857.669 114.41 857.043 114.831 856.733 114.753C853.856 114.003 851.029 113.176 848.188 112.367C845.081 112.088 842.009 111.853 838.967 112.603C838.866 112.627 838.557 112.313 838.355 112.157C837.881 112.323 837.406 112.338 836.924 112.191C836.133 112.495 835.377 113.043 834.572 113.063C830.99 113.21 827.854 112.338 825.041 110.912C824.825 110.8 824.811 110.53 824.696 110.339C821.15 110.428 817.532 110.697 815.036 108.439C814.69 108.135 814 107.88 813.41 107.812C809.598 107.41 805.836 106.915 802.218 105.999C800.017 106.278 797.83 106.582 795.615 106.827C795.003 106.896 794.334 106.817 793.694 106.803C792.442 106.95 791.176 107.028 789.982 107.263C788.832 107.488 787.695 108.302 786.566 107.552C786.185 107.292 786.911 106.445 786.76 105.906C786.494 104.912 785.969 103.937 785.559 102.943C783.667 103.3 782.401 104.084 781.646 105.235L781.631 105.245C780.365 105.661 779.135 106.097 777.884 106.518C775.827 106.43 773.791 106.352 771.755 106.259C771.676 106.763 771.216 107.111 770.604 106.954C770.245 106.876 769.993 106.396 769.928 106.073C769.864 105.691 770.058 105.289 770.123 104.887L769.928 104.304L770.007 103.712C769.497 102.908 768.598 102.467 767.267 102.345C766.037 102.232 764.836 102.066 763.62 101.929C762.023 101.718 760.448 101.448 758.837 101.311C757.902 101.233 756.895 101.434 756.096 100.919C753.269 99.0629 749.047 98.8179 745.99 97.3288C743.329 96.0306 740.567 96.0747 737.66 96.1972C736.049 96.2658 734.424 96.4568 732.877 96.7458C730.381 97.2259 728.36 96.6772 726.583 95.6584C725.382 94.9628 724.397 94.1153 723.332 93.3315C721.987 93.2629 720.98 92.7927 720.34 92.0873C719.318 90.9802 718.052 90.2503 715.988 90.1278C713.981 90.0152 713.621 89.0551 713.801 87.948C712.765 87.6345 711.974 88.2615 711.14 88.2615C709.924 88.2517 708.723 87.7814 707.493 87.7373C703.371 87.6051 700.293 85.8367 696.761 84.8178C695.546 84.4504 694.56 84.5484 693.424 84.4602C688.87 84.1026 684.432 83.4756 682.447 80.1397C681.641 78.7876 681.001 78.6309 678.699 79.0424C676.743 79.4 674.837 79.3216 672.902 79.2432C672.391 79.209 671.787 78.8955 671.442 78.6064C669.701 77.0634 667.169 76.9409 664.522 76.7352C659.113 76.3188 654.416 75.0696 652.38 71.2977C651.445 71.4104 650.488 71.5084 649.539 71.6358C646.597 72.0031 644.547 71.3124 643.145 69.5636C642.605 68.8828 642.173 67.9961 640.663 67.8198C638.426 67.9226 636.7 69.3971 634.204 68.8827C634.038 69.4657 633.923 70.0486 633.693 70.6168C633.628 70.7736 633.233 70.9058 632.952 70.9548C632.822 70.9646 632.456 70.7197 632.456 70.5972C632.405 69.6028 632.42 68.6182 632.405 67.6189C632.046 67.1927 631.434 66.9821 630.844 67.2368C629.859 67.6728 628.938 68.1871 628.118 68.7603C627.277 69.3285 626.788 70.2054 625.802 70.5826C624.932 70.9059 623.601 70.7148 622.501 70.8177C622.27 70.8275 622.091 71.0969 621.889 71.2537C620.839 72.4048 620.314 72.64 619.458 72.2824C618.667 71.9591 618.293 71.479 618.422 70.852C618.501 70.4699 618.573 70.078 618.638 69.7008C618.113 69.5097 617.372 69.0738 617.113 69.162C615.437 69.7792 613.991 70.7638 612.215 71.141C609.244 71.7925 607.122 72.9633 605.266 74.4965C604.46 75.1578 603.475 75.7261 602.504 76.2992C600.497 77.4749 596.786 77.8324 594.405 76.6372C592.319 75.584 590.938 76.0102 589.183 76.7156C588.118 77.1515 587.686 78.1166 586.126 78.1607C583.68 78.2292 581.817 79.0914 580.328 80.2768C578.652 81.5994 577.127 82.927 573.955 82.6918C573.214 82.638 572.279 83.2503 571.574 83.652C570.344 84.3573 569.157 85.0824 568.107 85.8906C567.251 86.5274 566.812 87.414 565.87 87.9627C564.69 88.6681 563.259 89.251 561.813 89.6968C560.713 90.0446 559.216 89.9221 558.231 90.3336C556.426 91.0831 554.649 91.2937 552.664 90.8382C551.743 90.6275 550.873 90.3238 549.937 90.1328C545.931 89.3049 541.558 89.5645 537.63 88.3987C536.925 88.188 535.71 88.5113 534.854 88.7807C533.689 89.1384 532.653 89.6772 531.631 90.1034C528.675 89.7458 525.978 88.8297 523.007 89.2657C520.59 90.7108 519.475 92.8907 516.468 93.9439C516.123 94.8158 515.332 95.1293 514.001 94.7962C513.577 94.8403 513.145 94.8501 512.721 94.806C509.204 95.2322 505.751 94.8158 502.284 94.5268C501.723 94.6052 501.219 94.7521 500.759 94.9872C500.45 95.7808 499.673 96.0257 498.493 95.8053L498.543 95.9523C496.882 97.755 494.911 99.3519 491.394 99.5087C488.797 99.6213 488.452 100.753 488.171 102.017C488.121 102.198 487.79 102.34 487.596 102.497C487.215 102.296 486.79 102.129 486.495 101.88C486.33 101.733 486.395 101.478 486.395 101.277C486.359 99.5625 484.424 99.396 482.481 99.2196C481.086 99.7438 479.655 100.214 478.31 100.797C476.914 101.399 475.353 101.938 473.771 101.747C470.268 101.331 468.412 102.879 466.211 104.064C465.981 105.073 464.88 105.318 463.564 105.215C462.679 105.137 461.809 104.868 460.931 104.691C459.104 104.77 457.845 104.03 456.479 103.428C453.062 102.624 449.48 103.697 445.963 102.947C442.265 102.164 438.338 103.114 434.936 102.634C433.31 103.315 432.08 103.986 430.663 104.393C429.217 104.794 427.21 104.637 426.096 105.245C423.614 106.577 421.247 105.891 418.485 105.505C417.486 106.122 416.45 106.891 415.212 107.484C413.918 108.086 412.422 108.502 411.019 109.007C408.868 110.349 406.617 110.966 403.56 110.026C401.078 109.276 399.467 110.305 398.367 111.691C397.295 110.976 396.245 110.271 395.209 109.556C393.252 109.502 391.296 109.433 389.361 109.374C388.361 110.305 387.325 111.177 385.254 110.584C382.671 110.53 380.075 110.462 377.5 110.393C377.464 110.81 377.42 111.211 377.384 111.638C376.795 113.102 374.982 112.813 373.378 112.813C373.148 113.494 372.508 113.886 371.393 113.92C370.702 113.93 370.026 113.93 369.336 113.93C369.719 112.431 371.067 111.618 373.378 111.491L373.392 111.481L373.493 110.227C372.177 110.183 370.86 110.124 369.551 110.08C368.861 110.026 368.17 109.957 367.48 109.899C366.034 110.393 364.653 110.927 362.962 110.222C361.582 109.663 360.121 109.183 358.589 108.62C357.438 108.845 356.208 109.09 354.971 109.335C354.59 109.056 354.151 108.811 353.856 108.483C352.446 106.925 352.015 106.759 350.389 107.307C349.533 107.596 348.792 108.066 347.893 108.292C347.008 108.517 345.987 108.517 345.052 108.674C342.311 109.12 339.297 108.483 336.658 109.467C336.427 109.546 336.018 109.443 335.701 109.423C334.126 109.291 332.565 109.379 331.069 108.708C329.788 108.14 328.048 107.993 326.516 107.655C324.343 109.257 321.603 108.458 319.056 108.336C318.747 108.311 318.495 107.719 318.201 107.395C316.625 107.361 314.899 107.484 314.467 106.063C311.54 104.931 311.446 104.956 310.374 106.822C310.454 107.361 310.554 107.895 310.641 108.424C310.475 109.433 310.346 110.437 309.001 111.123C308.526 111.368 307.979 111.54 307.476 111.74C307.181 111.417 306.749 111.104 306.62 110.756C306.469 110.374 306.584 109.962 306.584 109.561C306.684 108.297 306.778 107.018 306.864 105.754L306.814 105.686C304.857 105.651 302.901 105.607 300.944 105.573L300.88 105.617C301.074 105.975 301.096 106.347 300.93 106.714C301.491 107.15 302.182 107.542 302.527 108.047C302.656 108.238 302.016 108.664 301.736 108.987C301.52 108.875 301.175 108.787 301.11 108.649C300.894 108.091 300.75 107.498 300.57 106.925C298.6 107.307 296.909 108.502 294.543 107.822C292.637 107.386 290.766 107.484 288.875 107.866C288.529 108.517 287.738 108.85 286.774 108.772C283.883 108.527 281.272 108.527 280.085 108.938C279.035 109.321 278.229 110.055 276.783 109.766C275.877 109.889 274.956 110.001 274.043 110.114C270.41 110.55 270 110.428 269.015 108.076C268.403 106.597 266.749 107.101 265.332 107.057C264.756 107.895 263.807 108.331 262.34 108.209C262.03 108.184 261.663 108.218 261.405 108.13C257.297 106.675 252.874 106.607 248.392 106.788C247.011 106.842 245.99 106.352 245.4 105.524C243.364 104.329 241.537 103.006 239.948 101.551C235.941 100.993 231.467 102.022 227.885 99.9838C227.669 99.8613 227.259 99.8516 226.95 99.8369C222.792 99.7585 218.52 100.106 214.758 98.4848C214.542 98.3967 214.082 98.4163 213.823 98.5094C211.852 99.1804 209.996 98.1713 208.155 98.3085C206.119 98.4555 204.292 98.0636 202.422 97.7844C200.134 97.4366 198.02 97.4953 195.732 97.9166C193.287 98.3869 190.769 98.4996 188.338 97.3778C187.122 96.8292 185.295 96.7606 183.706 96.6528C182.181 96.5401 181.569 95.869 180.828 95.1881C180.447 94.8403 179.958 94.5513 179.534 94.2378C178.843 94.2133 178.167 94.1937 177.477 94.1839C177.347 94.7767 177.261 95.3694 177.067 95.9523C177.002 96.1189 176.671 96.3197 176.426 96.3687C176.261 96.403 175.851 96.1874 175.786 96.0454C175.175 94.6444 173.65 94.1643 171.564 94.1986C171.254 94.5219 170.938 94.8501 170.629 95.1587C169.348 94.1986 170.895 94.375 171.564 94.1986C170.988 92.6752 168.866 92.9691 167.291 92.6556C166.176 92.1951 165.076 91.7493 163.975 91.2889C163.091 91.3672 162.184 91.4456 161.3 91.5338C159.775 91.6905 158.142 91.7934 157.142 90.9411C156.487 90.3679 156.415 89.5205 156.077 88.8053C152.992 88.7171 150.949 87.4043 149.014 86.0768C147.978 85.3616 147.208 84.4652 146.316 83.6471C145.396 83.7598 144.41 84.0733 143.569 83.9508C142.368 83.7696 141.332 83.0788 140.152 82.9564C138.627 82.7996 136.994 83.5932 135.484 83.025C133.909 82.442 132.261 83.1132 130.837 82.8242C129.06 82.4665 127.435 81.7611 125.795 81.1586C123.529 80.3307 121.177 79.7135 118.595 79.4147C118.12 79.3706 117.76 78.8906 117.343 78.5967C115.473 78.2048 113.595 77.8129 111.74 77.421C111.15 78.0235 110.164 78.2587 109.294 77.9795C107.863 77.5337 106.582 76.892 105.288 76.2992C103.281 75.3685 101.166 75.1481 98.9145 75.7751C96.2818 76.5148 93.6924 77.3083 91.1101 78.0676C87.4776 76.167 83.651 74.668 79.2273 73.8695C77.9972 73.6589 76.8104 73.2866 76.1845 72.4686C73.6239 72.2334 71.0416 71.9983 68.4809 71.7534C67.3156 72.2236 66.0352 72.0424 64.7693 72.0914C63.1941 72.1452 61.5971 72.3608 60.1155 72.7184C58.9646 72.9878 58.0798 73.7912 56.9289 73.9626C55.4184 74.188 53.7568 74.0508 52.1456 74.0165C49.2684 73.9626 46.3624 73.9479 43.4996 73.7275C42.5934 73.6589 41.6438 73.2572 40.9172 73.7373C38.5363 75.3832 35.393 74.477 32.6526 74.8542C31.4225 75.0207 30.171 75.1432 28.9194 75.2901C26.9773 77.2153 23.1506 77.0144 20.6834 78.3567C20.3885 78.9053 19.9785 79.4099 19.0074 79.5225C16.9502 79.7478 14.9001 79.8605 12.879 79.3902C11.0088 79.4931 9.13144 79.5911 7.2612 79.6939C4.00998 78.0823 -0.133207 78.3713 -3.75125 77.4896C-6.92337 76.7156 -10.0307 77.3084 -12.7713 78.5869C-13.3826 79.0327 -13.8574 79.7037 -14.6127 79.8752C-16.5835 80.3112 -17.7489 81.2076 -18.871 82.2706C-20.3959 83.6912 -21.5683 84.1075 -23.5895 83.1768C-25.7619 82.1922 -27.2365 83.2552 -28.9987 83.2307C-31.6601 83.9459 -35.0625 82.7703 -37.2996 84.5631C-40.1552 84.4848 -42.9532 85.6163 -45.8087 84.7983C-47.1035 84.4309 -48.4055 84.1174 -49.3262 84.9011C-52.2178 87.3161 -56.4545 88.3351 -60.4178 89.6234C-61.173 89.109 -62.0435 88.771 -62.9641 88.5849L-62.9641 348.542C-61.5327 347.759 -59.9934 346.931 -58.4613 346.103L-58.4973 346.103ZM1436.7 359.878L1437.26 360.137L1436.6 360.269L1436.71 359.878L1436.7 359.878ZM1398.72 86.2236C1399.28 86.111 1400 85.9101 1400.41 86.0571C1400.81 86.204 1401.1 86.7184 1401.09 87.0662C1401.07 87.3552 1400.45 87.894 1400.25 87.8695C1399.71 87.7912 1399.2 87.4875 1398.76 87.2327C1398.56 87.1103 1398.53 86.8654 1398.42 86.6841C1398.53 86.5273 1398.55 86.2579 1398.72 86.2236ZM1386.37 348.092L1386.6 348.562L1385.94 348.493L1386.37 348.092ZM1260.41 87.4434L1260.99 87.703L1260.33 87.8353L1260.41 87.4434ZM1243.79 96.3294C1243.9 96.2168 1244.2 96.1825 1244.41 96.1188C1244.65 96.4666 1245.03 96.7899 1245.07 97.1475C1245.15 97.7206 1245.15 98.3427 1244.23 98.6905C1244.13 98.7248 1243.75 98.5876 1243.65 98.4652C1242.98 97.7402 1243.01 97.0103 1243.78 96.3294L1243.79 96.3294ZM1217.54 84.95L1217.46 85.3517L1216.89 85.0823L1217.54 84.95ZM1187.92 83.9507C1188.02 83.9262 1188.22 84.1858 1188.37 84.3181C1188.17 84.4063 1187.87 84.6218 1187.79 84.5875C1187.1 84.3279 1187.15 84.0732 1187.92 83.9507ZM813.892 111.853C814.086 112.01 814.482 112.176 814.453 112.299C814.338 112.647 814.057 112.96 813.827 113.327C813.518 113.083 812.971 112.823 813.022 112.612C813.072 112.343 813.583 112.108 813.892 111.853ZM783.264 106.455C783.279 106.759 782.753 107.057 782.459 107.371C782.264 107.239 781.948 107.126 781.897 106.979C781.746 106.406 781.703 105.838 781.617 105.255C782.523 105.446 783.243 105.813 783.257 106.45L783.264 106.455ZM708.615 92.0236L708.845 92.4498L708.22 92.3959L708.615 92.0285L708.615 92.0236ZM679.433 82.4322C679.742 82.6918 680.289 82.9367 680.239 83.1474C680.188 83.4168 679.678 83.652 679.368 83.8969C679.174 83.7499 678.779 83.5736 678.807 83.4609C678.922 83.1229 679.203 82.7996 679.433 82.4322ZM671.859 83.3923L671.78 83.794L671.204 83.5344L671.859 83.3874L671.859 83.3923ZM641.26 73.2768C641.785 73.3551 642.281 73.5364 642.857 73.6932C642.461 73.8842 642.066 74.2418 641.756 74.2075C641.332 74.1732 640.987 73.8401 640.591 73.6393C640.821 73.5168 641.087 73.2571 641.267 73.2817L641.26 73.2768ZM542.896 92.4694L543.471 92.7388L542.795 92.8858L542.896 92.4694ZM524.474 91.6611C524.884 91.8179 525.381 92.3567 525.244 92.5576C524.913 93.0523 524.244 93.4638 523.323 94.2378C522.877 93.3658 522.439 92.8711 522.439 92.391C522.453 91.7395 523.604 91.3525 524.474 91.6611ZM440.589 345.417L441.151 345.677L440.496 345.809L440.597 345.417L440.589 345.417ZM369.278 113.955C368.983 114.244 368.702 114.557 368.408 114.851C367.228 113.935 368.739 114.146 369.278 113.955ZM164.752 94.5415C164.946 94.6885 165.342 94.8648 165.313 94.9775C165.198 95.3253 164.918 95.6486 164.687 96.016C164.378 95.7564 163.831 95.5016 163.882 95.2861C163.932 95.0167 164.443 94.7815 164.752 94.5366L164.752 94.5415ZM100.698 77.1173C100.799 77.1173 100.979 77.3524 101.123 77.4847C100.943 77.5729 100.648 77.7884 100.562 77.7541C99.8712 77.4945 99.9359 77.2496 100.691 77.1173L100.698 77.1173ZM373.349 112.813C373.349 112.813 373.364 112.803 373.364 112.789L373.328 112.813L373.342 112.813L373.349 112.813ZM377.478 110.398L377.478 110.354L377.399 110.398L377.478 110.398Z" fill="#F0F0F0"/>
</g>
<defs>
<clipPath id="clip0_117_204">
<rect width="1503" height="230" fill="white" transform="translate(1440 230) rotate(180)"/>
</clipPath>
</defs>
</svg>
