<svg width="14" height="14" viewBox="0 0 14 14" fill="none" xmlns="http://www.w3.org/2000/svg">
<path d="M1.54583 7.56641H6.14125V12.1618C6.14125 12.6289 6.52546 13.0206 7.00007 13.0206C7.47468 13.0206 7.85889 12.6289 7.85889 12.1618V7.56641H12.4543C12.9214 7.56641 13.3131 7.1822 13.3131 6.70759C13.3131 6.23298 12.9214 5.84877 12.4543 5.84877H7.85889V1.25335C7.85889 0.786272 7.47468 0.394531 7.00007 0.394531C6.52546 0.394531 6.14125 0.786272 6.14125 1.25335V5.84877H1.54583C1.07875 5.84877 0.687012 6.23298 0.687012 6.70759C0.687012 7.1822 1.07875 7.56641 1.54583 7.56641Z" fill="#CA3D2B"/>
</svg>
