<svg width="98" height="98" viewBox="0 0 98 98" fill="none" xmlns="http://www.w3.org/2000/svg">
<g clip-path="url(#clip0_337_1444)">
<path d="M81.0072 0H16.9928C7.623 0 0 7.623 0 16.9928V81.0072C0 90.377 7.623 98 16.9928 98H81.0072C90.377 98 98 90.377 98 81.0072V16.9928C98 7.623 90.377 0 81.0072 0ZM90.704 81.0072C90.704 86.3536 86.3536 90.7009 81.0072 90.7009H16.9928C11.6464 90.7009 7.29604 86.3506 7.29604 81.0072V16.9928C7.29604 11.6464 11.6464 7.29604 16.9928 7.29604H81.0072C86.3536 7.29604 90.704 11.6464 90.704 16.9928V81.0072Z" fill="#2DCC70"/>
<path d="M42.3443 57.0273L32.3418 47.0248C30.2044 44.8874 26.738 44.8874 24.6007 47.0248C22.4633 49.1621 22.4633 52.6285 24.6007 54.7658L38.4722 68.6374C40.6096 70.7747 44.076 70.7747 46.2133 68.6374L73.8807 40.973C76.0181 38.8356 76.0181 35.3693 73.8807 33.2319C71.7434 31.0946 68.277 31.0946 66.1397 33.2319L42.3443 57.0273Z" fill="#2DCC70"/>
</g>
<defs>
<clipPath id="clip0_337_1444">
<rect width="98" height="98" fill="white"/>
</clipPath>
</defs>
</svg>
