<svg width="41" height="50" viewBox="0 0 41 50" fill="none" xmlns="http://www.w3.org/2000/svg">
<g clip-path="url(#clip0_128_684)">
<path d="M10.1993 3.56372H0.783222C0.35245 3.56372 0 3.96403 0 4.45572C0 4.94741 0.35245 5.34773 0.783222 5.34773H10.1993C10.6344 5.34773 10.9825 4.94741 10.9825 4.45572C10.9825 3.96403 10.6301 3.56372 10.1993 3.56372Z" fill="#FAFAFA"/>
<path d="M2.15386 4.45566L5.08659 1.52293C5.43469 1.17483 5.43469 0.609172 5.08659 0.261074C4.73849 -0.0870246 4.17283 -0.0870246 3.82473 0.261074L0.261074 3.82473C-0.0870246 4.17283 -0.0870246 4.73849 0.261074 5.08659L3.82473 8.65025C3.99878 8.8243 4.2294 8.91132 4.45566 8.91132C4.68192 8.91132 4.91254 8.8243 5.08659 8.65025C5.43469 8.30215 5.43469 7.73649 5.08659 7.38839L2.15386 4.45566Z" fill="#FAFAFA"/>
<path d="M24.6497 4.45572C24.6497 4.94741 25.0021 5.34773 25.4329 5.34773H34.8489C35.2841 5.34773 35.6322 4.94741 35.6322 4.45572C35.6322 3.96403 35.2797 3.56372 34.8489 3.56372H25.4329C24.9978 3.56372 24.6497 3.96403 24.6497 4.45572Z" fill="#FAFAFA"/>
<path d="M30.5457 7.38839C30.1976 7.73649 30.1976 8.30215 30.5457 8.65025C30.7198 8.8243 30.9461 8.91132 31.1767 8.91132C31.4073 8.91132 31.6336 8.8243 31.8076 8.65025L35.3713 5.08659C35.7194 4.73849 35.7194 4.17283 35.3713 3.82473L31.8076 0.261074C31.4595 -0.0870246 30.8938 -0.0870246 30.5457 0.261074C30.1976 0.609172 30.1976 1.17483 30.5457 1.52293L33.4785 4.45566L30.5457 7.38839Z" fill="#FAFAFA"/>
<path d="M1.14864 20.7642C0.617793 21.0688 0.239236 21.5648 0.0782399 22.1609C-0.0784044 22.7527 -8.22262e-05 23.3706 0.308855 23.9058L10.6952 41.8894C13.5845 46.8933 18.9713 50.0044 24.7497 50.0044C33.7002 50.0044 40.9798 42.7248 40.9798 33.7743V21.0688C40.9798 18.7887 39.1262 16.9351 36.8461 16.9351C35.9367 16.9351 35.097 17.231 34.4138 17.727C33.9482 15.9517 32.3339 14.6376 30.415 14.6376C29.4534 14.6376 28.5701 14.9683 27.8696 15.5166C27.2908 13.9327 25.7679 12.8014 23.9839 12.8014C23.1354 12.8014 22.3435 13.0581 21.6865 13.4976V5.44348C21.6865 3.16344 19.8328 1.30981 17.5528 1.30981C15.2727 1.30981 13.4191 3.16344 13.4191 5.44348V27.3606C13.4191 27.6435 13.2538 27.9002 12.997 28.022C12.6533 28.183 12.2486 28.0568 12.0615 27.7261L9.30285 22.9528C8.50657 21.5735 7.21861 20.5814 5.67827 20.1724C4.13794 19.759 2.52798 19.9722 1.14864 20.7685V20.7642ZM7.71465 23.8666L10.4733 28.6399C11.1434 29.7973 12.5619 30.2455 13.7759 29.6842C14.6766 29.2665 15.2597 28.3527 15.2597 27.3606V5.44348C15.2597 4.17728 16.2909 3.14603 17.5571 3.14603C18.8233 3.14603 19.8546 4.17728 19.8546 5.44348V22.4394C19.8546 22.9485 20.268 23.3575 20.7727 23.3575C21.2774 23.3575 21.6908 22.9441 21.6908 22.4394V16.9264C21.6908 15.6602 22.722 14.6289 23.9883 14.6289C25.2545 14.6289 26.2857 15.6602 26.2857 16.9264V22.4394C26.2857 22.9485 26.6991 23.3575 27.2038 23.3575C27.7086 23.3575 28.1219 22.9441 28.1219 22.4394V18.7626C28.1219 17.4964 29.1532 16.4652 30.4194 16.4652C31.6856 16.4652 32.7168 17.4964 32.7168 18.7626V22.8963C32.7168 23.4054 33.1302 23.8144 33.6349 23.8144C34.1397 23.8144 34.5531 23.401 34.5531 22.8963V21.0601C34.5531 19.7938 35.5843 18.7626 36.8505 18.7626C38.1167 18.7626 39.1479 19.7938 39.1479 21.0601V33.7656C39.1479 41.7023 32.6907 48.1595 24.7541 48.1595C19.6283 48.1595 14.855 45.4008 12.2921 40.9626L1.90141 22.9833C1.81873 22.8397 1.83614 22.7048 1.85354 22.6352C1.87095 22.5656 1.92316 22.4394 2.06675 22.3567C2.70203 21.9869 3.41128 21.7998 4.12489 21.7998C4.48169 21.7998 4.84719 21.8476 5.19964 21.9434C6.26569 22.2305 7.15769 22.9137 7.7103 23.8709L7.71465 23.8666Z" fill="#FAFAFA"/>
</g>
<defs>
<clipPath id="clip0_128_684">
<rect width="40.9799" height="50" fill="white"/>
</clipPath>
</defs>
</svg>
