<svg width="164" height="30" viewBox="0 0 164 30" fill="none" xmlns="http://www.w3.org/2000/svg">
<g clip-path="url(#clip0_145_185)">
<path d="M2.09506 10.8791C2.09506 10.8791 2.18399 10.8735 2.21364 10.8716C2.53974 10.8511 2.73446 11.1079 2.85305 11.1004C3.48839 10.7914 10.0435 9.96067 11.7333 9.85439C11.9408 9.84134 12.089 9.83202 12.1187 9.83015C12.4838 9.95665 12.8248 10.1743 12.8567 10.6805C12.8717 10.9187 11.8344 11.4622 11.4471 11.4567C11.1507 11.4753 11.3189 10.837 10.989 10.798C10.2498 10.8743 5.85473 11.0312 2.95947 12.3193C2.95947 12.3193 2.90519 14.2956 2.88804 16.3891C2.88804 16.3891 3.9662 16.0224 5.91906 15.8398C5.91906 15.8398 6.00799 15.8342 6.15622 15.8248C8.20176 15.6962 13.1491 15.8035 13.3011 18.6935C13.4172 20.5395 11.2806 23.0054 9.99523 23.8634C8.19872 25.1123 7.11682 25.4195 6.88902 25.5833C6.80383 25.6484 6.65747 25.6875 6.44996 25.7006C6.21279 25.7155 5.91072 25.6448 5.74376 25.3564C5.67698 25.241 5.63985 25.1238 5.63048 24.9749C5.6024 24.5283 6.05425 24.1412 6.40625 24.0593C6.64154 24.0146 7.81987 23.8209 8.11071 23.7129C9.56302 23.1433 12.2389 20.7331 12.1078 18.649C12.0441 17.6366 9.84413 16.7288 6.37373 16.9172C5.54366 16.9694 3.78179 17.3492 2.91864 17.822C2.96171 18.5068 2.91397 19.1674 2.94768 19.7033L2.97577 20.15C2.99262 20.4179 3.0076 20.6561 3.02258 20.8943C3.06752 21.6089 3.1031 22.1746 3.09967 22.5933C3.13713 23.1888 3.18924 23.5442 3.35432 23.8028C3.42111 23.9182 3.45637 24.0057 3.46386 24.1248C3.49195 24.5714 3.16991 25.1297 2.69558 25.1595C2.54736 25.1688 2.39538 25.1186 2.24154 25.0386C2.11734 24.9568 2.00717 23.6783 1.90979 22.1301C1.76186 19.7779 1.71908 16.7316 1.74279 16.1622C1.75527 15.4141 1.74933 14.8465 1.71188 14.2511C1.68192 13.7747 1.65196 13.2983 1.58299 12.6749C1.55334 12.6768 1.43476 12.6842 1.34582 12.6898C1.05498 12.7978 0.754784 12.7569 0.73044 12.3698L0.724823 12.2805C0.698606 11.8637 1.01347 11.6645 1.39137 11.5212C1.62479 11.4467 1.53741 11.0038 2.09318 10.8493L2.09506 10.8791Z" fill="white"/>
<path d="M23.4671 20.3857C23.0374 20.6518 19.8488 23.9013 17.5068 24.0486C17.1807 24.0691 16.8509 24.0301 16.5747 23.898C15.2014 23.3567 14.1478 21.749 14.0505 20.2007C14.0355 19.9625 14.0205 19.7243 14.0944 19.4805C14.4505 17.0967 17.0767 15.3173 19.2724 15.2091C19.9542 15.1663 20.5565 15.2778 21.0829 15.6034C21.1422 15.5997 21.1775 15.6872 21.1812 15.7467C21.2131 16.2529 19.5186 17.7046 18.3759 18.464C17.1202 19.3201 15.8825 19.5175 15.2915 19.5846C15.2915 19.5846 15.2472 19.8265 15.2697 20.1838C15.2978 20.6304 15.426 21.2501 15.9156 21.9367C16.3088 22.5098 16.815 22.9861 17.6469 22.9637L17.7359 22.9581C19.3626 22.796 22.3737 20.0359 22.594 19.7531C22.6976 19.5074 22.901 18.9566 23.2568 18.9342C23.3754 18.9267 23.4346 18.923 23.5607 19.0346C23.7776 19.1704 23.8796 19.3733 23.8928 19.5817C23.9115 19.8794 23.7227 20.1902 23.469 20.4154L23.4671 20.3857ZM19.5417 16.1786C19.3045 16.1936 18.4152 16.2495 17.3539 16.8842C16.3203 17.4872 15.7224 18.3917 15.7224 18.3917C15.7224 18.3917 16.8749 18.2595 18.1306 17.4033C18.6455 17.072 18.9862 16.8114 19.601 16.1749L19.5417 16.1786Z" fill="white"/>
<path d="M35.025 19.1207C35.0363 19.2993 30.0452 23.2301 26.6638 23.4129C25.7448 23.4707 24.9553 23.2215 24.412 22.6279C24.1246 22.3172 23.9779 21.878 23.9498 21.4314C23.7981 19.0197 26.7436 15.2175 28.5351 14.8358C28.6537 14.8284 28.7723 14.8209 28.8909 14.8134C29.3948 14.7817 29.6155 14.9771 29.6342 15.2748C29.6548 15.6024 29.4123 16.0062 29.0993 16.2351C29.0123 16.2705 28.9252 16.3059 28.8659 16.3096C28.6584 16.3227 28.4137 16.2185 28.1766 16.2334C28.1173 16.2371 28.058 16.2408 27.9987 16.2446C27.5337 16.4233 24.9786 19.334 25.0929 21.1503C25.121 21.5969 25.2954 22.0044 25.7885 22.2723C26.0369 22.436 26.3964 22.4732 26.7817 22.449C29.3905 22.2849 34.1687 18.756 34.4003 18.6518C34.4596 18.6481 34.517 18.6146 34.5763 18.6108C34.8134 18.5959 35.036 18.8211 35.0509 19.0593L35.0565 19.1486L35.025 19.1207Z" fill="white"/>
<path d="M37.2713 14.1369L37.5918 14.0271C38.557 13.7572 39.0572 13.6659 39.8205 13.4983C39.9001 13.3439 39.9871 13.3085 40.1354 13.2992L40.4374 13.3699L41.0562 13.2712C41.4101 13.219 41.7028 13.1408 41.9715 13.1538C42.3569 13.1296 42.5794 13.3547 42.5944 13.5929C42.5963 13.6227 42.6 13.6822 42.6019 13.712C42.6131 13.8907 42.4224 14.1717 42.0667 14.194C41.9481 14.2015 41.8258 14.1494 41.4108 14.1755C41.2922 14.183 41.1736 14.1904 40.7901 14.2445L40.805 14.4826C40.7108 14.8772 40.6575 15.4485 40.6671 16.0756L40.6512 17.2424C40.621 19.1275 40.6051 20.2943 40.6148 20.9214C40.6335 21.2191 40.6466 21.4275 40.6762 21.4257L40.7355 21.4219C40.7355 21.4219 41.0729 21.5801 41.086 21.7885C41.0878 21.8183 41.0916 21.8778 41.036 21.9411C40.7789 22.585 40.6216 22.9237 40.2955 22.9442C40.2066 22.9498 40.0565 22.9294 39.9304 22.8177C39.7117 22.6521 39.6037 21.8817 39.54 20.8694C39.4689 19.738 39.4698 18.333 39.5007 17.4044C39.4576 16.7196 39.4641 15.404 39.5562 14.5014C38.88 14.6336 38.1482 14.8291 37.1867 15.1586L37.0613 16.0035C37.0282 16.424 36.9377 16.8781 36.9028 17.2689C36.7259 18.7148 36.699 20.1812 36.6223 21.8002C36.6557 21.8579 36.8208 22.1165 36.8117 22.4459C36.8323 22.7734 36.4638 23.0656 36.108 23.088C35.8709 23.1029 35.6559 22.9969 35.5501 22.7345C35.5129 22.6173 35.4721 22.4405 35.4627 22.2916C35.4533 22.1428 35.444 21.9939 35.4642 21.8431C35.4605 21.7836 35.4568 21.7241 35.4549 21.6943C35.4964 19.9878 35.7073 16.7163 35.8437 15.5719L35.0008 15.8939C34.7933 15.907 34.4818 15.6874 34.4612 15.3599C34.4575 15.3004 34.4778 15.1496 34.5333 15.0863C34.6741 14.9579 35.2816 14.6806 35.9522 14.459C36.0334 13.8561 36.122 13.3723 36.626 13.3406C36.9817 13.3182 37.208 13.6029 37.2323 13.9899L37.2398 14.109L37.2713 14.1369Z" fill="white"/>
<path d="M49.9852 18.4787C50.0619 19.6995 50.3353 21.2067 50.4708 21.4673C50.5672 21.5808 50.6692 21.7836 50.6767 21.9027C50.6917 22.1409 50.4417 22.4256 50.0267 22.4517C49.4338 22.489 49.3277 21.7484 49.3221 21.6591C49.1473 20.7733 49.0003 19.8559 48.8939 18.637L48.7029 15.6001C48.7029 15.6001 48.6545 15.3042 48.6321 14.9469C48.604 14.5003 48.5684 13.9346 48.6146 13.7224L47.1195 14.0855C46.8546 14.132 46.3284 14.2847 46.1209 14.2978L46.1659 15.0123C46.1865 15.3398 46.2348 15.6357 46.2258 15.9651C46.3138 17.3645 46.2982 19.0095 45.7303 20.3904C45.29 21.4344 44.6737 22.5194 43.6086 23.0945C43.09 23.3663 42.6787 23.4519 42.4156 23.5283L42.1544 23.6344C42.1544 23.6344 41.8932 23.7405 41.7154 23.7517C41.4189 23.7703 41.1056 23.521 41.1147 23.1916C41.0959 22.8939 41.207 22.7673 41.4071 22.6352C41.6941 22.4676 42.1351 22.3801 42.6983 22.3447C42.728 22.3428 42.9299 22.2405 43.2189 22.1027C43.793 21.7677 44.4409 20.7106 44.6942 20.0072C45.177 18.6914 45.2004 17.6438 45.1551 16.4509C45.1345 16.1234 45.1139 15.7959 44.9797 14.6087C44.7722 14.6217 44.4795 14.6999 44.5388 14.6962C44.3609 14.7074 44.1756 14.5995 44.0791 14.486C43.9493 14.3148 43.9437 14.2254 43.9362 14.1063C43.9081 13.6597 44.4954 13.5331 44.9956 13.4419C45.0974 13.1664 45.24 13.0678 45.4771 13.0529C45.655 13.0417 45.87 13.1477 45.9683 13.291L48.0229 12.833C49.9885 12.3806 50.8093 12.1795 51.3429 12.1459C51.6412 12.157 52.0397 12.3412 52.064 12.7283C52.0753 12.9069 52.0291 13.1191 51.7067 13.1991C51.5585 13.2085 51.4696 13.2141 51.2917 13.2252L51.1138 13.2364C50.7581 13.2588 50.3764 13.3426 49.9096 13.4915C49.9171 13.6106 49.8968 13.7614 49.8747 13.8823C49.8953 14.2098 49.8457 14.8407 49.9021 16.2122L50.0426 18.4452L49.9852 18.4787Z" fill="white"/>
<path d="M58.0083 21.591C58.0083 21.591 57.8657 21.6896 57.7768 21.6952C57.6286 21.7046 57.4469 21.6562 57.3209 21.5446C57.1948 21.4329 57.113 21.0794 57.113 21.0794C57.113 21.0794 55.6963 22.2147 54.4197 22.2651C53.975 22.2931 53.5228 22.2019 53.1742 21.8651C52.8572 21.5563 52.7143 21.1767 52.6862 20.7301C52.6 19.3604 53.6495 17.5906 55.0316 17.3243C55.1502 17.3169 55.2391 17.3113 55.328 17.3057C56.4842 17.233 57.0537 18.2434 57.4101 19.1775C57.4101 19.1775 57.6875 18.3829 57.646 17.2496C57.5973 16.4754 57.3892 15.532 56.8253 14.6109C56.458 13.9764 55.9112 13.8015 55.3776 13.8351C54.5475 13.8873 53.7808 14.4736 53.7403 14.7751C53.7459 14.8644 53.6885 14.8979 53.568 14.8756C53.3308 14.8905 52.9657 14.764 52.9414 14.3769C52.8964 13.6623 54.2171 12.8918 55.4325 12.8153C55.8772 12.7874 56.2682 12.8524 56.6074 13.0403C58.0885 13.8738 58.6084 15.5151 58.6798 17.1248C58.8184 19.3281 58.1232 21.524 58.038 21.5891L58.0083 21.591ZM55.4195 18.2864L55.3305 18.292C53.9799 18.5861 53.5805 19.8069 53.6273 20.5513C53.6461 20.849 53.75 21.0816 53.8723 21.1337C54.0262 21.2137 54.1763 21.2342 54.3838 21.2211C55.3917 21.1577 56.7435 19.9368 56.7435 19.9368C56.7435 19.9368 56.1291 18.2118 55.4472 18.2547L55.4195 18.2864Z" fill="white"/>
<path d="M66.7328 11.716L67.2071 11.6862C67.7407 11.6526 68.4282 11.699 68.5508 12.2294C68.5714 12.5569 68.338 12.6314 68.0693 12.6184C67.8322 12.6333 67.532 12.5924 67.3541 12.6036C66.0793 12.6837 64.6436 13.0431 63.9118 13.2386C63.9268 13.4768 63.6641 16.8711 63.8086 19.6419C63.831 19.9992 63.8535 20.3565 63.8722 20.6542C63.8778 20.7436 63.9855 21.0357 64.0005 21.2739C64.0173 21.5419 63.9137 21.7875 63.5283 21.8118L63.4394 21.8174C62.8131 21.797 62.6755 21.0284 62.6549 20.7009C62.5968 19.7779 62.5144 18.4679 62.6483 16.3371C62.7029 14.8391 62.7656 14.4166 62.828 13.516C62.828 13.516 61.8332 13.7878 61.0849 14.1935C60.7404 14.3946 60.0682 15.0646 59.6828 15.0888C59.3214 15.0219 59.01 14.8023 58.9932 14.5343C58.9913 14.5046 58.9875 14.445 58.9857 14.4153C59.0836 14.0803 59.1039 13.9295 60.232 13.4102C61.3897 12.889 62.579 12.3957 63.987 12.068C63.987 12.068 65.1893 11.7832 66.642 11.6918L66.7328 11.716Z" fill="white"/>
<path d="M74.2415 15.1596C74.2584 15.4276 74.2924 16.4417 74.3504 17.3647C74.4628 19.1512 74.6319 19.9476 74.7674 20.2081C74.8342 20.3235 74.9658 20.5245 74.9752 20.6733C74.9883 20.8818 74.9106 21.066 74.5327 21.2093C74.4734 21.2131 74.3548 21.2205 74.2956 21.2243C73.673 21.2634 73.6262 20.5191 73.6187 20.4C73.5778 20.2232 73.2785 18.7773 73.1924 17.4077L73.0669 15.4128C73.0669 15.4128 71.4848 15.8112 71.1328 15.8932C70.8104 15.9732 70.1361 16.1352 69.5229 16.3232L69.38 18.7834C69.36 19.4123 69.39 19.8887 69.3884 20.3372C69.4109 20.6945 69.424 20.9029 69.3722 21.0257C69.2093 21.2751 69.0648 21.344 68.9463 21.3515C68.798 21.3608 68.5552 21.2864 68.4311 21.2045C68.305 21.0929 68.2622 20.8863 68.2491 20.6779C68.2135 20.1122 68.2887 18.9417 68.3271 18.1322L68.4373 16.5709C68.2241 16.4946 68.0534 16.1466 68.0403 15.9382C68.0235 15.6702 68.1901 15.4804 68.4791 15.3427C68.4585 15.0152 68.4709 14.2671 68.4297 13.612C68.4204 13.4632 68.411 13.3143 68.4016 13.1654L68.3736 12.7188C68.2734 12.5458 68.264 12.3969 68.264 12.3969C68.2565 12.2778 68.249 12.1587 68.3601 12.0321C68.4693 11.8758 68.6731 11.8032 68.9103 11.7883C69.0585 11.779 69.2401 11.8273 69.4311 12.0246C69.496 12.1102 69.6003 12.821 69.6283 13.2676L69.6377 13.4165L69.605 14.3153C69.594 14.6149 69.5719 14.7359 69.5628 15.0653C69.5628 15.0653 70.2094 14.9349 71.2654 14.6892C71.8527 14.5625 72.4085 14.408 73.0217 14.22C72.9936 13.7734 72.9333 12.3424 73.0407 12.1563C73.1998 11.8473 73.3999 11.7152 73.637 11.7003C73.7556 11.6928 73.9057 11.7133 74.0633 11.8528C74.1597 11.9663 74.1672 12.0854 74.1766 12.2343C74.1878 12.4129 74.2028 12.6511 74.1585 12.893C74.1476 13.1926 74.1126 13.5834 74.1351 13.9407C74.5167 13.8569 75.6617 13.6056 76.1656 13.5739C76.2842 13.5664 76.4028 13.559 76.4325 13.5571C76.6512 13.7227 76.8125 13.9218 76.8257 14.1302C76.835 14.2791 76.787 14.4614 76.6759 14.588C76.5667 14.7443 76.361 14.7872 76.2424 14.7946C76.0646 14.8058 75.8829 14.7574 75.7921 14.7333C75.7625 14.7351 75.7032 14.7389 75.6735 14.7407C75.466 14.7538 75.0862 14.8673 74.7046 14.9511L74.1766 15.074L74.2415 15.1596Z" fill="white"/>
<path d="M82.8033 20.2109C82.8033 20.2109 82.6606 20.3096 82.5717 20.3152C82.4235 20.3245 82.2437 20.3059 82.1158 20.1645C81.9897 20.0529 81.908 19.6993 81.908 19.6993C81.908 19.6993 80.4912 20.8346 79.2146 20.885C78.7699 20.913 78.3177 20.8219 77.9692 20.4851C77.6521 20.1762 77.5092 19.7966 77.4811 19.35C77.395 17.9804 78.4444 16.2105 79.8265 15.9443C79.9451 15.9368 80.034 15.9312 80.123 15.9256C81.2791 15.8529 81.8486 16.8633 82.205 17.7974C82.205 17.7974 82.4824 17.0028 82.4409 15.8695C82.3922 15.0954 82.1841 14.1519 81.6183 13.2011C81.251 12.5666 80.7043 12.3917 80.1707 12.4253C79.3406 12.4775 78.5739 13.0637 78.5333 13.3652C78.5389 13.4545 78.4815 13.488 78.3629 13.4955C78.1258 13.5104 77.7607 13.3839 77.7363 12.9969C77.6914 12.2823 79.012 11.5117 80.2275 11.4353C80.6721 11.4073 81.0631 11.4724 81.4024 11.6603C82.8815 12.464 83.4033 14.135 83.4748 15.7447C83.6133 17.948 82.9181 20.1439 82.8329 20.2091L82.8033 20.2109ZM80.2163 16.9361L80.1273 16.9417C78.7767 17.2359 78.3773 18.4567 78.4241 19.201C78.4429 19.4987 78.5468 19.7313 78.6691 19.7834C78.823 19.8634 78.9731 19.8839 79.1806 19.8708C80.1885 19.8074 81.5403 18.5865 81.5403 18.5865C81.5403 18.5865 80.9259 16.8615 80.244 16.9044L80.2163 16.9361Z" fill="white"/>
<path d="M96.0891 15.1905C96.7047 13.149 96.6991 13.0597 96.8224 11.7068C96.8739 11.1057 96.8785 9.76026 96.8486 9.28387C96.7718 8.06313 96.7325 7.43788 96.71 7.08059C96.2987 7.16624 95.9745 7.21652 95.7373 7.23144C95.5001 7.24636 95.287 7.17008 95.1906 7.05658C95.0608 6.88539 95.0514 6.73652 95.0439 6.61743C95.0065 6.02194 96.0144 5.95855 96.5424 5.83567C96.5405 5.80589 96.5368 5.74634 96.5349 5.71657C96.6329 5.3816 96.8607 5.21781 97.0979 5.20289C97.3054 5.18984 97.5204 5.29589 97.6187 5.43916L97.6892 5.61408C98.1894 5.52283 99.4177 5.17656 100.211 5.00712C103.497 4.26236 104.231 4.09665 104.913 4.05376L105.002 4.04817C105.298 4.02953 105.45 4.07975 105.574 4.16162C105.697 4.21371 105.891 4.47049 105.904 4.6789C105.916 4.85755 105.869 5.0697 105.547 5.14976C105.341 5.19258 104.095 5.24112 102.746 5.56508C102.751 5.6544 102.757 5.74372 102.765 5.86282C102.8 6.42853 102.552 6.74305 102.734 10.1094C102.828 11.5981 102.826 12.0466 102.896 13.6265C103.012 15.4725 103.389 17.6906 103.607 18.3047C103.784 18.2935 103.962 18.2823 104.14 18.2711C105.893 18.2207 106.975 18.3917 107.353 18.7266C107.415 18.7527 107.454 18.8997 107.459 18.989C107.487 19.4356 107.064 20.2694 106.864 20.8798C106.586 21.6744 106.302 22.8282 106.005 22.8468C105.883 22.7948 105.813 22.6198 105.827 22.3798C105.832 21.5126 106.085 20.3309 106.079 19.7633C106.072 19.6442 106.07 19.6145 106.038 19.5865C105.792 19.4526 105.397 19.328 104.385 19.3318C104.178 19.3449 104 19.356 103.793 19.3691C103.735 19.4026 103.65 19.4677 103.563 19.5031C103.417 19.5422 103.329 19.5776 103.211 19.585C103.033 19.5962 102.822 19.5497 102.727 19.466C98.814 19.7121 94.1191 20.3063 91.8976 20.4759C91.8108 20.9895 91.7278 21.5627 91.5855 22.1396C91.4357 22.5974 91.1936 23.4795 90.8435 23.5912C90.8138 23.5931 90.7545 23.5968 90.6952 23.6005C90.6656 23.6024 90.6637 23.5726 90.6581 23.4833C90.6562 23.4535 90.6525 23.394 90.6506 23.3642C90.6263 22.9771 90.8759 22.2141 90.831 21.4995C90.8066 21.1125 90.5504 20.3514 90.5279 19.9941C90.5167 19.8155 90.5666 19.6629 90.7629 19.4712C90.761 19.4414 90.8185 19.4079 90.937 19.4004C91.7078 19.352 92.4786 19.3035 93.6329 19.201C94.6939 18.088 95.5399 16.8691 96.0853 15.1309L96.0891 15.1905ZM95.2634 19.0984C97.7184 18.8544 101.063 18.5544 102.336 18.4444C102.205 17.795 101.835 15.6959 101.754 13.9374L101.453 9.14374C101.453 9.14374 101.344 6.46034 101.456 5.88531C100.458 6.09758 98.9072 6.52391 97.9105 6.76595C97.9273 7.03392 97.9461 7.33166 97.9648 7.6294L97.9929 8.07601C98.0397 8.82036 97.9994 9.60009 97.9686 10.5287C97.8934 14.5389 96.8979 16.694 95.2615 19.0687L95.2634 19.0984Z" fill="white"/>
<path d="M116.518 13.0088C116.647 15.0632 112.621 18.7241 110.102 18.8826L109.983 18.8901C109.509 18.9199 109.119 18.8846 108.78 18.6967C107.772 18.2818 107.33 17.4128 107.263 16.341C107.115 13.9888 108.99 10.6725 110.785 9.87205C111.016 9.76781 111.22 9.69521 111.428 9.68216C112.228 9.63182 112.79 10.0449 112.79 10.0449C115.041 10.3516 116.348 11.2559 116.451 12.8935L116.459 13.0126L116.518 13.0088ZM111.909 11.1764L111.76 11.1857C111.76 11.1857 111.618 11.2844 111.59 11.316C111.451 11.4742 111.223 11.638 110.927 11.6566C110.66 11.6734 110.562 11.5301 110.467 11.4464C109.121 12.7566 108.329 14.8391 108.388 16.2403C108.427 16.8656 108.607 17.3624 109.037 17.5745C109.373 17.7029 109.704 17.7717 110.06 17.7493C112.372 17.6039 115.426 14.5721 115.397 13.169L115.39 13.0499C115.268 11.1146 112.62 11.1317 111.909 11.1764Z" fill="white"/>
<path d="M127.89 13.9974C127.901 14.1761 122.91 18.1069 119.529 18.2897C118.61 18.3475 117.822 18.128 117.277 17.5047C116.989 17.1939 116.843 16.7548 116.815 16.3082C116.663 13.8965 119.608 10.0943 121.4 9.71258C121.518 9.70512 121.637 9.69766 121.756 9.6902C122.26 9.65851 122.48 9.85387 122.499 10.1516C122.52 10.4791 122.277 10.883 121.964 11.1119C121.877 11.1473 121.79 11.1826 121.731 11.1864C121.523 11.1994 121.279 11.0952 121.041 11.1102C120.982 11.1139 120.923 11.1176 120.863 11.1213C120.398 11.3 117.843 14.2108 117.958 16.027C117.986 16.4736 118.16 16.8812 118.653 17.1491C118.902 17.3128 119.261 17.35 119.646 17.3257C122.255 17.1616 127.063 13.6309 127.265 13.5286C127.324 13.5248 127.382 13.4913 127.441 13.4876C127.678 13.4727 127.901 13.6978 127.916 13.936L127.921 14.0253L127.89 13.9974Z" fill="white"/>
<path d="M134.358 8.00084L134.833 7.97101C135.366 7.93745 136.054 7.98389 136.176 8.51423C136.197 8.84174 135.962 8.88643 135.695 8.90321C135.458 8.91813 135.157 8.87723 134.98 8.88841C133.705 8.96859 132.269 9.32792 131.537 9.5234C131.552 9.76159 131.289 13.1559 131.434 15.9268C131.456 16.2841 131.479 16.6413 131.498 16.9391C131.503 17.0284 131.611 17.3206 131.626 17.5587C131.643 17.8267 131.539 18.0724 131.154 18.0966L131.065 18.1022C130.439 18.0818 130.301 17.3133 130.28 16.9858C130.222 16.0628 130.14 14.7527 130.274 12.622C130.328 11.1239 130.391 10.7015 130.453 9.80081C130.453 9.80081 129.459 10.0726 128.71 10.4784C128.366 10.6794 127.694 11.3494 127.308 11.3737C126.947 11.3067 126.635 11.0872 126.617 10.7894C126.615 10.7596 126.611 10.7001 126.609 10.6703C126.707 10.3353 126.727 10.1846 127.856 9.66528C129.013 9.14409 130.203 8.6508 131.611 8.32311C131.611 8.32311 132.813 8.03825 134.266 7.94689L134.358 8.00084Z" fill="white"/>
<path d="M141.085 16.9937C141.085 16.9937 140.942 17.0924 140.853 17.098C140.705 17.1073 140.523 17.0589 140.397 16.9473C140.271 16.8356 140.189 16.4821 140.189 16.4821C140.189 16.4821 138.772 17.6174 137.496 17.6678C137.051 17.6958 136.599 17.6046 136.25 17.2679C135.933 16.959 135.79 16.5794 135.762 16.1328C135.676 14.7632 136.724 12.9635 138.108 12.727C138.226 12.7196 138.315 12.714 138.404 12.7084C139.56 12.6357 140.13 13.6461 140.486 14.5802C140.486 14.5802 140.764 13.7856 140.722 12.6523C140.673 11.8782 140.465 10.9347 139.9 9.98385C139.532 9.34933 138.986 9.17448 138.452 9.20804C137.622 9.26024 136.855 9.84652 136.815 10.148C136.82 10.2373 136.763 10.2708 136.644 10.2783C136.407 10.2932 136.042 10.1667 136.018 9.77963C135.973 9.06505 137.293 8.29448 138.509 8.21803C138.953 8.19006 139.344 8.25515 139.684 8.44306C141.163 9.24678 141.685 10.9178 141.756 12.5275C141.895 14.7308 141.199 16.9267 141.114 16.9918L141.085 16.9937ZM138.496 13.6891L138.407 13.6947C137.056 13.9889 136.657 15.2097 136.704 15.954C136.722 16.2517 136.826 16.4843 136.948 16.5364C137.102 16.6164 137.252 16.6369 137.46 16.6238C138.468 16.5604 139.82 15.3395 139.82 15.3395C139.82 15.3395 139.205 13.6146 138.523 13.6574L138.496 13.6891Z" fill="white"/>
<path d="M148.815 16.388C148.102 16.8812 147.32 17.2293 146.944 17.4024L146.772 17.5029C146.772 17.5029 146.596 17.5439 146.477 17.5513C146.27 17.5644 146.03 17.5495 145.864 17.2611C145.797 17.1458 145.763 17.0881 145.756 16.969C145.732 16.5819 146.096 16.2302 146.391 16.1817C146.45 16.178 146.656 16.1352 146.832 16.0942C147.097 16.0477 147.451 15.9955 147.451 15.9955C148.321 15.6418 149.927 14.1957 149.878 12.9433C149.842 12.3776 148.532 11.8921 146.425 11.9947C145.921 12.0264 144.952 12.2368 144.404 12.5104L144.481 13.7312C144.516 14.2969 144.528 14.4755 144.6 14.6802C144.606 14.7695 144.702 14.883 144.71 15.0021C144.817 15.2943 144.893 15.5585 144.905 15.7372C144.916 15.9158 144.921 16.0051 144.871 16.1577C144.853 16.3382 144.681 16.4387 144.414 16.4555C144.088 16.476 143.662 16.3235 143.617 16.0872C143.617 16.0872 143.613 16.0276 143.58 15.9699C143.539 15.7932 143.47 15.648 143.448 15.2907C143.44 15.1716 143.429 14.993 143.449 14.8422L143.429 14.5147C143.386 13.8299 143.309 12.6092 143.309 12.6092C143.309 12.6092 143.213 10.1342 143.192 9.80669C143.014 9.81787 142.709 9.68765 142.68 9.24104C142.656 8.85397 142.823 8.66414 143.076 8.43894C143.067 8.29007 143.191 7.89368 143.511 7.78385C143.571 7.78012 143.66 7.77453 143.749 7.76893C144.015 7.75215 144.11 7.83588 144.177 7.95125C144.671 7.77068 146.679 7.04655 148.134 6.98496C148.49 6.96259 148.788 6.97371 149.033 7.0779C149.307 7.18021 149.439 7.38117 149.454 7.61937C149.485 8.12553 149.08 8.77875 148.828 9.03372C147.825 10.1132 147.288 10.5654 146.777 10.9563C148.294 10.9505 150.925 11.1437 151.008 12.932C151.083 14.123 149.698 15.7645 148.874 16.3843L148.815 16.388ZM148.172 8.05869C148.172 8.05869 148.138 8.00101 148.079 8.00474C147.071 8.06813 144.531 8.8556 144.261 9.29109C144.154 9.47719 144.195 10.1322 144.197 10.6402C144.229 11.1464 144.238 11.2953 144.238 11.2953C144.238 11.2953 145.353 10.5675 146.15 9.97939C147.257 9.13254 148.155 8.26898 148.142 8.06056L148.172 8.05869Z" fill="white"/>
<path d="M157.219 16.0985C157.219 16.0985 157.076 16.1972 156.988 16.2028C156.839 16.2121 156.66 16.1935 156.532 16.0521C156.406 15.9405 156.324 15.5869 156.324 15.5869C156.324 15.5869 154.907 16.7222 153.63 16.7726C153.186 16.8006 152.734 16.7095 152.383 16.3429C152.068 16.0638 151.923 15.6544 151.895 15.2078C151.809 13.8382 152.858 12.0684 154.24 11.8021C154.359 11.7946 154.448 11.789 154.537 11.7835C155.663 11.7126 156.263 12.7211 156.619 13.6553C156.619 13.6553 156.896 12.8606 156.855 11.7273C156.806 10.9532 156.598 10.0098 156.032 9.05892C155.665 8.42439 155.118 8.24954 154.585 8.2831C153.755 8.33531 152.988 8.92158 152.947 9.22305C152.953 9.31237 152.895 9.34588 152.775 9.32356C152.538 9.33848 152.173 9.21198 152.148 8.82492C152.103 8.11034 153.424 7.33977 154.64 7.26332C155.084 7.23535 155.475 7.30044 155.814 7.48834C157.294 8.29207 157.815 9.9631 157.887 11.5728C158.025 13.7761 157.33 15.972 157.245 16.0371L157.219 16.0985ZM154.632 12.8237L154.543 12.8293C153.193 13.1235 152.793 14.3443 152.84 15.0886C152.859 15.3864 152.963 15.619 153.085 15.671C153.239 15.751 153.389 15.7715 153.596 15.7584C154.604 15.6951 155.956 14.4741 155.956 14.4741C155.956 14.4741 155.342 12.7492 154.66 12.792L154.632 12.8237Z" fill="white"/>
<path d="M161.132 18.6921C160.806 18.7126 160.532 18.1321 160.511 17.8046C160.489 17.4473 160.587 17.1123 160.792 17.0695C161.415 17.0303 161.585 17.3783 161.606 17.7058L161.614 17.8249C161.636 18.1822 161.605 18.6325 161.134 18.7219L161.132 18.6921ZM161.827 6.54224C161.735 8.40128 161.339 11.0866 161.384 11.8012C161.387 11.8607 161.391 11.9203 161.393 11.9501C161.408 12.1883 161.621 12.7428 161.644 13.1001C161.664 13.4276 161.476 13.7384 161.238 13.7533C161.209 13.7552 161.15 13.7589 161.12 13.7607C160.67 13.6994 160.469 13.3533 160.424 12.6387C160.415 12.4898 160.404 12.3112 160.392 12.1325C160.501 8.65824 160.558 7.18998 160.667 3.71567C160.699 2.81686 160.559 1.06205 160.67 0.935491C160.752 0.8108 160.982 0.676787 161.248 0.660007C161.397 0.650684 161.549 0.70091 161.708 0.870232C161.836 1.01164 161.89 1.39684 161.925 1.96255C161.991 3.00465 161.916 4.65341 161.827 6.54224Z" fill="white"/>
</g>
<defs>
<clipPath id="clip0_145_185">
<rect width="161.531" height="19.0036" fill="white" transform="translate(0.616211 10.5536) rotate(-3.59882)"/>
</clipPath>
</defs>
</svg>
