<svg width="162" height="20" viewBox="0 0 162 20" fill="none" xmlns="http://www.w3.org/2000/svg">
<g clip-path="url(#clip0_145_204)">
<path d="M1.45788 1.33997C1.45788 1.33997 1.54699 1.33946 1.57669 1.33929C1.90343 1.3374 2.0832 1.60487 2.20202 1.60418C2.85395 1.33193 9.44573 0.876277 11.1388 0.866522C11.3468 0.865324 11.4953 0.864468 11.525 0.864297C11.8823 1.01141 12.2104 1.24818 12.2133 1.75533C12.2147 1.99399 11.1481 2.47748 10.7618 2.44987C10.4648 2.45158 10.6691 1.8239 10.342 1.76612C9.59958 1.80023 5.20276 1.70623 2.23877 2.82714C2.23877 2.82714 2.07189 4.79712 1.93541 6.88624C1.93541 6.88624 3.03272 6.58159 4.99281 6.51063C4.99281 6.51063 5.08192 6.51011 5.23044 6.50926C7.27998 6.49745 12.2132 6.88669 12.2002 9.78061C12.2108 11.6302 9.93704 13.9703 8.60485 14.7537C6.74006 15.8981 5.6424 16.1431 5.40563 16.2936C5.31687 16.3538 5.16852 16.3845 4.96059 16.3857C4.72297 16.3871 4.42541 16.2993 4.27518 16.0018C4.21508 15.8828 4.18469 15.7637 4.18383 15.6145C4.18125 15.167 4.65445 14.8063 5.01055 14.7446C5.248 14.7134 6.43546 14.5872 6.73198 14.496C8.21441 14.0101 11.0234 11.7564 11.0113 9.66813C11.0055 8.65383 8.8608 7.62201 5.38532 7.6122C4.55362 7.617 2.77295 7.89576 1.88425 8.31855C1.8882 9.00469 1.80287 9.66152 1.80597 10.1985L1.80855 10.646C1.81009 10.9145 1.81147 11.1531 1.81284 11.3918C1.81697 12.1078 1.82023 12.6746 1.79294 13.0924C1.79638 13.6891 1.82814 14.0469 1.97821 14.3145C2.0383 14.4335 2.06852 14.5228 2.06921 14.6422C2.07179 15.0897 1.71844 15.6287 1.24318 15.6314C1.09466 15.6323 0.945801 15.5735 0.796768 15.4848C0.677438 15.396 0.640343 14.1134 0.631405 12.5621C0.617826 10.2054 0.74881 7.16158 0.804952 6.59442C0.860061 5.84827 0.886499 5.28128 0.883061 4.68463C0.880311 4.20731 0.877561 3.72999 0.844248 3.10368C0.814544 3.10385 0.69573 3.10454 0.606619 3.10505C0.310099 3.19626 0.0127199 3.13831 0.0104853 2.75048L0.00996965 2.66099C0.00756319 2.24333 0.333271 2.06245 0.71873 1.9409C0.956014 1.87986 0.894029 1.43272 1.45771 1.31014L1.45788 1.33997Z" fill="white"/>
<path d="M22.2533 12.0497C21.8091 12.2909 18.4405 15.3534 16.0939 15.3669C15.7671 15.3688 15.44 15.311 15.1719 15.1634C13.8316 14.5446 12.8714 12.8794 12.8625 11.3281C12.8611 11.0895 12.8598 10.8508 12.9475 10.6116C13.4389 8.25197 16.1623 6.62527 18.3606 6.64244C19.0437 6.6385 19.6387 6.78424 20.1457 7.13932C20.2051 7.13898 20.2353 7.22831 20.2357 7.28797C20.2386 7.79512 18.4641 9.14785 17.2799 9.84085C15.9774 10.624 14.7306 10.7505 14.1367 10.7838C14.1367 10.7838 14.0786 11.0228 14.0807 11.3808C14.0833 11.8283 14.176 12.4542 14.6257 13.1677C14.9856 13.7623 15.4637 14.2667 16.2956 14.2917L16.3847 14.2912C18.0181 14.2221 21.1816 11.6382 21.4177 11.3683C21.5351 11.129 21.7696 10.5906 22.1261 10.5886C22.2449 10.5879 22.3043 10.5876 22.4238 10.7062C22.6326 10.8542 22.7229 11.0625 22.7241 11.2713C22.7258 11.5696 22.5196 11.8692 22.2535 12.0795L22.2533 12.0497ZM18.5742 7.62571C18.3365 7.62708 17.4454 7.63222 16.3497 8.20537C15.2834 8.74851 14.6349 9.61742 14.6349 9.61742C14.6349 9.61742 15.793 9.55108 17.0955 8.76791C17.6285 8.4665 17.9835 8.22579 18.6336 7.62537L18.5742 7.62571Z" fill="white"/>
<path d="M33.8644 11.4458C33.8654 11.6248 28.6584 15.2646 25.272 15.2543C24.3512 15.2596 23.5772 14.9658 23.0686 14.3422C22.7994 14.0156 22.678 13.5688 22.6754 13.1213C22.6615 10.7048 25.819 7.0768 27.6294 6.79787C27.7482 6.79718 27.867 6.7965 27.9858 6.79582C28.4908 6.79291 28.6999 7.00054 28.7016 7.29886C28.7035 7.62702 28.4384 8.01638 28.1129 8.22709C28.0239 8.25744 27.935 8.28778 27.8756 8.28812C27.6677 8.28932 27.4293 8.17136 27.1917 8.17273C27.1323 8.17307 27.0729 8.17342 27.0135 8.17376C26.5391 8.32566 23.8222 11.086 23.8327 12.9058C23.8352 13.3533 23.9862 13.7701 24.4631 14.0656C24.7018 14.2433 25.0586 14.3009 25.4447 14.2987C28.0586 14.2836 33.0303 11.0329 33.2674 10.9421C33.3268 10.9417 33.386 10.9116 33.4454 10.9112C33.6831 10.9098 33.8924 11.1473 33.8937 11.386L33.8943 11.4755L33.8644 11.4458Z" fill="white"/>
<path d="M36.3909 6.59822L36.7172 6.50684C37.6962 6.29236 38.2008 6.22979 38.9724 6.10601C39.0606 5.95633 39.1496 5.92599 39.2981 5.92513L39.5957 6.01292L40.2191 5.94966C40.5754 5.91777 40.8721 5.8564 41.1396 5.88469C41.5257 5.88246 41.735 6.11992 41.7364 6.35858C41.7365 6.38842 41.7369 6.44808 41.7371 6.47791C41.7381 6.65691 41.5317 6.9266 41.1753 6.92865C41.0565 6.92934 40.9373 6.87036 40.5215 6.87275C40.4026 6.87344 40.2838 6.87412 39.8978 6.90618L39.8992 7.14484C39.7826 7.53335 39.6968 8.10068 39.6707 8.72733L39.5883 9.89131C39.4506 11.7716 39.3682 12.9356 39.3421 13.5622C39.3438 13.8606 39.345 14.0694 39.3747 14.0692L39.4341 14.0689C39.4341 14.0689 39.7619 14.246 39.7631 14.4548C39.7633 14.4847 39.7636 14.5443 39.7046 14.6043C39.4111 15.2325 39.2348 15.5617 38.9081 15.5636C38.819 15.5641 38.6703 15.5351 38.5508 15.4165C38.3418 15.2387 38.2779 14.4634 38.2721 13.4491C38.2656 12.3154 38.3466 10.9128 38.4304 9.98748C38.4264 9.30134 38.508 7.98819 38.6513 7.09236C37.9687 7.1858 37.2269 7.33924 36.2483 7.61338L36.0749 8.44971C36.0179 8.86771 35.9016 9.31588 35.8444 9.70405C35.5854 11.1375 35.475 12.6 35.306 14.212C35.3361 14.2715 35.4861 14.5391 35.4583 14.8675C35.4602 15.1956 35.0756 15.4663 34.7192 15.4684C34.4816 15.4698 34.2729 15.3516 34.1823 15.0836C34.1519 14.9645 34.1212 14.7857 34.1203 14.6365C34.1194 14.4873 34.1186 14.3382 34.1474 14.1888C34.1471 14.1292 34.1467 14.0695 34.1466 14.0397C34.2853 12.3384 34.6824 9.08424 34.8838 7.94941L34.0239 8.22286C33.816 8.22406 33.5176 7.98711 33.5157 7.65896C33.5154 7.59929 33.5442 7.44996 33.6033 7.38995C33.7511 7.26977 34.3735 7.02751 35.0557 6.84458C35.171 6.24725 35.2871 5.76924 35.7921 5.76633C36.1485 5.76428 36.3581 6.0614 36.3604 6.44923L36.3611 6.56856L36.3909 6.59822Z" fill="white"/>
<path d="M48.8366 11.6579C48.8436 12.881 49.0306 14.4014 49.151 14.6692C49.2408 14.788 49.3311 14.9964 49.3318 15.1157C49.3331 15.3544 49.0674 15.6244 48.6515 15.6268C48.0574 15.6302 47.9937 14.8847 47.9932 14.7952C47.8693 13.9009 47.7748 12.9767 47.7381 11.7537L47.7205 8.71078C47.7205 8.71078 47.6891 8.41263 47.687 8.05464C47.6845 7.60715 47.6812 7.04033 47.7394 6.83116L46.2261 7.10838C45.9589 7.13976 45.4249 7.26217 45.217 7.26337L45.2211 7.97935C45.223 8.3075 45.2544 8.60566 45.2266 8.93398C45.2347 10.3361 45.1254 11.9776 44.4796 13.3238C43.9805 14.341 43.3033 15.3891 42.2072 15.9026C41.6739 16.1443 41.2584 16.2064 40.9914 16.2676L40.7246 16.3586C40.7246 16.3586 40.4578 16.4497 40.2796 16.4507C39.9825 16.4524 39.684 16.1856 39.7118 15.8573C39.7101 15.559 39.8282 15.439 40.0354 15.3184C40.3316 15.1676 40.7768 15.1053 41.3412 15.1021C41.3709 15.1019 41.5783 15.0112 41.8746 14.8902C42.467 14.5884 43.174 13.57 43.4671 12.8821C44.0241 11.5961 44.1072 10.5514 44.13 9.35797C44.1281 9.02981 44.1262 8.70166 44.0599 7.5087C43.852 7.5099 43.5553 7.57127 43.6147 7.57093C43.4365 7.57196 43.2576 7.45366 43.1678 7.33484C43.048 7.15653 43.0474 7.06703 43.0468 6.9477C43.0442 6.50021 43.6377 6.40729 44.1424 6.34472C44.2596 6.07554 44.4076 5.98519 44.6453 5.98382C44.8235 5.98279 45.0321 6.10093 45.1221 6.24957L47.1994 5.90944C49.1877 5.56981 50.0185 5.41586 50.5532 5.41278C50.8504 5.4409 51.2377 5.6475 51.24 6.03532C51.241 6.21432 51.1828 6.42349 50.8564 6.48504C50.7079 6.48589 50.6188 6.48641 50.4405 6.48743L50.2623 6.48846C49.9059 6.49051 49.5201 6.5524 49.0455 6.67447C49.0462 6.7938 49.0173 6.94313 48.9883 7.06264C48.9902 7.39079 48.9047 8.01779 48.8829 9.39025L48.8958 11.6277L48.8366 11.6579Z" fill="white"/>
<path d="M56.6695 15.2226C56.6695 15.2226 56.5215 15.3129 56.4324 15.3134C56.2839 15.3143 56.1053 15.2557 55.9858 15.137C55.8663 15.0184 55.8048 14.6607 55.8048 14.6607C55.8048 14.6607 54.3257 15.7134 53.0483 15.6909C52.6027 15.6935 52.1565 15.5768 51.8277 15.2206C51.5287 14.8942 51.4077 14.5071 51.4051 14.0596C51.3972 12.6873 52.5458 10.9802 53.9409 10.7931C54.0597 10.7924 54.1488 10.7919 54.2379 10.7914C55.3964 10.7847 55.9073 11.826 56.2099 12.7789C56.2099 12.7789 56.5321 12.0014 56.5553 10.8676C56.5508 10.0919 56.3968 9.13812 55.8864 8.18639C55.5558 7.53196 55.02 7.32622 54.4853 7.3293C53.6536 7.33409 52.8547 7.87569 52.797 8.17436C52.7975 8.26386 52.7383 8.29403 52.6193 8.26488C52.3817 8.26625 52.0244 8.11915 52.0222 7.73132C52.018 7.01534 53.3804 6.32132 54.5983 6.31431C55.0438 6.31174 55.4305 6.39901 55.7584 6.60596C57.1895 7.52255 57.615 9.19077 57.5946 10.8019C57.6073 13.0095 56.788 15.1622 56.6992 15.2224L56.6695 15.2226ZM54.2733 11.7757L54.1842 11.7762C52.819 11.9929 52.3506 13.189 52.3549 13.9348C52.3567 14.2331 52.4471 14.4712 52.5663 14.5302C52.7153 14.6189 52.864 14.6478 53.072 14.6466C54.0819 14.6408 55.5011 13.499 55.5011 13.499C55.5011 13.499 54.986 11.7418 54.3028 11.7457L54.2733 11.7757Z" fill="white"/>
<path d="M65.9428 5.86111L66.4181 5.85837C66.9527 5.85529 67.6364 5.94085 67.7286 6.47732C67.7305 6.80548 67.4933 6.86651 67.2257 6.83822C66.9881 6.83959 66.6907 6.78164 66.5125 6.78266C65.2353 6.79002 63.7813 7.0669 63.0396 7.22034C63.041 7.459 62.5852 10.8328 62.5714 13.6074C62.5735 13.9654 62.5756 14.3234 62.5773 14.6217C62.5778 14.7112 62.6686 15.009 62.67 15.2477C62.6715 15.5162 62.5541 15.7555 62.168 15.7577L62.0788 15.7582C61.4547 15.7022 61.3611 14.927 61.3593 14.5989C61.3539 13.6741 61.3464 12.3615 61.6015 10.2418C61.7414 8.74933 61.8281 8.33116 61.9418 7.4355C61.9418 7.4355 60.9331 7.65015 60.1628 8.01259C59.8074 8.19364 59.0981 8.82423 58.712 8.82645C58.355 8.73901 58.0566 8.50206 58.0551 8.23357C58.0549 8.20373 58.0546 8.14407 58.0544 8.11424C58.1713 7.78539 58.2002 7.63606 59.356 7.1819C60.5416 6.72757 61.757 6.30289 63.1814 6.05602C63.1814 6.05602 64.3981 5.84017 65.8535 5.83179L65.9428 5.86111Z" fill="white"/>
<path d="M73.2427 9.72723C73.2442 9.99573 73.2204 11.0102 73.2257 11.935C73.236 13.725 73.3595 14.5297 73.4798 14.7976C73.5399 14.9165 73.66 15.1247 73.6608 15.2738C73.662 15.4827 73.5739 15.6622 73.1885 15.7837C73.1291 15.7841 73.0103 15.7848 72.9509 15.7851C72.3271 15.7887 72.3228 15.0429 72.3221 14.9236C72.2914 14.7447 72.075 13.2841 72.0671 11.9119L72.0556 9.91307C72.0556 9.91307 70.4533 10.2206 70.0972 10.2824C69.7708 10.3439 69.0883 10.4672 68.4654 10.6199L68.1825 13.0679C68.1267 13.6947 68.1294 14.172 68.1023 14.6197C68.1044 14.9777 68.1056 15.1865 68.0468 15.3062C67.87 15.5459 67.7218 15.6064 67.603 15.6071C67.4545 15.6079 67.2164 15.5198 67.097 15.431C66.9775 15.3124 66.9466 15.1037 66.9454 14.8949C66.9421 14.3281 67.084 13.1637 67.1684 12.3577L67.3674 10.8053C67.159 10.717 67.0084 10.3598 67.0072 10.151C67.0056 9.8825 67.1828 9.70248 67.4792 9.58144C67.4773 9.25328 67.5324 8.50713 67.5286 7.85082C67.5278 7.70165 67.5269 7.55249 67.526 7.40333L67.5235 6.95584C67.4333 6.77736 67.4325 6.6282 67.4325 6.6282C67.4318 6.50887 67.4311 6.38954 67.5492 6.26952C67.6672 6.11968 67.8747 6.05881 68.1124 6.05744C68.2609 6.05659 68.4395 6.11523 68.6189 6.32303C68.6788 6.41218 68.7423 7.12782 68.7449 7.57531L68.7458 7.72447L68.6618 8.61996C68.6338 8.91845 68.6048 9.03795 68.577 9.36628C68.577 9.36628 69.23 9.27302 70.2983 9.08786C70.8918 8.99494 71.4555 8.87236 72.0784 8.7196C72.0758 8.27212 72.0973 6.83999 72.2151 6.66031C72.3916 6.36096 72.5988 6.24043 72.8364 6.23906C72.9553 6.23837 73.1039 6.26735 73.2533 6.41566C73.3431 6.53447 73.3438 6.6538 73.3447 6.80297C73.3457 6.98196 73.3471 7.22062 73.289 7.45962C73.2611 7.75812 73.2039 8.14628 73.2059 8.50427C73.5918 8.44238 74.7492 8.25671 75.2541 8.2538C75.3729 8.25312 75.4917 8.25243 75.5215 8.25226C75.7304 8.43006 75.8801 8.63803 75.8813 8.84686C75.8822 8.99602 75.8238 9.17536 75.7057 9.29537C75.5877 9.44522 75.38 9.47625 75.2612 9.47694C75.0829 9.47796 74.9044 9.41932 74.8151 9.39001C74.7854 9.39018 74.726 9.39052 74.6963 9.39069C74.4884 9.39189 74.1027 9.48361 73.7169 9.5455L73.1828 9.63808L73.2427 9.72723Z" fill="white"/>
<path d="M81.5028 15.2585C81.5028 15.2585 81.3548 15.3489 81.2657 15.3494C81.1171 15.3502 80.9388 15.3214 80.8191 15.1729C80.6996 15.0543 80.6381 14.6966 80.6381 14.6966C80.6381 14.6966 79.1589 15.7493 77.8815 15.7269C77.436 15.7294 76.9897 15.6127 76.6609 15.2566C76.362 14.9301 76.2409 14.543 76.2384 14.0955C76.2305 12.7232 77.3791 11.0161 78.7741 10.829C78.893 10.8283 78.9821 10.8278 79.0712 10.8273C80.2296 10.8206 80.7406 11.8619 81.0431 12.8148C81.0431 12.8148 81.3654 12.0373 81.3886 10.9035C81.3841 10.1278 81.2301 9.17404 80.7194 8.19248C80.3889 7.53805 79.8531 7.3323 79.3184 7.33538C78.4867 7.34017 77.6878 7.88178 77.6301 8.18045C77.6306 8.26994 77.5714 8.30012 77.4526 8.3008C77.2149 8.30217 76.8576 8.15506 76.8554 7.76724C76.8513 7.05126 78.2137 6.35724 79.4315 6.35023C79.8771 6.34766 80.2638 6.43493 80.5917 6.64188C82.0226 7.52864 82.4483 9.22669 82.4278 10.8378C82.4406 13.0454 81.6212 15.1982 81.5325 15.2583L81.5028 15.2585ZM79.1067 11.8415L79.0176 11.842C77.6525 12.0587 77.1841 13.2547 77.1884 14.0005C77.1901 14.2988 77.2806 14.537 77.3997 14.596C77.5488 14.6846 77.6975 14.7136 77.9054 14.7124C78.9153 14.7066 80.3345 13.5647 80.3345 13.5647C80.3345 13.5647 79.8194 11.8075 79.1363 11.8115L79.1067 11.8415Z" fill="white"/>
<path d="M95.0531 11.0037C95.7841 9.00068 95.7836 8.91118 95.9838 7.56752C96.0695 6.97036 96.1509 5.62738 96.1481 5.15006C96.1411 3.92693 96.1375 3.30045 96.1354 2.94246C95.7199 3.00452 95.3933 3.03624 95.1557 3.0376C94.9181 3.03897 94.7096 2.95067 94.6198 2.83186C94.5 2.65355 94.4991 2.50439 94.4984 2.38506C94.495 1.78841 95.5049 1.78259 96.0391 1.69001C96.0389 1.66018 96.0386 1.60051 96.0384 1.57068C96.1553 1.24184 96.3921 1.09131 96.6297 1.08994C96.8376 1.08874 97.0462 1.20687 97.1362 1.35552L97.1967 1.53417C97.7013 1.4716 98.9473 1.19592 99.7486 1.07197C103.072 0.515813 103.814 0.392204 104.497 0.388268L104.586 0.387754C104.884 0.386043 105.032 0.444852 105.152 0.533665C105.271 0.592645 105.451 0.860111 105.452 1.06894C105.453 1.24793 105.395 1.4571 105.068 1.51865C104.861 1.54968 103.613 1.52704 102.248 1.77357C102.248 1.86307 102.249 1.95256 102.25 2.07189C102.253 2.63871 101.987 2.93858 101.977 6.30982C101.985 7.80144 101.958 8.2491 101.938 9.83039C101.948 11.68 102.199 13.9161 102.381 14.5415C102.559 14.5405 102.737 14.5395 102.915 14.5384C104.668 14.588 105.739 14.8205 106.098 15.1764C106.157 15.2059 106.188 15.3549 106.188 15.4444C106.191 15.8919 105.72 16.7001 105.486 17.2981C105.164 18.0757 104.814 19.2114 104.517 19.2131C104.398 19.1541 104.337 18.9754 104.365 18.7366C104.42 17.8711 104.74 16.7058 104.766 16.1388C104.766 16.0195 104.765 15.9896 104.736 15.96C104.497 15.8122 104.11 15.6652 103.1 15.6114C102.892 15.6126 102.714 15.6136 102.506 15.6148C102.447 15.645 102.358 15.7052 102.269 15.7355C102.12 15.7662 102.032 15.7965 101.913 15.7972C101.735 15.7983 101.526 15.7398 101.437 15.6508C97.5158 15.6734 92.7946 15.9989 90.567 16.0416C90.4511 16.5494 90.3356 17.1169 90.1606 17.6848C89.985 18.1333 89.6929 19.0002 89.337 19.0917C89.3073 19.0919 89.2479 19.0922 89.1885 19.0926C89.1588 19.0927 89.1586 19.0629 89.1581 18.9734C89.1579 18.9436 89.1576 18.8839 89.1574 18.8541C89.1552 18.4662 89.4479 17.7187 89.4438 17.0027C89.4415 16.6149 89.2292 15.8405 89.2271 15.4825C89.2261 15.3035 89.2846 15.154 89.4915 14.9738C89.4913 14.944 89.5506 14.9138 89.6694 14.9131C90.4417 14.9087 91.214 14.9042 92.3722 14.8677C93.4949 13.8171 94.409 12.6483 95.0527 10.9441L95.0531 11.0037ZM94.0059 14.8583C96.4708 14.7546 99.8268 14.6457 101.104 14.6086C101.011 13.9528 100.761 11.836 100.781 10.0757L100.753 5.2727C100.753 5.2727 100.797 2.58743 100.942 2.01976C99.9332 2.17474 98.3608 2.51197 97.3519 2.69678C97.3534 2.96527 97.3551 3.2636 97.3569 3.56192L97.3594 4.00941C97.3637 4.75522 97.2791 5.53138 97.1953 6.4567C96.8916 10.4561 95.7749 12.5509 94.0058 14.8285L94.0059 14.8583Z" fill="white"/>
<path d="M115.573 9.99049C115.585 12.0489 111.357 15.4743 108.832 15.4889L108.713 15.4895C108.238 15.4923 107.852 15.4348 107.524 15.2279C106.541 14.7562 106.149 13.8635 106.143 12.7895C106.13 10.4327 108.191 7.22869 110.028 6.53193C110.265 6.44106 110.473 6.3802 110.681 6.379C111.483 6.37438 112.02 6.81879 112.02 6.81879C114.25 7.25344 115.504 8.23072 115.513 9.87151L115.514 9.99084L115.573 9.99049ZM111.076 7.89823L110.927 7.89909C110.927 7.89909 110.779 7.98944 110.75 8.01944C110.602 8.16946 110.365 8.31999 110.068 8.32171C109.801 8.32325 109.711 8.1746 109.621 8.08561C108.203 9.31696 107.293 11.3509 107.272 12.7532C107.275 13.3797 107.427 13.886 107.844 14.1222C108.172 14.2695 108.499 14.3571 108.855 14.3551C111.172 14.3417 114.394 11.489 114.445 10.0865L114.444 9.96717C114.433 8.02805 111.789 7.89412 111.076 7.89823Z" fill="white"/>
<path d="M126.87 11.6259C126.871 11.8049 121.664 15.4448 118.278 15.4344C117.357 15.4397 116.583 15.1757 116.074 14.5223C115.805 14.1957 115.684 13.7489 115.681 13.3014C115.667 10.885 118.825 7.25692 120.635 6.97798C120.754 6.9773 120.873 6.97661 120.992 6.97593C121.497 6.97302 121.706 7.18065 121.707 7.47897C121.709 7.80713 121.444 8.19649 121.119 8.4072C121.03 8.43755 120.941 8.4679 120.881 8.46824C120.674 8.46944 120.435 8.35148 120.198 8.35285C120.138 8.35319 120.079 8.35353 120.019 8.35387C119.545 8.50577 116.828 11.2661 116.839 13.0859C116.841 13.5334 116.992 13.9502 117.469 14.2458C117.708 14.4234 118.064 14.481 118.451 14.4788C121.065 14.4637 126.066 11.2129 126.273 11.1222C126.333 11.1218 126.392 11.0917 126.451 11.0913C126.689 11.09 126.898 11.3274 126.9 11.5661L126.9 11.6556L126.87 11.6259Z" fill="white"/>
<path d="M133.67 6.00788L134.145 6.00514C134.68 6.00206 135.364 6.08762 135.456 6.62409C135.458 6.95225 135.22 6.98345 134.953 6.98499C134.715 6.98636 134.418 6.9284 134.24 6.92943C132.962 6.93679 131.509 7.21367 130.767 7.36711C130.768 7.60577 130.312 10.9796 130.299 13.7542C130.301 14.1122 130.303 14.4701 130.304 14.7685C130.305 14.858 130.396 15.1558 130.397 15.3944C130.399 15.6629 130.281 15.9023 129.895 15.9045L129.806 15.905C129.182 15.8489 129.088 15.0738 129.086 14.7457C129.081 13.8209 129.074 12.5082 129.329 10.3886C129.469 8.8961 129.555 8.47793 129.669 7.58227C129.669 7.58227 128.66 7.79692 127.89 8.15936C127.535 8.3404 126.825 8.97099 126.439 8.97322C126.082 8.88577 125.784 8.64883 125.782 8.3505C125.782 8.32067 125.782 8.261 125.781 8.23117C125.898 7.90233 125.927 7.753 127.083 7.29883C128.269 6.8445 129.484 6.41983 130.908 6.17295C130.908 6.17295 132.125 5.95711 133.581 5.94872L133.67 6.00788Z" fill="white"/>
<path d="M139.873 15.3697C139.873 15.3697 139.725 15.46 139.636 15.4605C139.487 15.4614 139.308 15.4028 139.189 15.2841C139.069 15.1655 139.008 14.8078 139.008 14.8078C139.008 14.8078 137.529 15.8605 136.251 15.838C135.806 15.8406 135.36 15.7238 135.031 15.3677C134.732 15.0413 134.611 14.6542 134.608 14.2067C134.6 12.8344 135.749 11.0974 137.144 10.9402C137.263 10.9395 137.352 10.939 137.441 10.9385C138.599 10.9318 139.11 11.9731 139.413 12.926C139.413 12.926 139.735 12.1485 139.758 11.0146C139.754 10.239 139.6 9.28522 139.089 8.30366C138.759 7.64922 138.223 7.44348 137.688 7.44656C136.857 7.45135 136.058 7.99296 136 8.29162C136 8.38112 135.941 8.4113 135.822 8.41198C135.585 8.41335 135.228 8.26624 135.225 7.87842C135.221 7.16244 136.584 6.46842 137.801 6.4614C138.247 6.45883 138.634 6.54611 138.962 6.75305C140.392 7.63981 140.818 9.33787 140.798 10.949C140.81 13.1566 139.991 15.3093 139.902 15.3695L139.873 15.3697ZM137.476 11.9228L137.387 11.9233C136.022 12.14 135.554 13.3361 135.558 14.0819C135.56 14.3802 135.65 14.6183 135.769 14.6773C135.918 14.766 136.067 14.7949 136.275 14.7937C137.285 14.7879 138.704 13.6461 138.704 13.6461C138.704 13.6461 138.189 11.8889 137.506 11.8928L137.476 11.9228Z" fill="white"/>
<path d="M147.625 15.2057C146.885 15.6574 146.084 15.9604 145.699 16.1118L145.521 16.2023C145.521 16.2023 145.343 16.2332 145.225 16.2338C145.017 16.235 144.779 16.2066 144.629 15.9091C144.568 15.7901 144.538 15.7306 144.538 15.6113C144.536 15.2235 144.92 14.8931 145.217 14.8616C145.276 14.8612 145.484 14.8302 145.662 14.7993C145.929 14.7679 146.285 14.7361 146.285 14.7361C147.175 14.4326 148.86 13.0804 148.883 11.8273C148.879 11.2604 147.599 10.701 145.49 10.6833C144.985 10.6862 144.005 10.841 143.442 11.0829L143.449 12.3061C143.453 12.8729 143.454 13.0519 143.514 13.2604C143.515 13.3499 143.605 13.4687 143.605 13.588C143.696 13.8858 143.757 14.154 143.758 14.333C143.759 14.5119 143.76 14.6014 143.701 14.751C143.672 14.9301 143.495 15.0206 143.227 15.0222C142.901 15.0241 142.484 14.8475 142.453 14.609C142.453 14.609 142.452 14.5493 142.422 14.4898C142.392 14.311 142.331 14.1622 142.329 13.8042C142.329 13.6849 142.327 13.5059 142.356 13.3565L142.354 13.0284C142.35 12.3422 142.343 11.1191 142.343 11.1191C142.343 11.1191 142.389 8.64265 142.387 8.3145C142.208 8.31552 141.911 8.16807 141.908 7.72059C141.906 7.33276 142.083 7.15274 142.349 6.94237C142.348 6.79321 142.494 6.40453 142.821 6.31315C142.88 6.31281 142.969 6.3123 143.058 6.31178C143.326 6.31024 143.415 6.39923 143.475 6.51822C143.98 6.36614 146.026 5.75768 147.481 5.77913C147.838 5.77708 148.135 5.8052 148.373 5.92316C148.641 6.04095 148.761 6.24909 148.763 6.48775C148.766 6.9949 148.324 7.62395 148.058 7.86415C146.994 8.88462 146.432 9.30553 145.9 9.6666C147.415 9.74736 150.031 10.0903 150.012 11.8804C150.018 13.0737 148.542 14.6336 147.684 15.2053L147.625 15.2057ZM147.458 6.85327C147.458 6.85327 147.428 6.79378 147.368 6.79412C146.358 6.79994 143.778 7.44131 143.483 7.86068C143.365 8.04036 143.369 8.69667 143.342 9.20399C143.345 9.71115 143.346 9.86031 143.346 9.86031C143.346 9.86031 144.501 9.19732 145.329 8.65554C146.483 7.87322 147.429 7.06227 147.428 6.85344L147.458 6.85327Z" fill="white"/>
<path d="M156.032 15.3959C156.032 15.3959 155.884 15.4863 155.795 15.4868C155.647 15.4876 155.468 15.4588 155.348 15.3103C155.229 15.1917 155.167 14.834 155.167 14.834C155.167 14.834 153.688 15.8867 152.411 15.8643C151.965 15.8668 151.519 15.7501 151.19 15.3641C150.891 15.0675 150.77 14.6505 150.768 14.2031C150.76 12.8308 151.908 11.1236 153.303 10.9366C153.422 10.9359 153.511 10.9354 153.6 10.9349C154.729 10.9284 155.27 11.9694 155.572 12.9224C155.572 12.9224 155.895 12.1448 155.918 11.011C155.913 10.2354 155.759 9.28161 155.249 8.30005C154.918 7.64562 154.382 7.43987 153.848 7.44295C153.016 7.44774 152.217 7.98935 152.159 8.28802C152.16 8.37751 152.101 8.40769 151.982 8.37854C151.744 8.37991 151.387 8.2328 151.384 7.84498C151.38 7.129 152.743 6.43498 153.961 6.42796C154.406 6.42539 154.793 6.51267 155.121 6.71961C156.552 7.60637 156.977 9.30443 156.957 10.9156C156.97 13.1232 156.15 15.2759 156.062 15.3361L156.032 15.3959ZM153.636 11.9789L153.547 11.9794C152.182 12.1961 151.713 13.3921 151.718 14.1379C151.719 14.4362 151.81 14.6744 151.929 14.7334C152.078 14.822 152.227 14.851 152.435 14.8498C153.445 14.844 154.864 13.7021 154.864 13.7021C154.864 13.7021 154.349 11.9449 153.666 11.9489L153.636 11.9789Z" fill="white"/>
<path d="M159.791 18.2084C159.464 18.2103 159.223 17.615 159.221 17.2869C159.219 16.9289 159.336 16.6 159.544 16.569C160.168 16.5654 160.318 16.9225 160.32 17.2507L160.321 17.37C160.323 17.728 160.266 18.1759 159.791 18.2383L159.791 18.2084ZM161.177 6.11789C160.98 7.9687 160.431 10.627 160.435 11.343C160.435 11.4027 160.435 11.4624 160.436 11.4922C160.437 11.7308 160.618 12.2966 160.62 12.6546C160.622 12.9828 160.416 13.2823 160.179 13.2837C160.149 13.2838 160.089 13.2842 160.06 13.2844C159.614 13.1974 159.433 12.8405 159.429 12.1245C159.428 11.9753 159.427 11.7963 159.426 11.6173C159.733 8.15488 159.873 6.69223 160.18 3.22978C160.264 2.3343 160.224 0.574352 160.342 0.454337C160.431 0.334494 160.668 0.213795 160.935 0.212254C161.083 0.211399 161.232 0.270208 161.382 0.448347C161.502 0.596825 161.534 0.984476 161.537 1.55129C161.543 2.59543 161.374 4.23724 161.177 6.11789Z" fill="white"/>
</g>
<defs>
<clipPath id="clip0_145_204">
<rect width="161.531" height="19.0036" fill="white" transform="translate(0 0.930702) rotate(-0.330127)"/>
</clipPath>
</defs>
</svg>
